<?xml version="1.0" encoding="UTF-8"?>
<svg id="Layer_2" data-name="Layer 2" xmlns="http://www.w3.org/2000/svg" viewBox="0 0 471.62 199.89">
  <defs>
    <style>
      .cls-1, .cls-2, .cls-3, .cls-4, .cls-5, .cls-6, .cls-7, .cls-8 {
        stroke-miterlimit: 10;
      }

      .cls-1, .cls-2, .cls-3, .cls-5, .cls-6, .cls-7, .cls-8 {
        stroke: #231f20;
      }

      .cls-1, .cls-4 {
        fill: none;
      }

      .cls-2 {
        fill: #84ac97;
      }

      .cls-3 {
        fill: #e8a97b;
      }

      .cls-4 {
        stroke: #010101;
      }

      .cls-9, .cls-6 {
        fill: #73c37b;
      }

      .cls-5 {
        fill: #d37bb2;
      }

      .cls-7 {
        fill: #8ccea9;
      }

      .cls-10 {
        fill: #231f20;
      }

      .cls-8 {
        fill: #939598;
      }

      .cls-11 {
        fill: #010101;
      }
    </style>
  </defs>
  <rect class="cls-2" x="119.51" y="40.25" width="99.76" height="150.68"/>
  <g>
    <line class="cls-4" x1="96.88" y1="75.61" x2="231.86" y2="75.61"/>
    <polygon class="cls-11" points="230.92 78.8 236.45 75.61 230.92 72.42 230.92 78.8"/>
  </g>
  <g>
    <line class="cls-4" x1="96.88" y1="155.71" x2="231.86" y2="155.71"/>
    <polygon class="cls-11" points="230.92 158.9 236.45 155.71 230.92 152.52 230.92 158.9"/>
  </g>
  <g>
    <polyline class="cls-1" points="411.89 102.91 453.37 102.91 453.37 57.77 211.2 57.77"/>
    <polygon class="cls-10" points="212.14 54.58 206.61 57.77 212.14 60.97 212.14 54.58"/>
  </g>
  <g>
    <polyline class="cls-1" points="411.89 129.91 453.37 129.91 453.37 175.04 211.2 175.04"/>
    <polygon class="cls-10" points="212.14 171.85 206.61 175.04 212.14 178.24 212.14 171.85"/>
  </g>
  <rect class="cls-7" x="28.21" y="50.7" width="68.67" height="49.02"/>
  <rect class="cls-3" x="28.21" y="140.39" width="68.67" height="30.64"/>
  <rect class="cls-6" x="134.59" y="50.7" width="69.79" height="49.02"/>
  <rect class="cls-6" x="134.59" y="131.44" width="69.79" height="49.02"/>
  <g>
    <rect class="cls-6" x="237.59" y="72.14" width="6.94" height="6.94"/>
    <rect class="cls-6" x="244.53" y="72.14" width="6.94" height="6.94"/>
    <rect class="cls-6" x="251.47" y="72.14" width="6.94" height="6.94"/>
  </g>
  <g>
    <rect class="cls-6" x="237.59" y="152.48" width="6.94" height="6.94"/>
    <rect class="cls-6" x="244.53" y="152.48" width="6.94" height="6.94"/>
    <rect class="cls-6" x="251.47" y="152.48" width="6.94" height="6.94"/>
  </g>
  <rect class="cls-7" x="295.06" y="115.6" width="50.93" height="25.31"/>
  <rect class="cls-8" x="295.06" y="90.25" width="50.93" height="25.31"/>
  <rect class="cls-7" x="360.97" y="90.25" width="50.93" height="25.31"/>
  <rect class="cls-8" x="360.97" y="115.6" width="50.93" height="25.31"/>
  <rect class="cls-5" x="229.18" y="49.01" width="39.67" height="17.52"/>
  <rect class="cls-5" x="229.18" y="166.37" width="39.67" height="17.52"/>
  <g>
    <line class="cls-9" x1="260.25" y1="155.95" x2="292.32" y2="128.25"/>
    <g>
      <line class="cls-1" x1="260.25" y1="155.95" x2="288.84" y2="131.25"/>
      <polygon class="cls-10" points="290.22 134.28 292.32 128.25 286.05 129.45 290.22 134.28"/>
    </g>
  </g>
  <g>
    <line class="cls-9" x1="260.25" y1="75.61" x2="292.32" y2="102.91"/>
    <g>
      <line class="cls-1" x1="260.25" y1="75.61" x2="288.82" y2="99.93"/>
      <polygon class="cls-10" points="286.04 101.75 292.32 102.91 290.18 96.89 286.04 101.75"/>
    </g>
  </g>
  <rect class="cls-4" x="28.36" y="9.34" width="17.53" height="17.53"/>
  <rect class="cls-4" x="200.21" y="9.34" width="17.53" height="17.53"/>
  <rect class="cls-4" x="372.06" y="9.34" width="17.53" height="17.53"/>
  <g>
    <g>
      <path class="cls-11" d="m44.41,70.33v8.08h-1.05v-8.08h1.05Z"/>
      <path class="cls-11" d="m46.31,74.18c0-.61-.02-1.09-.05-1.57h.92l.06.93h.03c.32-.55.86-1.07,1.83-1.07.79,0,1.39.48,1.63,1.16h.02c.19-.33.41-.58.65-.76.35-.26.73-.41,1.28-.41.77,0,1.92.5,1.92,2.52v3.42h-1.03v-3.28c0-1.12-.41-1.79-1.26-1.79-.6,0-1.07.44-1.25.95-.05.15-.09.34-.09.53v3.59h-1.03v-3.48c0-.92-.41-1.59-1.21-1.59-.66,0-1.14.52-1.31,1.05-.05.15-.08.34-.08.52v3.5h-1.03v-4.23Z"/>
      <path class="cls-11" d="m59.54,78.42l-.09-.73h-.03c-.32.45-.94.86-1.77.86-1.17,0-1.77-.83-1.77-1.66,0-1.41,1.25-2.18,3.49-2.16v-.12c0-.47-.13-1.34-1.32-1.34-.54,0-1.1.16-1.51.43l-.24-.7c.48-.31,1.18-.51,1.91-.51,1.77,0,2.21,1.21,2.21,2.37v2.17c0,.5.02.99.09,1.39h-.95Zm-.16-2.96c-1.14-.02-2.45.18-2.45,1.3,0,.69.46,1.01.98,1.01.76,0,1.25-.48,1.41-.97.04-.11.05-.23.05-.33v-1.01Z"/>
      <path class="cls-11" d="m67.11,72.62c-.03.41-.05.88-.05,1.59v3.37c0,1.34-.27,2.15-.83,2.66-.57.52-1.38.7-2.11.7s-1.47-.16-1.94-.48l.26-.81c.39.24.98.46,1.71.46,1.08,0,1.87-.56,1.87-2.03v-.65h-.02c-.32.54-.95.98-1.84.98-1.45,0-2.47-1.23-2.47-2.84,0-1.97,1.28-3.08,2.62-3.08,1.01,0,1.55.52,1.81,1h.02l.04-.87h.93Zm-1.1,2.28c0-.17-.02-.33-.06-.47-.19-.61-.7-1.12-1.48-1.12-1.01,0-1.73.85-1.73,2.2,0,1.13.59,2.09,1.72,2.09.65,0,1.24-.41,1.47-1.09.06-.17.08-.38.08-.56v-1.05Z"/>
      <path class="cls-11" d="m69.4,75.71c.02,1.43.93,2.01,1.98,2.01.75,0,1.22-.14,1.61-.3l.19.75c-.37.17-1.01.37-1.94.37-1.78,0-2.85-1.19-2.85-2.93s1.04-3.13,2.73-3.13c1.89,0,2.39,1.66,2.39,2.73,0,.22-.01.38-.04.49h-4.07Zm3.09-.76c.01-.67-.27-1.71-1.45-1.71-1.08,0-1.54.97-1.62,1.71h3.07Z"/>
      <path class="cls-11" d="m79.32,71.6h-.02l-1.35.73-.2-.8,1.7-.91h.89v7.8h-1.02v-6.82Z"/>
    </g>
    <g>
      <path class="cls-11" d="m155.69,64.58v8.08h-1.05v-8.08h1.05Z"/>
      <path class="cls-11" d="m157.6,68.43c0-.61-.02-1.09-.05-1.57h.92l.06.93h.03c.32-.55.86-1.07,1.83-1.07.79,0,1.39.48,1.63,1.16h.02c.19-.33.41-.58.65-.76.35-.26.73-.41,1.28-.41.77,0,1.92.5,1.92,2.52v3.42h-1.03v-3.28c0-1.12-.41-1.79-1.26-1.79-.6,0-1.07.44-1.25.95-.05.15-.09.34-.09.53v3.59h-1.03v-3.48c0-.92-.41-1.59-1.21-1.59-.66,0-1.14.52-1.31,1.05-.05.15-.08.34-.08.52v3.5h-1.03v-4.23Z"/>
      <path class="cls-11" d="m170.82,72.67l-.09-.73h-.03c-.32.45-.94.86-1.77.86-1.17,0-1.77-.83-1.77-1.66,0-1.41,1.25-2.18,3.49-2.16v-.12c0-.47-.13-1.34-1.32-1.34-.54,0-1.1.16-1.51.43l-.24-.7c.48-.31,1.18-.51,1.91-.51,1.77,0,2.21,1.21,2.21,2.37v2.17c0,.5.02.99.09,1.39h-.95Zm-.16-2.96c-1.14-.02-2.45.18-2.45,1.3,0,.69.46,1.01.98,1.01.76,0,1.25-.48,1.41-.97.04-.11.05-.23.05-.33v-1.01Z"/>
      <path class="cls-11" d="m178.4,66.87c-.03.41-.05.88-.05,1.59v3.37c0,1.34-.27,2.15-.83,2.66-.57.52-1.38.7-2.11.7s-1.47-.16-1.94-.48l.26-.81c.39.24.98.46,1.71.46,1.08,0,1.87-.56,1.87-2.03v-.65h-.02c-.32.54-.95.98-1.84.98-1.45,0-2.47-1.23-2.47-2.84,0-1.97,1.28-3.08,2.62-3.08,1.01,0,1.55.52,1.81,1h.02l.04-.87h.93Zm-1.1,2.28c0-.17-.02-.33-.06-.47-.19-.61-.7-1.12-1.48-1.12-1.01,0-1.73.85-1.73,2.2,0,1.13.59,2.09,1.72,2.09.65,0,1.24-.41,1.47-1.09.06-.17.08-.38.08-.56v-1.05Z"/>
      <path class="cls-11" d="m180.69,69.96c.02,1.43.93,2.01,1.98,2.01.75,0,1.22-.14,1.61-.3l.19.75c-.37.17-1.01.37-1.94.37-1.78,0-2.85-1.19-2.85-2.93s1.04-3.13,2.73-3.13c1.89,0,2.39,1.66,2.39,2.73,0,.22-.01.38-.04.49h-4.07Zm3.09-.76c.01-.67-.27-1.71-1.45-1.71-1.08,0-1.54.97-1.62,1.71h3.07Z"/>
      <path class="cls-11" d="m153.99,83.28h-3.13v2.92h3.5v.87h-4.55v-8.08h4.37v.87h-3.32v2.56h3.13v.86Z"/>
      <path class="cls-11" d="m155.68,82.83c0-.61-.02-1.09-.05-1.57h.93l.06.95h.03c.29-.54.96-1.08,1.92-1.08.8,0,2.04.48,2.04,2.47v3.46h-1.05v-3.34c0-.94-.35-1.72-1.34-1.72-.69,0-1.23.49-1.42,1.08-.04.13-.07.32-.07.49v3.5h-1.05v-4.23Z"/>
      <path class="cls-11" d="m166.47,86.86c-.28.14-.88.34-1.66.34-1.75,0-2.89-1.19-2.89-2.96s1.22-3.09,3.12-3.09c.62,0,1.18.16,1.47.31l-.23.81c-.26-.14-.65-.28-1.23-.28-1.32,0-2.05.99-2.05,2.2,0,1.34.86,2.17,2.02,2.17.59,0,.99-.15,1.29-.28l.18.79Z"/>
      <path class="cls-11" d="m172.89,84.11c0,2.15-1.49,3.09-2.88,3.09-1.57,0-2.79-1.15-2.79-2.99,0-1.94,1.28-3.08,2.88-3.08s2.79,1.21,2.79,2.98Zm-4.6.07c0,1.27.73,2.23,1.76,2.23s1.77-.95,1.77-2.26c0-.98-.49-2.22-1.75-2.22s-1.78,1.15-1.78,2.25Z"/>
      <path class="cls-11" d="m179.25,78.55v7.02c0,.52.02,1.1.05,1.5h-.94l-.05-1h-.03c-.32.65-1.02,1.13-1.97,1.13-1.41,0-2.49-1.19-2.49-2.95,0-1.94,1.19-3.12,2.61-3.12.89,0,1.49.42,1.75.88h.02v-3.46h1.05Zm-1.05,5.07c0-.14-.01-.31-.04-.45-.16-.67-.73-1.21-1.53-1.21-1.09,0-1.75.96-1.75,2.23,0,1.18.59,2.16,1.72,2.16.71,0,1.35-.48,1.54-1.27.04-.14.05-.29.05-.45v-1.01Z"/>
      <path class="cls-11" d="m181.6,84.36c.02,1.43.93,2.01,1.98,2.01.75,0,1.22-.13,1.61-.3l.19.75c-.37.17-1.01.37-1.94.37-1.78,0-2.85-1.19-2.85-2.93s1.04-3.13,2.73-3.13c1.89,0,2.39,1.66,2.39,2.73,0,.22-.01.38-.04.49h-4.07Zm3.09-.76c.01-.66-.27-1.71-1.45-1.71-1.08,0-1.54.97-1.62,1.71h3.07Z"/>
      <path class="cls-11" d="m187.02,83.07c0-.68-.02-1.27-.05-1.81h.92l.04,1.14h.04c.27-.78.91-1.27,1.62-1.27.11,0,.2,0,.29.03v.99c-.11-.02-.21-.03-.36-.03-.74,0-1.27.56-1.41,1.35-.03.15-.04.32-.04.49v3.1h-1.05v-3.99Z"/>
    </g>
    <g>
      <path class="cls-11" d="m164.38,119.41c-.33.16-1.09.35-2.07.35-2.8,0-4.24-1.75-4.24-4.05,0-2.76,1.98-4.28,4.42-4.28.95,0,1.67.19,1.99.36l-.37,1.45c-.36-.16-.88-.3-1.54-.3-1.44,0-2.57.88-2.57,2.68,0,1.62.96,2.64,2.58,2.64.56,0,1.17-.11,1.53-.26l.27,1.43Z"/>
      <path class="cls-11" d="m165.59,111.54h1.83v6.55h3.22v1.53h-5.04v-8.08Z"/>
      <path class="cls-11" d="m173.55,111.54v8.08h-1.83v-8.08h1.83Z"/>
      <path class="cls-11" d="m175.14,111.65c.56-.09,1.35-.17,2.47-.17s1.93.22,2.47.65c.52.4.86,1.08.86,1.87s-.26,1.47-.74,1.91c-.62.59-1.56.86-2.62.86-.24,0-.46-.02-.62-.04v2.89h-1.81v-7.98Zm1.81,3.67c.15.03.34.05.61.05.97,0,1.57-.49,1.57-1.31,0-.74-.51-1.19-1.43-1.19-.36,0-.61.03-.75.06v2.39Z"/>
    </g>
    <g>
      <path class="cls-11" d="m161.55,144.99h-2.46v-.88h5.99v.88h-2.47v7.2h-1.05v-7.2Z"/>
      <path class="cls-11" d="m165.68,149.48c.02,1.43.93,2.01,1.98,2.01.75,0,1.22-.14,1.61-.3l.18.75c-.37.17-1.01.37-1.94.37-1.78,0-2.85-1.19-2.85-2.93s1.04-3.13,2.73-3.13c1.89,0,2.39,1.66,2.39,2.73,0,.22-.01.38-.04.49h-4.07Zm3.09-.76c.01-.67-.27-1.71-1.46-1.71-1.08,0-1.54.97-1.62,1.71h3.07Z"/>
      <path class="cls-11" d="m171.55,146.39l.83,1.24c.22.33.4.62.59.94h.03c.19-.34.39-.64.59-.96l.81-1.23h1.15l-1.98,2.8,2.03,3h-1.19l-.86-1.3c-.22-.34-.42-.66-.62-1.01h-.03c-.19.35-.39.66-.61,1.01l-.83,1.3h-1.17l2.06-2.96-1.97-2.84h1.17Z"/>
      <path class="cls-11" d="m178.04,144.72v1.67h1.52v.8h-1.52v3.13c0,.72.21,1.13.8,1.13.27,0,.47-.03.61-.08l.05.8c-.21.08-.53.15-.94.15-.48,0-.89-.16-1.14-.45-.29-.32-.41-.83-.41-1.51v-3.17h-.9v-.8h.9v-1.4l1.03-.27Z"/>
      <path class="cls-11" d="m153.99,162.8h-3.13v2.92h3.5v.87h-4.55v-8.08h4.37v.87h-3.32v2.56h3.13v.86Z"/>
      <path class="cls-11" d="m155.68,162.36c0-.61-.02-1.09-.05-1.57h.93l.06.95h.03c.29-.54.96-1.08,1.92-1.08.8,0,2.04.48,2.04,2.47v3.46h-1.05v-3.34c0-.94-.35-1.72-1.34-1.72-.69,0-1.23.49-1.42,1.08-.04.13-.07.32-.07.49v3.5h-1.05v-4.23Z"/>
      <path class="cls-11" d="m166.47,166.38c-.28.14-.88.34-1.66.34-1.75,0-2.89-1.19-2.89-2.96s1.22-3.09,3.12-3.09c.62,0,1.18.16,1.47.31l-.23.81c-.26-.14-.65-.28-1.23-.28-1.32,0-2.05.99-2.05,2.2,0,1.34.86,2.17,2.02,2.17.59,0,.99-.15,1.29-.28l.18.79Z"/>
      <path class="cls-11" d="m172.89,163.63c0,2.15-1.49,3.09-2.88,3.09-1.57,0-2.79-1.15-2.79-2.99,0-1.94,1.28-3.08,2.88-3.08s2.79,1.21,2.79,2.98Zm-4.6.07c0,1.27.73,2.23,1.76,2.23s1.77-.95,1.77-2.26c0-.98-.49-2.22-1.75-2.22s-1.78,1.15-1.78,2.25Z"/>
      <path class="cls-11" d="m179.25,158.07v7.02c0,.52.02,1.1.05,1.5h-.94l-.05-1h-.03c-.32.65-1.02,1.13-1.97,1.13-1.41,0-2.49-1.19-2.49-2.95,0-1.94,1.19-3.12,2.61-3.12.89,0,1.49.42,1.75.88h.02v-3.46h1.05Zm-1.05,5.07c0-.14-.01-.31-.04-.45-.16-.67-.73-1.21-1.53-1.21-1.09,0-1.75.96-1.75,2.23,0,1.18.59,2.16,1.72,2.16.71,0,1.35-.48,1.54-1.27.04-.14.05-.29.05-.45v-1.01Z"/>
      <path class="cls-11" d="m181.6,163.88c.02,1.43.93,2.01,1.98,2.01.75,0,1.22-.13,1.61-.3l.19.75c-.37.17-1.01.37-1.94.37-1.78,0-2.85-1.19-2.85-2.93s1.04-3.13,2.73-3.13c1.89,0,2.39,1.66,2.39,2.73,0,.22-.01.38-.04.49h-4.07Zm3.09-.76c.01-.66-.27-1.71-1.45-1.71-1.08,0-1.54.97-1.62,1.71h3.07Z"/>
      <path class="cls-11" d="m187.02,162.6c0-.68-.02-1.27-.05-1.81h.92l.04,1.14h.04c.27-.78.91-1.27,1.62-1.27.11,0,.2,0,.29.03v.99c-.11-.02-.21-.03-.36-.03-.74,0-1.27.56-1.41,1.35-.03.15-.04.32-.04.49v3.1h-1.05v-3.99Z"/>
    </g>
    <g>
      <path class="cls-11" d="m45,157.81c-.38.19-1.15.39-2.14.39-2.28,0-3.98-1.44-3.98-4.09s1.71-4.24,4.22-4.24c1,0,1.64.21,1.92.36l-.26.85c-.39-.19-.95-.33-1.63-.33-1.9,0-3.15,1.21-3.15,3.34,0,1.98,1.14,3.24,3.1,3.24.64,0,1.29-.13,1.71-.33l.21.83Z"/>
      <path class="cls-11" d="m49.41,158.07l-.09-.73h-.03c-.32.45-.94.86-1.77.86-1.17,0-1.77-.83-1.77-1.66,0-1.41,1.25-2.18,3.49-2.16v-.12c0-.47-.13-1.34-1.32-1.34-.54,0-1.1.16-1.51.43l-.24-.7c.48-.31,1.18-.51,1.91-.51,1.77,0,2.21,1.21,2.21,2.37v2.17c0,.5.02.99.09,1.39h-.95Zm-.16-2.96c-1.14-.02-2.45.18-2.45,1.3,0,.69.46,1.01.98,1.01.76,0,1.25-.48,1.41-.97.04-.11.05-.23.05-.33v-1.01Z"/>
      <path class="cls-11" d="m51.98,154.16c0-.74-.02-1.34-.05-1.89h.94l.06.99h.02c.42-.71,1.12-1.12,2.06-1.12,1.4,0,2.46,1.18,2.46,2.94,0,2.09-1.28,3.12-2.64,3.12-.78,0-1.44-.34-1.79-.91h-.02v3.16h-1.05v-6.29Zm1.05,1.55c0,.15.02.29.05.43.19.74.83,1.24,1.58,1.24,1.12,0,1.76-.92,1.76-2.25,0-1.16-.61-2.15-1.72-2.15-.72,0-1.4.51-1.6,1.3-.03.14-.07.29-.07.43v1Z"/>
      <path class="cls-11" d="m60.07,150.6v1.67h1.52v.8h-1.52v3.13c0,.72.21,1.13.8,1.13.27,0,.47-.03.61-.08l.05.8c-.21.08-.53.15-.94.15-.48,0-.89-.16-1.14-.45-.29-.32-.41-.83-.41-1.51v-3.17h-.9v-.8h.9v-1.4l1.03-.27Z"/>
      <path class="cls-11" d="m63.96,150.63c0,.36-.25.66-.67.66-.38,0-.64-.3-.64-.66,0-.36.27-.66.66-.66s.65.29.65.66Zm-1.18,7.44v-5.8h1.05v5.8h-1.05Z"/>
      <path class="cls-11" d="m70.84,155.11c0,2.15-1.49,3.09-2.88,3.09-1.57,0-2.79-1.15-2.79-2.99,0-1.94,1.28-3.08,2.88-3.08s2.79,1.21,2.79,2.98Zm-4.6.07c0,1.27.73,2.23,1.76,2.23s1.77-.95,1.77-2.26c0-.98-.49-2.22-1.75-2.22s-1.78,1.15-1.78,2.25Z"/>
      <path class="cls-11" d="m72.17,153.83c0-.61-.02-1.09-.05-1.57h.93l.06.95h.03c.29-.54.96-1.09,1.92-1.09.8,0,2.04.48,2.04,2.47v3.46h-1.05v-3.34c0-.94-.35-1.72-1.34-1.72-.69,0-1.23.49-1.42,1.08-.04.13-.07.32-.07.49v3.5h-1.05v-4.23Z"/>
      <path class="cls-11" d="m83.33,151.25h-.02l-1.35.73-.2-.8,1.7-.91h.89v7.8h-1.02v-6.82Z"/>
    </g>
    <g>
      <path class="cls-11" d="m242.12,52.26v4.04h-.52v-4.04h.52Z"/>
      <path class="cls-11" d="m243.07,54.19c0-.3,0-.54-.02-.78h.46l.03.47h.01c.16-.28.43-.53.92-.53.39,0,.69.24.82.58h.01c.09-.17.21-.29.33-.38.17-.13.36-.2.64-.2.39,0,.96.25.96,1.26v1.71h-.51v-1.64c0-.56-.21-.89-.63-.89-.3,0-.53.22-.63.47-.03.08-.04.17-.04.26v1.8h-.51v-1.74c0-.46-.2-.79-.6-.79-.33,0-.57.26-.66.53-.03.08-.04.17-.04.26v1.75h-.52v-2.12Z"/>
      <path class="cls-11" d="m249.68,56.31l-.05-.37h-.02c-.16.23-.47.43-.89.43-.59,0-.89-.42-.89-.83,0-.7.62-1.09,1.74-1.08v-.06c0-.24-.07-.67-.66-.67-.27,0-.55.08-.75.22l-.12-.35c.24-.15.59-.25.96-.25.89,0,1.1.61,1.1,1.19v1.08c0,.25.01.49.04.69h-.48Zm-.08-1.48c-.57-.01-1.22.09-1.22.65,0,.35.23.5.49.5.38,0,.62-.24.71-.49.02-.06.03-.12.03-.17v-.5Z"/>
      <path class="cls-11" d="m253.47,53.41c-.01.2-.02.44-.02.79v1.68c0,.67-.14,1.07-.41,1.33-.29.26-.69.35-1.06.35s-.73-.08-.97-.24l.13-.41c.19.12.49.23.85.23.54,0,.93-.28.93-1.02v-.32h-.01c-.16.27-.47.49-.92.49-.72,0-1.24-.62-1.24-1.42,0-.98.64-1.54,1.31-1.54.5,0,.78.26.9.5h.01l.02-.43h.47Zm-.55,1.14c0-.09,0-.17-.03-.24-.1-.31-.35-.56-.74-.56-.5,0-.86.43-.86,1.1,0,.57.29,1.04.86,1.04.33,0,.62-.21.73-.54.03-.08.04-.19.04-.28v-.52Z"/>
      <path class="cls-11" d="m254.62,54.95c0,.71.46,1.01.99,1.01.38,0,.61-.07.8-.15l.09.37c-.18.08-.51.19-.97.19-.89,0-1.43-.59-1.43-1.46s.52-1.56,1.36-1.56c.95,0,1.19.83,1.19,1.36,0,.11,0,.19-.02.25h-2.03Zm1.54-.38c0-.33-.14-.85-.73-.85-.54,0-.77.49-.81.85h1.54Z"/>
      <path class="cls-11" d="m235.1,62.15c.01.71.46,1.01.99,1.01.38,0,.61-.07.8-.15l.09.37c-.18.08-.51.18-.97.18-.89,0-1.43-.59-1.43-1.46s.52-1.57,1.36-1.57c.95,0,1.19.83,1.19,1.36,0,.11,0,.19-.02.25h-2.03Zm1.54-.38c0-.33-.14-.85-.73-.85-.54,0-.77.49-.81.85h1.54Z"/>
      <path class="cls-11" d="m237.81,61.39c0-.3,0-.54-.02-.78h.46l.03.47h.01c.16-.28.43-.53.92-.53.39,0,.69.24.82.58h.01c.09-.17.21-.29.33-.38.18-.13.36-.2.64-.2.39,0,.96.25.96,1.26v1.71h-.51v-1.64c0-.56-.21-.89-.63-.89-.3,0-.53.22-.63.47-.03.08-.04.17-.04.26v1.8h-.52v-1.74c0-.46-.2-.79-.6-.79-.33,0-.57.26-.66.53-.03.08-.04.17-.04.26v1.75h-.52v-2.12Z"/>
      <path class="cls-11" d="m242.79,63.51c.01-.2.02-.49.02-.75v-3.51h.52v1.82h.01c.19-.33.52-.53.99-.53.72,0,1.23.6,1.22,1.48,0,1.04-.66,1.56-1.31,1.56-.42,0-.75-.17-.97-.54h-.01l-.03.48h-.46Zm.55-1.16c0,.06,0,.13.02.19.1.37.41.62.79.62.55,0,.88-.45.88-1.11,0-.58-.3-1.08-.87-1.08-.36,0-.69.25-.8.65-.02.06-.03.14-.03.22v.52Z"/>
      <path class="cls-11" d="m246.53,62.15c.01.71.46,1.01.99,1.01.38,0,.61-.07.8-.15l.09.37c-.18.08-.51.18-.97.18-.89,0-1.43-.59-1.43-1.46s.52-1.57,1.36-1.57c.95,0,1.19.83,1.19,1.36,0,.11,0,.19-.02.25h-2.03Zm1.54-.38c0-.33-.14-.85-.73-.85-.54,0-.77.49-.81.85h1.54Z"/>
      <path class="cls-11" d="m251.74,59.25v3.51c0,.26,0,.55.02.75h-.47l-.03-.5h-.01c-.16.32-.51.57-.98.57-.7,0-1.24-.59-1.24-1.47,0-.97.6-1.56,1.3-1.56.45,0,.75.21.88.44h.01v-1.73h.52Zm-.52,2.54c0-.07,0-.16-.02-.23-.08-.33-.37-.61-.76-.61-.55,0-.87.48-.87,1.12,0,.59.29,1.08.86,1.08.35,0,.67-.24.77-.63.02-.07.03-.14.03-.23v-.5Z"/>
      <path class="cls-11" d="m255.13,59.25v3.51c0,.26,0,.55.02.75h-.47l-.03-.5h-.01c-.16.32-.51.57-.98.57-.7,0-1.24-.59-1.24-1.47,0-.97.6-1.56,1.3-1.56.45,0,.75.21.88.44h.01v-1.73h.52Zm-.52,2.54c0-.07,0-.16-.02-.23-.08-.33-.37-.61-.76-.61-.55,0-.87.48-.87,1.12,0,.59.29,1.08.86,1.08.35,0,.67-.24.77-.63.02-.07.03-.14.03-.23v-.5Z"/>
      <path class="cls-11" d="m256.6,59.79c0,.18-.12.33-.33.33-.19,0-.32-.15-.32-.33,0-.18.13-.33.33-.33s.32.14.33.33Zm-.59,3.72v-2.9h.52v2.9h-.52Z"/>
      <path class="cls-11" d="m257.41,61.39c0-.3,0-.54-.02-.78h.47l.03.48h.01c.14-.27.48-.54.96-.54.4,0,1.02.24,1.02,1.24v1.73h-.52v-1.67c0-.47-.18-.86-.67-.86-.35,0-.62.25-.71.54-.02.06-.04.16-.04.24v1.75h-.53v-2.12Z"/>
      <path class="cls-11" d="m263.25,60.61c-.01.2-.02.44-.02.79v1.68c0,.67-.14,1.07-.41,1.33-.29.26-.69.35-1.06.35s-.73-.08-.97-.24l.13-.41c.19.12.49.23.85.23.54,0,.93-.28.93-1.02v-.32h-.01c-.16.27-.47.49-.92.49-.72,0-1.24-.62-1.24-1.42,0-.98.64-1.54,1.31-1.54.5,0,.78.26.91.5h.01l.02-.43h.46Zm-.55,1.14c0-.09,0-.17-.03-.24-.1-.31-.35-.56-.74-.56-.5,0-.86.43-.86,1.1,0,.57.29,1.04.86,1.04.33,0,.62-.21.73-.54.03-.08.04-.19.04-.28v-.52Z"/>
    </g>
    <g>
      <path class="cls-11" d="m245.05,170.06h-1.23v-.44h2.99v.44h-1.24v3.6h-.52v-3.6Z"/>
      <path class="cls-11" d="m247.11,172.3c0,.71.46,1.01.99,1.01.38,0,.61-.07.8-.15l.09.37c-.18.08-.51.19-.97.19-.89,0-1.43-.59-1.43-1.46s.52-1.56,1.36-1.56c.95,0,1.19.83,1.19,1.36,0,.11,0,.19-.02.25h-2.03Zm1.54-.38c0-.33-.14-.85-.73-.85-.54,0-.77.49-.81.85h1.54Z"/>
      <path class="cls-11" d="m250.05,170.76l.42.62c.11.16.2.31.29.47h.01c.1-.17.19-.32.29-.48l.4-.62h.57l-.99,1.4,1.02,1.5h-.6l-.43-.65c-.11-.17-.21-.33-.31-.51h-.01c-.1.18-.19.33-.31.51l-.42.65h-.58l1.03-1.48-.99-1.42h.59Z"/>
      <path class="cls-11" d="m253.29,169.92v.83h.76v.4h-.76v1.56c0,.36.1.57.4.57.14,0,.24-.02.31-.04l.02.4c-.1.04-.27.07-.47.07-.24,0-.44-.08-.57-.22-.15-.16-.21-.42-.21-.76v-1.58h-.45v-.4h.45v-.7l.52-.14Z"/>
      <path class="cls-11" d="m235.1,179.5c.01.71.46,1.01.99,1.01.38,0,.61-.07.8-.15l.09.37c-.18.08-.51.18-.97.18-.89,0-1.43-.59-1.43-1.46s.52-1.57,1.36-1.57c.95,0,1.19.83,1.19,1.36,0,.11,0,.19-.02.25h-2.03Zm1.54-.38c0-.33-.14-.85-.73-.85-.54,0-.77.49-.81.85h1.54Z"/>
      <path class="cls-11" d="m237.81,178.74c0-.3,0-.54-.02-.78h.46l.03.47h.01c.16-.28.43-.53.92-.53.39,0,.69.24.82.58h.01c.09-.17.21-.29.33-.38.18-.13.36-.2.64-.2.39,0,.96.25.96,1.26v1.71h-.51v-1.64c0-.56-.21-.89-.63-.89-.3,0-.53.22-.63.47-.03.08-.04.17-.04.26v1.8h-.52v-1.74c0-.46-.2-.79-.6-.79-.33,0-.57.26-.66.53-.03.08-.04.17-.04.26v1.75h-.52v-2.12Z"/>
      <path class="cls-11" d="m242.79,180.86c.01-.2.02-.49.02-.75v-3.51h.52v1.82h.01c.19-.33.52-.53.99-.53.72,0,1.23.6,1.22,1.48,0,1.04-.66,1.56-1.31,1.56-.42,0-.75-.17-.97-.54h-.01l-.03.48h-.46Zm.55-1.16c0,.06,0,.13.02.19.1.37.41.62.79.62.55,0,.88-.45.88-1.11,0-.58-.3-1.08-.87-1.08-.36,0-.69.25-.8.65-.02.06-.03.14-.03.22v.52Z"/>
      <path class="cls-11" d="m246.53,179.5c.01.71.46,1.01.99,1.01.38,0,.61-.07.8-.15l.09.37c-.18.08-.51.18-.97.18-.89,0-1.43-.59-1.43-1.46s.52-1.57,1.36-1.57c.95,0,1.19.83,1.19,1.36,0,.11,0,.19-.02.25h-2.03Zm1.54-.38c0-.33-.14-.85-.73-.85-.54,0-.77.49-.81.85h1.54Z"/>
      <path class="cls-11" d="m251.74,176.6v3.51c0,.26,0,.55.02.75h-.47l-.03-.5h-.01c-.16.32-.51.57-.98.57-.7,0-1.24-.59-1.24-1.47,0-.97.6-1.56,1.3-1.56.45,0,.75.21.88.44h.01v-1.73h.52Zm-.52,2.54c0-.07,0-.16-.02-.23-.08-.33-.37-.61-.76-.61-.55,0-.87.48-.87,1.12,0,.59.29,1.08.86,1.08.35,0,.67-.24.77-.63.02-.07.03-.14.03-.23v-.5Z"/>
      <path class="cls-11" d="m255.13,176.6v3.51c0,.26,0,.55.02.75h-.47l-.03-.5h-.01c-.16.32-.51.57-.98.57-.7,0-1.24-.59-1.24-1.47,0-.97.6-1.56,1.3-1.56.45,0,.75.21.88.44h.01v-1.73h.52Zm-.52,2.54c0-.07,0-.16-.02-.23-.08-.33-.37-.61-.76-.61-.55,0-.87.48-.87,1.12,0,.59.29,1.08.86,1.08.35,0,.67-.24.77-.63.02-.07.03-.14.03-.23v-.5Z"/>
      <path class="cls-11" d="m256.6,177.14c0,.18-.12.33-.33.33-.19,0-.32-.15-.32-.33,0-.18.13-.33.33-.33s.32.14.33.33Zm-.59,3.72v-2.9h.52v2.9h-.52Z"/>
      <path class="cls-11" d="m257.41,178.74c0-.3,0-.54-.02-.78h.47l.03.48h.01c.14-.27.48-.54.96-.54.4,0,1.02.24,1.02,1.24v1.73h-.52v-1.67c0-.47-.18-.86-.67-.86-.35,0-.62.25-.71.54-.02.06-.04.16-.04.24v1.75h-.53v-2.12Z"/>
      <path class="cls-11" d="m263.25,177.96c-.01.2-.02.44-.02.79v1.68c0,.67-.14,1.07-.41,1.33-.29.26-.69.35-1.06.35s-.73-.08-.97-.24l.13-.41c.19.12.49.23.85.23.54,0,.93-.28.93-1.02v-.32h-.01c-.16.27-.47.49-.92.49-.72,0-1.24-.62-1.24-1.42,0-.98.64-1.54,1.31-1.54.5,0,.78.26.91.5h.01l.02-.43h.46Zm-.55,1.14c0-.09,0-.17-.03-.24-.1-.31-.35-.56-.74-.56-.5,0-.86.43-.86,1.1,0,.57.29,1.04.86,1.04.33,0,.62-.21.73-.54.03-.08.04-.19.04-.28v-.52Z"/>
    </g>
    <g>
      <path class="cls-11" d="m320.28,95.55h-.02l-1.35.73-.2-.8,1.7-.91h.89v7.8h-1.02v-6.82Z"/>
      <path class="cls-11" d="m309,106.41c-.58.79-1,1.82-1,3.28s.44,2.44,1,3.24h-.55c-.51-.66-1.05-1.69-1.05-3.25,0-1.57.54-2.6,1.05-3.27h.55Z"/>
      <path class="cls-11" d="m309.68,111.12c.31.2.76.35,1.24.35.71,0,1.13-.37,1.13-.92,0-.5-.29-.79-1.02-1.07-.88-.31-1.43-.78-1.43-1.53,0-.84.7-1.46,1.75-1.46.55,0,.95.13,1.19.26l-.19.57c-.17-.1-.53-.26-1.02-.26-.74,0-1.02.44-1.02.81,0,.5.33.75,1.07,1.03.91.36,1.37.8,1.37,1.59s-.61,1.55-1.89,1.55c-.52,0-1.09-.16-1.38-.35l.18-.58Z"/>
      <path class="cls-11" d="m314.47,107.01c0,.24-.17.44-.45.44-.25,0-.43-.2-.42-.44,0-.24.18-.44.44-.44s.43.19.43.44Zm-.79,4.96v-3.87h.7v3.87h-.7Z"/>
      <path class="cls-11" d="m315.56,109.14c0-.4-.01-.72-.03-1.04h.61l.04.62h.02c.22-.37.58-.71,1.22-.71.52,0,.92.32,1.09.78h.02c.12-.22.28-.39.44-.5.23-.18.49-.27.85-.27.52,0,1.28.33,1.28,1.68v2.28h-.69v-2.19c0-.75-.28-1.19-.84-1.19-.4,0-.71.29-.84.63-.03.1-.06.23-.06.35v2.39h-.69v-2.32c0-.62-.27-1.06-.8-1.06-.44,0-.76.35-.88.7-.04.1-.05.23-.05.35v2.33h-.69v-2.82Z"/>
      <path class="cls-11" d="m323.02,107.01c0,.24-.17.44-.45.44-.25,0-.43-.2-.42-.44,0-.24.18-.44.44-.44s.43.19.43.44Zm-.79,4.96v-3.87h.7v3.87h-.7Z"/>
      <path class="cls-11" d="m324.1,106.29h.7v5.68h-.7v-5.68Z"/>
      <path class="cls-11" d="m328.14,111.97l-.06-.49h-.02c-.21.3-.63.58-1.18.58-.78,0-1.18-.55-1.18-1.11,0-.94.83-1.45,2.32-1.44v-.08c0-.31-.09-.9-.88-.89-.36,0-.74.11-1.01.29l-.16-.47c.32-.21.79-.34,1.28-.34,1.18,0,1.47.81,1.47,1.58v1.45c0,.33.02.66.06.93h-.63Zm-.11-1.97c-.76-.02-1.63.12-1.63.87,0,.46.3.67.66.67.51,0,.83-.32.94-.65.02-.08.03-.15.03-.22v-.67Z"/>
      <path class="cls-11" d="m329.85,109.3c0-.46-.01-.85-.03-1.21h.62l.03.76h.03c.18-.52.61-.85,1.08-.85.08,0,.13,0,.2.02v.66c-.07-.01-.14-.02-.24-.02-.5,0-.85.37-.94.9-.02.1-.03.21-.03.33v2.07h-.7v-2.66Z"/>
      <path class="cls-11" d="m332.04,112.93c.57-.79,1-1.83,1-3.26s-.43-2.45-1-3.25h.55c.51.66,1.05,1.68,1.05,3.26,0,1.57-.54,2.58-1.05,3.26h-.55Z"/>
    </g>
    <g>
      <path class="cls-11" d="m323.17,123.73c0,2.65-.99,4.11-2.71,4.11-1.52,0-2.56-1.43-2.58-4,0-2.62,1.13-4.06,2.71-4.06s2.58,1.47,2.58,3.95Zm-4.23.11c0,2.03.62,3.18,1.58,3.18,1.08,0,1.59-1.26,1.59-3.24s-.49-3.18-1.58-3.18c-.92,0-1.59,1.13-1.59,3.24Z"/>
      <path class="cls-11" d="m302.4,131.76c-.58.79-1,1.82-1,3.28s.44,2.44,1,3.24h-.55c-.51-.66-1.05-1.69-1.05-3.25,0-1.57.54-2.6,1.05-3.27h.55Z"/>
      <path class="cls-11" d="m303.17,137.31v-5.39h.77l1.73,2.72c.39.63.71,1.2.96,1.75h.02c-.06-.73-.08-1.39-.08-2.22v-2.26h.66v5.39h-.71l-1.71-2.73c-.37-.6-.73-1.22-1-1.8h-.02c.04.69.05,1.34.05,2.23v2.3h-.66Z"/>
      <path class="cls-11" d="m311.89,135.34c0,1.43-.99,2.06-1.92,2.06-1.05,0-1.86-.76-1.86-1.99,0-1.29.85-2.05,1.92-2.05s1.86.81,1.86,1.98Zm-3.07.04c0,.85.49,1.49,1.17,1.49s1.18-.63,1.18-1.51c0-.65-.33-1.48-1.17-1.48s-1.18.77-1.18,1.5Z"/>
      <path class="cls-11" d="m313.63,132.33v1.11h1.01v.53h-1.01v2.08c0,.48.14.75.53.75.18,0,.32-.02.41-.05l.03.53c-.14.05-.35.1-.63.1-.32,0-.59-.11-.76-.3-.19-.21-.27-.55-.27-1.01v-2.11h-.6v-.53h.6v-.93l.69-.18Z"/>
      <path class="cls-11" d="m317.03,136.59c.21.13.58.28.93.28.51,0,.75-.25.75-.58s-.2-.51-.72-.71c-.7-.25-1.03-.63-1.03-1.1,0-.62.51-1.13,1.34-1.13.39,0,.73.11.95.24l-.17.51c-.15-.09-.43-.23-.79-.23-.41,0-.64.24-.64.53,0,.32.23.46.73.66.67.25,1.01.58,1.01,1.16,0,.69-.53,1.17-1.45,1.17-.42,0-.81-.11-1.09-.27l.17-.53Z"/>
      <path class="cls-11" d="m321.08,132.35c0,.24-.17.44-.45.44-.25,0-.43-.2-.42-.44,0-.24.18-.44.44-.44s.43.19.43.44Zm-.79,4.96v-3.87h.7v3.87h-.7Z"/>
      <path class="cls-11" d="m322.17,134.49c0-.4-.01-.72-.03-1.04h.61l.04.62h.02c.22-.37.58-.71,1.22-.71.52,0,.92.32,1.09.78h.02c.12-.22.28-.39.44-.5.23-.18.49-.27.85-.27.52,0,1.28.33,1.28,1.68v2.28h-.69v-2.19c0-.75-.28-1.19-.84-1.19-.4,0-.71.29-.84.63-.03.1-.06.23-.06.35v2.39h-.69v-2.32c0-.62-.27-1.06-.8-1.06-.44,0-.76.35-.88.7-.04.1-.05.23-.05.35v2.33h-.69v-2.82Z"/>
      <path class="cls-11" d="m329.63,132.35c0,.24-.17.44-.45.44-.25,0-.43-.2-.42-.44,0-.24.18-.44.44-.44s.43.19.43.44Zm-.79,4.96v-3.87h.7v3.87h-.7Z"/>
      <path class="cls-11" d="m330.71,131.63h.7v5.68h-.7v-5.68Z"/>
      <path class="cls-11" d="m334.74,137.31l-.06-.49h-.02c-.21.3-.63.58-1.18.58-.78,0-1.18-.55-1.18-1.11,0-.94.83-1.45,2.32-1.44v-.08c0-.31-.09-.9-.88-.89-.36,0-.74.11-1.01.29l-.16-.47c.32-.21.79-.34,1.28-.34,1.18,0,1.47.81,1.47,1.58v1.45c0,.33.01.66.06.93h-.63Zm-.11-1.97c-.76-.02-1.63.12-1.63.87,0,.46.3.67.66.67.51,0,.83-.32.94-.65.02-.08.03-.15.03-.22v-.67Z"/>
      <path class="cls-11" d="m336.46,134.65c0-.46-.01-.85-.03-1.21h.62l.03.76h.02c.18-.52.61-.85,1.08-.85.08,0,.13,0,.2.02v.66c-.07-.01-.14-.02-.24-.02-.5,0-.85.37-.94.9-.02.1-.03.21-.03.33v2.07h-.7v-2.66Z"/>
      <path class="cls-11" d="m338.65,138.27c.57-.79,1-1.83,1-3.26s-.43-2.45-1-3.25h.55c.51.66,1.05,1.68,1.05,3.26,0,1.57-.54,2.58-1.05,3.26h-.55Z"/>
    </g>
    <g>
      <path class="cls-11" d="m386.18,95.55h-.02l-1.35.73-.2-.8,1.7-.91h.89v7.8h-1.02v-6.82Z"/>
      <path class="cls-11" d="m374.91,106.41c-.58.79-1,1.82-1,3.28s.44,2.44,1,3.24h-.55c-.51-.66-1.05-1.69-1.05-3.25,0-1.57.54-2.6,1.05-3.27h.55Z"/>
      <path class="cls-11" d="m375.59,111.12c.31.2.77.35,1.24.35.71,0,1.13-.37,1.13-.92,0-.5-.29-.79-1.02-1.07-.88-.31-1.42-.78-1.42-1.53,0-.84.7-1.46,1.75-1.46.55,0,.95.13,1.19.26l-.19.57c-.17-.1-.53-.26-1.02-.26-.74,0-1.02.44-1.02.81,0,.5.33.75,1.07,1.03.91.36,1.38.8,1.38,1.59s-.61,1.55-1.89,1.55c-.52,0-1.09-.16-1.38-.35l.18-.58Z"/>
      <path class="cls-11" d="m380.38,107.01c0,.24-.17.44-.45.44-.25,0-.42-.2-.42-.44,0-.24.18-.44.44-.44s.43.19.43.44Zm-.79,4.96v-3.87h.7v3.87h-.7Z"/>
      <path class="cls-11" d="m381.47,109.14c0-.4-.01-.72-.03-1.04h.61l.04.62h.02c.21-.37.58-.71,1.22-.71.52,0,.92.32,1.09.78h.02c.12-.22.28-.39.44-.5.23-.18.49-.27.85-.27.52,0,1.28.33,1.28,1.68v2.28h-.69v-2.19c0-.75-.28-1.19-.84-1.19-.4,0-.71.29-.84.63-.03.1-.06.23-.06.35v2.39h-.69v-2.32c0-.62-.27-1.06-.8-1.06-.44,0-.76.35-.88.7-.03.1-.05.23-.05.35v2.33h-.69v-2.82Z"/>
      <path class="cls-11" d="m388.92,107.01c0,.24-.17.44-.45.44-.25,0-.42-.2-.42-.44,0-.24.18-.44.44-.44s.43.19.43.44Zm-.79,4.96v-3.87h.7v3.87h-.7Z"/>
      <path class="cls-11" d="m390.01,106.29h.7v5.68h-.7v-5.68Z"/>
      <path class="cls-11" d="m394.04,111.97l-.06-.49h-.02c-.21.3-.63.58-1.18.58-.78,0-1.18-.55-1.18-1.11,0-.94.83-1.45,2.32-1.44v-.08c0-.31-.09-.9-.88-.89-.36,0-.74.11-1.01.29l-.16-.47c.32-.21.79-.34,1.28-.34,1.18,0,1.47.81,1.47,1.58v1.45c0,.33.01.66.06.93h-.63Zm-.11-1.97c-.76-.02-1.63.12-1.63.87,0,.46.3.67.66.67.51,0,.83-.32.94-.65.02-.08.03-.15.03-.22v-.67Z"/>
      <path class="cls-11" d="m395.75,109.3c0-.46-.01-.85-.03-1.21h.62l.03.76h.02c.18-.52.61-.85,1.08-.85.08,0,.13,0,.2.02v.66c-.07-.01-.14-.02-.24-.02-.5,0-.85.37-.94.9-.02.1-.03.21-.03.33v2.07h-.7v-2.66Z"/>
      <path class="cls-11" d="m397.95,112.93c.57-.79,1-1.83,1-3.26s-.43-2.45-1-3.25h.55c.51.66,1.05,1.68,1.05,3.26,0,1.57-.54,2.58-1.05,3.26h-.55Z"/>
    </g>
    <g>
      <path class="cls-11" d="m389.08,123.73c0,2.65-.99,4.11-2.71,4.11-1.52,0-2.56-1.43-2.58-4,0-2.62,1.13-4.06,2.71-4.06s2.58,1.47,2.58,3.95Zm-4.23.11c0,2.03.62,3.18,1.58,3.18,1.08,0,1.59-1.26,1.59-3.24s-.49-3.18-1.58-3.18c-.92,0-1.59,1.13-1.59,3.24Z"/>
      <path class="cls-11" d="m368.3,131.76c-.58.79-1,1.82-1,3.28s.44,2.44,1,3.24h-.55c-.51-.66-1.05-1.69-1.05-3.25,0-1.57.54-2.6,1.05-3.27h.55Z"/>
      <path class="cls-11" d="m369.07,137.31v-5.39h.76l1.73,2.72c.39.63.71,1.2.96,1.75h.02c-.06-.73-.08-1.39-.08-2.22v-2.26h.66v5.39h-.71l-1.71-2.73c-.37-.6-.73-1.22-1-1.8h-.02c.04.69.05,1.34.05,2.23v2.3h-.66Z"/>
      <path class="cls-11" d="m377.8,135.34c0,1.43-.99,2.06-1.92,2.06-1.05,0-1.86-.76-1.86-1.99,0-1.29.85-2.05,1.92-2.05s1.86.81,1.86,1.98Zm-3.07.04c0,.85.49,1.49,1.17,1.49s1.18-.63,1.18-1.51c0-.65-.33-1.48-1.17-1.48s-1.18.77-1.18,1.5Z"/>
      <path class="cls-11" d="m379.53,132.33v1.11h1.01v.53h-1.01v2.08c0,.48.14.75.53.75.18,0,.31-.02.41-.05l.03.53c-.14.05-.36.1-.63.1-.32,0-.59-.11-.76-.3-.19-.21-.27-.55-.27-1.01v-2.11h-.6v-.53h.6v-.93l.69-.18Z"/>
      <path class="cls-11" d="m382.93,136.59c.21.13.58.28.93.28.51,0,.75-.25.75-.58s-.21-.51-.72-.71c-.7-.25-1.03-.63-1.03-1.1,0-.62.51-1.13,1.34-1.13.39,0,.73.11.95.24l-.17.51c-.15-.09-.43-.23-.79-.23-.42,0-.64.24-.64.53,0,.32.23.46.73.66.67.25,1.01.58,1.01,1.16,0,.69-.53,1.17-1.45,1.17-.42,0-.81-.11-1.09-.27l.17-.53Z"/>
      <path class="cls-11" d="m386.99,132.35c0,.24-.17.44-.45.44-.25,0-.42-.2-.42-.44,0-.24.18-.44.44-.44s.43.19.43.44Zm-.79,4.96v-3.87h.7v3.87h-.7Z"/>
      <path class="cls-11" d="m388.07,134.49c0-.4-.01-.72-.03-1.04h.61l.04.62h.02c.21-.37.58-.71,1.22-.71.52,0,.92.32,1.09.78h.02c.12-.22.28-.39.44-.5.23-.18.49-.27.85-.27.52,0,1.28.33,1.28,1.68v2.28h-.69v-2.19c0-.75-.28-1.19-.84-1.19-.4,0-.71.29-.84.63-.03.1-.06.23-.06.35v2.39h-.69v-2.32c0-.62-.27-1.06-.8-1.06-.44,0-.76.35-.88.7-.03.1-.05.23-.05.35v2.33h-.69v-2.82Z"/>
      <path class="cls-11" d="m395.53,132.35c0,.24-.17.44-.45.44-.25,0-.42-.2-.42-.44,0-.24.18-.44.44-.44s.43.19.43.44Zm-.79,4.96v-3.87h.7v3.87h-.7Z"/>
      <path class="cls-11" d="m396.62,131.63h.7v5.68h-.7v-5.68Z"/>
      <path class="cls-11" d="m400.65,137.31l-.06-.49h-.02c-.21.3-.63.58-1.18.58-.78,0-1.18-.55-1.18-1.11,0-.94.83-1.45,2.32-1.44v-.08c0-.31-.09-.9-.88-.89-.36,0-.74.11-1.01.29l-.16-.47c.32-.21.79-.34,1.28-.34,1.18,0,1.47.81,1.47,1.58v1.45c0,.33.02.66.06.93h-.63Zm-.11-1.97c-.76-.02-1.63.12-1.63.87,0,.46.3.67.66.67.51,0,.83-.32.94-.65.02-.08.03-.15.03-.22v-.67Z"/>
      <path class="cls-11" d="m402.36,134.65c0-.46-.01-.85-.03-1.21h.62l.03.76h.03c.18-.52.61-.85,1.08-.85.08,0,.13,0,.2.02v.66c-.07-.01-.14-.02-.24-.02-.5,0-.85.37-.94.9-.02.1-.03.21-.03.33v2.07h-.7v-2.66Z"/>
      <path class="cls-11" d="m404.55,138.27c.57-.79,1-1.83,1-3.26s-.43-2.45-1-3.25h.55c.51.66,1.05,1.68,1.05,3.26,0,1.57-.54,2.58-1.05,3.26h-.55Z"/>
    </g>
    <g>
      <path class="cls-11" d="m295.86,75.35c.5-.09,1.16-.16,2.01-.16,1.03,0,1.78.24,2.27.67.44.39.71.97.71,1.69s-.22,1.31-.63,1.73c-.56.59-1.45.89-2.47.89-.32,0-.6-.01-.84-.08v3.24h-1.04v-7.99Zm1.04,3.89c.23.07.52.09.87.09,1.27,0,2.03-.62,2.03-1.73s-.76-1.59-1.91-1.59c-.46,0-.8.04-.99.08v3.15Z"/>
      <path class="cls-11" d="m302.02,79.34c0-.69-.02-1.27-.05-1.81h.92l.04,1.14h.04c.27-.78.91-1.27,1.62-1.27.11,0,.2,0,.29.03v.99c-.11-.02-.21-.03-.36-.03-.74,0-1.27.56-1.41,1.35-.03.15-.04.32-.04.49v3.1h-1.05v-3.99Z"/>
      <path class="cls-11" d="m306.42,80.63c.02,1.43.93,2.01,1.99,2.01.75,0,1.22-.14,1.61-.3l.18.75c-.37.17-1.01.37-1.94.37-1.78,0-2.85-1.19-2.85-2.93s1.04-3.13,2.73-3.13c1.89,0,2.39,1.66,2.39,2.73,0,.22-.01.38-.04.49h-4.07Zm3.09-.76c.01-.67-.27-1.71-1.45-1.71-1.08,0-1.54.97-1.62,1.71h3.07Z"/>
      <path class="cls-11" d="m316.84,74.82v7.02c0,.52.02,1.1.05,1.5h-.94l-.05-1h-.03c-.32.65-1.02,1.13-1.97,1.13-1.41,0-2.49-1.19-2.49-2.95,0-1.94,1.19-3.12,2.61-3.12.89,0,1.49.42,1.75.88h.02v-3.46h1.05Zm-1.05,5.07c0-.14-.01-.31-.04-.45-.16-.67-.73-1.21-1.53-1.21-1.09,0-1.75.96-1.75,2.23,0,1.18.59,2.16,1.72,2.16.71,0,1.35-.48,1.54-1.27.04-.14.05-.29.05-.45v-1.01Z"/>
      <path class="cls-11" d="m319.78,75.9c0,.36-.25.66-.67.66-.38,0-.64-.3-.64-.66,0-.36.27-.66.66-.66s.65.29.65.66Zm-1.18,7.44v-5.8h1.05v5.8h-1.05Z"/>
      <path class="cls-11" d="m325.55,83.13c-.28.14-.88.34-1.66.34-1.75,0-2.89-1.19-2.89-2.96s1.22-3.09,3.12-3.09c.62,0,1.18.16,1.47.31l-.23.81c-.26-.14-.65-.28-1.23-.28-1.32,0-2.05.99-2.05,2.2,0,1.34.86,2.17,2.02,2.17.59,0,.99-.15,1.29-.28l.18.79Z"/>
      <path class="cls-11" d="m328.21,75.87v1.67h1.52v.8h-1.52v3.13c0,.72.21,1.13.8,1.13.27,0,.47-.03.61-.08l.05.8c-.21.08-.53.15-.94.15-.48,0-.89-.16-1.14-.45-.29-.32-.41-.83-.41-1.51v-3.17h-.9v-.8h.9v-1.4l1.03-.27Z"/>
      <path class="cls-11" d="m332.1,75.9c0,.36-.25.66-.67.66-.38,0-.64-.3-.64-.66s.27-.66.66-.66.65.29.65.66Zm-1.18,7.44v-5.8h1.05v5.8h-1.05Z"/>
      <path class="cls-11" d="m338.98,80.38c0,2.15-1.49,3.09-2.88,3.09-1.57,0-2.79-1.15-2.79-2.99,0-1.94,1.28-3.08,2.88-3.08s2.79,1.21,2.79,2.98Zm-4.6.07c0,1.27.73,2.23,1.76,2.23s1.77-.95,1.77-2.26c0-.98-.49-2.22-1.75-2.22s-1.78,1.15-1.78,2.25Z"/>
      <path class="cls-11" d="m340.31,79.1c0-.61-.02-1.09-.05-1.57h.93l.06.95h.03c.29-.54.96-1.09,1.92-1.09.8,0,2.04.48,2.04,2.47v3.46h-1.05v-3.34c0-.94-.35-1.72-1.34-1.72-.69,0-1.23.49-1.42,1.08-.04.13-.07.32-.07.49v3.5h-1.05v-4.23Z"/>
    </g>
    <g>
      <path class="cls-11" d="m373.77,75.25h1.05v7.2h3.46v.88h-4.5v-8.08Z"/>
      <path class="cls-11" d="m382.62,83.34l-.09-.73h-.03c-.32.45-.94.86-1.77.86-1.17,0-1.77-.83-1.77-1.66,0-1.41,1.25-2.18,3.49-2.16v-.12c0-.47-.13-1.34-1.32-1.34-.54,0-1.1.16-1.51.43l-.24-.7c.48-.31,1.18-.51,1.92-.51,1.77,0,2.21,1.21,2.21,2.37v2.17c0,.5.02.99.09,1.39h-.95Zm-.16-2.96c-1.14-.02-2.45.18-2.45,1.3,0,.69.46,1.01.99,1.01.76,0,1.25-.48,1.41-.97.04-.11.05-.23.05-.33v-1.01Z"/>
      <path class="cls-11" d="m385.14,83.34c.03-.4.05-.98.05-1.5v-7.02h1.05v3.65h.02c.37-.65,1.04-1.06,1.98-1.06,1.44,0,2.45,1.2,2.45,2.95,0,2.08-1.32,3.11-2.61,3.11-.84,0-1.51-.33-1.94-1.09h-.03l-.05.95h-.91Zm1.1-2.32c0,.13.01.26.04.38.2.73.82,1.23,1.58,1.23,1.11,0,1.76-.9,1.76-2.23,0-1.17-.6-2.16-1.73-2.16-.71,0-1.38.5-1.6,1.3-.03.13-.06.27-.06.44v1.04Z"/>
      <path class="cls-11" d="m392.62,80.63c.02,1.43.93,2.01,1.99,2.01.75,0,1.22-.14,1.61-.3l.18.75c-.37.17-1.01.37-1.94.37-1.78,0-2.85-1.19-2.85-2.93s1.04-3.13,2.73-3.13c1.89,0,2.39,1.66,2.39,2.73,0,.22-.01.38-.04.49h-4.07Zm3.09-.76c0-.67-.27-1.71-1.46-1.71-1.08,0-1.54.97-1.62,1.71h3.08Z"/>
      <path class="cls-11" d="m398.04,74.82h1.05v8.52h-1.05v-8.52Z"/>
    </g>
    <path class="cls-11" d="m36.76,14.26h-.04l-2.03,1.1-.3-1.2,2.56-1.36h1.34v11.7h-1.53v-10.23Z"/>
    <g>
      <path class="cls-11" d="m58.75,11.99h-3.13v2.92h3.5v.87h-4.55V7.7h4.37v.87h-3.32v2.56h3.13v.86Z"/>
      <path class="cls-11" d="m60.44,11.55c0-.61-.02-1.09-.05-1.57h.92l.06.93h.03c.32-.55.86-1.07,1.83-1.07.79,0,1.39.48,1.63,1.16h.02c.19-.33.41-.58.65-.76.35-.26.73-.41,1.28-.41.77,0,1.92.5,1.92,2.52v3.42h-1.03v-3.28c0-1.12-.41-1.79-1.26-1.79-.6,0-1.07.44-1.25.95-.05.15-.09.34-.09.53v3.59h-1.03v-3.48c0-.92-.41-1.59-1.21-1.59-.66,0-1.14.52-1.31,1.05-.05.15-.08.34-.08.52v3.5h-1.03v-4.23Z"/>
      <path class="cls-11" d="m70.4,15.78c.03-.4.05-.98.05-1.5v-7.02h1.05v3.65h.02c.37-.65,1.04-1.06,1.98-1.06,1.44,0,2.45,1.2,2.45,2.95,0,2.08-1.32,3.11-2.61,3.11-.84,0-1.51-.33-1.94-1.09h-.03l-.05.95h-.91Zm1.1-2.32c0,.13.02.26.04.38.2.73.82,1.23,1.58,1.23,1.11,0,1.76-.9,1.76-2.23,0-1.17-.6-2.16-1.73-2.16-.71,0-1.38.5-1.6,1.3-.03.13-.06.27-.06.44v1.04Z"/>
      <path class="cls-11" d="m77.88,13.07c.02,1.43.93,2.01,1.98,2.01.75,0,1.22-.14,1.61-.3l.19.75c-.37.17-1.01.37-1.94.37-1.78,0-2.85-1.19-2.85-2.93s1.04-3.13,2.73-3.13c1.89,0,2.39,1.66,2.39,2.73,0,.22-.01.38-.04.49h-4.07Zm3.09-.76c.01-.67-.27-1.71-1.45-1.71-1.08,0-1.54.97-1.62,1.71h3.07Z"/>
      <path class="cls-11" d="m88.31,7.27v7.02c0,.52.02,1.1.05,1.5h-.94l-.05-1h-.03c-.32.65-1.02,1.13-1.97,1.13-1.41,0-2.49-1.19-2.49-2.95,0-1.94,1.19-3.12,2.61-3.12.89,0,1.49.42,1.75.88h.02v-3.46h1.05Zm-1.05,5.07c0-.14-.01-.31-.04-.45-.16-.67-.73-1.21-1.53-1.21-1.09,0-1.75.96-1.75,2.23,0,1.18.59,2.16,1.72,2.16.71,0,1.35-.48,1.54-1.27.04-.14.05-.29.05-.45v-1.01Z"/>
      <path class="cls-11" d="m93.79,8.34c0,.36-.25.66-.67.66-.38,0-.64-.3-.64-.66,0-.36.27-.66.66-.66s.65.29.65.66Zm-1.18,7.44v-5.8h1.05v5.8h-1.05Z"/>
      <path class="cls-11" d="m95.42,11.55c0-.61-.02-1.09-.05-1.57h.92l.06.93h.03c.32-.55.86-1.07,1.83-1.07.79,0,1.39.48,1.63,1.16h.02c.19-.33.41-.58.65-.76.35-.26.73-.41,1.28-.41.77,0,1.92.5,1.92,2.52v3.42h-1.03v-3.28c0-1.12-.41-1.79-1.26-1.79-.6,0-1.07.44-1.25.95-.05.15-.09.34-.09.53v3.59h-1.03v-3.48c0-.92-.41-1.59-1.21-1.59-.66,0-1.14.52-1.31,1.05-.05.15-.08.34-.08.52v3.5h-1.03v-4.23Z"/>
      <path class="cls-11" d="m108.65,15.78l-.09-.73h-.03c-.32.45-.94.86-1.77.86-1.17,0-1.77-.83-1.77-1.66,0-1.41,1.25-2.18,3.49-2.16v-.12c0-.47-.13-1.34-1.32-1.34-.54,0-1.1.16-1.51.43l-.24-.7c.48-.31,1.18-.51,1.91-.51,1.77,0,2.21,1.21,2.21,2.37v2.17c0,.5.02.99.09,1.39h-.95Zm-.16-2.96c-1.14-.02-2.45.18-2.45,1.3,0,.69.46,1.01.98,1.01.76,0,1.25-.48,1.41-.97.04-.11.05-.23.05-.33v-1.01Z"/>
      <path class="cls-11" d="m116.22,9.98c-.03.41-.05.88-.05,1.59v3.37c0,1.34-.27,2.15-.83,2.66-.57.52-1.38.7-2.11.7s-1.47-.16-1.94-.48l.26-.81c.39.24.98.46,1.71.46,1.08,0,1.87-.56,1.87-2.03v-.65h-.02c-.32.54-.95.98-1.84.98-1.45,0-2.47-1.23-2.47-2.84,0-1.97,1.28-3.08,2.62-3.08,1.01,0,1.55.52,1.81,1h.02l.04-.87h.93Zm-1.1,2.28c0-.17-.02-.33-.06-.47-.19-.61-.7-1.12-1.48-1.12-1.01,0-1.73.85-1.73,2.2,0,1.13.59,2.09,1.72,2.09.65,0,1.24-.41,1.47-1.09.06-.17.08-.38.08-.56v-1.05Z"/>
      <path class="cls-11" d="m118.51,13.07c.02,1.43.93,2.01,1.98,2.01.75,0,1.22-.14,1.61-.3l.19.75c-.37.17-1.01.37-1.94.37-1.78,0-2.85-1.19-2.85-2.93s1.04-3.13,2.73-3.13c1.89,0,2.39,1.66,2.39,2.73,0,.22-.01.38-.04.49h-4.07Zm3.09-.76c.01-.67-.27-1.71-1.45-1.71-1.08,0-1.54.97-1.62,1.71h3.07Z"/>
      <path class="cls-11" d="m57.75,30.18l-.09-.73h-.03c-.32.45-.94.86-1.77.86-1.17,0-1.77-.83-1.77-1.66,0-1.41,1.25-2.18,3.49-2.16v-.12c0-.47-.13-1.34-1.32-1.34-.54,0-1.1.16-1.51.43l-.24-.7c.48-.31,1.18-.51,1.91-.51,1.77,0,2.21,1.21,2.21,2.37v2.17c0,.5.02.99.09,1.39h-.95Zm-.16-2.96c-1.14-.02-2.45.18-2.45,1.3,0,.69.46,1.01.98,1.01.76,0,1.25-.48,1.41-.97.04-.11.05-.23.05-.33v-1.01Z"/>
      <path class="cls-11" d="m60.32,25.95c0-.61-.02-1.09-.05-1.57h.93l.06.95h.03c.29-.54.96-1.09,1.92-1.09.8,0,2.04.48,2.04,2.47v3.46h-1.05v-3.34c0-.94-.35-1.72-1.34-1.72-.69,0-1.23.49-1.42,1.08-.04.13-.07.32-.07.49v3.5h-1.05v-4.23Z"/>
      <path class="cls-11" d="m71.99,21.67v7.02c0,.52.02,1.1.05,1.5h-.94l-.05-1h-.03c-.32.65-1.02,1.13-1.97,1.13-1.41,0-2.49-1.19-2.49-2.95,0-1.94,1.19-3.12,2.61-3.12.89,0,1.49.42,1.75.88h.02v-3.46h1.05Zm-1.05,5.07c0-.14-.01-.31-.04-.45-.16-.67-.73-1.21-1.53-1.21-1.09,0-1.75.96-1.75,2.23,0,1.18.59,2.16,1.72,2.16.71,0,1.35-.48,1.54-1.27.04-.14.05-.29.05-.45v-1.01Z"/>
      <path class="cls-11" d="m77.56,22.71v1.67h1.52v.8h-1.52v3.13c0,.72.21,1.13.8,1.13.27,0,.47-.03.61-.08l.05.8c-.21.08-.53.15-.94.15-.48,0-.89-.16-1.14-.45-.29-.32-.41-.83-.41-1.51v-3.17h-.9v-.8h.9v-1.4l1.03-.27Z"/>
      <path class="cls-11" d="m80.79,27.47c.02,1.43.93,2.01,1.98,2.01.75,0,1.22-.13,1.61-.3l.18.75c-.37.17-1.01.37-1.94.37-1.78,0-2.85-1.19-2.85-2.93s1.04-3.13,2.73-3.13c1.89,0,2.39,1.66,2.39,2.73,0,.22-.01.38-.04.49h-4.07Zm3.09-.76c.01-.66-.27-1.71-1.46-1.71-1.08,0-1.54.97-1.62,1.71h3.07Z"/>
      <path class="cls-11" d="m86.66,24.38l.83,1.24c.22.33.4.62.59.94h.03c.19-.34.39-.64.59-.96l.81-1.23h1.15l-1.98,2.8,2.03,3h-1.19l-.86-1.3c-.22-.34-.42-.66-.62-1.01h-.03c-.19.35-.39.66-.61,1.01l-.83,1.3h-1.17l2.06-2.96-1.97-2.84h1.17Z"/>
      <path class="cls-11" d="m93.15,22.71v1.67h1.52v.8h-1.52v3.13c0,.72.21,1.13.8,1.13.27,0,.47-.03.61-.08l.05.8c-.21.08-.53.15-.94.15-.48,0-.89-.16-1.14-.45-.29-.32-.41-.83-.41-1.51v-3.17h-.9v-.8h.9v-1.4l1.03-.27Z"/>
    </g>
    <path class="cls-11" d="m205.16,24.5v-.96l1.24-1.21c2.99-2.85,4.35-4.37,4.36-6.13,0-1.19-.56-2.29-2.31-2.29-1.07,0-1.95.55-2.49.99l-.5-1.11c.8-.68,1.96-1.19,3.31-1.19,2.52,0,3.57,1.73,3.57,3.4,0,2.17-1.57,3.92-4.03,6.28l-.93.87v.04h5.24v1.31h-7.47Z"/>
    <g>
      <path class="cls-11" d="m232.07,15.52c-.38.19-1.15.39-2.14.39-2.28,0-3.98-1.44-3.98-4.09s1.71-4.24,4.22-4.24c1,0,1.64.21,1.92.36l-.26.85c-.39-.19-.95-.33-1.63-.33-1.9,0-3.15,1.21-3.15,3.34,0,1.98,1.14,3.24,3.1,3.24.64,0,1.29-.13,1.71-.33l.21.83Z"/>
      <path class="cls-11" d="m238.47,12.82c0,2.15-1.49,3.09-2.88,3.09-1.57,0-2.79-1.15-2.79-2.99,0-1.94,1.28-3.08,2.88-3.08s2.79,1.21,2.79,2.98Zm-4.6.07c0,1.27.73,2.23,1.76,2.23s1.77-.95,1.77-2.26c0-.98-.49-2.22-1.75-2.22s-1.78,1.15-1.78,2.25Z"/>
      <path class="cls-11" d="m239.81,11.55c0-.61-.02-1.09-.05-1.57h.92l.06.93h.03c.32-.55.86-1.07,1.83-1.07.79,0,1.39.48,1.63,1.16h.02c.19-.33.42-.58.66-.76.35-.26.73-.41,1.28-.41.77,0,1.92.5,1.92,2.52v3.42h-1.03v-3.28c0-1.12-.41-1.79-1.26-1.79-.6,0-1.07.44-1.25.95-.05.15-.09.34-.09.53v3.59h-1.03v-3.48c0-.92-.41-1.59-1.21-1.59-.66,0-1.14.52-1.31,1.05-.05.15-.08.34-.08.52v3.5h-1.03v-4.23Z"/>
      <path class="cls-11" d="m249.81,11.87c0-.74-.02-1.34-.05-1.89h.94l.06.99h.02c.42-.71,1.12-1.12,2.06-1.12,1.4,0,2.46,1.18,2.46,2.94,0,2.09-1.28,3.12-2.64,3.12-.78,0-1.44-.34-1.79-.91h-.02v3.16h-1.05v-6.29Zm1.05,1.55c0,.15.01.29.04.43.19.74.83,1.24,1.58,1.24,1.12,0,1.76-.92,1.76-2.25,0-1.16-.61-2.15-1.72-2.15-.72,0-1.4.51-1.6,1.3-.03.14-.07.29-.07.43v1Z"/>
      <path class="cls-11" d="m259.86,15.78l-.09-.73h-.03c-.32.45-.94.86-1.77.86-1.17,0-1.77-.83-1.77-1.66,0-1.41,1.25-2.18,3.49-2.16v-.12c0-.47-.13-1.34-1.32-1.34-.54,0-1.1.16-1.51.43l-.24-.7c.48-.31,1.18-.51,1.91-.51,1.77,0,2.21,1.21,2.21,2.37v2.17c0,.5.02.99.09,1.39h-.95Zm-.16-2.96c-1.14-.02-2.45.18-2.45,1.3,0,.69.46,1.01.98,1.01.76,0,1.25-.48,1.41-.97.04-.11.05-.23.05-.33v-1.01Z"/>
      <path class="cls-11" d="m262.42,11.79c0-.69-.02-1.27-.05-1.81h.92l.04,1.14h.04c.27-.78.91-1.27,1.62-1.27.11,0,.2,0,.29.03v.99c-.11-.02-.21-.03-.36-.03-.74,0-1.27.56-1.41,1.35-.03.15-.04.32-.04.49v3.1h-1.05v-3.99Z"/>
      <path class="cls-11" d="m266.82,13.07c.02,1.43.92,2.01,1.98,2.01.75,0,1.22-.14,1.61-.3l.19.75c-.37.17-1.01.37-1.94.37-1.78,0-2.85-1.19-2.85-2.93s1.04-3.13,2.73-3.13c1.89,0,2.39,1.66,2.39,2.73,0,.22-.01.38-.04.49h-4.07Zm3.09-.76c.01-.67-.27-1.71-1.46-1.71-1.08,0-1.54.97-1.62,1.71h3.07Z"/>
      <path class="cls-11" d="m276.05,8.31v1.67h1.52v.8h-1.52v3.13c0,.72.21,1.13.8,1.13.27,0,.47-.03.61-.08l.05.8c-.21.08-.53.15-.94.15-.49,0-.89-.16-1.14-.45-.29-.32-.41-.83-.41-1.51v-3.17h-.9v-.8h.9v-1.4l1.03-.27Z"/>
      <path class="cls-11" d="m278.76,7.27h1.05v3.62h.02c.17-.3.44-.56.76-.74.31-.18.68-.29,1.08-.29.78,0,2.02.48,2.02,2.48v3.45h-1.05v-3.34c0-.94-.35-1.72-1.34-1.72-.69,0-1.22.48-1.42,1.05-.05.15-.07.31-.07.5v3.51h-1.05V7.27Z"/>
      <path class="cls-11" d="m286.01,13.07c.02,1.43.92,2.01,1.98,2.01.75,0,1.22-.14,1.61-.3l.19.75c-.37.17-1.01.37-1.94.37-1.78,0-2.85-1.19-2.85-2.93s1.04-3.13,2.73-3.13c1.89,0,2.39,1.66,2.39,2.73,0,.22-.01.38-.04.49h-4.07Zm3.09-.76c.01-.67-.27-1.71-1.46-1.71-1.08,0-1.54.97-1.62,1.71h3.07Z"/>
      <path class="cls-11" d="m226.98,27.47c.02,1.43.93,2.01,1.98,2.01.75,0,1.22-.13,1.61-.3l.19.75c-.37.17-1.01.37-1.94.37-1.78,0-2.85-1.19-2.85-2.93s1.04-3.13,2.73-3.13c1.89,0,2.39,1.66,2.39,2.73,0,.22-.01.38-.04.49h-4.07Zm3.09-.76c.01-.66-.27-1.71-1.45-1.71-1.08,0-1.54.97-1.62,1.71h3.07Z"/>
      <path class="cls-11" d="m232.4,25.95c0-.61-.02-1.09-.05-1.57h.92l.06.93h.03c.32-.55.86-1.07,1.83-1.07.79,0,1.39.48,1.63,1.16h.02c.19-.33.41-.58.65-.76.35-.26.73-.41,1.28-.41.77,0,1.92.5,1.92,2.52v3.42h-1.03v-3.28c0-1.12-.41-1.79-1.26-1.79-.6,0-1.07.44-1.25.95-.05.15-.09.34-.09.53v3.59h-1.03v-3.48c0-.92-.41-1.59-1.21-1.59-.66,0-1.14.52-1.31,1.05-.05.15-.08.34-.08.52v3.5h-1.03v-4.23Z"/>
      <path class="cls-11" d="m242.36,30.18c.03-.4.05-.98.05-1.5v-7.02h1.05v3.65h.02c.37-.65,1.04-1.06,1.98-1.06,1.44,0,2.45,1.2,2.45,2.95,0,2.08-1.32,3.11-2.61,3.11-.84,0-1.51-.33-1.94-1.08h-.03l-.05.95h-.91Zm1.1-2.32c0,.13.01.26.04.38.2.73.82,1.23,1.58,1.23,1.11,0,1.76-.9,1.76-2.23,0-1.17-.6-2.16-1.73-2.16-.71,0-1.38.5-1.6,1.3-.03.13-.06.27-.06.44v1.04Z"/>
      <path class="cls-11" d="m249.84,27.47c.02,1.43.93,2.01,1.99,2.01.75,0,1.22-.13,1.61-.3l.18.75c-.37.17-1.01.37-1.94.37-1.78,0-2.85-1.19-2.85-2.93s1.04-3.13,2.73-3.13c1.89,0,2.39,1.66,2.39,2.73,0,.22-.01.38-.04.49h-4.07Zm3.09-.76c0-.66-.27-1.71-1.46-1.71-1.08,0-1.54.97-1.62,1.71h3.08Z"/>
      <path class="cls-11" d="m260.27,21.67v7.02c0,.52.02,1.1.05,1.5h-.94l-.05-1h-.03c-.32.65-1.02,1.13-1.97,1.13-1.41,0-2.49-1.19-2.49-2.95,0-1.94,1.19-3.12,2.61-3.12.89,0,1.49.42,1.75.88h.02v-3.46h1.05Zm-1.05,5.07c0-.14-.01-.31-.04-.45-.16-.67-.73-1.21-1.53-1.21-1.09,0-1.75.96-1.75,2.23,0,1.18.59,2.16,1.72,2.16.71,0,1.35-.48,1.54-1.27.04-.14.05-.29.05-.45v-1.01Z"/>
      <path class="cls-11" d="m267.03,21.67v7.02c0,.52.02,1.1.05,1.5h-.94l-.05-1h-.03c-.32.65-1.02,1.13-1.97,1.13-1.41,0-2.49-1.19-2.49-2.95,0-1.94,1.19-3.12,2.61-3.12.89,0,1.49.42,1.75.88h.02v-3.46h1.05Zm-1.05,5.07c0-.14-.01-.31-.04-.45-.16-.67-.73-1.21-1.53-1.21-1.09,0-1.75.96-1.75,2.23,0,1.18.59,2.16,1.72,2.16.71,0,1.35-.48,1.54-1.27.04-.14.05-.29.05-.45v-1.01Z"/>
      <path class="cls-11" d="m269.98,22.74c0,.36-.25.66-.67.66-.38,0-.64-.3-.64-.66s.27-.66.66-.66.65.29.65.66Zm-1.18,7.44v-5.8h1.05v5.8h-1.05Z"/>
      <path class="cls-11" d="m271.6,25.95c0-.61-.02-1.09-.05-1.57h.93l.06.95h.03c.29-.54.96-1.09,1.92-1.09.8,0,2.04.48,2.04,2.47v3.46h-1.05v-3.34c0-.94-.35-1.72-1.34-1.72-.69,0-1.23.49-1.42,1.08-.04.13-.07.32-.07.49v3.5h-1.05v-4.23Z"/>
      <path class="cls-11" d="m283.27,24.38c-.03.41-.05.88-.05,1.59v3.37c0,1.34-.27,2.15-.83,2.66-.57.52-1.38.7-2.11.7s-1.47-.16-1.94-.48l.26-.81c.39.24.98.46,1.71.46,1.08,0,1.87-.56,1.87-2.03v-.65h-.02c-.32.54-.95.98-1.84.98-1.45,0-2.47-1.23-2.47-2.84,0-1.97,1.28-3.08,2.62-3.08,1.01,0,1.55.52,1.81,1h.02l.04-.87h.93Zm-1.1,2.28c0-.17-.02-.33-.06-.47-.19-.61-.7-1.12-1.48-1.12-1.01,0-1.73.85-1.73,2.2,0,1.13.59,2.09,1.72,2.09.66,0,1.24-.41,1.47-1.09.06-.17.08-.38.08-.56v-1.04Z"/>
      <path class="cls-11" d="m284.82,29.11c.32.2.87.41,1.4.41.77,0,1.13-.38,1.13-.86s-.31-.77-1.08-1.06c-1.05-.38-1.54-.95-1.54-1.64,0-.93.76-1.7,2.01-1.7.59,0,1.1.16,1.42.36l-.26.77c-.22-.14-.65-.34-1.19-.34-.62,0-.96.36-.96.8,0,.48.34.69,1.1.99,1,.37,1.52.88,1.52,1.74,0,1.03-.8,1.75-2.17,1.75-.63,0-1.22-.16-1.63-.4l.26-.8Z"/>
    </g>
    <path class="cls-11" d="m377.4,22.69c.45.28,1.49.73,2.6.73,2.02,0,2.66-1.29,2.65-2.27-.02-1.65-1.5-2.34-3.03-2.34h-.88v-1.19h.89c1.15,0,2.61-.59,2.61-1.97,0-.94-.6-1.76-2.06-1.76-.93,0-1.83.41-2.33.77l-.43-1.15c.62-.45,1.8-.91,3.06-.91,2.32,0,3.36,1.36,3.36,2.8,0,1.21-.74,2.24-2.16,2.76v.04c1.44.27,2.6,1.37,2.6,3,0,1.87-1.47,3.51-4.27,3.51-1.31,0-2.46-.41-3.03-.8l.42-1.21Z"/>
    <g>
      <path class="cls-11" d="m399.32,7.7v4.79c0,1.8.8,2.57,1.89,2.57,1.19,0,1.97-.79,1.97-2.57v-4.79h1.05v4.72c0,2.48-1.31,3.5-3.06,3.5-1.65,0-2.9-.94-2.9-3.45v-4.76h1.05Z"/>
      <path class="cls-11" d="m405.99,11.87c0-.74-.02-1.34-.05-1.89h.94l.06.99h.02c.42-.71,1.12-1.12,2.06-1.12,1.4,0,2.46,1.18,2.46,2.94,0,2.09-1.28,3.12-2.64,3.12-.78,0-1.44-.34-1.79-.91h-.02v3.16h-1.05v-6.29Zm1.05,1.55c0,.15.01.29.04.43.19.74.83,1.24,1.58,1.24,1.12,0,1.76-.92,1.76-2.25,0-1.16-.61-2.15-1.72-2.15-.72,0-1.4.51-1.6,1.3-.03.14-.07.29-.07.43v1Z"/>
      <path class="cls-11" d="m417.84,7.27v7.02c0,.52.02,1.1.05,1.5h-.94l-.05-1h-.03c-.32.65-1.02,1.13-1.97,1.13-1.41,0-2.49-1.19-2.49-2.95,0-1.94,1.19-3.12,2.61-3.12.89,0,1.49.42,1.75.88h.02v-3.46h1.05Zm-1.05,5.07c0-.14-.01-.31-.04-.45-.16-.67-.73-1.21-1.53-1.21-1.09,0-1.75.96-1.75,2.23,0,1.18.59,2.16,1.72,2.16.71,0,1.35-.48,1.54-1.27.04-.14.05-.29.05-.45v-1.01Z"/>
      <path class="cls-11" d="m422.82,15.78l-.09-.73h-.03c-.32.45-.94.86-1.77.86-1.17,0-1.77-.83-1.77-1.66,0-1.41,1.25-2.18,3.49-2.16v-.12c0-.47-.13-1.34-1.32-1.34-.54,0-1.1.16-1.51.43l-.24-.7c.48-.31,1.18-.51,1.92-.51,1.77,0,2.21,1.21,2.21,2.37v2.17c0,.5.02.99.09,1.39h-.95Zm-.16-2.96c-1.14-.02-2.45.18-2.45,1.3,0,.69.46,1.01.99,1.01.76,0,1.25-.48,1.41-.97.04-.11.05-.23.05-.33v-1.01Z"/>
      <path class="cls-11" d="m426.6,8.31v1.67h1.52v.8h-1.52v3.13c0,.72.21,1.13.8,1.13.27,0,.47-.03.61-.08l.05.8c-.21.08-.53.15-.94.15-.49,0-.89-.16-1.14-.45-.29-.32-.41-.83-.41-1.51v-3.17h-.9v-.8h.9v-1.4l1.03-.27Z"/>
      <path class="cls-11" d="m429.83,13.07c.02,1.43.92,2.01,1.98,2.01.75,0,1.22-.14,1.61-.3l.19.75c-.37.17-1.01.37-1.94.37-1.78,0-2.85-1.19-2.85-2.93s1.04-3.13,2.73-3.13c1.89,0,2.39,1.66,2.39,2.73,0,.22-.01.38-.04.49h-4.07Zm3.09-.76c.01-.67-.27-1.71-1.46-1.71-1.08,0-1.54.97-1.62,1.71h3.07Z"/>
      <path class="cls-11" d="m439.06,8.31v1.67h1.52v.8h-1.52v3.13c0,.72.21,1.13.8,1.13.27,0,.47-.03.61-.08l.05.8c-.21.08-.53.15-.94.15-.49,0-.89-.16-1.14-.45-.29-.32-.41-.83-.41-1.51v-3.17h-.9v-.8h.9v-1.4l1.03-.27Z"/>
      <path class="cls-11" d="m441.76,7.27h1.05v3.62h.02c.17-.3.44-.56.76-.74.31-.18.68-.29,1.08-.29.78,0,2.02.48,2.02,2.48v3.45h-1.05v-3.34c0-.94-.35-1.72-1.34-1.72-.69,0-1.22.48-1.42,1.05-.05.15-.07.31-.07.5v3.51h-1.05V7.27Z"/>
      <path class="cls-11" d="m449.01,13.07c.02,1.43.92,2.01,1.98,2.01.75,0,1.22-.14,1.61-.3l.19.75c-.37.17-1.01.37-1.94.37-1.78,0-2.85-1.19-2.85-2.93s1.04-3.13,2.73-3.13c1.89,0,2.39,1.66,2.39,2.73,0,.22-.01.38-.04.49h-4.07Zm3.09-.76c.01-.67-.27-1.71-1.46-1.71-1.08,0-1.54.97-1.62,1.71h3.07Z"/>
      <path class="cls-11" d="m398.24,25.95c0-.61-.02-1.09-.05-1.57h.92l.06.93h.03c.32-.55.86-1.07,1.83-1.07.79,0,1.39.48,1.63,1.16h.02c.19-.33.42-.58.66-.76.35-.26.73-.41,1.28-.41.77,0,1.92.5,1.92,2.52v3.42h-1.03v-3.28c0-1.12-.41-1.79-1.26-1.79-.6,0-1.07.44-1.25.95-.05.15-.09.34-.09.53v3.59h-1.03v-3.48c0-.92-.41-1.59-1.21-1.59-.66,0-1.14.52-1.32,1.05-.05.15-.08.34-.08.52v3.5h-1.03v-4.23Z"/>
      <path class="cls-11" d="m413.5,27.23c0,2.15-1.49,3.09-2.88,3.09-1.57,0-2.79-1.15-2.79-2.99,0-1.94,1.28-3.08,2.88-3.08s2.79,1.21,2.79,2.98Zm-4.6.07c0,1.27.73,2.23,1.76,2.23s1.77-.95,1.77-2.26c0-.98-.49-2.22-1.75-2.22s-1.78,1.15-1.78,2.25Z"/>
      <path class="cls-11" d="m419.85,21.67v7.02c0,.52.02,1.1.05,1.5h-.94l-.05-1h-.03c-.32.65-1.02,1.13-1.97,1.13-1.41,0-2.49-1.19-2.49-2.95,0-1.94,1.19-3.12,2.61-3.12.89,0,1.49.42,1.75.88h.02v-3.46h1.05Zm-1.05,5.07c0-.14-.01-.31-.04-.45-.16-.67-.73-1.21-1.53-1.21-1.09,0-1.75.96-1.75,2.23,0,1.18.59,2.16,1.72,2.16.71,0,1.35-.48,1.54-1.27.04-.14.05-.29.05-.45v-1.01Z"/>
      <path class="cls-11" d="m422.21,27.47c.02,1.43.93,2.01,1.99,2.01.75,0,1.22-.13,1.61-.3l.18.75c-.37.17-1.01.37-1.94.37-1.78,0-2.85-1.19-2.85-2.93s1.04-3.13,2.73-3.13c1.89,0,2.39,1.66,2.39,2.73,0,.22-.01.38-.04.49h-4.07Zm3.09-.76c0-.66-.27-1.71-1.46-1.71-1.08,0-1.54.97-1.62,1.71h3.08Z"/>
      <path class="cls-11" d="m427.63,21.67h1.05v8.52h-1.05v-8.52Z"/>
      <path class="cls-11" d="m430.31,29.11c.32.2.87.41,1.4.41.77,0,1.13-.38,1.13-.86s-.31-.77-1.08-1.06c-1.05-.38-1.54-.95-1.54-1.64,0-.93.76-1.7,2.01-1.7.59,0,1.1.16,1.42.36l-.26.77c-.22-.14-.65-.34-1.19-.34-.62,0-.96.36-.96.8,0,.48.34.69,1.1.99,1,.37,1.52.88,1.52,1.74,0,1.03-.8,1.75-2.17,1.75-.63,0-1.22-.16-1.63-.4l.26-.8Z"/>
    </g>
  </g>
</svg>