<?xml version="1.0" encoding="UTF-8"?>
<svg id="Layer_1" data-name="Layer 1" xmlns="http://www.w3.org/2000/svg" viewBox="0 0 461.89 205.97">
  <defs>
    <style>
      .cls-1 {
        fill: #e8a97b;
      }

      .cls-1, .cls-2, .cls-3, .cls-4, .cls-5, .cls-6, .cls-7, .cls-8, .cls-9, .cls-10 {
        stroke-miterlimit: 10;
      }

      .cls-1, .cls-2, .cls-5, .cls-6, .cls-8 {
        stroke: #231f20;
      }

      .cls-11 {
        letter-spacing: 0em;
      }

      .cls-2 {
        fill: #fff;
      }

      .cls-3 {
        stroke: #010101;
      }

      .cls-3, .cls-4, .cls-6, .cls-7, .cls-9, .cls-10 {
        fill: none;
      }

      .cls-4 {
        stroke: #6d6e71;
      }

      .cls-4, .cls-6, .cls-7, .cls-9, .cls-10 {
        stroke-width: 2px;
      }

      .cls-5 {
        fill: #d37bb2;
      }

      .cls-12 {
        fill: #6d6e71;
      }

      .cls-13 {
        letter-spacing: -.01em;
      }

      .cls-7 {
        stroke-dasharray: 0 0 10.94 10.94;
      }

      .cls-7, .cls-9, .cls-10 {
        stroke: #e8a97b;
      }

      .cls-14 {
        letter-spacing: 0em;
      }

      .cls-8 {
        fill: #8ccea9;
      }

      .cls-15 {
        font-family: MyriadConceptRoman-Regular, 'Myriad Variable Concept';
        font-size: 12px;
        font-variation-settings: 'wght' 400, 'wdth' 100;
      }

      .cls-15, .cls-16 {
        fill: #010101;
      }

      .cls-17 {
        letter-spacing: 0em;
      }

      .cls-18 {
        fill: #231f20;
      }

      .cls-10 {
        stroke-dasharray: 0 0 12.38 12.38;
      }
    </style>
  </defs>
  <rect class="cls-8" x="11.82" y="84.62" width="105.34" height="31.78"/>
  <rect class="cls-8" x="208.88" y="84.62" width="105.34" height="31.78"/>
  <rect class="cls-1" x="332.06" y="84.62" width="105.34" height="31.78"/>
  <rect class="cls-1" x="332.06" y="32.89" width="105.34" height="15.89"/>
  <text class="cls-15" transform="translate(342.68 45.1)"><tspan class="cls-14" x="0" y="0">z</tspan><tspan x="5.05" y="0">e</tspan><tspan class="cls-11" x="11.06" y="0">r</tspan><tspan x="14.87" y="0">o </tspan><tspan class="cls-17" x="24" y="0">c</tspan><tspan x="29.3" y="0">o</tspan><tspan class="cls-13" x="35.89" y="0">n</tspan><tspan class="cls-11" x="42.4" y="0">v</tspan><tspan x="48.05" y="0">olution</tspan></text>
  <rect class="cls-5" x="332.06" y="32.89" width="105.34" height="15.89"/>
  <rect class="cls-1" x="332.06" y="129.55" width="105.34" height="15.89"/>
  <text class="cls-15" transform="translate(342.68 141.75)"><tspan class="cls-14" x="0" y="0">z</tspan><tspan x="5.05" y="0">e</tspan><tspan class="cls-11" x="11.06" y="0">r</tspan><tspan x="14.87" y="0">o </tspan><tspan class="cls-17" x="24" y="0">c</tspan><tspan x="29.3" y="0">o</tspan><tspan class="cls-13" x="35.89" y="0">n</tspan><tspan class="cls-11" x="42.4" y="0">v</tspan><tspan x="48.05" y="0">olution</tspan></text>
  <rect class="cls-5" x="332.06" y="129.55" width="105.34" height="15.89"/>
  <g>
    <line class="cls-4" x1="384.73" y1="50.62" x2="384.73" y2="79.06"/>
    <polygon class="cls-12" points="382.44 78.39 384.73 82.36 387.03 78.39 382.44 78.39"/>
  </g>
  <g>
    <line class="cls-4" x1="384.73" y1="117.94" x2="384.73" y2="124.38"/>
    <polygon class="cls-12" points="382.44 123.71 384.73 127.69 387.03 123.71 382.44 123.71"/>
  </g>
  <g>
    <circle class="cls-5" cx="384.73" cy="63.33" r="6.81"/>
    <g>
      <polyline class="cls-5" points="384.73 68.21 384.73 63.33 384.73 58.44 384.73 63.33"/>
      <polyline class="cls-5" points="389.62 63.33 384.73 63.33 379.85 63.33 384.73 63.33"/>
    </g>
  </g>
  <g>
    <circle class="cls-5" cx="261.55" cy="137.49" r="6.81"/>
    <g>
      <polyline class="cls-5" points="261.55 142.37 261.55 137.49 261.55 132.61 261.55 137.49"/>
      <polyline class="cls-5" points="266.43 137.49 261.55 137.49 256.67 137.49 261.55 137.49"/>
    </g>
  </g>
  <g>
    <rect class="cls-18" x="306.57" y="80.65" width="11.79" height="11.79" rx="3.8" ry="3.8"/>
    <ellipse class="cls-2" cx="312.46" cy="86.55" rx="1.76" ry="2.88"/>
    <path class="cls-6" d="m315.62,81.22c0-2.19-1.42-3.53-3.16-3.53s-3.16,1.34-3.16,3.53"/>
  </g>
  <g>
    <line class="cls-6" x1="64.49" y1="69.91" x2="64.49" y2="79.2"/>
    <polygon class="cls-18" points="62.19 78.53 64.49 82.5 66.78 78.53 62.19 78.53"/>
  </g>
  <g>
    <line class="cls-6" x1="64.49" y1="118.86" x2="64.49" y2="134.52"/>
    <polygon class="cls-18" points="62.19 133.85 64.49 137.82 66.78 133.85 62.19 133.85"/>
  </g>
  <g>
    <line class="cls-6" x1="261.55" y1="69.77" x2="261.55" y2="79.06"/>
    <polygon class="cls-18" points="259.26 78.39 261.55 82.36 263.85 78.39 259.26 78.39"/>
  </g>
  <g>
    <line class="cls-6" x1="261.55" y1="118.23" x2="261.55" y2="125.55"/>
    <polygon class="cls-18" points="259.26 124.88 261.55 128.85 263.85 124.88 259.26 124.88"/>
  </g>
  <g>
    <line class="cls-6" x1="261.55" y1="146.13" x2="261.55" y2="153.45"/>
    <polygon class="cls-18" points="259.26 152.78 261.55 156.75 263.85 152.78 259.26 152.78"/>
  </g>
  <g>
    <line class="cls-4" x1="384.73" y1="18.11" x2="384.73" y2="27.39"/>
    <polygon class="cls-12" points="382.44 26.72 384.73 30.7 387.03 26.72 382.44 26.72"/>
  </g>
  <g>
    <line class="cls-4" x1="330.6" y1="137.49" x2="273.32" y2="137.49"/>
    <polygon class="cls-12" points="273.99 135.2 270.02 137.49 273.99 139.79 273.99 135.2"/>
  </g>
  <g>
    <line class="cls-4" x1="267.76" y1="63.53" x2="371.31" y2="63.53"/>
    <polygon class="cls-12" points="370.64 65.82 374.61 63.53 370.64 61.23 370.64 65.82"/>
  </g>
  <g>
    <polyline class="cls-9" points="447.26 150.75 447.26 156.75 441.26 156.75"/>
    <line class="cls-10" x1="428.88" y1="156.75" x2="335.99" y2="156.75"/>
    <polyline class="cls-9" points="329.8 156.75 323.8 156.75 323.8 150.75"/>
    <line class="cls-7" x1="323.8" y1="139.81" x2="323.8" y2="35.87"/>
    <polyline class="cls-9" points="323.8 30.4 323.8 24.4 329.8 24.4"/>
    <line class="cls-10" x1="342.19" y1="24.4" x2="435.07" y2="24.4"/>
    <polyline class="cls-9" points="441.26 24.4 447.26 24.4 447.26 30.4"/>
    <line class="cls-7" x1="447.26" y1="41.34" x2="447.26" y2="145.28"/>
  </g>
  <g>
    <g>
      <path class="cls-16" d="m27.38,93.34c0-.61-.02-1.09-.05-1.57h.93l.06.95h.03c.29-.54.96-1.09,1.92-1.09.8,0,2.04.48,2.04,2.47v3.46h-1.05v-3.34c0-.94-.35-1.72-1.34-1.72-.69,0-1.23.49-1.42,1.08-.04.13-.07.32-.07.49v3.5h-1.05v-4.23Z"/>
      <path class="cls-16" d="m34.64,94.86c.02,1.43.92,2.01,1.98,2.01.75,0,1.22-.14,1.61-.3l.19.75c-.37.17-1.01.37-1.94.37-1.78,0-2.85-1.19-2.85-2.93s1.04-3.13,2.73-3.13c1.89,0,2.39,1.66,2.39,2.73,0,.22-.01.38-.04.49h-4.07Zm3.09-.76c.01-.67-.27-1.71-1.46-1.71-1.08,0-1.54.97-1.62,1.71h3.07Z"/>
      <path class="cls-16" d="m44.91,95.98c0,.61.02,1.13.05,1.59h-.93l-.06-.95h-.03c-.27.47-.88,1.08-1.92,1.08-.91,0-2-.51-2-2.54v-3.39h1.05v3.2c0,1.1.34,1.86,1.3,1.86.71,0,1.2-.49,1.4-.97.05-.15.1-.34.1-.54v-3.55h1.05v4.21Z"/>
      <path class="cls-16" d="m46.67,93.58c0-.69-.02-1.27-.05-1.81h.92l.04,1.14h.04c.27-.78.91-1.27,1.62-1.27.11,0,.2,0,.29.03v.99c-.11-.02-.21-.03-.36-.03-.74,0-1.27.56-1.41,1.35-.03.15-.04.32-.04.49v3.1h-1.05v-3.99Z"/>
      <path class="cls-16" d="m53.75,97.57l-.09-.73h-.03c-.32.45-.94.86-1.77.86-1.17,0-1.77-.83-1.77-1.66,0-1.41,1.25-2.18,3.49-2.16v-.12c0-.47-.13-1.34-1.32-1.34-.54,0-1.1.16-1.51.43l-.24-.7c.48-.31,1.18-.51,1.92-.51,1.77,0,2.21,1.21,2.21,2.37v2.17c0,.5.02.99.09,1.39h-.95Zm-.16-2.96c-1.14-.02-2.45.18-2.45,1.3,0,.69.46,1.01.99,1.01.76,0,1.25-.48,1.41-.97.04-.11.05-.23.05-.33v-1.01Z"/>
      <path class="cls-16" d="m56.32,89.05h1.05v8.52h-1.05v-8.52Z"/>
      <path class="cls-16" d="m61.69,93.34c0-.61-.02-1.09-.05-1.57h.93l.06.95h.03c.29-.54.96-1.09,1.92-1.09.8,0,2.04.48,2.04,2.47v3.46h-1.05v-3.34c0-.94-.35-1.72-1.34-1.72-.69,0-1.23.49-1.42,1.08-.04.13-.07.32-.07.49v3.5h-1.05v-4.23Z"/>
      <path class="cls-16" d="m68.94,94.86c.02,1.43.93,2.01,1.99,2.01.75,0,1.22-.14,1.61-.3l.18.75c-.37.17-1.01.37-1.94.37-1.78,0-2.85-1.19-2.85-2.93s1.04-3.13,2.73-3.13c1.89,0,2.39,1.66,2.39,2.73,0,.22-.01.38-.04.49h-4.07Zm3.09-.76c0-.67-.27-1.71-1.46-1.71-1.08,0-1.54.97-1.62,1.71h3.08Z"/>
      <path class="cls-16" d="m75.63,90.1v1.67h1.52v.8h-1.52v3.13c0,.72.21,1.13.8,1.13.27,0,.47-.03.61-.08l.05.8c-.21.08-.53.15-.94.15-.48,0-.89-.16-1.14-.45-.29-.32-.41-.83-.41-1.51v-3.17h-.9v-.8h.9v-1.4l1.03-.27Z"/>
      <path class="cls-16" d="m78.86,91.77l.78,2.94c.17.65.31,1.25.43,1.85h.03c.13-.58.32-1.21.52-1.84l.95-2.95h.89l.9,2.9c.21.69.38,1.3.51,1.89h.03c.11-.59.26-1.2.45-1.88l.83-2.91h1.04l-1.87,5.8h-.96l-.88-2.77c-.21-.65-.37-1.23-.51-1.91h-.02c-.15.7-.33,1.3-.53,1.92l-.93,2.76h-.96l-1.75-5.8h1.07Z"/>
      <path class="cls-16" d="m92.41,94.61c0,2.15-1.49,3.09-2.88,3.09-1.57,0-2.79-1.15-2.79-2.99,0-1.94,1.28-3.08,2.88-3.08s2.79,1.21,2.79,2.98Zm-4.6.07c0,1.27.73,2.23,1.76,2.23s1.77-.95,1.77-2.26c0-.98-.49-2.22-1.75-2.22s-1.78,1.15-1.78,2.25Z"/>
      <path class="cls-16" d="m93.74,93.58c0-.69-.02-1.27-.05-1.81h.92l.04,1.14h.04c.27-.78.91-1.27,1.62-1.27.11,0,.2,0,.29.03v.99c-.11-.02-.21-.03-.36-.03-.74,0-1.27.56-1.41,1.35-.03.15-.04.32-.04.49v3.1h-1.05v-3.99Z"/>
      <path class="cls-16" d="m98.76,94.43h.02c.14-.2.34-.46.51-.66l1.71-2h1.27l-2.24,2.39,2.55,3.42h-1.29l-2-2.79-.54.6v2.18h-1.05v-8.52h1.05v5.37Z"/>
      <path class="cls-16" d="m51.68,111.97c.03-.4.05-.98.05-1.5v-7.02h1.05v3.65h.02c.37-.65,1.04-1.06,1.98-1.06,1.44,0,2.45,1.2,2.45,2.95,0,2.08-1.32,3.11-2.61,3.11-.84,0-1.51-.33-1.94-1.08h-.03l-.05.95h-.91Zm1.1-2.32c0,.13.01.26.04.38.2.73.82,1.23,1.58,1.23,1.11,0,1.76-.9,1.76-2.23,0-1.17-.6-2.16-1.73-2.16-.71,0-1.38.5-1.6,1.3-.03.13-.06.27-.06.44v1.04Z"/>
      <path class="cls-16" d="m58.56,103.45h1.05v8.52h-1.05v-8.52Z"/>
      <path class="cls-16" d="m66.64,109.01c0,2.15-1.49,3.09-2.88,3.09-1.57,0-2.79-1.15-2.79-2.99,0-1.94,1.28-3.08,2.88-3.08s2.79,1.21,2.79,2.98Zm-4.6.07c0,1.27.73,2.23,1.76,2.23s1.77-.95,1.77-2.26c0-.98-.49-2.22-1.75-2.22s-1.78,1.15-1.78,2.25Z"/>
      <path class="cls-16" d="m72.13,111.76c-.28.14-.88.34-1.66.34-1.75,0-2.89-1.19-2.89-2.96s1.22-3.09,3.12-3.09c.62,0,1.18.16,1.47.31l-.23.81c-.26-.14-.65-.28-1.23-.28-1.32,0-2.05.99-2.05,2.2,0,1.34.86,2.17,2.02,2.17.59,0,.99-.15,1.29-.28l.18.79Z"/>
      <path class="cls-16" d="m74.41,108.83h.02c.14-.2.34-.46.51-.66l1.71-2h1.27l-2.24,2.39,2.55,3.42h-1.29l-2-2.79-.54.6v2.18h-1.05v-8.52h1.05v5.37Z"/>
    </g>
    <g>
      <path class="cls-16" d="m43.92,186c-.87,1.18-1.5,2.73-1.5,4.91s.66,3.66,1.5,4.86h-.82c-.76-.99-1.57-2.53-1.57-4.87,0-2.36.81-3.9,1.57-4.91h.82Z"/>
      <path class="cls-16" d="m48.26,194.33l-.09-.73h-.03c-.32.45-.94.86-1.77.86-1.17,0-1.77-.83-1.77-1.66,0-1.41,1.25-2.18,3.49-2.16v-.12c0-.47-.13-1.34-1.32-1.34-.54,0-1.1.16-1.51.43l-.24-.7c.48-.31,1.18-.51,1.92-.51,1.77,0,2.21,1.21,2.21,2.37v2.17c0,.5.02.99.09,1.39h-.95Zm-.16-2.96c-1.14-.02-2.45.18-2.45,1.3,0,.69.46,1.01.99,1.01.76,0,1.25-.48,1.41-.97.04-.11.05-.23.05-.33v-1.01Z"/>
      <path class="cls-16" d="m50.19,195.78c.85-1.18,1.5-2.74,1.5-4.9s-.64-3.68-1.5-4.88h.82c.76.99,1.57,2.52,1.57,4.89,0,2.35-.81,3.88-1.57,4.89h-.82Z"/>
      <path class="cls-16" d="m56.81,186.36c.46-.1,1.18-.17,1.91-.17,1.05,0,1.72.18,2.22.59.42.32.67.8.67,1.43,0,.78-.52,1.47-1.37,1.77v.03c.77.19,1.67.82,1.67,2.03,0,.69-.27,1.22-.69,1.61-.56.52-1.47.76-2.79.76-.72,0-1.27-.05-1.62-.09v-7.95Zm1.04,3.31h.96c1.09,0,1.74-.58,1.74-1.37,0-.94-.71-1.32-1.77-1.32-.48,0-.76.04-.93.08v2.61Zm0,3.87c.21.04.5.05.88.05,1.08,0,2.08-.4,2.08-1.57,0-1.1-.95-1.56-2.09-1.56h-.87v3.08Z"/>
      <path class="cls-16" d="m63.92,191.62c.02,1.43.92,2.01,1.98,2.01.75,0,1.22-.14,1.61-.3l.19.75c-.37.17-1.01.37-1.94.37-1.78,0-2.85-1.19-2.85-2.93s1.04-3.13,2.73-3.13c1.89,0,2.39,1.66,2.39,2.73,0,.22-.01.38-.04.49h-4.07Zm3.09-.76c.01-.67-.27-1.71-1.46-1.71-1.08,0-1.54.97-1.62,1.71h3.07Z"/>
      <path class="cls-16" d="m69.45,194.33v-5h-.81v-.8h.81v-.28c0-.82.19-1.56.67-2.03.4-.38.93-.54,1.41-.54.38,0,.7.08.9.17l-.14.81c-.16-.07-.37-.13-.68-.13-.89,0-1.12.79-1.12,1.69v.31h1.4v.8h-1.4v5h-1.05Z"/>
      <path class="cls-16" d="m77.94,191.38c0,2.15-1.49,3.09-2.88,3.09-1.57,0-2.79-1.15-2.79-2.99,0-1.94,1.28-3.08,2.88-3.08s2.79,1.21,2.79,2.98Zm-4.6.07c0,1.27.73,2.23,1.76,2.23s1.77-.95,1.77-2.26c0-.98-.49-2.22-1.75-2.22s-1.78,1.15-1.78,2.25Z"/>
      <path class="cls-16" d="m79.28,190.34c0-.69-.02-1.27-.05-1.81h.92l.04,1.14h.04c.27-.78.91-1.27,1.62-1.27.11,0,.2,0,.29.03v.99c-.11-.02-.21-.03-.36-.03-.74,0-1.27.56-1.41,1.35-.03.15-.04.32-.04.49v3.1h-1.05v-3.99Z"/>
      <path class="cls-16" d="m83.67,191.62c.02,1.43.92,2.01,1.98,2.01.75,0,1.22-.14,1.61-.3l.19.75c-.37.17-1.01.37-1.94.37-1.78,0-2.85-1.19-2.85-2.93s1.04-3.13,2.73-3.13c1.89,0,2.39,1.66,2.39,2.73,0,.22-.01.38-.04.49h-4.07Zm3.09-.76c.01-.67-.27-1.71-1.46-1.71-1.08,0-1.54.97-1.62,1.71h3.07Z"/>
    </g>
    <g>
      <path class="cls-16" d="m313.32,186c-.87,1.18-1.5,2.73-1.5,4.91s.66,3.66,1.5,4.86h-.82c-.76-.99-1.57-2.53-1.57-4.87,0-2.36.81-3.9,1.57-4.91h.82Z"/>
      <path class="cls-16" d="m314.39,194.33c.03-.4.05-.98.05-1.5v-7.02h1.05v3.65h.02c.37-.65,1.04-1.06,1.98-1.06,1.44,0,2.45,1.2,2.45,2.95,0,2.08-1.32,3.11-2.61,3.11-.84,0-1.51-.33-1.94-1.09h-.03l-.05.95h-.91Zm1.1-2.32c0,.13.02.26.04.38.2.73.82,1.23,1.58,1.23,1.11,0,1.76-.9,1.76-2.23,0-1.17-.6-2.16-1.73-2.16-.71,0-1.38.5-1.6,1.3-.03.13-.06.27-.06.44v1.04Z"/>
      <path class="cls-16" d="m320.59,195.78c.85-1.18,1.5-2.74,1.5-4.9s-.64-3.68-1.5-4.88h.82c.76.99,1.57,2.52,1.57,4.89,0,2.35-.81,3.88-1.57,4.89h-.82Z"/>
      <path class="cls-16" d="m328.52,191.79l-.83,2.54h-1.08l2.75-8.08h1.26l2.76,8.08h-1.12l-.87-2.54h-2.87Zm2.66-.82l-.8-2.33c-.17-.53-.3-1.01-.42-1.47h-.03c-.12.47-.24.97-.4,1.46l-.8,2.34h2.44Z"/>
      <path class="cls-16" d="m334.54,194.33v-5h-.81v-.8h.81v-.28c0-.82.19-1.56.67-2.03.4-.38.93-.54,1.41-.54.38,0,.7.08.9.17l-.14.81c-.16-.07-.37-.13-.68-.13-.89,0-1.12.79-1.12,1.69v.31h1.4v.8h-1.4v5h-1.05Z"/>
      <path class="cls-16" d="m339.34,186.86v1.67h1.52v.8h-1.52v3.13c0,.72.21,1.13.8,1.13.27,0,.47-.03.61-.08l.05.8c-.21.08-.53.15-.94.15-.49,0-.89-.16-1.14-.45-.29-.32-.41-.83-.41-1.51v-3.17h-.9v-.8h.9v-1.4l1.03-.27Z"/>
      <path class="cls-16" d="m342.57,191.62c.02,1.43.92,2.01,1.98,2.01.75,0,1.22-.14,1.61-.3l.18.75c-.37.17-1.01.37-1.93.37-1.78,0-2.85-1.19-2.85-2.93s1.04-3.13,2.73-3.13c1.89,0,2.39,1.66,2.39,2.73,0,.22-.01.38-.04.49h-4.07Zm3.09-.76c.01-.67-.27-1.71-1.46-1.71-1.08,0-1.54.97-1.62,1.71h3.07Z"/>
      <path class="cls-16" d="m347.99,190.34c0-.69-.02-1.27-.05-1.81h.92l.04,1.14h.04c.27-.78.91-1.27,1.62-1.27.11,0,.2,0,.29.03v.99c-.11-.02-.21-.03-.36-.03-.74,0-1.27.56-1.41,1.35-.03.15-.04.32-.04.49v3.1h-1.05v-3.99Z"/>
    </g>
    <g>
      <path class="cls-16" d="m224.45,93.34c0-.61-.02-1.09-.05-1.57h.93l.06.95h.03c.29-.54.96-1.09,1.92-1.09.8,0,2.04.48,2.04,2.47v3.46h-1.05v-3.34c0-.94-.35-1.72-1.34-1.72-.69,0-1.23.49-1.42,1.08-.04.13-.07.32-.07.49v3.5h-1.05v-4.23Z"/>
      <path class="cls-16" d="m231.7,94.86c.02,1.43.92,2.01,1.98,2.01.75,0,1.22-.14,1.61-.3l.19.75c-.37.17-1.01.37-1.94.37-1.78,0-2.85-1.19-2.85-2.93s1.04-3.13,2.73-3.13c1.89,0,2.39,1.66,2.39,2.73,0,.22-.01.38-.04.49h-4.07Zm3.09-.76c.01-.67-.27-1.71-1.46-1.71-1.08,0-1.54.97-1.62,1.71h3.07Z"/>
      <path class="cls-16" d="m241.97,95.98c0,.61.02,1.13.05,1.59h-.93l-.06-.95h-.03c-.27.47-.88,1.08-1.92,1.08-.91,0-2-.51-2-2.54v-3.39h1.05v3.2c0,1.1.34,1.86,1.3,1.86.71,0,1.2-.49,1.4-.97.05-.15.1-.34.1-.54v-3.55h1.05v4.21Z"/>
      <path class="cls-16" d="m243.73,93.58c0-.69-.02-1.27-.05-1.81h.92l.04,1.14h.04c.27-.78.91-1.27,1.62-1.27.11,0,.2,0,.29.03v.99c-.11-.02-.21-.03-.36-.03-.74,0-1.27.56-1.41,1.35-.03.15-.04.32-.04.49v3.1h-1.05v-3.99Z"/>
      <path class="cls-16" d="m250.81,97.57l-.09-.73h-.03c-.32.45-.94.86-1.77.86-1.17,0-1.77-.83-1.77-1.66,0-1.41,1.25-2.18,3.49-2.16v-.12c0-.47-.13-1.34-1.32-1.34-.54,0-1.1.16-1.51.43l-.24-.7c.48-.31,1.18-.51,1.92-.51,1.77,0,2.21,1.21,2.21,2.37v2.17c0,.5.02.99.09,1.39h-.95Zm-.16-2.96c-1.14-.02-2.45.18-2.45,1.3,0,.69.46,1.01.99,1.01.76,0,1.25-.48,1.41-.97.04-.11.05-.23.05-.33v-1.01Z"/>
      <path class="cls-16" d="m253.38,89.05h1.05v8.52h-1.05v-8.52Z"/>
      <path class="cls-16" d="m258.76,93.34c0-.61-.02-1.09-.05-1.57h.93l.06.95h.03c.29-.54.96-1.09,1.92-1.09.8,0,2.04.48,2.04,2.47v3.46h-1.05v-3.34c0-.94-.35-1.72-1.34-1.72-.69,0-1.23.49-1.42,1.08-.04.13-.07.32-.07.49v3.5h-1.05v-4.23Z"/>
      <path class="cls-16" d="m266.01,94.86c.02,1.43.93,2.01,1.99,2.01.75,0,1.22-.14,1.61-.3l.18.75c-.37.17-1.01.37-1.94.37-1.78,0-2.85-1.19-2.85-2.93s1.04-3.13,2.73-3.13c1.89,0,2.39,1.66,2.39,2.73,0,.22-.01.38-.04.49h-4.07Zm3.09-.76c0-.67-.27-1.71-1.46-1.71-1.08,0-1.54.97-1.62,1.71h3.08Z"/>
      <path class="cls-16" d="m272.69,90.1v1.67h1.52v.8h-1.52v3.13c0,.72.21,1.13.8,1.13.27,0,.47-.03.61-.08l.05.8c-.21.08-.53.15-.94.15-.48,0-.89-.16-1.14-.45-.29-.32-.41-.83-.41-1.51v-3.17h-.9v-.8h.9v-1.4l1.03-.27Z"/>
      <path class="cls-16" d="m275.92,91.77l.78,2.94c.17.65.31,1.25.43,1.85h.03c.13-.58.32-1.21.52-1.84l.95-2.95h.89l.9,2.9c.21.69.38,1.3.51,1.89h.03c.11-.59.26-1.2.45-1.88l.83-2.91h1.04l-1.87,5.8h-.96l-.88-2.77c-.21-.65-.37-1.23-.51-1.91h-.02c-.15.7-.33,1.3-.53,1.92l-.93,2.76h-.96l-1.75-5.8h1.07Z"/>
      <path class="cls-16" d="m289.47,94.61c0,2.15-1.49,3.09-2.88,3.09-1.57,0-2.79-1.15-2.79-2.99,0-1.94,1.28-3.08,2.88-3.08s2.79,1.21,2.79,2.98Zm-4.6.07c0,1.27.73,2.23,1.76,2.23s1.77-.95,1.77-2.26c0-.98-.49-2.22-1.75-2.22s-1.78,1.15-1.78,2.25Z"/>
      <path class="cls-16" d="m290.81,93.58c0-.69-.02-1.27-.05-1.81h.92l.04,1.14h.04c.27-.78.91-1.27,1.62-1.27.11,0,.2,0,.29.03v.99c-.11-.02-.21-.03-.36-.03-.74,0-1.27.56-1.41,1.35-.03.15-.04.32-.04.49v3.1h-1.05v-3.99Z"/>
      <path class="cls-16" d="m295.83,94.43h.02c.14-.2.34-.46.51-.66l1.71-2h1.27l-2.24,2.39,2.55,3.42h-1.29l-2-2.79-.54.6v2.18h-1.05v-8.52h1.05v5.37Z"/>
      <path class="cls-16" d="m227.45,111.97c.03-.4.05-.98.05-1.5v-7.02h1.05v3.65h.02c.37-.65,1.04-1.06,1.98-1.06,1.44,0,2.45,1.2,2.45,2.95,0,2.08-1.32,3.11-2.61,3.11-.84,0-1.51-.33-1.94-1.08h-.03l-.05.95h-.91Zm1.1-2.32c0,.13.02.26.04.38.2.73.82,1.23,1.58,1.23,1.11,0,1.76-.9,1.76-2.23,0-1.17-.6-2.16-1.73-2.16-.71,0-1.38.5-1.6,1.3-.03.13-.06.27-.06.44v1.04Z"/>
      <path class="cls-16" d="m234.33,103.45h1.05v8.52h-1.05v-8.52Z"/>
      <path class="cls-16" d="m242.41,109.01c0,2.15-1.49,3.09-2.88,3.09-1.57,0-2.79-1.15-2.79-2.99,0-1.94,1.28-3.08,2.88-3.08s2.79,1.21,2.79,2.98Zm-4.6.07c0,1.27.73,2.23,1.76,2.23s1.77-.95,1.77-2.26c0-.98-.49-2.22-1.75-2.22s-1.78,1.15-1.78,2.25Z"/>
      <path class="cls-16" d="m247.9,111.76c-.28.14-.88.34-1.66.34-1.75,0-2.89-1.19-2.89-2.96s1.22-3.09,3.12-3.09c.62,0,1.18.16,1.47.31l-.23.81c-.26-.14-.65-.28-1.23-.28-1.32,0-2.05.99-2.05,2.2,0,1.34.86,2.17,2.02,2.17.59,0,.99-.15,1.29-.28l.18.79Z"/>
      <path class="cls-16" d="m250.19,108.83h.02c.14-.2.34-.46.51-.66l1.71-2h1.27l-2.24,2.39,2.55,3.42h-1.29l-2-2.79-.54.6v2.18h-1.05v-8.52h1.05v5.37Z"/>
      <path class="cls-16" d="m259.6,103.64c-.87,1.18-1.5,2.73-1.5,4.91s.66,3.66,1.5,4.86h-.82c-.76-.99-1.57-2.53-1.57-4.87,0-2.36.81-3.9,1.57-4.91h.82Z"/>
      <path class="cls-16" d="m260.72,103.45h1.05v8.52h-1.05v-8.52Z"/>
      <path class="cls-16" d="m268.8,109.01c0,2.15-1.49,3.09-2.88,3.09-1.57,0-2.79-1.15-2.79-2.99,0-1.94,1.28-3.08,2.88-3.08s2.79,1.21,2.79,2.98Zm-4.6.07c0,1.27.73,2.23,1.76,2.23s1.77-.95,1.77-2.26c0-.98-.49-2.22-1.75-2.22s-1.78,1.15-1.78,2.25Z"/>
      <path class="cls-16" d="m274.29,111.76c-.28.14-.88.34-1.66.34-1.75,0-2.89-1.19-2.89-2.96s1.22-3.09,3.12-3.09c.62,0,1.18.16,1.47.31l-.23.81c-.26-.14-.65-.28-1.23-.28-1.32,0-2.05.99-2.05,2.2,0,1.34.86,2.17,2.02,2.17.59,0,.99-.15,1.29-.28l.18.79Z"/>
      <path class="cls-16" d="m276.57,108.83h.02c.14-.2.34-.46.51-.66l1.71-2h1.27l-2.24,2.39,2.55,3.42h-1.29l-2-2.79-.54.6v2.18h-1.05v-8.52h1.05v5.37Z"/>
      <path class="cls-16" d="m281.76,109.26c.02,1.43.93,2.01,1.99,2.01.75,0,1.22-.13,1.61-.3l.18.75c-.37.17-1.01.37-1.94.37-1.78,0-2.85-1.19-2.85-2.93s1.04-3.13,2.73-3.13c1.89,0,2.39,1.66,2.39,2.73,0,.22-.01.38-.04.49h-4.07Zm3.09-.76c0-.67-.27-1.71-1.46-1.71-1.08,0-1.54.97-1.62,1.71h3.08Z"/>
      <path class="cls-16" d="m292.18,103.45v7.02c0,.52.02,1.1.05,1.5h-.94l-.05-1h-.03c-.32.65-1.02,1.13-1.97,1.13-1.41,0-2.49-1.19-2.49-2.95,0-1.94,1.19-3.12,2.61-3.12.89,0,1.49.42,1.75.88h.02v-3.46h1.05Zm-1.05,5.07c0-.14-.01-.31-.04-.45-.16-.67-.73-1.21-1.53-1.21-1.09,0-1.75.96-1.75,2.23,0,1.18.59,2.16,1.72,2.16.71,0,1.35-.48,1.54-1.27.04-.14.05-.29.05-.45v-1.01Z"/>
      <path class="cls-16" d="m293.31,113.41c.85-1.18,1.5-2.74,1.5-4.9s-.64-3.68-1.5-4.88h.82c.76.99,1.57,2.52,1.57,4.89,0,2.35-.81,3.88-1.57,4.89h-.82Z"/>
    </g>
    <g>
      <path class="cls-16" d="m351.19,97.3v1.67h1.52v.8h-1.52v3.13c0,.72.21,1.13.8,1.13.27,0,.47-.03.61-.08l.05.8c-.21.08-.53.15-.94.15-.48,0-.89-.16-1.14-.45-.29-.32-.41-.83-.41-1.51v-3.17h-.9v-.8h.9v-1.4l1.03-.27Z"/>
      <path class="cls-16" d="m353.89,100.78c0-.69-.02-1.27-.05-1.81h.92l.04,1.14h.04c.27-.78.91-1.27,1.62-1.27.11,0,.2,0,.29.03v.99c-.11-.02-.21-.03-.36-.03-.74,0-1.27.56-1.41,1.35-.03.15-.04.32-.04.49v3.1h-1.05v-3.99Z"/>
      <path class="cls-16" d="m360.98,104.77l-.09-.73h-.03c-.32.45-.94.86-1.77.86-1.17,0-1.77-.83-1.77-1.66,0-1.41,1.25-2.18,3.49-2.16v-.12c0-.47-.13-1.34-1.32-1.34-.54,0-1.1.16-1.51.43l-.24-.7c.48-.31,1.18-.51,1.92-.51,1.77,0,2.21,1.21,2.21,2.37v2.17c0,.5.02.99.09,1.39h-.95Zm-.16-2.96c-1.14-.02-2.45.18-2.45,1.3,0,.69.46,1.01.99,1.01.76,0,1.25-.48,1.41-.97.04-.11.05-.23.05-.33v-1.01Z"/>
      <path class="cls-16" d="m364.72,97.33c0,.36-.25.66-.67.66-.38,0-.64-.3-.64-.66,0-.36.27-.66.66-.66s.65.29.65.66Zm-1.18,7.44v-5.8h1.05v5.8h-1.05Z"/>
      <path class="cls-16" d="m366.35,100.54c0-.61-.02-1.09-.05-1.57h.93l.06.95h.03c.29-.54.96-1.09,1.92-1.09.8,0,2.04.48,2.04,2.47v3.46h-1.05v-3.34c0-.94-.35-1.72-1.34-1.72-.69,0-1.23.49-1.42,1.08-.04.13-.07.32-.07.49v3.5h-1.05v-4.23Z"/>
      <path class="cls-16" d="m376.23,104.77l-.09-.73h-.03c-.32.45-.94.86-1.77.86-1.17,0-1.77-.83-1.77-1.66,0-1.41,1.25-2.18,3.49-2.16v-.12c0-.47-.13-1.34-1.32-1.34-.54,0-1.1.16-1.51.43l-.24-.7c.48-.31,1.18-.51,1.92-.51,1.77,0,2.21,1.21,2.21,2.37v2.17c0,.5.02.99.09,1.39h-.95Zm-.16-2.96c-1.14-.02-2.45.18-2.45,1.3,0,.69.46,1.01.99,1.01.76,0,1.25-.48,1.41-.97.04-.11.05-.23.05-.33v-1.01Z"/>
      <path class="cls-16" d="m378.75,104.77c.03-.4.05-.98.05-1.5v-7.02h1.05v3.65h.02c.37-.65,1.04-1.06,1.98-1.06,1.44,0,2.45,1.2,2.45,2.95,0,2.08-1.32,3.11-2.61,3.11-.84,0-1.51-.33-1.94-1.09h-.03l-.05.95h-.91Zm1.1-2.32c0,.13.01.26.04.38.2.73.82,1.23,1.58,1.23,1.11,0,1.76-.9,1.76-2.23,0-1.17-.6-2.16-1.73-2.16-.71,0-1.38.5-1.6,1.3-.03.13-.06.27-.06.44v1.04Z"/>
      <path class="cls-16" d="m385.62,96.25h1.05v8.52h-1.05v-8.52Z"/>
      <path class="cls-16" d="m389.05,102.06c.02,1.43.93,2.01,1.99,2.01.75,0,1.22-.14,1.61-.3l.18.75c-.37.17-1.01.37-1.94.37-1.78,0-2.85-1.19-2.85-2.93s1.04-3.13,2.73-3.13c1.89,0,2.39,1.66,2.39,2.73,0,.22-.01.38-.04.49h-4.07Zm3.09-.76c.01-.67-.27-1.71-1.45-1.71-1.08,0-1.54.97-1.62,1.71h3.07Z"/>
      <path class="cls-16" d="m401.15,104.56c-.28.14-.88.34-1.66.34-1.75,0-2.89-1.19-2.89-2.96s1.22-3.09,3.12-3.09c.62,0,1.18.16,1.47.31l-.23.81c-.26-.14-.65-.28-1.23-.28-1.32,0-2.05.99-2.05,2.2,0,1.34.86,2.17,2.02,2.17.59,0,.99-.15,1.29-.28l.18.79Z"/>
      <path class="cls-16" d="m407.57,101.81c0,2.15-1.49,3.09-2.88,3.09-1.57,0-2.79-1.15-2.79-2.99,0-1.94,1.28-3.08,2.88-3.08s2.79,1.21,2.79,2.98Zm-4.6.07c0,1.27.73,2.23,1.76,2.23s1.77-.95,1.77-2.26c0-.98-.49-2.22-1.75-2.22s-1.78,1.15-1.78,2.25Z"/>
      <path class="cls-16" d="m408.9,100.86c0-.74-.02-1.34-.05-1.89h.94l.06.99h.02c.42-.71,1.12-1.12,2.06-1.12,1.4,0,2.46,1.18,2.46,2.94,0,2.09-1.28,3.12-2.64,3.12-.78,0-1.44-.34-1.79-.91h-.02v3.16h-1.05v-6.29Zm1.05,1.55c0,.15.01.29.04.43.19.74.83,1.24,1.58,1.24,1.12,0,1.76-.92,1.76-2.25,0-1.16-.61-2.15-1.72-2.15-.72,0-1.4.51-1.6,1.3-.03.14-.07.29-.07.43v1Z"/>
      <path class="cls-16" d="m416.03,98.97l1.27,3.43c.14.38.28.84.37,1.18h.03c.1-.34.23-.79.37-1.21l1.15-3.41h1.12l-1.59,4.13c-.75,1.99-1.27,3.01-1.99,3.64-.52.45-1.04.63-1.29.68l-.26-.88c.26-.08.61-.25.92-.52.28-.23.64-.64.88-1.17.05-.11.08-.19.08-.25,0-.06-.02-.14-.07-.27l-2.14-5.35h1.15Z"/>
    </g>
    <g>
      <path class="cls-16" d="m342.9,44.48l2.62-3.41c.26-.32.49-.6.76-.91v-.02h-3.15v-.84h4.43v.66s-2.6,3.37-2.6,3.37c-.25.31-.49.61-.75.9v.03h3.39v.84h-4.71v-.62Z"/>
      <path class="cls-16" d="m349.2,42.39c.02,1.43.93,2.01,1.99,2.01.75,0,1.22-.13,1.61-.3l.18.75c-.37.17-1.01.37-1.94.37-1.78,0-2.85-1.19-2.85-2.93s1.04-3.13,2.73-3.13c1.89,0,2.39,1.66,2.39,2.73,0,.22-.01.38-.04.49h-4.07Zm3.09-.76c.01-.67-.27-1.71-1.45-1.71-1.08,0-1.54.97-1.62,1.71h3.07Z"/>
      <path class="cls-16" d="m354.62,41.1c0-.69-.02-1.27-.05-1.81h.92l.04,1.14h.04c.27-.78.91-1.27,1.62-1.27.11,0,.2,0,.29.03v.99c-.11-.02-.21-.03-.36-.03-.74,0-1.27.56-1.41,1.35-.03.15-.04.32-.04.49v3.1h-1.05v-3.99Z"/>
      <path class="cls-16" d="m363.68,42.14c0,2.15-1.49,3.09-2.88,3.09-1.57,0-2.79-1.15-2.79-2.99,0-1.94,1.28-3.08,2.88-3.08s2.79,1.21,2.79,2.98Zm-4.6.07c0,1.27.73,2.23,1.76,2.23s1.77-.95,1.77-2.26c0-.98-.49-2.22-1.75-2.22s-1.78,1.15-1.78,2.25Z"/>
      <path class="cls-16" d="m371.69,44.89c-.28.14-.88.34-1.66.34-1.75,0-2.89-1.19-2.89-2.96s1.22-3.09,3.12-3.09c.62,0,1.18.16,1.47.31l-.23.81c-.26-.14-.65-.28-1.23-.28-1.32,0-2.05.99-2.05,2.2,0,1.34.86,2.17,2.02,2.17.59,0,.99-.15,1.29-.28l.18.79Z"/>
      <path class="cls-16" d="m378.11,42.14c0,2.15-1.49,3.09-2.88,3.09-1.57,0-2.79-1.15-2.79-2.99,0-1.94,1.28-3.08,2.88-3.08s2.79,1.21,2.79,2.98Zm-4.6.07c0,1.27.73,2.23,1.76,2.23s1.77-.95,1.77-2.26c0-.98-.49-2.22-1.75-2.22s-1.78,1.15-1.78,2.25Z"/>
      <path class="cls-16" d="m379.45,40.86c0-.61-.02-1.09-.05-1.57h.93l.06.95h.03c.29-.54.96-1.09,1.92-1.09.8,0,2.04.48,2.04,2.47v3.46h-1.05v-3.34c0-.94-.35-1.72-1.34-1.72-.69,0-1.23.49-1.42,1.08-.04.13-.07.32-.07.49v3.5h-1.05v-4.23Z"/>
      <path class="cls-16" d="m386.36,39.3l1.14,3.25c.2.54.35,1.02.48,1.5h.03c.13-.48.3-.96.49-1.5l1.13-3.25h1.1l-2.28,5.8h-1.01l-2.21-5.8h1.13Z"/>
      <path class="cls-16" d="m396.86,42.14c0,2.15-1.49,3.09-2.88,3.09-1.57,0-2.79-1.15-2.79-2.99,0-1.94,1.28-3.08,2.88-3.08s2.79,1.21,2.79,2.98Zm-4.6.07c0,1.27.73,2.23,1.76,2.23s1.77-.95,1.77-2.26c0-.98-.49-2.22-1.75-2.22s-1.78,1.15-1.78,2.25Z"/>
      <path class="cls-16" d="m398.19,36.58h1.05v8.52h-1.05v-8.52Z"/>
      <path class="cls-16" d="m405.88,43.51c0,.61.02,1.13.05,1.59h-.93l-.06-.95h-.03c-.27.47-.88,1.08-1.92,1.08-.91,0-2-.51-2-2.54v-3.39h1.05v3.2c0,1.1.34,1.86,1.3,1.86.71,0,1.2-.5,1.4-.97.05-.15.1-.34.1-.54v-3.55h1.05v4.21Z"/>
      <path class="cls-16" d="m408.9,37.63v1.67h1.52v.8h-1.52v3.13c0,.72.21,1.13.8,1.13.27,0,.47-.03.61-.08l.05.8c-.21.08-.53.15-.94.15-.48,0-.89-.16-1.14-.45-.29-.32-.41-.83-.41-1.51v-3.17h-.9v-.8h.9v-1.4l1.03-.27Z"/>
      <path class="cls-16" d="m412.79,37.66c0,.36-.25.66-.67.66-.38,0-.64-.3-.64-.66s.27-.66.66-.66.65.29.65.66Zm-1.18,7.44v-5.8h1.05v5.8h-1.05Z"/>
      <path class="cls-16" d="m419.67,42.14c0,2.15-1.49,3.09-2.88,3.09-1.57,0-2.79-1.15-2.79-2.99,0-1.94,1.28-3.08,2.88-3.08s2.79,1.21,2.79,2.98Zm-4.6.07c0,1.27.73,2.23,1.76,2.23s1.77-.95,1.77-2.26c0-.98-.49-2.22-1.75-2.22s-1.78,1.15-1.78,2.25Z"/>
      <path class="cls-16" d="m421.01,40.86c0-.61-.02-1.09-.05-1.57h.93l.06.95h.03c.29-.54.96-1.09,1.92-1.09.8,0,2.04.48,2.04,2.47v3.46h-1.05v-3.34c0-.94-.35-1.72-1.34-1.72-.69,0-1.23.49-1.42,1.08-.04.13-.07.32-.07.49v3.5h-1.05v-4.23Z"/>
    </g>
    <g>
      <path class="cls-16" d="m342.9,141.14l2.62-3.41c.26-.32.49-.6.76-.91v-.02h-3.15v-.84h4.43v.66s-2.6,3.37-2.6,3.37c-.25.31-.49.61-.75.9v.03h3.39v.84h-4.71v-.62Z"/>
      <path class="cls-16" d="m349.2,139.04c.02,1.43.93,2.01,1.99,2.01.75,0,1.22-.13,1.61-.3l.18.75c-.37.17-1.01.37-1.94.37-1.78,0-2.85-1.19-2.85-2.93s1.04-3.13,2.73-3.13c1.89,0,2.39,1.66,2.39,2.73,0,.22-.01.38-.04.49h-4.07Zm3.09-.76c.01-.67-.27-1.71-1.45-1.71-1.08,0-1.54.97-1.62,1.71h3.07Z"/>
      <path class="cls-16" d="m354.62,137.76c0-.69-.02-1.27-.05-1.81h.92l.04,1.14h.04c.27-.78.91-1.27,1.62-1.27.11,0,.2,0,.29.03v.99c-.11-.02-.21-.03-.36-.03-.74,0-1.27.56-1.41,1.35-.03.15-.04.32-.04.49v3.1h-1.05v-3.99Z"/>
      <path class="cls-16" d="m363.68,138.79c0,2.15-1.49,3.09-2.88,3.09-1.57,0-2.79-1.15-2.79-2.99,0-1.94,1.28-3.08,2.88-3.08s2.79,1.21,2.79,2.98Zm-4.6.07c0,1.27.73,2.23,1.76,2.23s1.77-.95,1.77-2.26c0-.98-.49-2.22-1.75-2.22s-1.78,1.15-1.78,2.25Z"/>
      <path class="cls-16" d="m371.69,141.54c-.28.14-.88.34-1.66.34-1.75,0-2.89-1.19-2.89-2.96s1.22-3.09,3.12-3.09c.62,0,1.18.16,1.47.31l-.23.81c-.26-.14-.65-.28-1.23-.28-1.32,0-2.05.99-2.05,2.2,0,1.34.86,2.17,2.02,2.17.59,0,.99-.15,1.29-.28l.18.79Z"/>
      <path class="cls-16" d="m378.11,138.79c0,2.15-1.49,3.09-2.88,3.09-1.57,0-2.79-1.15-2.79-2.99,0-1.94,1.28-3.08,2.88-3.08s2.79,1.21,2.79,2.98Zm-4.6.07c0,1.27.73,2.23,1.76,2.23s1.77-.95,1.77-2.26c0-.98-.49-2.22-1.75-2.22s-1.78,1.15-1.78,2.25Z"/>
      <path class="cls-16" d="m379.45,137.52c0-.61-.02-1.09-.05-1.57h.93l.06.95h.03c.29-.54.96-1.09,1.92-1.09.8,0,2.04.48,2.04,2.47v3.46h-1.05v-3.34c0-.94-.35-1.72-1.34-1.72-.69,0-1.23.49-1.42,1.08-.04.13-.07.32-.07.49v3.5h-1.05v-4.23Z"/>
      <path class="cls-16" d="m386.36,135.95l1.14,3.25c.2.54.35,1.02.48,1.5h.03c.13-.48.3-.96.49-1.5l1.13-3.25h1.1l-2.28,5.8h-1.01l-2.21-5.8h1.13Z"/>
      <path class="cls-16" d="m396.86,138.79c0,2.15-1.49,3.09-2.88,3.09-1.57,0-2.79-1.15-2.79-2.99,0-1.94,1.28-3.08,2.88-3.08s2.79,1.21,2.79,2.98Zm-4.6.07c0,1.27.73,2.23,1.76,2.23s1.77-.95,1.77-2.26c0-.98-.49-2.22-1.75-2.22s-1.78,1.15-1.78,2.25Z"/>
      <path class="cls-16" d="m398.19,133.24h1.05v8.52h-1.05v-8.52Z"/>
      <path class="cls-16" d="m405.88,140.16c0,.61.02,1.13.05,1.59h-.93l-.06-.95h-.03c-.27.47-.88,1.08-1.92,1.08-.91,0-2-.51-2-2.54v-3.39h1.05v3.2c0,1.1.34,1.86,1.3,1.86.71,0,1.2-.5,1.4-.97.05-.15.1-.34.1-.54v-3.55h1.05v4.21Z"/>
      <path class="cls-16" d="m408.9,134.28v1.67h1.52v.8h-1.52v3.13c0,.72.21,1.13.8,1.13.27,0,.47-.03.61-.08l.05.8c-.21.08-.53.15-.94.15-.48,0-.89-.16-1.14-.45-.29-.32-.41-.83-.41-1.51v-3.17h-.9v-.8h.9v-1.4l1.03-.27Z"/>
      <path class="cls-16" d="m412.79,134.31c0,.36-.25.66-.67.66-.38,0-.64-.3-.64-.66s.27-.66.66-.66.65.29.65.66Zm-1.18,7.44v-5.8h1.05v5.8h-1.05Z"/>
      <path class="cls-16" d="m419.67,138.79c0,2.15-1.49,3.09-2.88,3.09-1.57,0-2.79-1.15-2.79-2.99,0-1.94,1.28-3.08,2.88-3.08s2.79,1.21,2.79,2.98Zm-4.6.07c0,1.27.73,2.23,1.76,2.23s1.77-.95,1.77-2.26c0-.98-.49-2.22-1.75-2.22s-1.78,1.15-1.78,2.25Z"/>
      <path class="cls-16" d="m421.01,137.52c0-.61-.02-1.09-.05-1.57h.93l.06.95h.03c.29-.54.96-1.09,1.92-1.09.8,0,2.04.48,2.04,2.47v3.46h-1.05v-3.34c0-.94-.35-1.72-1.34-1.72-.69,0-1.23.49-1.42,1.08-.04.13-.07.32-.07.49v3.5h-1.05v-4.23Z"/>
    </g>
    <path class="cls-18" d="m60.6,59.33h3.24v.18c-.19.03-.34.09-.45.18-.11.09-.16.21-.16.35,0,.1.03.21.08.33s.16.31.33.58l.21.34.5.83,1-1.27c.19-.23.31-.41.38-.52.06-.12.1-.23.1-.34,0-.27-.16-.43-.47-.48v-.18h2.19v.18c-.34.07-.65.22-.93.43-.29.21-.6.54-.94.97l-1.14,1.44,1.68,2.62c.26.4.5.7.72.89.13.11.25.19.36.24.11.05.25.08.42.11v.17h-3.34v-.17c.2-.03.34-.07.42-.11.17-.09.25-.22.25-.38s-.1-.4-.31-.71l-.18-.28-.85-1.33-1.1,1.35c-.19.24-.32.42-.39.53s-.1.23-.1.34c0,.3.23.5.69.59v.17h-2.33v-.17c.15-.03.28-.06.39-.11.1-.04.22-.12.35-.22.23-.18.51-.48.86-.92l1.48-1.83-1.55-2.34c-.31-.46-.55-.77-.72-.93-.17-.16-.39-.27-.67-.35v-.18Z"/>
    <path class="cls-18" d="m257.95,158.72h3.22v.18c-.23.03-.39.08-.49.13-.22.12-.32.31-.32.56,0,.22.11.62.34,1.19l1.39,3.56,1.21-2.99c.3-.75.45-1.27.45-1.58,0-.25-.07-.45-.21-.59-.14-.15-.34-.24-.61-.27v-.18h2.37v.18c-.24.07-.41.14-.53.21s-.22.19-.33.34c-.16.24-.42.79-.76,1.64l-2.41,5.84c-.29.7-.52,1.15-.7,1.36-.3.35-.68.52-1.14.52-.29,0-.53-.06-.71-.17-.18-.11-.27-.26-.27-.44,0-.14.05-.26.16-.34.1-.09.24-.13.41-.13.14,0,.31.04.5.12.18.07.3.12.35.13.05.02.12.02.19.02.34,0,.62-.26.84-.77l.26-.63c.11-.27.17-.47.17-.62,0-.2-.1-.56-.31-1.07l-1.72-4.14-.25-.6c-.15-.35-.27-.61-.35-.75-.08-.15-.17-.26-.25-.32-.14-.1-.3-.17-.5-.19v-.18Z"/>
    <path class="cls-18" d="m60.24,140.3h3.22v.18c-.23.03-.39.08-.49.13-.22.12-.32.31-.32.56,0,.22.11.62.34,1.19l1.39,3.56,1.21-2.99c.3-.75.45-1.27.45-1.58,0-.25-.07-.45-.21-.59s-.34-.24-.61-.27v-.18h2.37v.18c-.24.07-.41.14-.53.21-.11.07-.22.19-.33.34-.16.24-.42.79-.76,1.64l-2.41,5.84c-.29.7-.52,1.15-.7,1.36-.3.35-.68.52-1.14.52-.29,0-.53-.06-.71-.17-.18-.11-.27-.26-.27-.44,0-.14.05-.26.16-.34.1-.09.24-.13.41-.13.14,0,.31.04.5.12.18.07.3.12.35.13s.11.02.19.02c.34,0,.62-.26.84-.77l.26-.63c.11-.27.17-.47.17-.62,0-.2-.1-.56-.31-1.07l-1.72-4.14-.25-.6c-.15-.35-.27-.61-.35-.75-.08-.15-.17-.26-.25-.32-.14-.1-.3-.17-.5-.19v-.18Z"/>
    <path class="cls-18" d="m258.3,59.75h3.24v.18c-.19.03-.34.09-.45.18-.11.09-.16.21-.16.35,0,.1.03.21.08.33.05.12.16.31.33.58l.21.34.5.83,1-1.27c.19-.23.31-.41.38-.52.06-.12.1-.23.1-.34,0-.27-.16-.43-.47-.48v-.18h2.19v.18c-.34.07-.65.22-.93.43-.29.21-.6.54-.94.97l-1.14,1.44,1.68,2.62c.26.4.5.7.72.89.13.11.25.19.36.24.11.05.25.08.42.11v.17h-3.34v-.17c.2-.03.34-.07.42-.11.17-.09.25-.22.25-.38s-.1-.4-.31-.71l-.18-.28-.85-1.33-1.1,1.35c-.19.24-.32.42-.39.53s-.1.23-.1.34c0,.3.23.5.69.59v.17h-2.33v-.17c.15-.03.28-.06.39-.11.1-.04.22-.12.35-.22.23-.18.51-.48.86-.92l1.48-1.83-1.55-2.34c-.31-.46-.55-.77-.72-.93-.17-.16-.39-.27-.67-.35v-.18Z"/>
    <path class="cls-18" d="m386.87,13.35l.17.06c-.19.59-.49,1.01-.89,1.27s-.95.39-1.64.39c-1.12,0-2-.33-2.63-1-.62-.65-.93-1.48-.93-2.47,0-.49.09-.97.26-1.44.17-.48.41-.88.71-1.22.34-.39.75-.68,1.24-.89.49-.2,1.03-.31,1.61-.31.8,0,1.43.18,1.88.54.28.22.42.46.42.73,0,.18-.06.33-.17.44-.12.12-.26.18-.42.18-.36,0-.63-.26-.8-.79-.08-.24-.14-.41-.19-.5s-.11-.17-.2-.23c-.17-.13-.38-.19-.63-.19-.33,0-.63.09-.9.27-.24.16-.45.36-.62.6-.17.24-.32.54-.44.91-.19.56-.29,1.11-.29,1.64,0,.49.09.97.26,1.44s.42.86.72,1.18c.48.5,1.03.75,1.67.75.53,0,.97-.17,1.32-.51.18-.18.35-.46.51-.86Z"/>
    <g>
      <path class="cls-16" d="m358.08,172.49c-.41.2-1.37.44-2.58.44-3.5,0-5.31-2.19-5.31-5.07,0-3.45,2.47-5.35,5.52-5.35,1.19,0,2.09.23,2.49.45l-.47,1.81c-.45-.2-1.1-.38-1.92-.38-1.8,0-3.22,1.1-3.22,3.35,0,2.03,1.2,3.3,3.23,3.3.7,0,1.46-.14,1.91-.33l.34,1.79Z"/>
      <path class="cls-16" d="m366.46,169.03c0,2.68-1.9,3.91-3.87,3.91-2.14,0-3.79-1.41-3.79-3.78s1.56-3.89,3.92-3.89,3.74,1.55,3.74,3.76Zm-5.31.08c0,1.25.53,2.2,1.5,2.2.89,0,1.45-.89,1.45-2.22,0-1.08-.42-2.19-1.45-2.19-1.09,0-1.5,1.12-1.5,2.21Z"/>
      <path class="cls-16" d="m367.88,167.77c0-.91-.03-1.69-.06-2.35h1.98l.11,1.02h.05c.3-.47,1.04-1.18,2.27-1.18,1.5,0,2.63,1,2.63,3.16v4.35h-2.29v-4.07c0-.95-.34-1.59-1.16-1.59-.63,0-1,.44-1.16.86-.06.14-.08.36-.08.56v4.24h-2.29v-5Z"/>
      <path class="cls-16" d="m379.12,163.34v2.09h1.64v1.68h-1.64v2.66c0,.89.22,1.29.9,1.29.29,0,.52-.03.68-.07l.02,1.73c-.29.11-.84.2-1.48.2-.74,0-1.35-.26-1.72-.64-.42-.44-.63-1.13-.63-2.18v-3h-.98v-1.68h.98v-1.58l2.23-.52Z"/>
      <path class="cls-16" d="m382.08,167.85c0-1.08-.02-1.79-.06-2.42h1.96l.08,1.36h.06c.38-1.07,1.27-1.52,1.98-1.52.21,0,.32,0,.49.04v2.15c-.18-.04-.36-.06-.62-.06-.84,0-1.41.44-1.56,1.16-.03.15-.04.32-.04.51v3.71h-2.29v-4.92Z"/>
      <path class="cls-16" d="m394.9,169.03c0,2.68-1.9,3.91-3.87,3.91-2.14,0-3.79-1.41-3.79-3.78s1.56-3.89,3.92-3.89,3.74,1.55,3.74,3.76Zm-5.31.08c0,1.25.53,2.2,1.5,2.2.89,0,1.45-.89,1.45-2.22,0-1.08-.42-2.19-1.45-2.19-1.09,0-1.5,1.12-1.5,2.21Z"/>
      <path class="cls-16" d="m396.32,162.12h2.29v10.65h-2.29v-10.65Z"/>
      <path class="cls-16" d="m400.52,172.77v-10.11h2.66l2.1,3.71c.61,1.06,1.2,2.33,1.65,3.47h.04c-.14-1.34-.18-2.7-.18-4.23v-2.95h2.1v10.11h-2.39l-2.17-3.89c-.6-1.09-1.27-2.39-1.76-3.57h-.05c.07,1.34.1,2.77.1,4.43v3.04h-2.1Z"/>
      <path class="cls-16" d="m412.51,169.83c.07.95,1,1.4,2.07,1.4.77,0,1.4-.1,2.02-.31l.31,1.54c-.76.31-1.68.46-2.66.46-2.49,0-3.92-1.45-3.92-3.74,0-1.87,1.16-3.93,3.7-3.93,2.38,0,3.28,1.85,3.28,3.67,0,.4-.04.73-.08.9h-4.72Zm2.68-1.56c0-.55-.24-1.49-1.28-1.49-.96,0-1.35.88-1.42,1.49h2.7Z"/>
      <path class="cls-16" d="m421.21,163.34v2.09h1.64v1.68h-1.64v2.66c0,.89.22,1.29.9,1.29.29,0,.52-.03.68-.07l.02,1.73c-.29.11-.84.2-1.48.2-.74,0-1.35-.26-1.72-.64-.42-.44-.63-1.13-.63-2.18v-3h-.98v-1.68h.98v-1.58l2.23-.52Z"/>
    </g>
  </g>
  <line class="cls-3" x1="162.29" y1="56.52" x2="162.29" y2="150.4"/>
</svg>