<?xml version="1.0" encoding="UTF-8"?>
<svg id="Layer_1" data-name="Layer 1" xmlns="http://www.w3.org/2000/svg" viewBox="0 0 426.16 113.59">
  <defs>
    <style>
      .cls-1 {
        fill: #a79476;
      }

      .cls-1, .cls-2, .cls-3, .cls-4, .cls-5, .cls-6, .cls-7, .cls-8 {
        stroke: #231f20;
        stroke-miterlimit: 10;
      }

      .cls-2, .cls-3, .cls-8 {
        fill: none;
        stroke-width: 2px;
      }

      .cls-3 {
        stroke-dasharray: 0 0 12.68 12.68;
      }

      .cls-4 {
        fill: #8ccea9;
      }

      .cls-5 {
        fill: #b55c4e;
      }

      .cls-6 {
        fill: #9cb08d;
      }

      .cls-7 {
        fill: #af7961;
      }

      .cls-8 {
        stroke-dasharray: 0 0 8.2 8.2;
      }

      .cls-9 {
        fill: #231f20;
      }

      .cls-10 {
        fill: #010101;
      }
    </style>
  </defs>
  <rect class="cls-4" x=".5" y=".53" width="28.07" height="112.56"/>
  <rect class="cls-6" x="71.35" y=".52" width="28.07" height="112.56"/>
  <rect class="cls-1" x="142.21" y=".5" width="28.07" height="112.56"/>
  <rect class="cls-7" x="213.08" y=".51" width="28.07" height="112.56"/>
  <rect class="cls-5" x="397.58" y=".5" width="28.07" height="112.56"/>
  <g>
    <g>
      <line class="cls-2" x1="28.57" y1="48.47" x2="65.18" y2="48.47"/>
      <polygon class="cls-9" points="63.93 52.76 71.35 48.47 63.93 44.19 63.93 52.76"/>
    </g>
    <g>
      <line class="cls-2" x1="34.74" y1="65.43" x2="40.74" y2="65.43"/>
      <line class="cls-8" x1="48.95" y1="65.43" x2="61.25" y2="65.43"/>
      <line class="cls-2" x1="65.35" y1="65.43" x2="71.35" y2="65.43"/>
      <polygon class="cls-9" points="36 69.71 28.57 65.43 36 61.14 36 69.71"/>
    </g>
  </g>
  <g>
    <g>
      <line class="cls-2" x1="99.44" y1="48.47" x2="136.05" y2="48.47"/>
      <polygon class="cls-9" points="134.79 52.76 142.22 48.47 134.79 44.19 134.79 52.76"/>
    </g>
    <g>
      <line class="cls-2" x1="105.61" y1="65.43" x2="111.61" y2="65.43"/>
      <line class="cls-8" x1="119.81" y1="65.43" x2="132.12" y2="65.43"/>
      <line class="cls-2" x1="136.22" y1="65.43" x2="142.22" y2="65.43"/>
      <polygon class="cls-9" points="106.86 69.71 99.44 65.43 106.86 61.14 106.86 69.71"/>
    </g>
  </g>
  <g>
    <g>
      <line class="cls-2" x1="170.28" y1="48.47" x2="206.89" y2="48.47"/>
      <polygon class="cls-9" points="205.64 52.76 213.06 48.47 205.64 44.19 205.64 52.76"/>
    </g>
    <g>
      <line class="cls-2" x1="176.45" y1="65.43" x2="182.45" y2="65.43"/>
      <line class="cls-8" x1="190.66" y1="65.43" x2="202.96" y2="65.43"/>
      <line class="cls-2" x1="207.06" y1="65.43" x2="213.06" y2="65.43"/>
      <polygon class="cls-9" points="177.71 69.71 170.28 65.43 177.71 61.14 177.71 69.71"/>
    </g>
  </g>
  <g>
    <g>
      <line class="cls-2" x1="241.15" y1="48.47" x2="291.19" y2="48.47"/>
      <polygon class="cls-9" points="289.93 52.76 297.36 48.47 289.93 44.19 289.93 52.76"/>
    </g>
    <g>
      <line class="cls-2" x1="247.32" y1="65.43" x2="253.32" y2="65.43"/>
      <line class="cls-3" x1="266" y1="65.43" x2="285.02" y2="65.43"/>
      <line class="cls-2" x1="291.36" y1="65.43" x2="297.36" y2="65.43"/>
      <polygon class="cls-9" points="248.58 69.71 241.15 65.43 248.58 61.14 248.58 69.71"/>
    </g>
  </g>
  <g>
    <g>
      <line class="cls-2" x1="341.38" y1="48.47" x2="391.41" y2="48.47"/>
      <polygon class="cls-9" points="390.16 52.76 397.58 48.47 390.16 44.19 390.16 52.76"/>
    </g>
    <g>
      <line class="cls-2" x1="347.55" y1="65.43" x2="353.55" y2="65.43"/>
      <line class="cls-3" x1="366.23" y1="65.43" x2="385.24" y2="65.43"/>
      <line class="cls-2" x1="391.58" y1="65.43" x2="397.58" y2="65.43"/>
      <polygon class="cls-9" points="348.8 69.71 341.38 65.43 348.8 61.14 348.8 69.71"/>
    </g>
  </g>
  <g>
    <g>
      <path class="cls-10" d="m5.37,51.32h5.33v.3c-.32.05-.57.14-.75.29s-.27.34-.27.58c0,.16.04.34.13.54s.26.52.54.96l.34.56.83,1.36,1.64-2.08c.31-.38.52-.67.62-.86.1-.19.16-.38.16-.56,0-.45-.26-.71-.78-.79v-.3h3.61v.3c-.56.12-1.07.35-1.54.71-.47.35-.99.89-1.55,1.59l-1.87,2.37,2.76,4.31c.43.66.82,1.16,1.19,1.47.22.18.42.31.59.39.18.08.41.14.69.18v.29h-5.5v-.29c.33-.05.56-.11.7-.18.27-.15.41-.35.41-.63s-.17-.66-.5-1.17l-.3-.46-1.4-2.19-1.8,2.22c-.32.39-.53.68-.64.88-.11.2-.16.38-.16.57,0,.5.38.82,1.13.97v.29h-3.84v-.29c.25-.05.47-.1.64-.18.17-.07.36-.19.58-.35.37-.29.85-.8,1.42-1.51l2.43-3.01-2.56-3.86c-.51-.76-.9-1.28-1.18-1.53-.28-.26-.65-.45-1.1-.58v-.3Z"/>
      <path class="cls-10" d="m17.81,61.62c0-3.78,1.29-5.63,3.08-5.63s2.86,1.9,2.86,5.54c0,3.92-1.26,5.66-3.02,5.66s-2.91-1.85-2.91-5.57Zm4.79-.06c0-2.63-.53-4.62-1.79-4.62s-1.85,1.93-1.85,4.62.59,4.68,1.82,4.68,1.82-1.99,1.82-4.68Z"/>
    </g>
    <g>
      <path class="cls-10" d="m76.97,51.32h5.33v.3c-.32.05-.57.14-.75.29s-.27.34-.27.58c0,.16.04.34.13.54s.26.52.54.96l.34.56.83,1.36,1.64-2.08c.31-.38.52-.67.62-.86.1-.19.16-.38.16-.56,0-.45-.26-.71-.78-.79v-.3h3.61v.3c-.56.12-1.07.35-1.54.71-.47.35-.99.89-1.55,1.59l-1.87,2.37,2.76,4.31c.43.66.82,1.16,1.19,1.47.22.18.42.31.59.39.18.08.41.14.69.18v.29h-5.5v-.29c.33-.05.56-.11.7-.18.27-.15.41-.35.41-.63s-.17-.66-.5-1.17l-.3-.46-1.4-2.19-1.8,2.22c-.32.39-.53.68-.64.88-.11.2-.16.38-.16.57,0,.5.38.82,1.13.97v.29h-3.84v-.29c.25-.05.47-.1.64-.18.17-.07.36-.19.58-.35.37-.29.85-.8,1.42-1.51l2.43-3.01-2.56-3.86c-.51-.76-.9-1.28-1.18-1.53-.28-.26-.65-.45-1.1-.58v-.3Z"/>
      <path class="cls-10" d="m91.62,67.05v-9.77h-.06l-2.1,1.18-.2-.95,2.55-1.37h.9v10.92h-1.09Z"/>
    </g>
    <path class="cls-10" d="m407.45,51.32h9.13v.29l-7.63,10.96h1.85c1.05,0,1.91-.05,2.58-.15.67-.1,1.2-.25,1.59-.46.74-.41,1.28-1.14,1.63-2.2l.27.04-.29,3.14h-10.21v-.27l7.63-10.98h-2.99c-.73,0-1.29.07-1.69.21s-.75.38-1.06.72c-.29.34-.57.87-.83,1.6l-.26-.03.29-2.87Z"/>
    <g>
      <path class="cls-9" d="m307.89,57.17c0-.63.42-1.07,1.02-1.07s1,.44,1,1.07-.39,1.07-1.02,1.07c-.59,0-1-.46-1-1.07Z"/>
      <path class="cls-9" d="m311.41,57.17c0-.63.42-1.07,1.02-1.07s1,.44,1,1.07-.39,1.07-1.02,1.07c-.59,0-1-.46-1-1.07Z"/>
      <path class="cls-9" d="m314.93,57.17c0-.63.42-1.07,1.02-1.07s1,.44,1,1.07-.39,1.07-1.02,1.07c-.59,0-1-.46-1-1.07Z"/>
      <path class="cls-9" d="m322.05,57.17c0-.63.42-1.07,1.02-1.07s1,.44,1,1.07-.39,1.07-1.02,1.07c-.59,0-1-.46-1-1.07Z"/>
      <path class="cls-9" d="m325.57,57.17c0-.63.42-1.07,1.02-1.07s1,.44,1,1.07-.39,1.07-1.02,1.07c-.59,0-1-.46-1-1.07Z"/>
      <path class="cls-9" d="m329.09,57.17c0-.63.42-1.07,1.02-1.07s1,.44,1,1.07-.39,1.07-1.02,1.07c-.59,0-1-.46-1-1.07Z"/>
    </g>
    <g>
      <path class="cls-10" d="m147.37,51.32h5.33v.3c-.32.05-.57.14-.75.29s-.27.34-.27.58c0,.16.04.34.13.54s.26.52.54.96l.34.56.83,1.36,1.64-2.08c.31-.38.52-.67.62-.86.1-.19.16-.38.16-.56,0-.45-.26-.71-.78-.79v-.3h3.61v.3c-.56.12-1.07.35-1.54.71-.47.35-.99.89-1.55,1.59l-1.87,2.37,2.76,4.31c.43.66.82,1.16,1.19,1.47.22.18.42.31.59.39.18.08.41.14.69.18v.29h-5.5v-.29c.33-.05.56-.11.7-.18.27-.15.41-.35.41-.63s-.17-.66-.5-1.17l-.3-.46-1.4-2.19-1.8,2.22c-.32.39-.53.68-.64.88-.11.2-.16.38-.16.57,0,.5.38.82,1.13.97v.29h-3.84v-.29c.25-.05.47-.1.64-.18.17-.07.36-.19.58-.35.37-.29.85-.8,1.42-1.51l2.43-3.01-2.56-3.86c-.51-.76-.9-1.28-1.18-1.53-.28-.26-.65-.45-1.1-.58v-.3Z"/>
      <path class="cls-10" d="m159.28,66.66l1.04-1.29c1.37-1.71,3.44-4.23,3.44-6.36,0-1.4-.78-2.02-1.85-2.02-.84,0-1.51.48-1.88.81l-.42-.81c.45-.45,1.37-1.01,2.58-1.01,1.76,0,2.72,1.23,2.72,2.91,0,1.99-1.65,4.28-2.86,5.8l-1.06,1.32v.06h4.14v.98h-5.85v-.39Z"/>
    </g>
    <g>
      <path class="cls-10" d="m218.34,51.32h5.33v.3c-.32.05-.57.14-.75.29s-.27.34-.27.58c0,.16.04.34.13.54s.26.52.54.96l.34.56.83,1.36,1.64-2.08c.31-.38.52-.67.62-.86.1-.19.16-.38.16-.56,0-.45-.26-.71-.78-.79v-.3h3.61v.3c-.56.12-1.07.35-1.54.71s-.99.89-1.55,1.59l-1.87,2.37,2.76,4.31c.43.66.83,1.16,1.19,1.47.22.18.42.31.59.39.18.08.41.14.69.18v.29h-5.5v-.29c.33-.05.56-.11.7-.18.27-.15.41-.35.41-.63s-.17-.66-.5-1.17l-.3-.46-1.4-2.19-1.8,2.22c-.32.39-.53.68-.64.88-.11.2-.16.38-.16.57,0,.5.38.82,1.13.97v.29h-3.84v-.29c.25-.05.47-.1.64-.18.17-.07.36-.19.58-.35.37-.29.85-.8,1.42-1.51l2.43-3.01-2.56-3.86c-.51-.76-.9-1.28-1.18-1.53-.28-.26-.64-.45-1.1-.58v-.3Z"/>
      <path class="cls-10" d="m230.7,56.78c.45-.36,1.29-.78,2.32-.78,1.57,0,2.55,1.01,2.55,2.49,0,1.01-.62,1.99-1.74,2.46v.06c.92.22,2.1,1.15,2.1,2.86,0,1.85-1.29,3.33-3.5,3.33-.78,0-1.62-.25-2.24-.64l.36-.9c.31.2,1.04.59,2.02.59,1.23,0,2.21-.73,2.21-2.27,0-1.62-.95-2.44-2.72-2.44h-.14v-.84h.17c.76,0,2.35-.67,2.35-2.13,0-1.06-.64-1.62-1.6-1.62-.87,0-1.43.34-1.82.64l-.34-.81Z"/>
    </g>
  </g>
</svg>