<?xml version="1.0" encoding="UTF-8"?>
<svg id="Layer_1" data-name="Layer 1" xmlns="http://www.w3.org/2000/svg" viewBox="0 0 426.16 113.56">
  <defs>
    <style>
      .cls-1 {
        fill: #e8a97b;
      }

      .cls-1, .cls-2, .cls-3, .cls-4 {
        stroke: #231f20;
        stroke-miterlimit: 10;
      }

      .cls-2 {
        fill: #b65d4f;
      }

      .cls-3 {
        fill: none;
        stroke-width: 2px;
      }

      .cls-4 {
        fill: #8ccea9;
      }

      .cls-5 {
        fill: #231f20;
      }

      .cls-6 {
        fill: #010101;
      }
    </style>
  </defs>
  <rect class="cls-4" x=".5" y=".5" width="28.07" height="112.56"/>
  <rect class="cls-1" x="397.58" y=".5" width="28.07" height="112.56"/>
  <rect class="cls-2" x="196.3" y="40.26" width="33.65" height="33.65"/>
  <g>
    <line class="cls-3" x1="28.57" y1="57.09" x2="58.66" y2="57.09"/>
    <polygon class="cls-5" points="57.41 61.37 64.83 57.09 57.41 52.8 57.41 61.37"/>
  </g>
  <g>
    <line class="cls-3" x1="141.3" y1="57.09" x2="190.12" y2="57.09"/>
    <polygon class="cls-5" points="188.87 61.37 196.3 57.09 188.87 52.8 188.87 61.37"/>
  </g>
  <g>
    <line class="cls-3" x1="229.94" y1="57.09" x2="278.7" y2="57.09"/>
    <polygon class="cls-5" points="277.45 61.37 284.87 57.09 277.45 52.8 277.45 61.37"/>
  </g>
  <g>
    <line class="cls-3" x1="361.34" y1="57.09" x2="391.41" y2="57.09"/>
    <polygon class="cls-5" points="390.16 61.37 397.58 57.09 390.16 52.8 390.16 61.37"/>
  </g>
  <rect class="cls-4" x="64.83" y="13.97" width="76.47" height="85.05"/>
  <rect class="cls-1" x="284.87" y="13.97" width="76.47" height="85.05"/>
  <g>
    <g>
      <path class="cls-6" d="m403.99,51.29h5.33v.3c-.32.05-.57.14-.75.29s-.27.34-.27.58c0,.16.04.34.13.54s.26.52.54.96l.34.56.83,1.36,1.64-2.08c.31-.38.52-.67.62-.86.11-.19.16-.38.16-.56,0-.45-.26-.71-.78-.79v-.3h3.61v.3c-.56.12-1.07.35-1.54.71-.47.35-.99.89-1.55,1.59l-1.87,2.37,2.76,4.31c.43.66.82,1.16,1.19,1.47.22.18.42.31.59.39.18.08.41.14.69.18v.29h-5.5v-.29c.33-.05.56-.11.7-.18.27-.15.41-.35.41-.63s-.17-.66-.5-1.17l-.3-.46-1.4-2.19-1.8,2.22c-.32.39-.53.68-.64.88-.11.2-.16.38-.16.57,0,.5.38.82,1.13.97v.29h-3.84v-.29c.25-.05.47-.1.63-.18.17-.07.36-.19.58-.35.37-.29.85-.8,1.42-1.51l2.43-3.01-2.56-3.86c-.51-.76-.91-1.28-1.18-1.53-.28-.26-.64-.45-1.1-.58v-.3Z"/>
      <path class="cls-6" d="m418.02,50.89h-.3l-.68-4.25c-.06-.39-.1-.74-.1-1.05,0-.45.08-.82.25-1.13.17-.31.38-.46.63-.46.29,0,.52.15.7.44.18.29.27.67.27,1.13,0,.28-.03.64-.1,1.07l-.67,4.25Z"/>
    </g>
    <path class="cls-6" d="m8.84,51.29h5.33v.3c-.32.05-.57.14-.75.29s-.27.34-.27.58c0,.16.04.34.13.54s.26.52.54.96l.34.56.83,1.36,1.64-2.08c.31-.38.52-.67.62-.86.1-.19.16-.38.16-.56,0-.45-.26-.71-.78-.79v-.3h3.61v.3c-.56.12-1.07.35-1.54.71-.47.35-.99.89-1.55,1.59l-1.87,2.37,2.76,4.31c.43.66.82,1.16,1.19,1.47.22.18.42.31.59.39.18.08.41.14.69.18v.29h-5.5v-.29c.33-.05.56-.11.7-.18.27-.15.41-.35.41-.63s-.17-.66-.5-1.17l-.3-.46-1.4-2.19-1.8,2.22c-.32.39-.53.68-.64.88-.11.2-.16.38-.16.57,0,.5.38.82,1.13.97v.29h-3.84v-.29c.25-.05.47-.1.64-.18.17-.07.36-.19.58-.35.37-.29.85-.8,1.42-1.51l2.43-3.01-2.56-3.86c-.51-.76-.9-1.28-1.18-1.53-.28-.26-.65-.45-1.1-.58v-.3Z"/>
    <path class="cls-6" d="m208.64,51.28h9.8v.31l-8.19,11.77h1.98c1.13,0,2.05-.05,2.77-.16.72-.11,1.29-.27,1.7-.5.79-.44,1.37-1.23,1.75-2.36l.29.04-.31,3.38h-10.96v-.29l8.19-11.79h-3.21c-.78,0-1.39.07-1.81.22-.43.15-.8.41-1.14.78-.31.36-.61.93-.9,1.72l-.28-.03.31-3.08Z"/>
    <g>
      <path class="cls-6" d="m90.24,45.65h5.08v1.02h-3.86v3.14h3.57v1.01h-3.57v4.27h-1.23v-9.44Z"/>
      <path class="cls-6" d="m96.78,45.15h1.23v9.95h-1.23v-9.95Z"/>
      <path class="cls-6" d="m106.22,51.64c0,2.51-1.74,3.61-3.37,3.61-1.84,0-3.26-1.34-3.26-3.49,0-2.27,1.49-3.59,3.36-3.59s3.26,1.41,3.26,3.48Zm-5.37.08c0,1.49.85,2.6,2.05,2.6s2.06-1.1,2.06-2.64c0-1.15-.58-2.6-2.04-2.6s-2.08,1.35-2.08,2.63Z"/>
      <path class="cls-6" d="m108.15,48.32l.91,3.44c.2.76.37,1.46.5,2.16h.03c.15-.68.38-1.42.61-2.15l1.11-3.45h1.04l1.05,3.39c.24.8.44,1.52.6,2.21h.03c.12-.69.31-1.4.53-2.2l.97-3.4h1.21l-2.19,6.77h-1.12l-1.03-3.23c-.25-.76-.44-1.44-.6-2.23h-.03c-.17.82-.38,1.52-.62,2.24l-1.09,3.22h-1.13l-2.04-6.77h1.25Z"/>
    </g>
    <g>
      <path class="cls-6" d="m95.02,65.59h1.69l-.15.63h-1.66c-.32,1.66-.86,3.9-1.64,6.73-.59,2.16-1.24,3.58-1.94,4.27-.53.53-1.08.8-1.65.8-.35,0-.63-.1-.84-.29-.21-.2-.32-.43-.32-.71,0-.24.07-.44.22-.6.15-.16.32-.24.51-.24.17,0,.31.06.44.17.12.11.19.24.19.37,0,.14-.04.26-.13.36-.07.07-.1.13-.1.18,0,.05.02.1.07.14.05.04.1.06.17.06.12,0,.24-.03.34-.09.19-.11.38-.31.56-.61.18-.29.37-.85.57-1.67.04-.15.31-1.45.81-3.92.06-.28.45-1.93,1.19-4.94h-1.69l.15-.63c.62-.04,1.02-.08,1.18-.14.16-.06.3-.16.4-.31.17-.22.36-.65.57-1.27.46-1.35.91-2.21,1.33-2.59.42-.38.89-.57,1.4-.57.4,0,.72.1.96.31.23.21.35.46.35.76,0,.22-.06.4-.19.53-.13.13-.28.2-.46.2-.16,0-.3-.06-.42-.17-.12-.11-.18-.23-.18-.36,0-.1.03-.21.1-.33.07-.11.1-.2.1-.25,0-.07-.03-.12-.08-.17-.06-.05-.14-.07-.25-.07-.2,0-.38.07-.54.22-.23.21-.38.49-.45.83-.18.85-.38,1.97-.6,3.37Z"/>
      <path class="cls-6" d="m103.33,76.19h-.29c-.92-.99-1.65-1.97-2.18-2.95-.41-.77-.74-1.57-.96-2.41-.23-.84-.34-1.63-.34-2.37s.12-1.55.35-2.42c.23-.87.55-1.68.96-2.43.27-.5.57-.98.9-1.42.33-.45.76-.96,1.28-1.53h.29l-.16.29c-.46.86-.81,1.6-1.05,2.23-.24.62-.43,1.28-.57,1.97-.1.5-.18,1.06-.25,1.68-.07.63-.1,1.16-.1,1.59,0,.52.04,1.14.13,1.86.13,1.09.32,2.03.58,2.81.26.78.68,1.71,1.26,2.81l.16.29Z"/>
      <path class="cls-6" d="m103.95,66.02h3.62v.2c-.22.03-.38.1-.51.2-.12.1-.18.23-.18.39,0,.11.03.23.09.37.06.13.18.35.36.65l.23.38.56.92,1.11-1.42c.21-.26.35-.45.42-.58.07-.13.11-.26.11-.38,0-.3-.18-.48-.53-.54v-.2h2.45v.2c-.38.08-.73.24-1.04.48-.32.24-.67.6-1.05,1.08l-1.27,1.61,1.87,2.93c.29.45.56.78.81,1,.15.12.28.21.4.26.12.05.28.09.47.12v.19h-3.73v-.19c.22-.04.38-.08.47-.12.19-.1.28-.24.28-.43s-.11-.45-.34-.8l-.2-.31-.95-1.49-1.22,1.51c-.22.27-.36.46-.44.6-.07.13-.11.26-.11.38,0,.34.26.56.77.66v.19h-2.61v-.19c.17-.03.32-.07.43-.12.11-.05.25-.13.39-.24.25-.2.58-.54.96-1.03l1.65-2.04-1.73-2.62c-.35-.52-.61-.87-.8-1.04-.19-.18-.44-.31-.75-.39v-.2Z"/>
      <path class="cls-6" d="m112.3,60.67h.29c.92.99,1.65,1.97,2.18,2.95.41.77.74,1.57.96,2.41.23.84.34,1.63.34,2.37s-.12,1.55-.35,2.42c-.24.87-.55,1.68-.96,2.43-.27.5-.57.98-.9,1.42-.33.45-.76.96-1.28,1.53h-.29l.16-.29c.46-.86.81-1.6,1.05-2.23s.43-1.28.57-1.97c.1-.49.19-1.06.25-1.68.06-.63.1-1.16.1-1.6,0-.51-.04-1.13-.13-1.86-.13-1.09-.32-2.03-.58-2.81-.26-.78-.68-1.71-1.26-2.81l-.16-.29Z"/>
    </g>
    <g>
      <path class="cls-6" d="m304.48,45.65v9.44h-1.23v-9.44h1.23Z"/>
      <path class="cls-6" d="m306.71,50.15c0-.71-.02-1.27-.06-1.83h1.09l.07,1.11h.03c.33-.64,1.12-1.27,2.24-1.27.93,0,2.39.56,2.39,2.89v4.04h-1.23v-3.91c0-1.1-.41-2.01-1.57-2.01-.81,0-1.44.57-1.66,1.26-.05.15-.08.37-.08.57v4.08h-1.23v-4.94Z"/>
      <path class="cls-6" d="m314.77,48.32l1.33,3.8c.23.63.4,1.19.55,1.75h.04c.15-.56.35-1.13.57-1.75l1.33-3.8h1.29l-2.67,6.77h-1.17l-2.58-6.77h1.32Z"/>
      <path class="cls-6" d="m321.58,51.93c.02,1.67,1.08,2.35,2.32,2.35.88,0,1.42-.16,1.88-.35l.22.88c-.43.2-1.18.43-2.26.43-2.08,0-3.33-1.39-3.33-3.42s1.21-3.66,3.19-3.66c2.21,0,2.79,1.94,2.79,3.19,0,.26-.02.44-.04.58h-4.75Zm3.61-.89c.01-.78-.32-1.99-1.7-1.99-1.26,0-1.79,1.14-1.89,1.99h3.59Z"/>
      <path class="cls-6" d="m327.9,50.43c0-.8-.02-1.48-.06-2.11h1.08l.05,1.33h.04c.32-.91,1.06-1.48,1.89-1.48.13,0,.23,0,.34.03v1.16c-.12-.03-.25-.04-.42-.04-.87,0-1.48.65-1.65,1.58-.03.17-.05.38-.05.58v3.62h-1.23v-4.66Z"/>
      <path class="cls-6" d="m332.31,53.84c.37.23,1.02.48,1.63.48.9,0,1.32-.44,1.32-1.01s-.36-.9-1.26-1.24c-1.22-.44-1.8-1.11-1.8-1.92,0-1.09.89-1.99,2.34-1.99.69,0,1.28.19,1.66.42l-.31.9c-.26-.16-.76-.4-1.39-.4-.73,0-1.12.42-1.12.93,0,.56.4.81,1.29,1.16,1.17.44,1.77,1.02,1.78,2.04,0,1.2-.93,2.04-2.53,2.04-.74,0-1.43-.19-1.9-.47l.3-.93Z"/>
      <path class="cls-6" d="m338.71,51.93c.02,1.67,1.08,2.35,2.32,2.35.88,0,1.42-.16,1.88-.35l.22.88c-.43.2-1.18.43-2.26.43-2.08,0-3.33-1.39-3.33-3.42s1.21-3.66,3.19-3.66c2.21,0,2.79,1.94,2.79,3.19,0,.26-.02.44-.04.58h-4.75Zm3.61-.89c.01-.78-.32-1.99-1.7-1.99-1.26,0-1.79,1.14-1.89,1.99h3.59Z"/>
    </g>
    <g>
      <path class="cls-6" d="m309.61,65.59h1.69l-.15.63h-1.66c-.32,1.66-.86,3.9-1.64,6.73-.59,2.16-1.24,3.58-1.94,4.27-.53.53-1.08.8-1.65.8-.35,0-.63-.1-.84-.29-.21-.2-.32-.43-.32-.71,0-.24.07-.44.22-.6.15-.16.32-.24.51-.24.17,0,.31.06.44.17.12.11.19.24.19.37,0,.14-.04.26-.13.36-.07.07-.1.13-.1.18,0,.05.02.1.07.14.05.04.1.06.17.06.12,0,.24-.03.34-.09.19-.11.38-.31.56-.61.18-.29.37-.85.57-1.67.04-.15.31-1.45.81-3.92.06-.28.45-1.93,1.19-4.94h-1.69l.15-.63c.62-.04,1.02-.08,1.18-.14s.3-.16.4-.31c.17-.22.36-.65.57-1.27.46-1.35.91-2.21,1.33-2.59.42-.38.89-.57,1.4-.57.4,0,.72.1.96.31.24.21.35.46.35.76,0,.22-.06.4-.19.53-.13.13-.28.2-.46.2-.16,0-.3-.06-.42-.17-.12-.11-.18-.23-.18-.36,0-.1.03-.21.1-.33.07-.11.1-.2.1-.25,0-.07-.03-.12-.08-.17-.06-.05-.14-.07-.25-.07-.2,0-.38.07-.54.22-.23.21-.38.49-.45.83-.18.85-.38,1.97-.6,3.37Z"/>
      <path class="cls-6" d="m320.29,62.15v.61h-2.6v-.61h2.6Z"/>
      <path class="cls-6" d="m322.48,65.99v-6.63h-.04l-1.42.8-.13-.65,1.73-.93h.61v7.41h-.74Z"/>
      <path class="cls-6" d="m329.66,76.19h-.29c-.92-.99-1.65-1.97-2.18-2.95-.42-.77-.74-1.57-.96-2.41-.23-.84-.34-1.63-.34-2.37s.12-1.55.35-2.42c.24-.87.55-1.68.96-2.43.27-.5.57-.98.9-1.42.33-.45.76-.96,1.28-1.53h.29l-.16.29c-.46.86-.81,1.6-1.05,2.23-.24.62-.43,1.28-.57,1.97-.1.5-.18,1.06-.25,1.68-.07.63-.1,1.16-.1,1.59,0,.52.04,1.14.13,1.86.13,1.09.32,2.03.58,2.81.25.78.68,1.71,1.26,2.81l.16.29Z"/>
      <path class="cls-6" d="m330.9,66.02h6.2v.19l-5.18,7.44h1.25c.71,0,1.29-.03,1.75-.1.46-.07.82-.17,1.08-.32.5-.28.87-.78,1.1-1.49l.19.03-.2,2.13h-6.93v-.19l5.18-7.45h-2.03c-.5,0-.88.05-1.15.14-.27.09-.51.26-.72.49-.2.23-.39.59-.57,1.09l-.18-.02.19-1.95Z"/>
      <path class="cls-6" d="m337.79,60.67h.29c.92.99,1.65,1.97,2.18,2.95.41.77.74,1.57.96,2.41.23.84.34,1.63.34,2.37s-.12,1.55-.35,2.42c-.24.87-.55,1.68-.96,2.43-.27.5-.57.98-.9,1.42-.33.45-.76.96-1.28,1.53h-.29l.16-.29c.46-.86.8-1.6,1.05-2.23s.43-1.28.57-1.97c.1-.49.19-1.06.25-1.68.06-.63.1-1.16.1-1.6,0-.51-.04-1.13-.13-1.86-.13-1.09-.32-2.03-.58-2.81-.26-.78-.68-1.71-1.26-2.81l-.16-.29Z"/>
    </g>
  </g>
</svg>