<?xml version="1.0" encoding="UTF-8"?>
<svg id="Layer_1" data-name="Layer 1" xmlns="http://www.w3.org/2000/svg" viewBox="0 0 426.16 114.2">
  <defs>
    <style>
      .cls-1 {
        fill: #e8a97b;
      }

      .cls-1, .cls-2, .cls-3, .cls-4, .cls-5 {
        stroke: #231f20;
        stroke-miterlimit: 10;
      }

      .cls-2 {
        fill: #d37bb2;
      }

      .cls-3 {
        fill: none;
        stroke-width: 2px;
      }

      .cls-4 {
        fill: #8ccea9;
      }

      .cls-5 {
        fill: #b55c4e;
      }

      .cls-6 {
        fill: #231f20;
      }

      .cls-7 {
        fill: #010101;
      }
    </style>
  </defs>
  <rect class="cls-1" x=".5" y=".82" width="28.07" height="112.56"/>
  <rect class="cls-4" x="35.98" y=".82" width="28.07" height="112.56"/>
  <rect class="cls-1" x="397.58" y=".82" width="28.07" height="112.56"/>
  <rect class="cls-5" x="237.17" y="40.59" width="33.65" height="33.65"/>
  <polygon class="cls-4" points="87.3 .82 163.77 40.59 163.77 74.23 87.3 113.38 87.3 .82"/>
  <polygon class="cls-1" points="372.43 .82 295.97 40.59 295.97 74.23 372.43 113.38 372.43 .82"/>
  <circle class="cls-2" cx="201.24" cy="56.64" r="16.06"/>
  <g>
    <line class="cls-3" x1="64.05" y1="57.41" x2="81.13" y2="57.41"/>
    <polygon class="cls-6" points="79.87 61.7 87.3 57.41 79.87 53.12 79.87 61.7"/>
  </g>
  <g>
    <line class="cls-3" x1="163.77" y1="57.41" x2="178.74" y2="57.41"/>
    <polygon class="cls-6" points="177.48 61.7 184.91 57.41 177.48 53.12 177.48 61.7"/>
  </g>
  <g>
    <line class="cls-3" x1="270.82" y1="57.41" x2="289.8" y2="57.41"/>
    <polygon class="cls-6" points="288.54 61.7 295.97 57.41 288.54 53.12 288.54 61.7"/>
  </g>
  <g>
    <line class="cls-3" x1="372.43" y1="57.41" x2="391.41" y2="57.41"/>
    <polygon class="cls-6" points="390.16 61.7 397.58 57.41 390.16 53.12 390.16 61.7"/>
  </g>
  <g>
    <path class="cls-7" d="m6.9,51.61h5.33v.3c-.32.05-.57.14-.75.29s-.27.34-.27.58c0,.16.04.34.13.54s.26.52.54.96l.34.56.83,1.36,1.64-2.08c.31-.38.52-.67.62-.86.1-.19.16-.38.16-.56,0-.45-.26-.71-.78-.79v-.3h3.61v.3c-.56.12-1.07.35-1.54.71-.47.35-.99.89-1.55,1.59l-1.87,2.37,2.76,4.31c.43.66.82,1.16,1.19,1.47.22.18.42.31.59.39.18.08.41.14.69.18v.29h-5.5v-.29c.33-.05.56-.11.7-.18.27-.15.41-.35.41-.63s-.17-.66-.5-1.17l-.3-.46-1.4-2.19-1.8,2.22c-.32.39-.53.68-.64.88-.11.2-.16.38-.16.57,0,.5.38.82,1.13.97v.29h-3.84v-.29c.25-.05.47-.1.64-.18.17-.07.36-.19.58-.35.37-.29.85-.8,1.42-1.51l2.43-3.01-2.56-3.86c-.51-.76-.9-1.28-1.18-1.53-.28-.26-.65-.45-1.1-.58v-.3Z"/>
    <path class="cls-7" d="m20.94,51.21h-.3l-.68-4.25c-.06-.39-.1-.74-.1-1.05,0-.45.08-.82.25-1.13.17-.31.38-.46.63-.46.28,0,.52.15.7.44.18.29.27.67.27,1.13,0,.28-.03.64-.1,1.07l-.68,4.25Z"/>
  </g>
  <g>
    <path class="cls-7" d="m403.99,51.61h5.33v.3c-.32.05-.57.14-.75.29s-.27.34-.27.58c0,.16.04.34.13.54s.26.52.54.96l.34.56.83,1.36,1.64-2.08c.31-.38.52-.67.62-.86.11-.19.16-.38.16-.56,0-.45-.26-.71-.78-.79v-.3h3.61v.3c-.56.12-1.07.35-1.54.71-.47.35-.99.89-1.55,1.59l-1.87,2.37,2.76,4.31c.43.66.82,1.16,1.19,1.47.22.18.42.31.59.39.18.08.41.14.69.18v.29h-5.5v-.29c.33-.05.56-.11.7-.18.27-.15.41-.35.41-.63s-.17-.66-.5-1.17l-.3-.46-1.4-2.19-1.8,2.22c-.32.39-.53.68-.64.88-.11.2-.16.38-.16.57,0,.5.38.82,1.13.97v.29h-3.84v-.29c.25-.05.47-.1.63-.18.17-.07.36-.19.58-.35.37-.29.85-.8,1.42-1.51l2.43-3.01-2.56-3.86c-.51-.76-.91-1.28-1.18-1.53-.28-.26-.64-.45-1.1-.58v-.3Z"/>
    <path class="cls-7" d="m418.02,51.21h-.3l-.68-4.25c-.06-.39-.1-.74-.1-1.05,0-.45.08-.82.25-1.13.17-.31.38-.46.63-.46.29,0,.52.15.7.44.18.29.27.67.27,1.13,0,.28-.03.64-.1,1.07l-.67,4.25Z"/>
  </g>
  <path class="cls-7" d="m44.32,51.61h5.33v.3c-.32.05-.57.14-.75.29s-.27.34-.27.58c0,.16.04.34.13.54s.26.52.54.96l.34.56.83,1.36,1.64-2.08c.31-.38.52-.67.62-.86.1-.19.16-.38.16-.56,0-.45-.26-.71-.78-.79v-.3h3.61v.3c-.56.12-1.07.35-1.54.71-.47.35-.99.89-1.55,1.59l-1.87,2.37,2.76,4.31c.43.66.82,1.16,1.19,1.47.22.18.42.31.59.39.18.08.41.14.69.18v.29h-5.5v-.29c.33-.05.56-.11.7-.18.27-.15.41-.35.41-.63s-.17-.66-.5-1.17l-.3-.46-1.4-2.19-1.8,2.22c-.32.39-.53.68-.64.88-.11.2-.16.38-.16.57,0,.5.38.82,1.13.97v.29h-3.84v-.29c.25-.05.47-.1.64-.18.17-.07.36-.19.58-.35.37-.29.85-.8,1.42-1.51l2.43-3.01-2.56-3.86c-.51-.76-.9-1.28-1.18-1.53-.28-.26-.65-.45-1.1-.58v-.3Z"/>
  <path class="cls-7" d="m249.52,51.6h9.8v.31l-8.19,11.77h1.98c1.12,0,2.05-.05,2.77-.16.72-.11,1.29-.27,1.7-.5.79-.44,1.37-1.23,1.75-2.36l.29.04-.31,3.38h-10.96v-.29l8.19-11.79h-3.21c-.78,0-1.39.07-1.81.22-.43.15-.8.41-1.14.78-.31.36-.61.93-.9,1.72l-.28-.03.31-3.08Z"/>
  <g>
    <path class="cls-7" d="m193.78,50.4c.65,0,1.26.29,1.82.88.28.28.55.66.83,1.11.27.46.5.92.7,1.4.42,1.09.63,2.12.63,3.1s-.21,2.01-.63,3.11c-.19.48-.42.95-.7,1.4-.27.45-.55.82-.83,1.1-.57.59-1.18.89-1.82.89s-1.24-.3-1.82-.89c-.27-.28-.55-.65-.82-1.1-.28-.45-.51-.92-.69-1.4-.43-1.1-.64-2.14-.64-3.11s.21-2.01.64-3.1c.19-.48.42-.94.69-1.4.28-.46.55-.83.82-1.11.57-.59,1.18-.88,1.82-.88Zm0,.22c-.25,0-.49.09-.73.28-.24.19-.45.45-.63.78-.14.25-.28.6-.43,1.03-.14.43-.26.85-.35,1.28-.2.97-.3,1.94-.3,2.9s.1,1.93.3,2.9c.09.43.21.86.35,1.29s.28.76.43,1.01c.19.35.41.61.64.79.24.18.49.27.75.27.23,0,.46-.09.7-.28.24-.19.45-.45.64-.78.14-.25.28-.58.42-1.01s.26-.86.35-1.29c.2-.98.31-1.94.31-2.9s-.1-1.93-.31-2.9c-.09-.42-.2-.85-.35-1.28-.15-.43-.29-.77-.42-1.03-.19-.33-.4-.6-.63-.78-.24-.19-.48-.28-.74-.28Z"/>
    <path class="cls-7" d="m197.84,65.51l5.71-15.52h.59l-5.71,15.52h-.58Z"/>
    <path class="cls-7" d="m209.24,50.57h.21v10.17c0,.48.04.86.13,1.16.08.3.21.52.38.67.3.25.77.41,1.42.46v.19h-5.36v-.19c.41-.03.73-.08.93-.15.21-.07.39-.19.55-.37.16-.17.27-.38.33-.62.06-.24.09-.61.09-1.1v-8.85c-.33.04-.58.06-.75.06-.45,0-.82-.04-1.1-.11v-.17h.21c.48,0,.93-.08,1.36-.24.43-.16.89-.41,1.4-.77l.21-.15Z"/>
  </g>
  <g>
    <path class="cls-7" d="m92.76,46.02c.64-.1,1.4-.17,2.22-.17,1.5,0,2.57.35,3.27,1.02.72.65,1.14,1.59,1.14,2.89s-.41,2.4-1.16,3.14c-.76.75-2.01,1.17-3.58,1.17-.75,0-1.37-.03-1.9-.09v-7.95Zm1.05,7.15c.27.04.65.05,1.05.05,2.24,0,3.44-1.24,3.44-3.43.01-1.91-1.07-3.11-3.27-3.11-.54,0-.94.05-1.22.11v6.39Z"/>
    <path class="cls-7" d="m101.93,46.56c0,.36-.25.66-.67.66-.38,0-.64-.3-.64-.66,0-.36.27-.66.66-.66s.65.29.65.66Zm-1.18,7.44v-5.8h1.05v5.8h-1.05Z"/>
    <path class="cls-7" d="m103.41,52.92c.32.2.87.41,1.4.41.77,0,1.13-.38,1.13-.86s-.31-.77-1.08-1.06c-1.05-.38-1.54-.95-1.54-1.65,0-.93.76-1.7,2.01-1.7.59,0,1.1.16,1.42.36l-.26.77c-.22-.14-.65-.34-1.19-.34-.62,0-.96.36-.96.8,0,.48.34.69,1.1.99,1,.37,1.52.88,1.52,1.74,0,1.03-.8,1.75-2.17,1.75-.63,0-1.22-.16-1.63-.4l.26-.8Z"/>
    <path class="cls-7" d="m112.44,53.79c-.28.14-.88.34-1.66.34-1.75,0-2.89-1.19-2.89-2.96s1.22-3.09,3.12-3.09c.62,0,1.18.16,1.47.31l-.23.81c-.26-.14-.65-.28-1.23-.28-1.32,0-2.05.99-2.05,2.2,0,1.34.86,2.17,2.02,2.17.59,0,.99-.15,1.29-.28l.18.79Z"/>
    <path class="cls-7" d="m113.68,50c0-.69-.02-1.27-.05-1.81h.92l.04,1.14h.04c.27-.78.91-1.27,1.62-1.27.11,0,.2,0,.29.03v.99c-.11-.02-.21-.03-.36-.03-.74,0-1.27.56-1.41,1.35-.03.15-.04.32-.04.49v3.1h-1.05v-3.99Z"/>
    <path class="cls-7" d="m118.84,46.56c0,.36-.25.66-.67.66-.38,0-.64-.3-.64-.66,0-.36.27-.66.66-.66s.65.29.65.66Zm-1.18,7.44v-5.8h1.05v5.8h-1.05Z"/>
    <path class="cls-7" d="m120.47,49.76c0-.61-.02-1.09-.05-1.57h.92l.06.93h.03c.32-.55.86-1.07,1.83-1.07.79,0,1.39.48,1.63,1.16h.02c.19-.33.41-.58.65-.76.35-.26.73-.41,1.28-.41.77,0,1.92.5,1.92,2.52v3.42h-1.03v-3.28c0-1.12-.41-1.79-1.26-1.79-.6,0-1.07.44-1.25.95-.05.15-.09.34-.09.53v3.59h-1.03v-3.48c0-.92-.41-1.59-1.21-1.59-.66,0-1.14.52-1.31,1.05-.05.15-.08.34-.08.52v3.5h-1.03v-4.23Z"/>
    <path class="cls-7" d="m131.65,46.56c0,.36-.25.66-.67.66-.38,0-.64-.3-.64-.66,0-.36.27-.66.66-.66s.65.29.65.66Zm-1.18,7.44v-5.8h1.05v5.8h-1.05Z"/>
    <path class="cls-7" d="m133.28,49.76c0-.61-.02-1.09-.05-1.57h.93l.06.95h.03c.29-.54.96-1.09,1.92-1.09.8,0,2.04.48,2.04,2.47v3.46h-1.05v-3.34c0-.94-.35-1.72-1.34-1.72-.69,0-1.23.49-1.42,1.08-.04.13-.07.32-.07.49v3.5h-1.05v-4.23Z"/>
    <path class="cls-7" d="m143.16,54l-.09-.73h-.03c-.32.45-.94.86-1.77.86-1.17,0-1.77-.83-1.77-1.66,0-1.41,1.25-2.18,3.49-2.16v-.12c0-.47-.13-1.34-1.32-1.34-.54,0-1.1.16-1.51.43l-.24-.7c.48-.31,1.18-.51,1.91-.51,1.77,0,2.21,1.21,2.21,2.37v2.17c0,.5.02.99.09,1.39h-.95Zm-.16-2.96c-1.14-.02-2.45.18-2.45,1.3,0,.69.46,1.01.98,1.01.76,0,1.25-.48,1.41-.97.04-.11.05-.23.05-.33v-1.01Z"/>
    <path class="cls-7" d="m146.94,46.53v1.67h1.52v.8h-1.52v3.13c0,.72.21,1.13.8,1.13.27,0,.47-.03.61-.08l.05.8c-.21.08-.53.15-.94.15-.48,0-.89-.16-1.14-.45-.29-.32-.41-.83-.41-1.51v-3.17h-.9v-.8h.9v-1.4l1.03-.27Z"/>
    <path class="cls-7" d="m154.83,51.04c0,2.15-1.49,3.09-2.88,3.09-1.57,0-2.79-1.15-2.79-2.99,0-1.94,1.28-3.08,2.88-3.08s2.79,1.21,2.79,2.98Zm-4.6.07c0,1.27.73,2.23,1.76,2.23s1.77-.95,1.77-2.26c0-.98-.49-2.22-1.75-2.22s-1.78,1.15-1.78,2.25Z"/>
    <path class="cls-7" d="m156.16,50c0-.69-.02-1.27-.05-1.81h.92l.04,1.14h.04c.27-.78.91-1.27,1.62-1.27.11,0,.2,0,.29.03v.99c-.11-.02-.21-.03-.36-.03-.74,0-1.27.56-1.41,1.35-.03.15-.04.32-.04.49v3.1h-1.05v-3.99Z"/>
  </g>
  <g>
    <path class="cls-7" d="m107.09,74c.4-.02.71-.08.95-.16s.45-.23.65-.43c.21-.22.36-.5.44-.84.08-.34.12-.86.12-1.55v-7.56c0-.75-.05-1.3-.14-1.65-.09-.35-.27-.64-.54-.86-.33-.28-.83-.44-1.48-.47v-.24h5.64c1.25,0,2.05.01,2.39.04,1.44.11,2.67.52,3.67,1.23.96.68,1.7,1.56,2.24,2.66.53,1.1.8,2.29.8,3.58,0,.94-.15,1.83-.46,2.67-.3.84-.73,1.53-1.27,2.09-.76.78-1.71,1.27-2.84,1.49-.85.16-1.71.24-2.59.24h-7.58v-.24Zm4.4-13.44v10.19c0,.67.04,1.18.11,1.53s.22.65.42.89c.44.53,1.15.8,2.13.8.84,0,1.56-.14,2.16-.42.6-.28,1.13-.73,1.6-1.35.46-.6.82-1.29,1.06-2.07.24-.78.36-1.6.36-2.48,0-.97-.15-1.89-.44-2.77s-.71-1.64-1.26-2.3c-.76-.91-1.66-1.51-2.72-1.8-.57-.16-1.31-.24-2.19-.24h-1.24Z"/>
    <path class="cls-7" d="m128.68,76.75h-.32c-1.02-1.09-1.82-2.18-2.41-3.26-.46-.85-.81-1.73-1.07-2.66-.25-.93-.38-1.8-.38-2.62s.13-1.71.39-2.67c.26-.96.61-1.85,1.06-2.68.29-.55.63-1.08.99-1.57s.84-1.06,1.42-1.69h.32l-.17.32c-.5.95-.89,1.77-1.16,2.46-.27.69-.48,1.42-.63,2.17-.11.55-.2,1.17-.28,1.86-.08.69-.11,1.28-.11,1.76,0,.57.05,1.26.14,2.06.14,1.21.36,2.24.64,3.1.28.86.75,1.89,1.39,3.1l.17.32Z"/>
    <path class="cls-7" d="m129.37,65.52h4v.23c-.24.03-.43.11-.56.22-.13.11-.2.26-.2.43,0,.12.03.26.1.4s.2.39.4.72l.25.42.62,1.02,1.23-1.56c.23-.29.39-.5.47-.64.08-.14.12-.28.12-.42,0-.33-.19-.53-.58-.59v-.23h2.71v.23c-.42.09-.8.27-1.15.53-.35.27-.74.66-1.16,1.2l-1.4,1.78,2.07,3.23c.32.5.62.87.89,1.1.16.14.31.23.45.29.13.06.31.1.52.14v.22h-4.12v-.22c.25-.04.42-.09.52-.13.21-.11.31-.27.31-.47s-.13-.5-.38-.88l-.22-.35-1.05-1.65-1.35,1.67c-.24.29-.4.51-.48.66-.08.15-.12.29-.12.42,0,.38.28.62.85.73v.22h-2.88v-.22c.19-.03.35-.08.48-.13.13-.05.27-.14.44-.27.28-.22.64-.6,1.07-1.13l1.83-2.26-1.92-2.9c-.38-.57-.68-.96-.89-1.15s-.48-.34-.83-.44v-.23Z"/>
    <path class="cls-7" d="m138.6,59.6h.32c1.02,1.09,1.82,2.18,2.41,3.26.46.85.81,1.73,1.07,2.66.25.93.38,1.8.38,2.62s-.13,1.71-.39,2.67c-.26.96-.61,1.85-1.06,2.68-.29.55-.63,1.08-.99,1.57-.37.5-.84,1.06-1.42,1.69h-.32l.17-.32c.5-.95.89-1.77,1.16-2.46.27-.69.48-1.42.63-2.17.12-.55.21-1.17.28-1.86.07-.69.11-1.28.11-1.77,0-.57-.05-1.25-.14-2.05-.14-1.21-.36-2.24-.64-3.1-.28-.86-.75-1.89-1.39-3.1l-.17-.32Z"/>
  </g>
  <g>
    <path class="cls-7" d="m316.02,53.63c-.47.18-1.4.44-2.49.44-1.23,0-2.24-.31-3.02-1.07-.7-.67-1.12-1.74-1.12-3,0-2.41,1.66-4.18,4.37-4.18.93,0,1.67.21,2.02.37l-.26.85c-.43-.2-.97-.35-1.79-.35-1.96,0-3.25,1.22-3.25,3.25s1.23,3.26,3.12,3.26c.68,0,1.15-.1,1.39-.22v-2.41h-1.64v-.83h2.66v3.88Z"/>
    <path class="cls-7" d="m318.23,51.29c.02,1.43.93,2.01,1.99,2.01.75,0,1.22-.14,1.61-.3l.18.75c-.37.17-1.01.37-1.94.37-1.78,0-2.85-1.19-2.85-2.93s1.04-3.13,2.73-3.13c1.89,0,2.39,1.66,2.39,2.73,0,.22-.01.38-.04.49h-4.07Zm3.09-.76c0-.67-.27-1.71-1.46-1.71-1.08,0-1.54.97-1.62,1.71h3.08Z"/>
    <path class="cls-7" d="m323.65,49.76c0-.61-.02-1.09-.05-1.57h.93l.06.95h.03c.29-.54.96-1.09,1.92-1.09.8,0,2.04.48,2.04,2.47v3.46h-1.05v-3.34c0-.94-.35-1.72-1.34-1.72-.69,0-1.23.49-1.42,1.08-.04.13-.07.32-.07.49v3.5h-1.05v-4.23Z"/>
    <path class="cls-7" d="m330.9,51.29c.02,1.43.93,2.01,1.99,2.01.75,0,1.22-.14,1.61-.3l.18.75c-.37.17-1.01.37-1.94.37-1.78,0-2.85-1.19-2.85-2.93s1.04-3.13,2.73-3.13c1.89,0,2.39,1.66,2.39,2.73,0,.22-.01.38-.04.49h-4.07Zm3.09-.76c0-.67-.27-1.71-1.46-1.71-1.08,0-1.54.97-1.62,1.71h3.08Z"/>
    <path class="cls-7" d="m336.32,50c0-.69-.02-1.27-.05-1.81h.92l.04,1.14h.04c.27-.78.91-1.27,1.62-1.27.11,0,.2,0,.29.03v.99c-.11-.02-.21-.03-.36-.03-.74,0-1.27.56-1.41,1.35-.03.15-.04.32-.04.49v3.1h-1.05v-3.99Z"/>
    <path class="cls-7" d="m343.4,54l-.09-.73h-.03c-.32.45-.94.86-1.77.86-1.17,0-1.77-.83-1.77-1.66,0-1.41,1.25-2.18,3.49-2.16v-.12c0-.47-.13-1.34-1.32-1.34-.54,0-1.1.16-1.51.43l-.24-.7c.48-.31,1.18-.51,1.92-.51,1.77,0,2.21,1.21,2.21,2.37v2.17c0,.5.02.99.09,1.39h-.95Zm-.16-2.96c-1.14-.02-2.45.18-2.45,1.3,0,.69.46,1.01.99,1.01.76,0,1.25-.48,1.41-.97.04-.11.05-.23.05-.33v-1.01Z"/>
    <path class="cls-7" d="m347.19,46.53v1.67h1.52v.8h-1.52v3.13c0,.72.21,1.13.8,1.13.27,0,.47-.03.61-.08l.05.8c-.21.08-.53.15-.94.15-.49,0-.89-.16-1.14-.45-.29-.32-.41-.83-.41-1.51v-3.17h-.9v-.8h.9v-1.4l1.03-.27Z"/>
    <path class="cls-7" d="m355.07,51.04c0,2.15-1.49,3.09-2.88,3.09-1.57,0-2.79-1.15-2.79-2.99,0-1.94,1.28-3.08,2.88-3.08s2.79,1.21,2.79,2.98Zm-4.6.07c0,1.27.73,2.23,1.76,2.23s1.77-.95,1.77-2.26c0-.98-.49-2.22-1.75-2.22s-1.78,1.15-1.78,2.25Z"/>
    <path class="cls-7" d="m356.41,50c0-.69-.02-1.27-.05-1.81h.92l.04,1.14h.04c.27-.78.91-1.27,1.62-1.27.11,0,.2,0,.29.03v.99c-.11-.02-.21-.03-.36-.03-.74,0-1.27.56-1.41,1.35-.03.15-.04.32-.04.49v3.1h-1.05v-3.99Z"/>
  </g>
  <g>
    <path class="cls-7" d="m329.27,60.24l.12,4.46-.24.02c-.47-1.52-1.08-2.65-1.82-3.39s-1.63-1.11-2.68-1.11c-.81,0-1.51.17-2.1.5-.58.33-1.13.87-1.64,1.61-1.03,1.52-1.54,3.27-1.54,5.23,0,.94.12,1.82.37,2.65.25.83.6,1.56,1.08,2.2.92,1.23,2.03,1.85,3.35,1.85.52,0,1.01-.11,1.47-.33.46-.22.83-.52,1.13-.9.4-.53.6-1.17.6-1.9,0-.68-.18-1.17-.55-1.47s-.97-.45-1.81-.45v-.24h6.54v.24c-.6.05-1.02.14-1.27.25-.24.11-.42.31-.54.58-.13.3-.19.9-.19,1.79,0,.25.01.63.04,1.15l.02.24c-.26-.1-.45-.14-.57-.14-.15,0-.34.08-.57.24-.59.41-1.29.72-2.07.94-.79.22-1.62.33-2.49.33-1.2,0-2.29-.21-3.26-.62s-1.75-1-2.35-1.76c-.45-.57-.8-1.26-1.04-2.05-.24-.79-.36-1.63-.36-2.52,0-1.22.22-2.36.66-3.41s1.05-1.92,1.85-2.6c.65-.55,1.4-.98,2.25-1.28s1.74-.45,2.69-.45c.55,0,1.05.05,1.52.15.47.1.96.27,1.49.5l.6.28c.15.06.29.09.41.09.27,0,.48-.22.63-.67h.27Z"/>
    <path class="cls-7" d="m337.6,76.75h-.32c-1.02-1.09-1.82-2.18-2.41-3.26-.46-.85-.81-1.73-1.07-2.66-.25-.93-.38-1.8-.38-2.62s.13-1.71.39-2.67c.26-.96.61-1.85,1.06-2.68.29-.55.62-1.08.99-1.57s.84-1.06,1.42-1.69h.32l-.17.32c-.5.95-.89,1.77-1.16,2.46-.27.69-.48,1.42-.63,2.17-.11.55-.2,1.17-.28,1.86s-.11,1.28-.11,1.76c0,.57.05,1.26.14,2.06.14,1.21.36,2.24.64,3.1.28.86.75,1.89,1.39,3.1l.17.32Z"/>
    <path class="cls-7" d="m338.96,65.52h6.85v.22l-5.72,8.22h1.38c.79,0,1.43-.04,1.94-.11s.9-.19,1.19-.35c.55-.31.96-.86,1.22-1.65l.21.03-.22,2.36h-7.66v-.21l5.72-8.23h-2.25c-.55,0-.97.05-1.27.15-.3.1-.56.28-.79.54-.22.25-.43.65-.62,1.2l-.2-.02.22-2.15Z"/>
    <path class="cls-7" d="m346.58,59.6h.32c1.02,1.09,1.82,2.18,2.41,3.26.46.85.81,1.73,1.07,2.66.25.93.38,1.8.38,2.62s-.13,1.71-.39,2.67c-.26.96-.61,1.85-1.06,2.68-.29.55-.63,1.08-1,1.57-.37.5-.84,1.06-1.42,1.69h-.32l.17-.32c.5-.95.89-1.77,1.16-2.46s.48-1.42.63-2.17c.12-.55.21-1.17.28-1.86s.11-1.28.11-1.77c0-.57-.05-1.25-.14-2.05-.14-1.21-.36-2.24-.64-3.1-.28-.86-.75-1.89-1.39-3.1l-.17-.32Z"/>
  </g>
</svg>