<?xml version="1.0" encoding="UTF-8"?>
<svg id="Layer_3" data-name="Layer 3" xmlns="http://www.w3.org/2000/svg" viewBox="0 0 362.52 561.92">
  <defs>
    <style>
      .cls-1, .cls-2, .cls-3, .cls-4, .cls-5, .cls-6, .cls-7, .cls-8, .cls-9, .cls-10 {
        stroke-miterlimit: 10;
      }

      .cls-1, .cls-2, .cls-5, .cls-6, .cls-7, .cls-8, .cls-9, .cls-10 {
        stroke: #000;
      }

      .cls-1, .cls-3, .cls-5 {
        fill: none;
      }

      .cls-2 {
        fill: #8ccea9;
      }

      .cls-3, .cls-4 {
        stroke: #666;
      }

      .cls-3, .cls-4, .cls-5, .cls-9 {
        stroke-width: 2px;
      }

      .cls-4, .cls-9 {
        fill: #fff;
      }

      .cls-6 {
        fill: #b55c4e;
      }

      .cls-7 {
        fill: #e8a97b;
      }

      .cls-8 {
        fill: #d37bb2;
      }

      .cls-10 {
        fill: #8084c4;
      }
    </style>
  </defs>
  <g>
    <line class="cls-4" x1="284.2" y1="69.09" x2="284.2" y2="441.59"/>
    <polyline class="cls-3" points="255.34 458.03 182.45 458.03 182.45 303.75 141.46 303.75"/>
  </g>
  <g>
    <line class="cls-9" x1="77.59" y1="75.12" x2="77.59" y2="157.98"/>
    <line class="cls-9" x1="40.52" y1="174.43" x2="40.52" y2="196.59"/>
    <line class="cls-9" x1="114.64" y1="174.43" x2="114.64" y2="196.59"/>
    <polyline class="cls-5" points="40.52 250.46 40.52 257.91 77.59 258.02 77.59 271.75"/>
    <line class="cls-9" x1="77.58" y1="336.11" x2="77.58" y2="521.73"/>
    <polyline class="cls-5" points="142.77 223.53 161.14 223.53 161.14 444.17 142.77 444.17"/>
  </g>
  <rect class="cls-2" x="1.98" y="42.23" width="148.25" height="32.89"/>
  <rect class="cls-6" x=".5" y="270.02" width="148.25" height="66.09" rx="33.04" ry="33.04"/>
  <rect class="cls-8" x="1.99" y="94.52" width="148.25" height="32.89"/>
  <rect class="cls-8" x=".5" y="425.14" width="148.25" height="32.89"/>
  <rect class="cls-8" x=".5" y="458.03" width="148.25" height="32.89"/>
  <rect class="cls-6" x="3.45" y="141.53" width="74.13" height="32.89" rx="16.45" ry="16.45"/>
  <rect class="cls-6" x="77.58" y="141.53" width="74.13" height="32.89" rx="16.45" ry="16.45"/>
  <rect class="cls-10" x="83.58" y="196.59" width="59.18" height="53.87"/>
  <rect class="cls-10" x="9.46" y="196.59" width="59.18" height="53.87"/>
  <rect class="cls-10" x="45.03" y="354.58" width="59.18" height="53.87"/>
  <rect class="cls-2" x="210.81" y="42.23" width="148.25" height="32.89"/>
  <rect class="cls-2" x=".5" y="517.2" width="148.25" height="32.89"/>
  <rect class="cls-6" x="209.33" y="354.58" width="148.25" height="53.87" rx="26.94" ry="26.94"/>
  <rect class="cls-8" x="209.34" y="94.61" width="148.25" height="32.89"/>
  <rect class="cls-8" x="210.07" y="270.85" width="148.25" height="32.89"/>
  <rect class="cls-8" x="210.07" y="304.04" width="148.25" height="32.89"/>
  <rect class="cls-6" x="249.34" y="141.53" width="74.13" height="32.89" rx="16.45" ry="16.45"/>
  <rect class="cls-10" x="255.34" y="195.41" width="59.18" height="53.87"/>
  <rect class="cls-7" x="255.34" y="431.1" width="59.18" height="53.87"/>
  <g>
    <g>
      <path d="m38.67,58.11c0,3.93-2.4,6.03-5.32,6.03s-5.15-2.35-5.15-5.81,2.25-6.02,5.31-6.02,5.16,2.4,5.16,5.8Zm-8.9.18c0,2.45,1.33,4.65,3.67,4.65s3.67-2.16,3.67-4.76c0-2.28-1.19-4.66-3.65-4.66s-3.68,2.27-3.68,4.78Z"/>
      <path d="m40.57,58.3c0-.97-.02-1.8-.07-2.56h1.31l.06,1.61h.05c.38-1.1,1.29-1.8,2.29-1.8.16,0,.28.01.42.04v1.41c-.15-.03-.3-.04-.51-.04-1.05,0-1.8.79-2,1.91-.04.21-.06.45-.06.7v4.39h-1.49v-5.66Z"/>
      <path d="m47.87,53.41c0,.51-.36.93-.95.93-.54,0-.9-.42-.9-.93,0-.51.38-.93.93-.93s.92.41.92.93Zm-1.67,10.54v-8.22h1.49v8.22h-1.49Z"/>
      <path d="m57.27,55.74c-.04.58-.07,1.25-.07,2.25v4.77c0,1.9-.39,3.04-1.17,3.76-.81.74-1.96.99-2.99.99s-2.08-.23-2.74-.68l.37-1.15c.55.34,1.39.66,2.42.66,1.53,0,2.65-.8,2.65-2.88v-.92h-.03c-.45.77-1.35,1.38-2.61,1.38-2.05,0-3.5-1.74-3.5-4.02,0-2.79,1.81-4.36,3.71-4.36,1.43,0,2.2.73,2.56,1.42h.03l.06-1.23h1.32Zm-1.56,3.23c0-.24-.02-.47-.08-.67-.28-.87-1-1.59-2.1-1.59-1.43,0-2.45,1.21-2.45,3.12,0,1.61.83,2.96,2.43,2.96.93,0,1.76-.59,2.08-1.54.08-.24.12-.53.12-.79v-1.48Z"/>
      <path d="m61.25,53.41c0,.51-.36.93-.95.93-.54,0-.9-.42-.9-.93,0-.51.38-.93.93-.93s.92.41.92.93Zm-1.67,10.54v-8.22h1.49v8.22h-1.49Z"/>
      <path d="m63.56,57.96c0-.86-.03-1.54-.07-2.22h1.32l.08,1.35h.04c.4-.77,1.36-1.54,2.72-1.54,1.13,0,2.9.68,2.9,3.5v4.9h-1.49v-4.74c0-1.33-.5-2.44-1.9-2.44-.98,0-1.75.7-2.01,1.53-.06.18-.1.45-.1.69v4.95h-1.49v-6Z"/>
      <path d="m77.55,63.96l-.13-1.04h-.04c-.45.64-1.34,1.23-2.52,1.23-1.66,0-2.51-1.18-2.51-2.36,0-1.99,1.76-3.08,4.94-3.06v-.17c0-.67-.19-1.91-1.87-1.9-.76,0-1.56.23-2.14.61l-.34-.99c.68-.44,1.68-.72,2.71-.72,2.51,0,3.13,1.72,3.13,3.36v3.08c0,.7.03,1.4.12,1.97h-1.35Zm-.23-4.2c-1.62-.03-3.47.26-3.47,1.85,0,.98.65,1.43,1.4,1.43,1.08,0,1.77-.68,2-1.38.05-.16.07-.33.07-.47v-1.43Z"/>
      <path d="m81.19,51.89h1.49v12.07h-1.49v-12.07Z"/>
      <path d="m90.76,63.96l-3.75-11.46h1.61l1.78,5.65c.49,1.54.92,2.94,1.23,4.27h.04c.32-1.32.79-2.77,1.3-4.26l1.94-5.67h1.58l-4.09,11.46h-1.63Z"/>
      <path d="m99.07,53.41c0,.51-.36.93-.95.93-.54,0-.9-.42-.9-.93,0-.51.38-.93.93-.93s.92.41.92.93Zm-1.67,10.54v-8.22h1.49v8.22h-1.49Z"/>
      <path d="m108.48,51.89v9.95c0,.73.03,1.55.07,2.12h-1.33l-.08-1.42h-.04c-.46.92-1.45,1.61-2.79,1.61-1.99,0-3.53-1.68-3.53-4.18-.01-2.75,1.69-4.42,3.69-4.42,1.26,0,2.11.59,2.48,1.25h.03v-4.91h1.49Zm-1.49,7.19c0-.19-.02-.44-.06-.64-.23-.94-1.04-1.72-2.17-1.72-1.55,0-2.47,1.36-2.47,3.16,0,1.67.83,3.06,2.44,3.06,1,0,1.91-.68,2.19-1.79.05-.2.07-.41.07-.64v-1.42Z"/>
      <path d="m111.81,60.12c.03,2.02,1.31,2.85,2.81,2.85,1.07,0,1.72-.19,2.28-.42l.26,1.06c-.52.24-1.44.52-2.74.52-2.53,0-4.04-1.68-4.04-4.15s1.47-4.44,3.87-4.44c2.68,0,3.38,2.35,3.38,3.87,0,.31-.02.54-.05.7h-5.76Zm4.38-1.08c.02-.94-.39-2.42-2.06-2.42-1.53,0-2.18,1.38-2.3,2.42h4.36Z"/>
      <path d="m126.93,59.77c0,3.04-2.11,4.38-4.09,4.38-2.23,0-3.95-1.62-3.95-4.23,0-2.75,1.81-4.36,4.08-4.36s3.96,1.71,3.96,4.22Zm-6.52.1c0,1.8,1.03,3.16,2.49,3.16s2.5-1.34,2.5-3.21c0-1.39-.7-3.15-2.48-3.15s-2.52,1.64-2.52,3.19Z"/>
    </g>
    <g>
      <path d="m6.98,6.4c.95-.15,2.19-.25,3.49-.25,2.17,0,3.59.4,4.69,1.23,1.19.89,1.94,2.29,1.94,4.31,0,2.2-.79,3.71-1.89,4.64-1.21,1-3.05,1.48-5.28,1.48-1.35,0-2.31-.08-2.94-.17V6.4Zm2.59,9.35c.23.04.59.04.9.04,2.35.02,3.89-1.28,3.89-4.02,0-2.38-1.39-3.63-3.62-3.63-.57,0-.95.05-1.18.1v7.5Z"/>
      <path d="m20.7,14.37c.08,1.07,1.14,1.58,2.34,1.58.88,0,1.59-.12,2.29-.35l.35,1.75c-.86.35-1.9.53-3.01.53-2.82,0-4.44-1.64-4.44-4.23,0-2.11,1.32-4.45,4.19-4.45,2.7,0,3.71,2.1,3.71,4.15,0,.45-.05.83-.09,1.02h-5.35Zm3.04-1.77c0-.62-.27-1.69-1.45-1.69-1.09,0-1.54,1-1.61,1.69h3.06Z"/>
      <path d="m29.67,14.37c.08,1.07,1.14,1.58,2.34,1.58.88,0,1.59-.12,2.29-.35l.35,1.75c-.86.35-1.9.53-3.01.53-2.82,0-4.44-1.64-4.44-4.23,0-2.11,1.32-4.45,4.19-4.45,2.7,0,3.71,2.1,3.71,4.15,0,.45-.05.83-.09,1.02h-5.35Zm3.04-1.77c0-.62-.27-1.69-1.45-1.69-1.09,0-1.54,1-1.61,1.69h3.06Z"/>
      <path d="m36.66,12.18c0-1.09-.03-2.02-.07-2.8h2.25l.12,1.16h.03c.62-.88,1.56-1.35,2.77-1.35,1.82,0,3.46,1.58,3.46,4.24,0,3.03-1.93,4.46-3.78,4.46-.99,0-1.79-.4-2.16-.95h-.03v4.13h-2.59v-8.89Zm2.59,1.96c0,.19.02.37.05.54.17.69.76,1.23,1.51,1.23,1.12,0,1.78-.94,1.78-2.35,0-1.32-.59-2.33-1.74-2.33-.73,0-1.39.55-1.55,1.31-.04.15-.06.31-.06.46v1.15Z"/>
      <path d="m46.92,6.24h7v2.12h-4.41v2.63h4.12v2.1h-4.12v4.61h-2.59V6.24Z"/>
      <path d="m59.85,17.7l-.15-.83h-.06c-.54.66-1.39,1.01-2.38,1.01-1.69,0-2.69-1.22-2.69-2.55,0-2.17,1.94-3.19,4.88-3.19v-.11c0-.44-.24-1.07-1.52-1.07-.85,0-1.74.29-2.29.62l-.48-1.66c.58-.33,1.71-.75,3.23-.75,2.77,0,3.65,1.64,3.65,3.59v2.9c0,.79.04,1.55.13,2.01h-2.33Zm-.31-3.93c-1.36,0-2.41.32-2.41,1.31,0,.67.44,1,1.03,1,.63,0,1.17-.42,1.34-.96.04-.13.05-.29.05-.44v-.91Z"/>
      <path d="m66.68,12.9h.03c.19-.35.4-.69.6-1l1.69-2.51h3.1l-2.98,3.38,3.4,4.94h-3.18l-2.01-3.42-.66.83v2.59h-2.59V5.63h2.59v7.26Z"/>
      <path d="m75.06,14.37c.08,1.07,1.14,1.58,2.34,1.58.88,0,1.59-.12,2.29-.35l.35,1.75c-.86.35-1.9.53-3.01.53-2.82,0-4.44-1.64-4.44-4.23,0-2.11,1.32-4.45,4.19-4.45,2.7,0,3.71,2.1,3.71,4.15,0,.45-.05.83-.09,1.02h-5.35Zm3.04-1.77c0-.62-.27-1.69-1.45-1.69-1.09,0-1.54,1-1.61,1.69h3.06Z"/>
      <path d="m93.98,17.39c-.46.23-1.55.49-2.93.49-3.97,0-6.01-2.48-6.01-5.75,0-3.91,2.8-6.07,6.26-6.07,1.35,0,2.37.26,2.82.51l-.53,2.05c-.52-.23-1.25-.43-2.18-.43-2.04,0-3.65,1.25-3.65,3.79,0,2.3,1.35,3.74,3.66,3.74.79,0,1.65-.16,2.17-.37l.39,2.03Z"/>
      <path d="m95.53,12.12c0-1.22-.02-2.03-.07-2.74h2.22l.09,1.54h.06c.43-1.22,1.44-1.73,2.25-1.73.24,0,.36,0,.55.05v2.43c-.2-.04-.41-.07-.7-.07-.95,0-1.6.5-1.77,1.31-.03.16-.05.37-.05.58v4.21h-2.59v-5.58Z"/>
      <path d="m103.85,14.37c.08,1.07,1.14,1.58,2.34,1.58.88,0,1.59-.12,2.29-.35l.35,1.75c-.86.35-1.9.53-3.01.53-2.82,0-4.44-1.64-4.44-4.23,0-2.11,1.32-4.45,4.19-4.45,2.7,0,3.71,2.1,3.71,4.15,0,.45-.05.83-.09,1.02h-5.35Zm3.04-1.77c0-.62-.27-1.69-1.45-1.69-1.09,0-1.54,1-1.61,1.69h3.06Z"/>
      <path d="m115.56,17.7l-.15-.83h-.06c-.54.66-1.39,1.01-2.38,1.01-1.69,0-2.69-1.22-2.69-2.55,0-2.17,1.94-3.19,4.88-3.19v-.11c0-.44-.24-1.07-1.52-1.07-.85,0-1.74.29-2.29.62l-.48-1.66c.58-.33,1.71-.75,3.23-.75,2.77,0,3.65,1.64,3.65,3.59v2.9c0,.79.04,1.55.13,2.01h-2.33Zm-.31-3.93c-1.36,0-2.41.32-2.41,1.31,0,.67.44,1,1.03,1,.63,0,1.17-.42,1.34-.96.04-.13.05-.29.05-.44v-.91Z"/>
      <path d="m122.55,7.01v2.37h1.86v1.91h-1.86v3.01c0,1,.25,1.47,1.02,1.47.33,0,.59-.04.77-.08l.02,1.96c-.33.12-.95.22-1.68.22-.84,0-1.53-.29-1.95-.72-.48-.49-.72-1.28-.72-2.47v-3.4h-1.11v-1.91h1.11v-1.79l2.53-.59Z"/>
      <path d="m128.57,7.07c0,.72-.53,1.29-1.39,1.29s-1.35-.57-1.35-1.29c0-.74.54-1.3,1.37-1.3s1.36.55,1.37,1.3Zm-2.66,10.63v-8.32h2.59v8.32h-2.59Z"/>
      <path d="m138.77,13.46c0,3.04-2.15,4.43-4.38,4.43-2.42,0-4.3-1.6-4.3-4.29s1.77-4.41,4.44-4.41,4.24,1.75,4.24,4.26Zm-6.01.08c0,1.42.6,2.5,1.7,2.5,1.01,0,1.65-1.01,1.65-2.51,0-1.23-.47-2.49-1.64-2.49-1.23,0-1.7,1.27-1.7,2.5Z"/>
      <path d="m140.37,12.04c0-1.04-.03-1.91-.07-2.66h2.24l.12,1.15h.05c.34-.54,1.18-1.34,2.57-1.34,1.7,0,2.98,1.13,2.98,3.58v4.92h-2.59v-4.61c0-1.07-.38-1.81-1.32-1.81-.71,0-1.13.5-1.31.98-.07.16-.09.41-.09.64v4.8h-2.59v-5.66Z"/>
    </g>
    <g>
      <path d="m230.67,6.24h2.59v9.29h4.56v2.17h-7.15V6.24Z"/>
      <path d="m247.32,13.46c0,3.04-2.15,4.43-4.38,4.43-2.42,0-4.3-1.6-4.3-4.29s1.77-4.41,4.44-4.41,4.24,1.75,4.24,4.26Zm-6.01.08c0,1.42.6,2.5,1.7,2.5,1.01,0,1.65-1.01,1.65-2.51,0-1.23-.47-2.49-1.64-2.49-1.23,0-1.7,1.27-1.7,2.5Z"/>
      <path d="m249.01,6.4c.83-.14,2.06-.25,3.44-.25,1.7,0,2.89.26,3.71.91.68.54,1.06,1.35,1.06,2.4,0,1.45-1.04,2.46-2.02,2.82v.05c.79.32,1.24,1.08,1.53,2.13.35,1.3.7,2.79.92,3.23h-2.65c-.18-.33-.46-1.25-.79-2.67-.32-1.43-.8-1.81-1.87-1.83h-.77v4.5h-2.57V6.4Zm2.57,4.93h1.01c1.29,0,2.05-.66,2.05-1.65,0-1.05-.72-1.59-1.9-1.59-.62,0-.98.04-1.17.09v3.16Z"/>
      <path d="m261.9,14.76l-.81,2.94h-2.68l3.5-11.46h3.39l3.57,11.46h-2.79l-.88-2.94h-3.29Zm2.91-1.93l-.71-2.43c-.2-.68-.4-1.54-.58-2.21h-.04c-.17.67-.34,1.54-.52,2.21l-.69,2.43h2.54Z"/>
      <path d="m275.38,8.42h-3.09v-2.17h8.82v2.17h-3.14v9.28h-2.59v-9.28Z"/>
      <path d="m281.47,12.12c0-1.22-.02-2.03-.07-2.74h2.22l.09,1.54h.06c.43-1.22,1.44-1.73,2.25-1.73.24,0,.36,0,.55.05v2.43c-.2-.04-.41-.07-.7-.07-.95,0-1.6.5-1.77,1.31-.03.16-.05.37-.05.58v4.21h-2.59v-5.58Z"/>
      <path d="m292.48,17.7l-.15-.83h-.06c-.54.66-1.39,1.01-2.38,1.01-1.69,0-2.69-1.22-2.69-2.55,0-2.17,1.94-3.19,4.88-3.19v-.11c0-.44-.24-1.07-1.52-1.07-.85,0-1.74.29-2.29.62l-.48-1.66c.58-.33,1.71-.75,3.23-.75,2.77,0,3.65,1.64,3.65,3.59v2.9c0,.79.04,1.55.13,2.01h-2.33Zm-.31-3.93c-1.36,0-2.41.32-2.41,1.31,0,.67.44,1,1.03,1,.63,0,1.17-.42,1.34-.96.04-.13.05-.29.05-.44v-.91Z"/>
      <path d="m299.39,7.07c0,.72-.53,1.29-1.39,1.29s-1.35-.57-1.35-1.29c0-.74.54-1.3,1.37-1.3s1.36.55,1.37,1.3Zm-2.66,10.63v-8.32h2.59v8.32h-2.59Z"/>
      <path d="m301.38,12.04c0-1.04-.03-1.91-.07-2.66h2.24l.12,1.15h.05c.34-.54,1.18-1.34,2.57-1.34,1.7,0,2.98,1.13,2.98,3.58v4.92h-2.59v-4.61c0-1.07-.38-1.81-1.32-1.81-.71,0-1.13.5-1.31.98-.07.16-.09.41-.09.64v4.8h-2.59v-5.66Z"/>
      <path d="m314.01,7.07c0,.72-.53,1.29-1.39,1.29s-1.35-.57-1.35-1.29c0-.74.54-1.3,1.37-1.3s1.36.55,1.37,1.3Zm-2.66,10.63v-8.32h2.59v8.32h-2.59Z"/>
      <path d="m316,12.04c0-1.04-.03-1.91-.07-2.66h2.24l.12,1.15h.05c.33-.54,1.18-1.34,2.57-1.34,1.7,0,2.98,1.13,2.98,3.58v4.92h-2.59v-4.61c0-1.07-.38-1.81-1.32-1.81-.71,0-1.13.5-1.31.98-.07.16-.09.41-.09.64v4.8h-2.59v-5.66Z"/>
      <path d="m333.91,9.38c-.04.54-.07,1.24-.07,2.48v4.63c0,1.6-.32,2.91-1.26,3.74-.91.79-2.15,1.02-3.37,1.02-1.1,0-2.25-.22-2.99-.64l.51-1.96c.52.3,1.43.62,2.41.62,1.22,0,2.16-.65,2.16-2.19v-.53h-.03c-.49.68-1.29,1.07-2.25,1.07-2.05,0-3.52-1.67-3.52-4.05,0-2.68,1.73-4.38,3.77-4.38,1.14,0,1.86.5,2.28,1.18h.03l.09-.99h2.25Zm-2.66,3.39c0-.17-.02-.34-.05-.48-.18-.68-.67-1.15-1.39-1.15-.94,0-1.69.86-1.69,2.37,0,1.24.61,2.21,1.69,2.21.67,0,1.2-.44,1.37-1.04.06-.2.07-.47.07-.69v-1.22Z"/>
    </g>
    <g>
      <path d="m239.75,53.75h-3.49v-1.25h8.48v1.25h-3.51v10.21h-1.49v-10.21Z"/>
      <path d="m245.2,58.3c0-.97-.02-1.8-.07-2.56h1.31l.06,1.61h.05c.38-1.1,1.29-1.8,2.29-1.8.16,0,.28.01.42.04v1.41c-.15-.03-.3-.04-.51-.04-1.05,0-1.8.79-2,1.91-.04.21-.06.45-.06.7v4.39h-1.49v-5.66Z"/>
      <path d="m255.23,63.96l-.13-1.04h-.04c-.45.64-1.34,1.23-2.52,1.23-1.66,0-2.51-1.18-2.51-2.36,0-1.99,1.76-3.08,4.94-3.06v-.17c0-.67-.19-1.91-1.87-1.9-.76,0-1.56.23-2.14.61l-.34-.99c.68-.44,1.68-.72,2.71-.72,2.51,0,3.13,1.72,3.13,3.36v3.08c0,.7.03,1.4.12,1.97h-1.35Zm-.23-4.2c-1.62-.03-3.47.26-3.47,1.85,0,.98.65,1.43,1.4,1.43,1.08,0,1.77-.68,2-1.38.05-.16.07-.33.07-.47v-1.43Z"/>
      <path d="m260.54,53.41c0,.51-.36.93-.95.93-.54,0-.9-.42-.9-.93,0-.51.38-.93.93-.93s.92.41.92.93Zm-1.67,10.54v-8.22h1.49v8.22h-1.49Z"/>
      <path d="m262.85,57.96c0-.86-.03-1.54-.07-2.22h1.32l.08,1.35h.04c.4-.77,1.36-1.54,2.72-1.54,1.13,0,2.9.68,2.9,3.5v4.9h-1.49v-4.74c0-1.33-.5-2.44-1.9-2.44-.98,0-1.75.7-2.01,1.53-.06.18-.1.45-.1.69v4.95h-1.49v-6Z"/>
      <path d="m273.95,53.41c0,.51-.36.93-.95.93-.54,0-.9-.42-.9-.93,0-.51.38-.93.93-.93s.92.41.92.93Zm-1.67,10.54v-8.22h1.49v8.22h-1.49Z"/>
      <path d="m276.26,57.96c0-.86-.03-1.54-.07-2.22h1.32l.08,1.35h.04c.4-.77,1.36-1.54,2.72-1.54,1.13,0,2.9.68,2.9,3.5v4.9h-1.49v-4.74c0-1.33-.5-2.44-1.9-2.44-.98,0-1.75.7-2.01,1.53-.06.18-.1.45-.1.69v4.95h-1.49v-6Z"/>
      <path d="m292.79,55.74c-.04.58-.07,1.25-.07,2.25v4.77c0,1.9-.39,3.04-1.17,3.76-.81.74-1.96.99-3,.99s-2.08-.23-2.74-.68l.37-1.15c.55.34,1.39.66,2.42.66,1.53,0,2.65-.8,2.65-2.88v-.92h-.03c-.45.77-1.35,1.38-2.61,1.38-2.05,0-3.5-1.74-3.5-4.02,0-2.79,1.81-4.36,3.71-4.36,1.43,0,2.2.73,2.56,1.42h.03l.06-1.23h1.32Zm-1.56,3.23c0-.24-.02-.47-.08-.67-.28-.87-1-1.59-2.1-1.59-1.43,0-2.45,1.21-2.45,3.12,0,1.61.83,2.96,2.43,2.96.93,0,1.76-.59,2.08-1.54.08-.24.12-.53.12-.79v-1.48Z"/>
      <path d="m300.76,63.96l-3.75-11.46h1.61l1.78,5.65c.49,1.54.92,2.94,1.23,4.27h.04c.32-1.32.79-2.77,1.3-4.26l1.94-5.67h1.58l-4.09,11.46h-1.63Z"/>
      <path d="m309.07,53.41c0,.51-.36.93-.95.93-.54,0-.9-.42-.9-.93,0-.51.38-.93.93-.93s.92.41.92.93Zm-1.67,10.54v-8.22h1.49v8.22h-1.49Z"/>
      <path d="m318.47,51.89v9.95c0,.73.03,1.55.07,2.12h-1.33l-.08-1.42h-.04c-.46.92-1.45,1.61-2.79,1.61-1.99,0-3.53-1.68-3.53-4.18-.01-2.75,1.69-4.42,3.69-4.42,1.26,0,2.11.59,2.48,1.25h.03v-4.91h1.49Zm-1.49,7.19c0-.19-.02-.44-.06-.64-.23-.94-1.04-1.72-2.17-1.72-1.55,0-2.47,1.36-2.47,3.16,0,1.67.83,3.06,2.44,3.06,1,0,1.91-.68,2.18-1.79.05-.2.07-.41.07-.64v-1.42Z"/>
      <path d="m321.81,60.12c.03,2.02,1.31,2.85,2.81,2.85,1.07,0,1.72-.19,2.28-.42l.26,1.06c-.52.24-1.44.52-2.74.52-2.53,0-4.04-1.68-4.04-4.15s1.47-4.44,3.87-4.44c2.68,0,3.38,2.35,3.38,3.87,0,.31-.02.54-.05.7h-5.76Zm4.38-1.08c.02-.94-.39-2.42-2.06-2.42-1.53,0-2.18,1.38-2.3,2.42h4.36Z"/>
      <path d="m336.93,59.77c0,3.04-2.11,4.38-4.09,4.38-2.23,0-3.95-1.62-3.95-4.23,0-2.75,1.81-4.36,4.08-4.36s3.96,1.71,3.96,4.22Zm-6.52.1c0,1.8,1.03,3.16,2.49,3.16s2.5-1.34,2.5-3.21c0-1.39-.7-3.15-2.48-3.15s-2.52,1.64-2.52,3.19Z"/>
    </g>
    <g>
      <path d="m39.66,533.08c0,3.93-2.4,6.03-5.32,6.03s-5.15-2.35-5.15-5.81,2.25-6.02,5.31-6.02,5.16,2.4,5.16,5.8Zm-8.9.18c0,2.45,1.33,4.65,3.67,4.65s3.67-2.16,3.67-4.76c0-2.28-1.19-4.66-3.65-4.66s-3.68,2.27-3.68,4.78Z"/>
      <path d="m48.46,536.68c0,.86.03,1.6.07,2.25h-1.32l-.08-1.34h-.04c-.38.66-1.25,1.53-2.72,1.53-1.29,0-2.83-.72-2.83-3.6v-4.8h1.49v4.54c0,1.57.49,2.63,1.84,2.63,1,0,1.7-.7,1.98-1.37.08-.21.14-.48.14-.77v-5.04h1.49v5.97Z"/>
      <path d="m52.74,528.34v2.37h2.15v1.13h-2.15v4.43c0,1.02.29,1.6,1.13,1.6.39,0,.67-.05.87-.11l.07,1.14c-.29.11-.75.21-1.34.21-.69,0-1.26-.23-1.61-.63-.41-.45-.58-1.18-.58-2.14v-4.49h-1.27v-1.13h1.27v-1.98l1.46-.39Z"/>
      <path d="m56.58,533.39c0-1.05-.03-1.9-.07-2.68h1.34l.08,1.4h.03c.6-1,1.58-1.59,2.92-1.59,1.99,0,3.49,1.68,3.49,4.17,0,2.96-1.81,4.42-3.74,4.42-1.1,0-2.04-.48-2.53-1.29h-.03v4.47h-1.49v-8.91Zm1.49,2.2c0,.21.02.42.06.61.27,1.04,1.17,1.75,2.24,1.75,1.58,0,2.5-1.3,2.5-3.18,0-1.64-.86-3.05-2.44-3.05-1.02,0-1.98.72-2.26,1.84-.05.19-.1.41-.1.61v1.42Z"/>
      <path d="m73.12,536.68c0,.86.03,1.6.07,2.25h-1.32l-.08-1.34h-.04c-.38.66-1.25,1.53-2.72,1.53-1.29,0-2.83-.72-2.83-3.6v-4.8h1.49v4.54c0,1.57.49,2.63,1.84,2.63,1,0,1.7-.7,1.98-1.37.08-.21.14-.48.14-.77v-5.04h1.49v5.97Z"/>
      <path d="m77.41,528.34v2.37h2.15v1.13h-2.15v4.43c0,1.02.29,1.6,1.13,1.6.39,0,.67-.05.87-.11l.07,1.14c-.29.11-.75.21-1.34.21-.69,0-1.26-.23-1.61-.63-.41-.45-.58-1.18-.58-2.14v-4.49h-1.27v-1.13h1.27v-1.98l1.46-.39Z"/>
      <path d="m86.81,538.93l-3.75-11.46h1.61l1.78,5.65c.49,1.54.92,2.94,1.23,4.27h.04c.32-1.32.79-2.77,1.3-4.26l1.94-5.67h1.58l-4.09,11.46h-1.63Z"/>
      <path d="m95.12,528.38c0,.51-.36.93-.95.93-.54,0-.9-.42-.9-.93,0-.51.38-.93.93-.93s.92.41.92.93Zm-1.67,10.54v-8.22h1.49v8.22h-1.49Z"/>
      <path d="m104.52,526.86v9.95c0,.73.03,1.55.07,2.12h-1.33l-.08-1.42h-.04c-.46.92-1.45,1.61-2.79,1.61-1.99,0-3.53-1.68-3.53-4.18-.01-2.75,1.69-4.42,3.69-4.42,1.26,0,2.11.59,2.48,1.25h.03v-4.91h1.49Zm-1.49,7.19c0-.19-.02-.44-.06-.64-.23-.94-1.04-1.72-2.17-1.72-1.55,0-2.47,1.36-2.47,3.16,0,1.67.83,3.06,2.44,3.06,1,0,1.91-.67,2.19-1.79.05-.2.07-.41.07-.64v-1.42Z"/>
      <path d="m107.85,535.09c.03,2.02,1.31,2.85,2.81,2.85,1.07,0,1.72-.19,2.28-.42l.26,1.06c-.52.24-1.44.52-2.74.52-2.53,0-4.04-1.68-4.04-4.15s1.47-4.44,3.87-4.44c2.68,0,3.38,2.35,3.38,3.87,0,.31-.02.54-.05.7h-5.76Zm4.38-1.08c.02-.94-.39-2.42-2.06-2.42-1.53,0-2.18,1.38-2.3,2.42h4.36Z"/>
      <path d="m122.97,534.74c0,3.04-2.11,4.38-4.09,4.38-2.23,0-3.95-1.62-3.95-4.23,0-2.75,1.81-4.36,4.08-4.36s3.96,1.71,3.96,4.22Zm-6.52.1c0,1.8,1.03,3.16,2.49,3.16s2.5-1.34,2.5-3.21c0-1.39-.7-3.15-2.48-3.15s-2.52,1.64-2.52,3.19Z"/>
    </g>
    <g>
      <path d="m21.18,286.9c.66.41,1.63.74,2.64.74,1.51,0,2.4-.79,2.4-1.95,0-1.06-.62-1.69-2.17-2.27-1.87-.66-3.03-1.65-3.03-3.25,0-1.78,1.48-3.11,3.71-3.11,1.16,0,2.03.27,2.53.55l-.41,1.21c-.37-.22-1.13-.54-2.16-.54-1.57,0-2.17.93-2.17,1.71,0,1.06.7,1.59,2.28,2.2,1.94.76,2.92,1.7,2.92,3.38s-1.29,3.3-4.01,3.3c-1.11,0-2.32-.33-2.93-.75l.39-1.23Z"/>
      <path d="m31.46,278.11v2.37h2.15v1.13h-2.15v4.43c0,1.02.29,1.6,1.13,1.6.39,0,.67-.05.87-.11l.07,1.14c-.29.11-.75.21-1.34.21-.69,0-1.26-.23-1.61-.63-.41-.45-.58-1.18-.58-2.14v-4.49h-1.27v-1.13h1.27v-1.98l1.46-.39Z"/>
      <path d="m39.85,288.7l-.13-1.04h-.04c-.45.64-1.34,1.23-2.52,1.23-1.66,0-2.51-1.18-2.51-2.36,0-1.99,1.76-3.08,4.94-3.06v-.17c0-.67-.19-1.91-1.87-1.9-.76,0-1.56.23-2.14.61l-.34-.99c.68-.44,1.68-.72,2.71-.72,2.51,0,3.13,1.72,3.13,3.36v3.08c0,.7.03,1.4.12,1.97h-1.35Zm-.23-4.2c-1.62-.03-3.47.26-3.47,1.85,0,.98.65,1.43,1.4,1.43,1.08,0,1.77-.68,2-1.38.05-.16.07-.33.07-.47v-1.43Z"/>
      <path d="m43.41,288.7c.04-.56.07-1.39.07-2.12v-9.95h1.49v5.17h.03c.52-.92,1.48-1.51,2.8-1.51,2.04,0,3.48,1.7,3.47,4.19,0,2.95-1.87,4.41-3.7,4.41-1.19,0-2.13-.47-2.75-1.54h-.04l-.08,1.35h-1.29Zm1.55-3.29c0,.18.02.37.06.54.28,1.04,1.16,1.75,2.24,1.75,1.57,0,2.5-1.27,2.5-3.16,0-1.65-.85-3.07-2.45-3.07-1.01,0-1.96.71-2.26,1.84-.05.18-.09.38-.09.62v1.48Z"/>
      <path d="m53.16,276.63h1.49v12.07h-1.49v-12.07Z"/>
      <path d="m58,284.86c.03,2.02,1.31,2.85,2.81,2.85,1.07,0,1.72-.19,2.28-.42l.26,1.06c-.52.24-1.44.52-2.74.52-2.53,0-4.04-1.68-4.04-4.15s1.47-4.44,3.87-4.44c2.68,0,3.38,2.35,3.38,3.87,0,.31-.02.54-.05.7h-5.76Zm4.38-1.08c.02-.94-.39-2.42-2.06-2.42-1.53,0-2.18,1.38-2.3,2.42h4.36Z"/>
      <path d="m69.33,277.4c.91-.15,1.98-.25,3.15-.25,2.12,0,3.64.5,4.64,1.44,1.02.93,1.62,2.25,1.62,4.1s-.59,3.4-1.65,4.46c-1.08,1.07-2.85,1.65-5.07,1.65-1.06,0-1.94-.04-2.69-.13v-11.27Zm1.49,10.14c.38.06.92.07,1.49.07,3.17,0,4.88-1.76,4.88-4.86.02-2.71-1.51-4.41-4.63-4.41-.77,0-1.34.07-1.73.15v9.05Z"/>
      <path d="m82.31,278.16c0,.51-.36.93-.95.93-.54,0-.9-.42-.9-.93,0-.51.38-.93.93-.93s.92.41.92.93Zm-1.67,10.54v-8.22h1.49v8.22h-1.49Z"/>
      <path d="m89.71,288.7v-7.09h-3.45v7.09h-1.49v-7.09h-1.15v-1.13h1.15v-.27c0-1.16.28-2.16.92-2.81.48-.48,1.16-.77,2.07-.77.48,0,.92.15,1.17.28l-.31,1.12c-.22-.12-.54-.22-.88-.22-1.17,0-1.5,1.01-1.5,2.3v.37h3.46v-.4c0-1.16.27-2.21.96-2.88.56-.54,1.31-.76,2-.76.54,0,.99.11,1.28.24l-.2,1.15c-.23-.1-.52-.19-.96-.19-1.26,0-1.59,1.12-1.59,2.39v.44h1.99v1.13h-1.98v7.09h-1.49Z"/>
      <path d="m101.41,286.45c0,.86.03,1.6.07,2.25h-1.32l-.08-1.34h-.04c-.38.66-1.25,1.53-2.72,1.53-1.29,0-2.83-.72-2.83-3.6v-4.8h1.49v4.54c0,1.57.49,2.63,1.84,2.63,1,0,1.7-.7,1.98-1.37.08-.22.14-.48.14-.77v-5.04h1.49v5.97Z"/>
      <path d="m103.69,287.18c.45.28,1.24.58,1.98.58,1.09,0,1.6-.54,1.6-1.22s-.44-1.1-1.53-1.51c-1.48-.54-2.19-1.35-2.18-2.33,0-1.32,1.08-2.41,2.84-2.41.84,0,1.56.23,2.01.51l-.37,1.09c-.32-.2-.92-.48-1.69-.48-.88,0-1.36.51-1.36,1.13,0,.68.48.98,1.56,1.4,1.42.53,2.15,1.24,2.16,2.47,0,1.46-1.13,2.48-3.07,2.48-.9,0-1.73-.23-2.31-.57l.36-1.13Z"/>
      <path d="m112.3,278.16c0,.51-.36.93-.95.93-.54,0-.9-.42-.9-.93,0-.51.38-.93.93-.93s.92.41.92.93Zm-1.67,10.54v-8.22h1.49v8.22h-1.49Z"/>
      <path d="m122.05,284.51c0,3.04-2.11,4.38-4.09,4.38-2.23,0-3.95-1.62-3.95-4.24,0-2.75,1.81-4.36,4.08-4.36s3.96,1.71,3.96,4.22Zm-6.52.1c0,1.8,1.03,3.16,2.49,3.16s2.5-1.34,2.5-3.21c0-1.39-.7-3.15-2.48-3.15s-2.52,1.63-2.52,3.19Z"/>
      <path d="m123.94,282.7c0-.86-.03-1.54-.07-2.22h1.32l.08,1.35h.04c.4-.77,1.36-1.54,2.72-1.54,1.13,0,2.9.68,2.9,3.5v4.9h-1.49v-4.74c0-1.33-.5-2.44-1.9-2.44-.98,0-1.75.7-2.01,1.53-.06.18-.1.45-.1.69v4.95h-1.49v-6Z"/>
      <path d="m46.39,308.73c-.53.27-1.63.55-3.03.55-3.23,0-5.65-2.04-5.65-5.8s2.42-6.01,5.98-6.01c1.42,0,2.33.3,2.72.5l-.36,1.21c-.56-.26-1.35-.47-2.3-.47-2.69,0-4.47,1.72-4.47,4.73,0,2.8,1.62,4.59,4.39,4.59.91,0,1.83-.18,2.43-.47l.3,1.18Z"/>
      <path d="m55.45,304.91c0,3.04-2.11,4.38-4.09,4.38-2.23,0-3.95-1.62-3.95-4.23,0-2.75,1.81-4.36,4.08-4.36s3.96,1.71,3.96,4.22Zm-6.52.1c0,1.8,1.03,3.16,2.49,3.16s2.5-1.34,2.5-3.21c0-1.39-.7-3.15-2.48-3.15s-2.52,1.64-2.52,3.19Z"/>
      <path d="m57.35,303.1c0-.86-.03-1.54-.07-2.22h1.32l.08,1.35h.04c.4-.77,1.36-1.54,2.72-1.54,1.13,0,2.9.68,2.9,3.5v4.9h-1.49v-4.74c0-1.33-.5-2.44-1.9-2.44-.98,0-1.75.7-2.01,1.53-.06.18-.1.45-.1.69v4.95h-1.49v-6Z"/>
      <path d="m68.51,298.51v2.37h2.15v1.13h-2.15v4.43c0,1.02.29,1.6,1.13,1.6.39,0,.67-.05.87-.11l.07,1.14c-.29.11-.75.21-1.34.21-.69,0-1.26-.23-1.61-.63-.41-.45-.58-1.18-.58-2.14v-4.49h-1.27v-1.13h1.27v-1.98l1.46-.39Z"/>
      <path d="m72.34,303.44c0-.97-.02-1.8-.07-2.56h1.31l.06,1.61h.05c.38-1.1,1.29-1.8,2.29-1.8.16,0,.28.01.42.04v1.41c-.15-.03-.3-.04-.51-.04-1.05,0-1.8.79-2,1.91-.04.21-.06.45-.06.7v4.39h-1.49v-5.66Z"/>
      <path d="m85.17,304.91c0,3.04-2.11,4.38-4.09,4.38-2.23,0-3.95-1.62-3.95-4.23,0-2.75,1.81-4.36,4.08-4.36s3.96,1.71,3.96,4.22Zm-6.52.1c0,1.8,1.03,3.16,2.49,3.16s2.5-1.34,2.5-3.21c0-1.39-.7-3.15-2.48-3.15s-2.52,1.64-2.52,3.19Z"/>
      <path d="m87.06,297.03h1.49v12.07h-1.49v-12.07Z"/>
      <path d="m91.12,309.1v-11.46h1.63l3.67,5.79c.84,1.34,1.5,2.55,2.04,3.73l.04-.02c-.13-1.53-.16-2.93-.16-4.7v-4.8h1.39v11.46h-1.5l-3.64-5.81c-.79-1.28-1.56-2.59-2.13-3.84l-.05.02c.09,1.45.11,2.83.11,4.73v4.9h-1.39Z"/>
      <path d="m103.06,305.26c.03,2.02,1.31,2.85,2.81,2.85,1.07,0,1.72-.19,2.28-.42l.26,1.06c-.52.24-1.44.52-2.74.52-2.53,0-4.04-1.68-4.04-4.15s1.47-4.44,3.87-4.44c2.68,0,3.38,2.35,3.38,3.87,0,.31-.02.54-.05.7h-5.76Zm4.38-1.08c.02-.94-.39-2.42-2.06-2.42-1.53,0-2.18,1.38-2.3,2.42h4.36Z"/>
      <path d="m112.54,298.51v2.37h2.15v1.13h-2.15v4.43c0,1.02.29,1.6,1.13,1.6.39,0,.67-.05.87-.11l.07,1.14c-.29.11-.75.21-1.34.21-.69,0-1.26-.23-1.61-.63-.41-.45-.58-1.18-.58-2.14v-4.49h-1.27v-1.13h1.27v-1.98l1.46-.39Z"/>
      <path d="m59.02,318.04h1.49v10.21h4.9v1.25h-6.39v-11.46Z"/>
      <path d="m74.2,325.31c0,3.04-2.11,4.38-4.09,4.38-2.23,0-3.95-1.62-3.95-4.23,0-2.75,1.81-4.36,4.08-4.36s3.96,1.71,3.96,4.22Zm-6.52.1c0,1.8,1.03,3.16,2.49,3.16s2.5-1.34,2.5-3.21c0-1.39-.7-3.15-2.48-3.15s-2.52,1.63-2.52,3.19Z"/>
      <path d="m76.14,318.2c.75-.15,1.83-.25,2.85-.25,1.57,0,2.61.3,3.32.94.57.5.9,1.28.9,2.18,0,1.51-.96,2.51-2.16,2.92v.04c.87.31,1.4,1.13,1.68,2.32.38,1.6.65,2.7.88,3.14h-1.53c-.18-.33-.44-1.31-.75-2.74-.34-1.57-.96-2.18-2.3-2.22h-1.4v4.96h-1.48v-11.3Zm1.48,5.21h1.51c1.58,0,2.59-.86,2.59-2.17,0-1.49-1.07-2.13-2.63-2.14-.72,0-1.21.07-1.46.13v4.18Z"/>
      <path d="m87.23,325.9l-1.18,3.6h-1.53l3.9-11.46h1.78l3.91,11.46h-1.58l-1.23-3.6h-4.06Zm3.76-1.16l-1.13-3.3c-.25-.75-.42-1.43-.59-2.09h-.04c-.16.67-.34,1.37-.57,2.07l-1.13,3.32h3.46Z"/>
    </g>
    <g>
      <path d="m268.37,365.89h1.49v10.21h4.9v1.25h-6.39v-11.46Z"/>
      <path d="m283.55,373.16c0,3.04-2.11,4.38-4.09,4.38-2.23,0-3.95-1.62-3.95-4.24,0-2.75,1.81-4.36,4.08-4.36s3.96,1.71,3.96,4.22Zm-6.52.1c0,1.8,1.03,3.16,2.49,3.16s2.5-1.34,2.5-3.21c0-1.39-.7-3.15-2.48-3.15s-2.52,1.63-2.52,3.19Z"/>
      <path d="m285.48,366.05c.75-.15,1.83-.25,2.85-.25,1.57,0,2.61.3,3.32.94.57.5.9,1.28.9,2.18,0,1.5-.96,2.51-2.16,2.92v.04c.87.31,1.4,1.13,1.68,2.32.38,1.6.65,2.7.88,3.14h-1.54c-.18-.33-.44-1.31-.75-2.74-.34-1.57-.96-2.18-2.3-2.22h-1.4v4.96h-1.48v-11.3Zm1.48,5.22h1.51c1.58,0,2.59-.86,2.59-2.18,0-1.49-1.07-2.13-2.63-2.14-.72,0-1.21.07-1.46.13v4.18Z"/>
      <path d="m296.57,373.75l-1.18,3.6h-1.53l3.9-11.46h1.78l3.91,11.46h-1.58l-1.23-3.6h-4.06Zm3.76-1.16l-1.13-3.3c-.25-.75-.42-1.43-.59-2.09h-.04c-.16.67-.34,1.37-.57,2.07l-1.13,3.32h3.46Z"/>
      <path d="m260.09,387.54h-3.49v-1.25h8.48v1.25h-3.51v10.21h-1.49v-10.21Z"/>
      <path d="m265.54,392.09c0-.97-.02-1.8-.07-2.56h1.31l.06,1.61h.05c.38-1.1,1.29-1.8,2.29-1.8.16,0,.28,0,.42.04v1.41c-.15-.03-.3-.04-.51-.04-1.05,0-1.8.79-2,1.91-.04.21-.06.46-.06.7v4.39h-1.49v-5.66Z"/>
      <path d="m275.57,397.75l-.13-1.04h-.04c-.45.64-1.34,1.22-2.51,1.22-1.66,0-2.51-1.18-2.51-2.36,0-1.99,1.76-3.08,4.94-3.06v-.17c0-.67-.19-1.91-1.87-1.9-.76,0-1.57.23-2.14.61l-.34-.99c.68-.44,1.68-.72,2.71-.72,2.51,0,3.13,1.72,3.13,3.36v3.08c0,.7.03,1.4.12,1.97h-1.35Zm-.23-4.2c-1.62-.04-3.47.26-3.47,1.85,0,.98.65,1.43,1.4,1.43,1.08,0,1.76-.68,2-1.38.05-.16.07-.33.07-.47v-1.43Z"/>
      <path d="m280.88,387.21c0,.51-.36.93-.95.93-.54,0-.9-.42-.9-.93,0-.51.38-.93.93-.93s.92.41.92.93Zm-1.67,10.54v-8.22h1.49v8.22h-1.49Z"/>
      <path d="m283.19,391.75c0-.86-.03-1.54-.07-2.22h1.32l.08,1.35h.04c.4-.77,1.36-1.54,2.72-1.54,1.13,0,2.9.68,2.9,3.5v4.9h-1.49v-4.74c0-1.33-.5-2.44-1.9-2.44-.98,0-1.75.7-2.01,1.53-.06.18-.1.45-.1.69v4.95h-1.49v-6Z"/>
      <path d="m294.29,387.21c0,.51-.36.93-.95.93-.54,0-.9-.42-.9-.93,0-.51.38-.93.93-.93s.92.41.92.93Zm-1.67,10.54v-8.22h1.49v8.22h-1.49Z"/>
      <path d="m296.6,391.75c0-.86-.03-1.54-.07-2.22h1.32l.08,1.35h.04c.4-.77,1.36-1.54,2.72-1.54,1.13,0,2.9.68,2.9,3.5v4.9h-1.49v-4.74c0-1.33-.5-2.44-1.9-2.44-.98,0-1.75.7-2.01,1.53-.06.18-.1.45-.1.69v4.95h-1.49v-6Z"/>
      <path d="m313.13,389.53c-.04.58-.07,1.25-.07,2.25v4.77c0,1.9-.39,3.04-1.17,3.76-.81.74-1.96.99-2.99.99s-2.08-.23-2.75-.68l.38-1.15c.55.34,1.39.66,2.42.66,1.53,0,2.65-.8,2.65-2.88v-.92h-.03c-.45.77-1.34,1.38-2.61,1.38-2.05,0-3.5-1.74-3.5-4.02,0-2.79,1.81-4.36,3.71-4.36,1.43,0,2.2.73,2.56,1.42h.03l.06-1.23h1.32Zm-1.56,3.23c0-.24-.02-.47-.08-.67-.28-.87-1-1.59-2.1-1.59-1.43,0-2.45,1.21-2.45,3.12,0,1.61.83,2.96,2.43,2.96.93,0,1.76-.59,2.08-1.54.08-.24.12-.53.12-.79v-1.48Z"/>
    </g>
    <g>
      <path d="m47.73,105.5h6.17v1.23h-4.68v3.81h4.33v1.23h-4.33v5.18h-1.49v-11.46Z"/>
      <path d="m56.01,105.64c.71-.13,1.65-.23,2.85-.23,1.45,0,2.53.34,3.21.95.62.55,1.01,1.38,1.01,2.4s-.31,1.86-.89,2.45c-.79.84-2.06,1.25-3.5,1.25-.45,0-.85-.02-1.2-.11v4.6h-1.48v-11.32Zm1.48,5.52c.33.1.74.13,1.23.13,1.79,0,2.88-.88,2.88-2.45s-1.08-2.26-2.71-2.26c-.65,0-1.14.06-1.4.12v4.46Z"/>
      <path d="m64.86,115.16c.66.41,1.63.74,2.64.74,1.51,0,2.4-.79,2.4-1.95,0-1.06-.62-1.69-2.17-2.27-1.87-.66-3.03-1.65-3.03-3.25,0-1.78,1.48-3.11,3.71-3.11,1.16,0,2.03.27,2.53.55l-.41,1.21c-.37-.22-1.13-.54-2.16-.54-1.57,0-2.17.93-2.17,1.71,0,1.06.7,1.59,2.28,2.2,1.94.76,2.92,1.7,2.92,3.38s-1.29,3.3-4.01,3.3c-1.11,0-2.32-.33-2.93-.75l.39-1.23Z"/>
      <path d="m78.79,106.37v2.37h2.15v1.13h-2.15v4.43c0,1.02.29,1.6,1.13,1.6.39,0,.67-.05.87-.11l.07,1.14c-.29.11-.75.21-1.34.21-.69,0-1.26-.23-1.61-.63-.41-.45-.58-1.18-.58-2.14v-4.49h-1.27v-1.13h1.27v-1.98l1.46-.39Z"/>
      <path d="m89.96,112.77c0,3.04-2.11,4.38-4.09,4.38-2.23,0-3.95-1.62-3.95-4.23,0-2.75,1.81-4.36,4.08-4.36s3.96,1.71,3.96,4.22Zm-6.52.1c0,1.8,1.03,3.16,2.49,3.16s2.5-1.34,2.5-3.21c0-1.39-.7-3.15-2.48-3.15s-2.52,1.64-2.52,3.19Z"/>
      <path d="m98.23,107.3h-.03l-1.92,1.04-.29-1.14,2.41-1.29h1.27v11.05h-1.44v-9.66Z"/>
      <path d="m103.69,116.96v-.91l1.17-1.14c2.82-2.69,4.1-4.12,4.11-5.79,0-1.12-.53-2.16-2.18-2.16-1.01,0-1.84.52-2.35.94l-.48-1.05c.76-.64,1.85-1.12,3.12-1.12,2.38,0,3.38,1.63,3.38,3.21,0,2.05-1.48,3.7-3.8,5.93l-.87.83v.03h4.95v1.24h-7.05Z"/>
    </g>
    <g>
      <path d="m255.6,105.59h6.17v1.23h-4.68v3.81h4.33v1.23h-4.33v5.18h-1.49v-11.46Z"/>
      <path d="m263.88,105.73c.71-.13,1.65-.23,2.85-.23,1.45,0,2.53.34,3.21.95.62.55,1.01,1.38,1.01,2.4s-.31,1.86-.89,2.45c-.79.84-2.06,1.25-3.5,1.25-.45,0-.86-.02-1.2-.11v4.6h-1.48v-11.32Zm1.48,5.52c.33.1.74.13,1.23.13,1.79,0,2.88-.88,2.88-2.45s-1.08-2.26-2.71-2.26c-.65,0-1.14.06-1.4.12v4.46Z"/>
      <path d="m272.73,115.24c.66.41,1.63.74,2.64.74,1.51,0,2.4-.79,2.4-1.95,0-1.06-.62-1.69-2.17-2.27-1.87-.66-3.03-1.65-3.03-3.25,0-1.78,1.48-3.11,3.71-3.11,1.16,0,2.03.27,2.53.55l-.41,1.21c-.37-.22-1.13-.54-2.16-.54-1.57,0-2.17.93-2.17,1.71,0,1.06.7,1.59,2.28,2.2,1.94.76,2.92,1.7,2.92,3.38s-1.29,3.3-4.01,3.3c-1.11,0-2.32-.33-2.93-.75l.39-1.23Z"/>
      <path d="m286.66,106.46v2.37h2.15v1.13h-2.15v4.43c0,1.02.29,1.6,1.13,1.6.39,0,.67-.05.87-.11l.07,1.14c-.29.11-.75.21-1.34.21-.69,0-1.26-.23-1.61-.63-.41-.45-.58-1.18-.58-2.14v-4.49h-1.27v-1.13h1.27v-1.98l1.46-.39Z"/>
      <path d="m297.83,112.86c0,3.04-2.11,4.38-4.09,4.38-2.23,0-3.95-1.62-3.95-4.23,0-2.75,1.81-4.36,4.08-4.36s3.96,1.71,3.96,4.22Zm-6.52.1c0,1.8,1.03,3.16,2.49,3.16s2.5-1.34,2.5-3.21c0-1.39-.7-3.15-2.48-3.15s-2.52,1.64-2.52,3.19Z"/>
      <path d="m303.2,115.34c.42.26,1.41.69,2.45.69,1.91,0,2.51-1.22,2.5-2.14-.02-1.55-1.42-2.21-2.86-2.21h-.84v-1.12h.84c1.09,0,2.46-.56,2.46-1.86,0-.89-.56-1.67-1.94-1.67-.88,0-1.73.39-2.2.73l-.4-1.08c.58-.43,1.7-.86,2.89-.86,2.19,0,3.18,1.29,3.18,2.64,0,1.14-.7,2.11-2.04,2.6v.03c1.36.26,2.46,1.29,2.46,2.83,0,1.76-1.38,3.31-4.03,3.31-1.24,0-2.32-.39-2.86-.76l.4-1.14Z"/>
      <path d="m318.92,111.41c0,3.75-1.4,5.82-3.84,5.82-2.16,0-3.62-2.02-3.66-5.67,0-3.71,1.6-5.75,3.85-5.75s3.66,2.08,3.66,5.6Zm-6,.16c0,2.88.88,4.51,2.24,4.51,1.52,0,2.25-1.78,2.25-4.6s-.69-4.5-2.24-4.5c-1.3,0-2.25,1.6-2.25,4.59Z"/>
    </g>
    <g>
      <path d="m236.51,279.02c.65-.14,1.68-.25,2.7-.25,1.49,0,2.43.25,3.15.83.59.45.96,1.13.96,2.03,0,1.11-.74,2.08-1.94,2.51v.04c1.09.26,2.37,1.16,2.37,2.88,0,.98-.39,1.73-.98,2.28-.79.74-2.08,1.08-3.96,1.08-1.03,0-1.8-.07-2.3-.13v-11.27Zm1.48,4.69h1.36c1.55,0,2.47-.82,2.47-1.94,0-1.33-1.01-1.87-2.5-1.87-.69,0-1.08.05-1.32.11v3.69Zm0,5.48c.3.06.71.08,1.25.08,1.54,0,2.95-.56,2.95-2.23,0-1.56-1.35-2.21-2.96-2.21h-1.23v4.37Z"/>
      <path d="m245.7,278.25h1.49v12.07h-1.49v-12.07Z"/>
      <path d="m256.58,288.07c0,.86.03,1.6.07,2.25h-1.32l-.08-1.34h-.04c-.38.66-1.25,1.53-2.72,1.53-1.29,0-2.83-.72-2.83-3.6v-4.8h1.49v4.54c0,1.57.49,2.63,1.84,2.63,1,0,1.7-.7,1.98-1.37.08-.21.14-.48.14-.77v-5.04h1.49v5.97Z"/>
      <path d="m259.07,284.66c0-.97-.02-1.8-.07-2.56h1.31l.06,1.61h.05c.38-1.1,1.29-1.8,2.29-1.8.16,0,.28.01.42.04v1.41c-.15-.03-.3-.04-.51-.04-1.05,0-1.8.79-2,1.91-.04.21-.06.45-.06.7v4.39h-1.49v-5.66Z"/>
      <path d="m268.28,279.02c.91-.15,1.98-.25,3.15-.25,2.12,0,3.64.5,4.64,1.44,1.02.93,1.62,2.25,1.62,4.1s-.59,3.4-1.65,4.46c-1.08,1.07-2.85,1.65-5.07,1.65-1.06,0-1.94-.04-2.69-.13v-11.27Zm1.49,10.13c.38.06.92.07,1.49.07,3.17,0,4.88-1.76,4.88-4.86.02-2.71-1.51-4.41-4.63-4.41-.77,0-1.34.07-1.73.15v9.05Z"/>
      <path d="m280.47,286.48c.03,2.02,1.31,2.85,2.81,2.85,1.07,0,1.72-.19,2.28-.42l.26,1.06c-.52.24-1.44.52-2.74.52-2.53,0-4.04-1.68-4.04-4.15s1.47-4.44,3.87-4.44c2.68,0,3.38,2.35,3.38,3.87,0,.31-.02.54-.05.7h-5.76Zm4.38-1.08c.01-.94-.39-2.42-2.06-2.42-1.53,0-2.18,1.38-2.29,2.42h4.36Z"/>
      <path d="m289.94,279.73v2.37h2.15v1.13h-2.15v4.43c0,1.02.29,1.6,1.13,1.6.39,0,.67-.05.87-.11l.07,1.14c-.29.11-.75.21-1.34.21-.69,0-1.26-.23-1.61-.63-.41-.45-.58-1.18-.58-2.14v-4.49h-1.27v-1.13h1.27v-1.98l1.46-.39Z"/>
      <path d="m294.51,286.48c.03,2.02,1.31,2.85,2.81,2.85,1.07,0,1.72-.19,2.28-.42l.26,1.06c-.52.24-1.44.52-2.74.52-2.53,0-4.04-1.68-4.04-4.15s1.47-4.44,3.87-4.44c2.68,0,3.38,2.35,3.38,3.87,0,.31-.02.54-.05.7h-5.76Zm4.38-1.08c.01-.94-.39-2.42-2.06-2.42-1.53,0-2.18,1.38-2.29,2.42h4.36Z"/>
      <path d="m308.05,290.02c-.39.19-1.25.48-2.36.48-2.48,0-4.1-1.69-4.1-4.2s1.73-4.38,4.42-4.38c.88,0,1.67.22,2.08.44l-.33,1.15c-.37-.19-.93-.4-1.75-.4-1.88,0-2.9,1.41-2.9,3.11,0,1.91,1.22,3.08,2.86,3.08.84,0,1.41-.21,1.83-.4l.25,1.12Z"/>
      <path d="m311.82,279.73v2.37h2.15v1.13h-2.15v4.43c0,1.02.29,1.6,1.13,1.6.39,0,.67-.05.87-.11l.07,1.14c-.29.11-.75.21-1.34.21-.69,0-1.26-.23-1.61-.63-.41-.45-.58-1.18-.58-2.14v-4.49h-1.27v-1.13h1.27v-1.98l1.46-.39Z"/>
      <path d="m317.32,279.77c0,.51-.36.93-.95.93-.54,0-.9-.42-.9-.93,0-.51.38-.93.93-.93s.92.41.92.93Zm-1.67,10.54v-8.22h1.49v8.22h-1.49Z"/>
      <path d="m327.07,286.13c0,3.04-2.11,4.38-4.09,4.38-2.23,0-3.95-1.62-3.95-4.23,0-2.75,1.81-4.36,4.08-4.36s3.96,1.71,3.96,4.22Zm-6.52.1c0,1.8,1.03,3.16,2.49,3.16s2.5-1.34,2.5-3.21c0-1.39-.7-3.15-2.48-3.15s-2.52,1.64-2.52,3.19Z"/>
      <path d="m328.96,284.32c0-.86-.03-1.54-.07-2.22h1.32l.08,1.35h.04c.4-.77,1.36-1.54,2.72-1.54,1.13,0,2.9.68,2.9,3.5v4.9h-1.49v-4.74c0-1.33-.5-2.44-1.9-2.44-.98,0-1.75.7-2.01,1.53-.06.18-.1.45-.1.69v4.95h-1.49v-6Z"/>
    </g>
    <g>
      <path d="m231.05,312.21c.65-.14,1.68-.25,2.7-.25,1.49,0,2.43.25,3.15.83.59.45.96,1.13.96,2.03,0,1.11-.74,2.08-1.94,2.51v.05c1.09.26,2.37,1.16,2.37,2.87,0,.98-.39,1.74-.98,2.28-.79.74-2.08,1.08-3.96,1.08-1.03,0-1.8-.07-2.3-.13v-11.27Zm1.48,4.69h1.36c1.55,0,2.47-.83,2.47-1.94,0-1.33-1.01-1.87-2.5-1.87-.69,0-1.08.05-1.32.11v3.7Zm0,5.48c.3.06.71.08,1.25.08,1.54,0,2.95-.56,2.95-2.23,0-1.56-1.35-2.21-2.96-2.21h-1.23v4.37Z"/>
      <path d="m240.27,312.05h1.49v10.21h4.9v1.25h-6.39v-11.46Z"/>
      <path d="m249.78,312.05v11.46h-1.49v-11.46h1.49Z"/>
      <path d="m252.35,312.19c.71-.13,1.65-.23,2.85-.23,1.45,0,2.53.34,3.21.95.62.55,1.01,1.38,1.01,2.4s-.31,1.86-.89,2.45c-.79.84-2.06,1.25-3.5,1.25-.45,0-.85-.02-1.2-.11v4.6h-1.48v-11.32Zm1.48,5.52c.33.1.74.13,1.23.13,1.79,0,2.88-.88,2.88-2.45s-1.08-2.26-2.71-2.26c-.65,0-1.14.06-1.4.12v4.46Z"/>
      <path d="m273.01,323.14c-.53.27-1.63.55-3.03.55-3.23,0-5.65-2.04-5.65-5.8s2.42-6.01,5.98-6.01c1.42,0,2.33.3,2.72.5l-.36,1.2c-.56-.26-1.35-.47-2.3-.47-2.69,0-4.47,1.72-4.47,4.73,0,2.8,1.62,4.59,4.39,4.59.91,0,1.83-.18,2.43-.47l.3,1.18Z"/>
      <path d="m279.26,323.51l-.13-1.04h-.04c-.45.64-1.34,1.23-2.52,1.23-1.66,0-2.51-1.18-2.51-2.36,0-1.99,1.76-3.08,4.94-3.06v-.17c0-.67-.19-1.91-1.87-1.9-.76,0-1.56.23-2.14.61l-.34-.99c.68-.44,1.68-.72,2.71-.72,2.51,0,3.13,1.72,3.13,3.36v3.08c0,.7.03,1.4.12,1.97h-1.35Zm-.23-4.2c-1.62-.03-3.47.26-3.47,1.85,0,.98.65,1.43,1.4,1.43,1.08,0,1.77-.68,2-1.38.05-.16.07-.33.07-.47v-1.43Z"/>
      <path d="m282.89,317.97c0-1.05-.03-1.9-.07-2.68h1.34l.08,1.4h.03c.6-1,1.58-1.59,2.92-1.59,1.99,0,3.49,1.68,3.49,4.17,0,2.96-1.81,4.42-3.74,4.42-1.1,0-2.04-.48-2.53-1.29h-.03v4.47h-1.49v-8.91Zm1.49,2.2c0,.21.02.42.07.61.27,1.04,1.17,1.75,2.24,1.75,1.58,0,2.5-1.3,2.5-3.18,0-1.64-.86-3.05-2.44-3.05-1.02,0-1.98.72-2.26,1.84-.05.19-.1.41-.1.61v1.42Z"/>
      <path d="m294.36,312.92v2.37h2.15v1.13h-2.15v4.43c0,1.02.29,1.6,1.13,1.6.39,0,.67-.05.87-.11l.07,1.14c-.29.11-.75.21-1.34.21-.69,0-1.26-.23-1.61-.63-.41-.45-.58-1.18-.58-2.14v-4.49h-1.27v-1.13h1.27v-1.98l1.46-.39Z"/>
      <path d="m299.86,312.97c0,.51-.36.93-.95.93-.54,0-.9-.42-.9-.93,0-.51.38-.93.93-.93s.92.41.92.93Zm-1.67,10.54v-8.22h1.49v8.22h-1.49Z"/>
      <path d="m309.61,319.32c0,3.04-2.11,4.38-4.09,4.38-2.23,0-3.95-1.62-3.95-4.24,0-2.75,1.81-4.36,4.08-4.36s3.96,1.71,3.96,4.22Zm-6.52.1c0,1.8,1.03,3.16,2.49,3.16s2.5-1.34,2.5-3.21c0-1.39-.7-3.15-2.48-3.15s-2.52,1.63-2.52,3.19Z"/>
      <path d="m311.5,317.51c0-.86-.03-1.54-.07-2.22h1.32l.08,1.35h.04c.4-.77,1.36-1.54,2.72-1.54,1.13,0,2.9.68,2.9,3.5v4.9h-1.49v-4.74c0-1.33-.5-2.44-1.9-2.44-.98,0-1.75.7-2.01,1.53-.06.18-.1.45-.1.69v4.95h-1.49v-6Z"/>
      <path d="m322.61,312.97c0,.51-.36.93-.95.93-.54,0-.9-.42-.9-.93,0-.51.38-.93.93-.93s.92.41.92.93Zm-1.67,10.54v-8.22h1.49v8.22h-1.49Z"/>
      <path d="m324.92,317.51c0-.86-.03-1.54-.07-2.22h1.32l.08,1.35h.04c.4-.77,1.36-1.54,2.72-1.54,1.13,0,2.9.68,2.9,3.5v4.9h-1.49v-4.74c0-1.33-.5-2.44-1.9-2.44-.98,0-1.75.7-2.01,1.53-.06.18-.1.45-.1.69v4.95h-1.49v-6Z"/>
      <path d="m341.45,315.29c-.04.58-.07,1.25-.07,2.25v4.77c0,1.9-.39,3.04-1.17,3.76-.81.74-1.96.99-3,.99s-2.08-.23-2.74-.68l.37-1.15c.55.34,1.39.66,2.42.66,1.53,0,2.65-.8,2.65-2.88v-.92h-.03c-.45.77-1.35,1.38-2.61,1.38-2.05,0-3.5-1.74-3.5-4.02,0-2.79,1.81-4.36,3.71-4.36,1.43,0,2.2.73,2.56,1.42h.03l.06-1.23h1.32Zm-1.56,3.23c0-.24-.02-.47-.08-.67-.28-.87-1-1.59-2.1-1.59-1.43,0-2.45,1.21-2.45,3.12,0,1.61.83,2.96,2.43,2.96.93,0,1.76-.59,2.08-1.54.08-.24.12-.53.12-.79v-1.48Z"/>
    </g>
    <g>
      <path d="m12.58,437.36h6.17v1.23h-4.68v3.81h4.33v1.23h-4.33v5.18h-1.49v-11.46Z"/>
      <path d="m20.37,443.16c0-.97-.02-1.8-.07-2.56h1.31l.06,1.61h.05c.38-1.1,1.29-1.8,2.29-1.8.16,0,.28.01.42.04v1.41c-.15-.03-.3-.04-.51-.04-1.05,0-1.8.79-2,1.91-.04.21-.06.45-.06.7v4.39h-1.49v-5.66Z"/>
      <path d="m30.4,448.82l-.13-1.04h-.04c-.45.64-1.34,1.22-2.52,1.22-1.66,0-2.51-1.18-2.51-2.36,0-1.99,1.76-3.08,4.94-3.06v-.17c0-.67-.19-1.91-1.87-1.9-.76,0-1.56.23-2.14.61l-.34-.99c.68-.44,1.68-.72,2.71-.72,2.51,0,3.13,1.72,3.13,3.37v3.08c0,.7.03,1.4.12,1.97h-1.35Zm-.23-4.2c-1.62-.03-3.47.26-3.47,1.85,0,.98.65,1.43,1.4,1.43,1.08,0,1.77-.68,2-1.38.05-.16.07-.33.07-.47v-1.43Z"/>
      <path d="m34.04,442.82c0-.86-.03-1.54-.07-2.22h1.3l.08,1.32h.04c.46-.78,1.22-1.51,2.6-1.51,1.11,0,1.96.68,2.32,1.65h.03c.26-.47.59-.82.93-1.07.5-.37,1.03-.58,1.81-.58,1.1,0,2.71.71,2.71,3.57v4.84h-1.46v-4.65c0-1.59-.59-2.54-1.78-2.54-.86,0-1.51.62-1.78,1.35-.07.22-.12.48-.12.75v5.09h-1.46v-4.93c0-1.31-.58-2.25-1.71-2.25-.93,0-1.62.74-1.86,1.49-.07.22-.11.48-.11.74v4.96h-1.46v-6Z"/>
      <path d="m49.05,444.98c.03,2.02,1.31,2.85,2.81,2.85,1.07,0,1.72-.19,2.28-.42l.26,1.06c-.52.24-1.44.52-2.74.52-2.53,0-4.04-1.68-4.04-4.15s1.47-4.44,3.87-4.44c2.68,0,3.38,2.35,3.38,3.87,0,.31-.02.54-.05.7h-5.76Zm4.38-1.08c.02-.94-.39-2.42-2.06-2.42-1.53,0-2.18,1.38-2.3,2.42h4.36Z"/>
      <path d="m62.24,445.22l-1.18,3.6h-1.53l3.9-11.46h1.78l3.91,11.46h-1.58l-1.23-3.6h-4.06Zm3.76-1.16l-1.13-3.3c-.25-.75-.42-1.43-.59-2.09h-.04c-.16.67-.34,1.37-.57,2.07l-1.13,3.32h3.46Z"/>
      <path d="m70.69,443.28c0-1.05-.03-1.9-.07-2.68h1.34l.08,1.4h.03c.6-1,1.58-1.59,2.92-1.59,1.99,0,3.49,1.68,3.49,4.17,0,2.96-1.81,4.42-3.74,4.42-1.1,0-2.04-.48-2.53-1.29h-.03v4.47h-1.49v-8.91Zm1.49,2.2c0,.21.02.42.06.61.27,1.04,1.17,1.75,2.24,1.75,1.58,0,2.5-1.3,2.5-3.18,0-1.64-.86-3.05-2.44-3.05-1.02,0-1.98.72-2.26,1.84-.05.19-.1.41-.1.61v1.42Z"/>
      <path d="m80.36,443.28c0-1.05-.03-1.9-.07-2.68h1.34l.08,1.4h.03c.6-1,1.58-1.59,2.92-1.59,1.99,0,3.49,1.68,3.49,4.17,0,2.96-1.81,4.42-3.74,4.42-1.1,0-2.04-.48-2.53-1.29h-.03v4.47h-1.49v-8.91Zm1.49,2.2c0,.21.02.42.06.61.27,1.04,1.17,1.75,2.24,1.75,1.58,0,2.5-1.3,2.5-3.18,0-1.64-.86-3.05-2.44-3.05-1.02,0-1.98.72-2.26,1.84-.05.19-.1.41-.1.61v1.42Z"/>
      <path d="m90.03,436.75h1.49v12.07h-1.49v-12.07Z"/>
      <path d="m95.72,438.28c0,.51-.36.93-.95.93-.54,0-.9-.42-.9-.93,0-.51.38-.93.93-.93s.92.41.92.93Zm-1.67,10.54v-8.22h1.49v8.22h-1.49Z"/>
      <path d="m103.89,448.52c-.39.19-1.25.48-2.36.48-2.48,0-4.1-1.69-4.1-4.2s1.73-4.38,4.42-4.38c.88,0,1.67.22,2.08.44l-.33,1.15c-.37-.19-.93-.4-1.75-.4-1.88,0-2.9,1.41-2.9,3.11,0,1.91,1.22,3.08,2.86,3.08.84,0,1.41-.21,1.83-.4l.25,1.12Z"/>
      <path d="m110.21,448.82l-.13-1.04h-.04c-.45.64-1.34,1.22-2.52,1.22-1.66,0-2.51-1.18-2.51-2.36,0-1.99,1.76-3.08,4.94-3.06v-.17c0-.67-.19-1.91-1.87-1.9-.76,0-1.56.23-2.14.61l-.34-.99c.68-.44,1.68-.72,2.71-.72,2.51,0,3.13,1.72,3.13,3.37v3.08c0,.7.03,1.4.12,1.97h-1.35Zm-.23-4.2c-1.62-.03-3.47.26-3.47,1.85,0,.98.65,1.43,1.4,1.43,1.08,0,1.77-.68,2-1.38.05-.16.07-.33.07-.47v-1.43Z"/>
      <path d="m115.58,438.23v2.37h2.15v1.13h-2.15v4.43c0,1.02.29,1.6,1.13,1.6.39,0,.67-.05.87-.11l.07,1.14c-.29.11-.75.21-1.34.21-.69,0-1.26-.23-1.61-.63-.41-.45-.58-1.18-.58-2.14v-4.49h-1.27v-1.13h1.27v-1.98l1.46-.39Z"/>
      <path d="m121.08,438.28c0,.51-.36.93-.95.93-.54,0-.9-.42-.9-.93,0-.51.38-.93.93-.93s.92.41.92.93Zm-1.67,10.54v-8.22h1.49v8.22h-1.49Z"/>
      <path d="m130.83,444.63c0,3.04-2.11,4.38-4.09,4.38-2.23,0-3.95-1.62-3.95-4.23,0-2.75,1.81-4.36,4.08-4.36s3.96,1.71,3.96,4.22Zm-6.52.1c0,1.8,1.03,3.16,2.49,3.16s2.5-1.34,2.5-3.21c0-1.39-.7-3.15-2.48-3.15s-2.52,1.64-2.52,3.19Z"/>
      <path d="m132.72,442.82c0-.86-.03-1.54-.07-2.22h1.32l.08,1.35h.04c.4-.77,1.36-1.54,2.72-1.54,1.13,0,2.9.68,2.9,3.5v4.9h-1.49v-4.74c0-1.33-.5-2.44-1.9-2.44-.98,0-1.75.7-2.01,1.53-.06.18-.1.45-.1.69v4.95h-1.49v-6Z"/>
    </g>
    <g>
      <path d="m18.04,480.52l-3.75-11.46h1.61l1.78,5.65c.49,1.54.92,2.94,1.23,4.28h.04c.32-1.32.79-2.77,1.3-4.26l1.94-5.67h1.58l-4.09,11.46h-1.63Z"/>
      <path d="m26.36,469.97c0,.51-.36.93-.95.93-.54,0-.9-.42-.9-.93,0-.51.38-.93.93-.93s.92.41.92.93Zm-1.67,10.54v-8.22h1.49v8.22h-1.49Z"/>
      <path d="m35.76,468.45v9.95c0,.73.03,1.55.07,2.12h-1.33l-.08-1.42h-.04c-.46.92-1.45,1.61-2.79,1.61-1.99,0-3.53-1.68-3.53-4.18-.01-2.75,1.69-4.42,3.69-4.42,1.26,0,2.11.59,2.48,1.25h.03v-4.91h1.49Zm-1.49,7.19c0-.19-.02-.44-.06-.64-.23-.94-1.04-1.72-2.17-1.72-1.55,0-2.47,1.36-2.47,3.16,0,1.67.83,3.06,2.44,3.06,1,0,1.91-.68,2.19-1.79.05-.2.07-.41.07-.64v-1.42Z"/>
      <path d="m39.09,476.68c.03,2.02,1.31,2.85,2.81,2.85,1.07,0,1.72-.19,2.28-.42l.26,1.06c-.52.24-1.44.52-2.74.52-2.53,0-4.04-1.68-4.04-4.15s1.47-4.44,3.87-4.44c2.68,0,3.38,2.35,3.38,3.87,0,.31-.02.54-.05.7h-5.76Zm4.38-1.08c.02-.94-.39-2.42-2.06-2.42-1.53,0-2.18,1.38-2.3,2.42h4.36Z"/>
      <path d="m54.21,476.33c0,3.04-2.11,4.38-4.09,4.38-2.23,0-3.95-1.62-3.95-4.24,0-2.75,1.81-4.36,4.08-4.36s3.96,1.71,3.96,4.22Zm-6.52.1c0,1.8,1.03,3.16,2.49,3.16s2.5-1.34,2.5-3.21c0-1.39-.7-3.15-2.48-3.15s-2.52,1.63-2.52,3.19Z"/>
      <path d="m68.48,480c-.66.25-1.98.63-3.52.63-1.74,0-3.17-.44-4.28-1.51-.99-.95-1.6-2.47-1.59-4.25,0-3.42,2.35-5.92,6.19-5.92,1.32,0,2.37.29,2.87.53l-.37,1.21c-.61-.28-1.38-.49-2.53-.49-2.78,0-4.6,1.73-4.6,4.6s1.74,4.62,4.42,4.62c.97,0,1.62-.14,1.97-.31v-3.41h-2.32v-1.18h3.77v5.5Z"/>
      <path d="m71.61,476.68c.03,2.02,1.31,2.85,2.81,2.85,1.07,0,1.72-.19,2.28-.42l.26,1.06c-.52.24-1.44.52-2.74.52-2.53,0-4.04-1.68-4.04-4.15s1.47-4.44,3.87-4.44c2.68,0,3.38,2.35,3.38,3.87,0,.31-.02.54-.05.7h-5.76Zm4.38-1.08c.02-.94-.39-2.42-2.06-2.42-1.53,0-2.18,1.38-2.3,2.42h4.36Z"/>
      <path d="m79.29,474.52c0-.86-.03-1.54-.07-2.22h1.32l.08,1.35h.04c.4-.77,1.36-1.54,2.72-1.54,1.13,0,2.9.68,2.9,3.5v4.9h-1.49v-4.74c0-1.33-.5-2.44-1.9-2.44-.98,0-1.75.7-2.01,1.53-.06.18-.1.45-.1.69v4.95h-1.49v-6Z"/>
      <path d="m89.56,476.68c.03,2.02,1.31,2.85,2.81,2.85,1.07,0,1.72-.19,2.28-.42l.26,1.06c-.52.24-1.44.52-2.74.52-2.53,0-4.04-1.68-4.04-4.15s1.47-4.44,3.87-4.44c2.68,0,3.38,2.35,3.38,3.87,0,.31-.02.54-.05.7h-5.76Zm4.38-1.08c.02-.94-.39-2.42-2.06-2.42-1.53,0-2.18,1.38-2.3,2.42h4.36Z"/>
      <path d="m97.24,474.85c0-.97-.02-1.8-.07-2.56h1.31l.06,1.61h.05c.38-1.1,1.29-1.8,2.29-1.8.16,0,.28,0,.42.04v1.41c-.15-.03-.3-.04-.51-.04-1.05,0-1.8.79-2,1.91-.04.21-.06.46-.06.7v4.39h-1.49v-5.66Z"/>
      <path d="m107.27,480.52l-.13-1.04h-.04c-.45.64-1.34,1.23-2.52,1.23-1.66,0-2.51-1.18-2.51-2.36,0-1.99,1.76-3.08,4.94-3.06v-.17c0-.67-.19-1.91-1.87-1.9-.76,0-1.56.23-2.14.61l-.34-.99c.68-.44,1.68-.72,2.71-.72,2.51,0,3.13,1.72,3.13,3.36v3.08c0,.7.03,1.4.12,1.97h-1.35Zm-.23-4.2c-1.62-.03-3.47.26-3.47,1.85,0,.98.65,1.43,1.4,1.43,1.08,0,1.77-.68,2-1.38.05-.16.07-.33.07-.47v-1.43Z"/>
      <path d="m112.64,469.93v2.37h2.15v1.13h-2.15v4.43c0,1.02.29,1.6,1.13,1.6.39,0,.67-.05.87-.11l.07,1.14c-.29.11-.75.21-1.34.21-.69,0-1.26-.23-1.61-.63-.41-.45-.58-1.18-.58-2.14v-4.49h-1.27v-1.13h1.27v-1.98l1.46-.39Z"/>
      <path d="m118.14,469.97c0,.51-.36.93-.95.93-.54,0-.9-.42-.9-.93,0-.51.38-.93.93-.93s.92.41.92.93Zm-1.67,10.54v-8.22h1.49v8.22h-1.49Z"/>
      <path d="m127.89,476.33c0,3.04-2.11,4.38-4.09,4.38-2.23,0-3.95-1.62-3.95-4.24,0-2.75,1.81-4.36,4.08-4.36s3.96,1.71,3.96,4.22Zm-6.52.1c0,1.8,1.03,3.16,2.49,3.16s2.5-1.34,2.5-3.21c0-1.39-.7-3.15-2.48-3.15s-2.52,1.63-2.52,3.19Z"/>
      <path d="m129.78,474.52c0-.86-.03-1.54-.07-2.22h1.32l.08,1.35h.04c.4-.77,1.36-1.54,2.72-1.54,1.13,0,2.9.68,2.9,3.5v4.9h-1.49v-4.74c0-1.33-.5-2.44-1.9-2.44-.98,0-1.75.7-2.01,1.53-.06.18-.1.45-.1.69v4.95h-1.49v-6Z"/>
    </g>
    <g>
      <path d="m32.24,158.98c-.09-1.59-.19-3.53-.18-4.94h-.05c-.39,1.33-.87,2.77-1.44,4.34l-2.02,5.56h-1.12l-1.87-5.46c-.55-1.62-.99-3.09-1.31-4.44h-.04c-.04,1.43-.11,3.33-.22,5.05l-.31,4.92h-1.41l.8-11.46h1.89l1.95,5.55c.47,1.4.86,2.66,1.15,3.86h.04c.3-1.16.7-2.42,1.21-3.86l2.04-5.55h1.89l.71,11.46h-1.45l-.28-5.03Z"/>
      <path d="m37.14,160.17c.03,2.02,1.31,2.85,2.81,2.85,1.07,0,1.72-.19,2.28-.42l.26,1.06c-.52.24-1.44.52-2.74.52-2.53,0-4.04-1.68-4.04-4.15s1.47-4.44,3.87-4.44c2.68,0,3.38,2.35,3.38,3.87,0,.31-.02.54-.05.7h-5.76Zm4.38-1.08c.02-.94-.39-2.42-2.06-2.42-1.53,0-2.18,1.38-2.3,2.42h4.36Z"/>
      <path d="m44.61,162.49c.45.28,1.24.59,1.98.59,1.09,0,1.6-.54,1.6-1.22s-.44-1.1-1.53-1.51c-1.48-.54-2.19-1.35-2.18-2.33,0-1.32,1.08-2.41,2.84-2.41.84,0,1.56.23,2.01.51l-.37,1.09c-.32-.2-.92-.48-1.69-.48-.88,0-1.36.51-1.36,1.13,0,.68.48.98,1.56,1.4,1.42.53,2.15,1.24,2.16,2.47,0,1.46-1.13,2.48-3.07,2.48-.9,0-1.73-.23-2.31-.57l.36-1.13Z"/>
      <path d="m51.55,151.95h1.49v5.13h.03c.25-.42.62-.8,1.07-1.06.44-.26.96-.42,1.53-.42,1.11,0,2.87.68,2.87,3.51v4.9h-1.49v-4.73c0-1.33-.5-2.44-1.9-2.44-.98,0-1.73.68-2.02,1.49-.08.21-.1.44-.1.71v4.97h-1.49v-12.07Z"/>
    </g>
    <g>
      <path d="m80.85,152.71c.91-.15,1.98-.25,3.15-.25,2.12,0,3.64.5,4.64,1.44,1.02.93,1.62,2.25,1.62,4.1s-.59,3.4-1.65,4.46c-1.08,1.07-2.85,1.65-5.07,1.65-1.06,0-1.94-.04-2.69-.13v-11.27Zm1.49,10.14c.38.06.92.07,1.49.07,3.17,0,4.88-1.76,4.88-4.86.02-2.71-1.51-4.41-4.63-4.41-.77,0-1.34.07-1.73.15v9.05Z"/>
      <path d="m93.03,160.17c.03,2.02,1.31,2.85,2.81,2.85,1.07,0,1.72-.19,2.28-.42l.26,1.06c-.52.24-1.44.52-2.74.52-2.53,0-4.04-1.68-4.04-4.15s1.47-4.44,3.87-4.44c2.68,0,3.38,2.35,3.38,3.87,0,.31-.02.54-.05.7h-5.76Zm4.38-1.08c.02-.94-.39-2.42-2.06-2.42-1.53,0-2.18,1.38-2.3,2.42h4.36Z"/>
      <path d="m102.51,153.43v2.37h2.15v1.13h-2.15v4.43c0,1.02.29,1.6,1.13,1.6.39,0,.67-.05.87-.11l.07,1.14c-.29.11-.75.21-1.34.21-.69,0-1.26-.23-1.61-.63-.41-.45-.58-1.18-.58-2.14v-4.49h-1.27v-1.13h1.27v-1.98l1.46-.39Z"/>
      <path d="m107.07,160.17c.03,2.02,1.31,2.85,2.81,2.85,1.07,0,1.72-.19,2.28-.42l.26,1.06c-.52.24-1.44.52-2.74.52-2.53,0-4.04-1.68-4.04-4.15s1.47-4.44,3.87-4.44c2.68,0,3.38,2.35,3.38,3.87,0,.31-.02.54-.05.7h-5.76Zm4.38-1.08c.02-.94-.39-2.42-2.06-2.42-1.53,0-2.18,1.38-2.3,2.42h4.36Z"/>
      <path d="m120.62,163.72c-.39.19-1.25.48-2.36.48-2.48,0-4.1-1.69-4.1-4.2s1.73-4.38,4.42-4.38c.88,0,1.67.22,2.08.44l-.33,1.15c-.37-.19-.93-.4-1.75-.4-1.88,0-2.9,1.41-2.9,3.11,0,1.9,1.22,3.08,2.86,3.08.84,0,1.41-.21,1.83-.4l.25,1.12Z"/>
      <path d="m124.39,153.43v2.37h2.15v1.13h-2.15v4.43c0,1.02.29,1.6,1.13,1.6.39,0,.67-.05.87-.11l.07,1.14c-.29.11-.75.21-1.34.21-.69,0-1.26-.23-1.61-.63-.41-.45-.58-1.18-.58-2.14v-4.49h-1.27v-1.13h1.27v-1.98l1.46-.39Z"/>
      <path d="m129.89,153.47c0,.51-.36.93-.95.93-.54,0-.9-.42-.9-.93,0-.51.38-.93.93-.93s.92.41.92.93Zm-1.67,10.54v-8.22h1.49v8.22h-1.49Z"/>
      <path d="m139.64,159.83c0,3.04-2.11,4.38-4.09,4.38-2.23,0-3.95-1.62-3.95-4.23,0-2.75,1.81-4.36,4.08-4.36s3.96,1.71,3.96,4.22Zm-6.52.1c0,1.8,1.03,3.16,2.49,3.16s2.5-1.34,2.5-3.21c0-1.39-.7-3.15-2.48-3.15s-2.52,1.64-2.52,3.19Z"/>
      <path d="m141.53,158.01c0-.86-.03-1.54-.07-2.22h1.32l.08,1.35h.04c.4-.77,1.36-1.54,2.72-1.54,1.13,0,2.9.68,2.9,3.5v4.9h-1.49v-4.74c0-1.33-.5-2.44-1.9-2.44-.98,0-1.75.7-2.01,1.53-.06.18-.1.45-.1.69v4.95h-1.49v-6Z"/>
    </g>
    <g>
      <path d="m253.13,152.72c.91-.15,1.98-.25,3.15-.25,2.12,0,3.64.5,4.64,1.44,1.02.93,1.62,2.25,1.62,4.1s-.59,3.4-1.65,4.46c-1.08,1.07-2.85,1.65-5.07,1.65-1.06,0-1.94-.04-2.69-.13v-11.27Zm1.49,10.14c.38.06.92.07,1.49.07,3.17,0,4.88-1.76,4.88-4.86.02-2.71-1.51-4.41-4.63-4.41-.77,0-1.34.07-1.73.15v9.05Z"/>
      <path d="m265.31,160.17c.03,2.02,1.31,2.85,2.81,2.85,1.07,0,1.72-.19,2.28-.42l.26,1.06c-.52.24-1.44.52-2.74.52-2.53,0-4.04-1.68-4.04-4.15s1.47-4.44,3.87-4.44c2.68,0,3.38,2.35,3.38,3.87,0,.31-.02.54-.05.7h-5.76Zm4.38-1.08c.02-.94-.39-2.42-2.06-2.42-1.53,0-2.18,1.38-2.3,2.42h4.36Z"/>
      <path d="m274.79,153.43v2.37h2.15v1.13h-2.15v4.43c0,1.02.29,1.6,1.13,1.6.39,0,.67-.05.87-.11l.07,1.14c-.29.11-.75.21-1.34.21-.69,0-1.26-.23-1.61-.63-.41-.45-.58-1.18-.58-2.14v-4.49h-1.27v-1.13h1.27v-1.98l1.46-.39Z"/>
      <path d="m279.36,160.17c.03,2.02,1.31,2.85,2.81,2.85,1.07,0,1.72-.19,2.28-.42l.26,1.06c-.52.24-1.44.52-2.74.52-2.53,0-4.04-1.68-4.04-4.15s1.47-4.44,3.87-4.44c2.68,0,3.38,2.35,3.38,3.87,0,.31-.02.54-.05.7h-5.76Zm4.38-1.08c.02-.94-.39-2.42-2.06-2.42-1.53,0-2.18,1.38-2.3,2.42h4.36Z"/>
      <path d="m292.9,163.72c-.39.19-1.25.48-2.36.48-2.48,0-4.1-1.69-4.1-4.2s1.73-4.38,4.42-4.38c.88,0,1.67.22,2.08.44l-.33,1.15c-.37-.19-.93-.4-1.75-.4-1.88,0-2.9,1.41-2.9,3.11,0,1.9,1.22,3.08,2.86,3.08.84,0,1.41-.21,1.83-.4l.25,1.12Z"/>
      <path d="m296.67,153.43v2.37h2.15v1.13h-2.15v4.43c0,1.02.29,1.6,1.13,1.6.39,0,.67-.05.87-.11l.07,1.14c-.29.11-.75.21-1.34.21-.69,0-1.26-.23-1.61-.63-.41-.45-.58-1.18-.58-2.14v-4.49h-1.27v-1.13h1.27v-1.98l1.46-.39Z"/>
      <path d="m302.17,153.47c0,.51-.36.93-.95.93-.54,0-.9-.42-.9-.93,0-.51.38-.93.93-.93s.92.41.92.93Zm-1.67,10.54v-8.22h1.49v8.22h-1.49Z"/>
      <path d="m311.92,159.83c0,3.04-2.11,4.38-4.09,4.38-2.23,0-3.95-1.62-3.95-4.23,0-2.75,1.81-4.36,4.08-4.36s3.96,1.71,3.96,4.22Zm-6.52.1c0,1.8,1.03,3.16,2.49,3.16s2.5-1.34,2.5-3.21c0-1.39-.7-3.15-2.48-3.15s-2.52,1.64-2.52,3.19Z"/>
      <path d="m313.81,158.01c0-.86-.03-1.54-.07-2.22h1.32l.08,1.35h.04c.4-.77,1.36-1.54,2.72-1.54,1.13,0,2.9.68,2.9,3.5v4.9h-1.49v-4.74c0-1.33-.5-2.44-1.9-2.44-.98,0-1.75.7-2.01,1.53-.06.18-.1.45-.1.69v4.95h-1.49v-6Z"/>
    </g>
    <g>
      <path d="m106.66,224.41c-.08-1.4-.17-3.11-.16-4.36h-.04c-.35,1.17-.77,2.45-1.27,3.83l-1.79,4.9h-.99l-1.65-4.81c-.48-1.43-.87-2.73-1.16-3.92h-.04c-.04,1.26-.1,2.94-.2,4.46l-.27,4.34h-1.24l.7-10.11h1.67l1.72,4.89c.42,1.24.76,2.35,1.02,3.41h.04c.27-1.02.62-2.14,1.07-3.4l1.8-4.89h1.67l.63,10.11h-1.28l-.24-4.44Z"/>
      <path d="m114.27,228.85l-.12-.92h-.04c-.4.57-1.18,1.08-2.22,1.08-1.47,0-2.22-1.04-2.22-2.08,0-1.76,1.56-2.72,4.36-2.7v-.15c0-.59-.17-1.68-1.65-1.67-.67,0-1.38.2-1.89.54l-.3-.88c.6-.39,1.48-.64,2.39-.64,2.22,0,2.76,1.52,2.76,2.97v2.71c0,.62.03,1.24.11,1.74h-1.19Zm-.21-3.7c-1.43-.03-3.06.23-3.06,1.63,0,.87.57,1.26,1.23,1.26.96,0,1.56-.6,1.77-1.21.05-.14.06-.29.06-.42v-1.26Z"/>
      <path d="m117.29,227.51c.4.25,1.09.52,1.75.52.96,0,1.41-.47,1.41-1.08s-.38-.97-1.35-1.33c-1.31-.47-1.93-1.19-1.93-2.06,0-1.17.95-2.13,2.51-2.13.74,0,1.37.2,1.78.45l-.33.96c-.28-.17-.81-.43-1.49-.43-.78,0-1.2.45-1.2,1,0,.6.43.87,1.38,1.24,1.25.47,1.9,1.1,1.9,2.18,0,1.29-1,2.19-2.71,2.19-.79,0-1.53-.21-2.04-.51l.32-1Z"/>
      <path d="m124.72,224.92h.03c.18-.25.43-.58.63-.83l2.14-2.5h1.58l-2.8,2.98,3.19,4.27h-1.61l-2.5-3.49-.67.76v2.73h-1.31v-10.65h1.31v6.72Z"/>
    </g>
    <g>
      <path d="m19.9,219.53c-.47.24-1.44.48-2.67.48-2.85,0-4.98-1.8-4.98-5.12s2.14-5.3,5.28-5.3c1.25,0,2.06.26,2.4.44l-.32,1.06c-.49-.23-1.19-.42-2.03-.42-2.37,0-3.94,1.52-3.94,4.17,0,2.47,1.43,4.05,3.87,4.05.8,0,1.61-.16,2.14-.41l.26,1.04Z"/>
      <path d="m21.45,214.86c0-.86-.02-1.59-.06-2.26h1.16l.05,1.42h.05c.34-.97,1.14-1.59,2.02-1.59.14,0,.25,0,.37.04v1.24c-.13-.03-.27-.04-.45-.04-.93,0-1.59.7-1.77,1.69-.03.19-.05.4-.05.62v3.88h-1.31v-4.99Z"/>
      <path d="m32.77,216.15c0,2.69-1.86,3.86-3.61,3.86-1.97,0-3.49-1.43-3.49-3.74,0-2.43,1.6-3.85,3.6-3.85s3.49,1.51,3.49,3.72Zm-5.75.08c0,1.59.91,2.79,2.2,2.79s2.21-1.18,2.21-2.83c0-1.23-.62-2.78-2.19-2.78s-2.22,1.44-2.22,2.82Z"/>
      <path d="m34.43,214.96c0-.92-.02-1.68-.06-2.36h1.18l.07,1.24h.03c.53-.88,1.4-1.4,2.57-1.4,1.76,0,3.08,1.48,3.08,3.68,0,2.61-1.6,3.9-3.3,3.9-.97,0-1.8-.42-2.24-1.14h-.03v3.95h-1.31v-7.86Zm1.31,1.94c0,.19.02.37.06.54.24.92,1.04,1.55,1.97,1.55,1.4,0,2.21-1.15,2.21-2.81,0-1.45-.76-2.69-2.15-2.69-.9,0-1.75.64-2,1.63-.04.17-.08.36-.08.54v1.25Z"/>
      <path d="m42.97,214.96c0-.92-.02-1.68-.06-2.36h1.18l.07,1.24h.03c.53-.88,1.4-1.4,2.57-1.4,1.76,0,3.08,1.48,3.08,3.68,0,2.61-1.6,3.9-3.3,3.9-.97,0-1.8-.42-2.24-1.14h-.03v3.95h-1.31v-7.86Zm1.31,1.94c0,.19.02.37.06.54.24.92,1.04,1.55,1.97,1.55,1.4,0,2.21-1.15,2.21-2.81,0-1.45-.76-2.69-2.15-2.69-.9,0-1.75.64-2,1.63-.04.17-.08.36-.08.54v1.25Z"/>
      <path d="m52.26,216.46c.03,1.78,1.16,2.52,2.48,2.52.94,0,1.52-.17,2.01-.37l.23.94c-.46.21-1.27.46-2.42.46-2.23,0-3.57-1.48-3.57-3.66s1.29-3.92,3.41-3.92c2.37,0,2.99,2.08,2.99,3.41,0,.28-.02.48-.04.62h-5.09Zm3.86-.95c.01-.83-.34-2.14-1.82-2.14-1.35,0-1.92,1.22-2.03,2.14h3.85Z"/>
      <path d="m65.3,209.2v8.78c0,.65.02,1.37.06,1.87h-1.17l-.07-1.25h-.04c-.4.81-1.28,1.42-2.46,1.42-1.76,0-3.11-1.49-3.11-3.69-.01-2.42,1.49-3.9,3.26-3.9,1.11,0,1.86.52,2.19,1.1h.03v-4.33h1.31Zm-1.31,6.35c0-.17-.02-.39-.06-.56-.21-.83-.92-1.52-1.91-1.52-1.37,0-2.18,1.2-2.18,2.79,0,1.47.73,2.7,2.16,2.7.88,0,1.68-.6,1.93-1.58.05-.17.06-.36.06-.57v-1.26Z"/>
      <path d="m26.18,227.74h5.44v1.09h-4.13v3.37h3.82v1.08h-3.82v4.58h-1.31v-10.11Z"/>
      <path d="m36.79,237.85l-.12-.92h-.04c-.4.57-1.18,1.08-2.22,1.08-1.47,0-2.22-1.04-2.22-2.08,0-1.76,1.56-2.72,4.36-2.7v-.15c0-.59-.17-1.68-1.65-1.67-.67,0-1.38.2-1.89.54l-.3-.88c.6-.39,1.48-.64,2.39-.64,2.22,0,2.76,1.52,2.76,2.97v2.71c0,.62.03,1.24.11,1.74h-1.19Zm-.21-3.7c-1.43-.03-3.06.23-3.06,1.63,0,.87.57,1.26,1.23,1.26.96,0,1.56-.6,1.77-1.21.05-.14.06-.29.06-.42v-1.26Z"/>
      <path d="m45.18,237.59c-.35.17-1.1.42-2.08.42-2.19,0-3.62-1.49-3.62-3.71s1.52-3.87,3.9-3.87c.78,0,1.48.2,1.83.39l-.29,1.01c-.32-.17-.82-.35-1.54-.35-1.65,0-2.56,1.24-2.56,2.75,0,1.68,1.08,2.71,2.53,2.71.74,0,1.24-.19,1.61-.35l.22.99Z"/>
      <path d="m47.37,234.46c.03,1.78,1.16,2.52,2.48,2.52.94,0,1.52-.17,2.01-.37l.23.94c-.46.21-1.27.46-2.42.46-2.23,0-3.57-1.48-3.57-3.66s1.29-3.92,3.41-3.92c2.37,0,2.99,2.08,2.99,3.41,0,.28-.02.47-.04.62h-5.09Zm3.86-.95c.01-.83-.34-2.14-1.82-2.14-1.35,0-1.92,1.22-2.03,2.14h3.85Z"/>
    </g>
    <g>
      <path d="m266.3,218.35c-.47.24-1.44.48-2.67.48-2.85,0-4.98-1.8-4.98-5.12s2.14-5.3,5.28-5.3c1.25,0,2.06.26,2.4.44l-.32,1.06c-.49-.23-1.19-.42-2.03-.42-2.37,0-3.94,1.52-3.94,4.17,0,2.47,1.43,4.05,3.87,4.05.8,0,1.61-.16,2.14-.41l.26,1.04Z"/>
      <path d="m267.85,213.68c0-.86-.02-1.59-.06-2.26h1.16l.05,1.42h.05c.34-.97,1.14-1.59,2.02-1.59.14,0,.25,0,.37.04v1.24c-.13-.03-.27-.04-.45-.04-.93,0-1.59.7-1.77,1.69-.03.19-.05.4-.05.62v3.88h-1.31v-4.99Z"/>
      <path d="m279.17,214.97c0,2.69-1.86,3.86-3.61,3.86-1.97,0-3.49-1.43-3.49-3.74,0-2.43,1.6-3.85,3.6-3.85s3.49,1.51,3.49,3.72Zm-5.75.08c0,1.59.91,2.79,2.2,2.79s2.21-1.18,2.21-2.83c0-1.23-.62-2.78-2.19-2.78s-2.22,1.44-2.22,2.82Z"/>
      <path d="m280.84,213.78c0-.92-.03-1.68-.06-2.36h1.18l.07,1.24h.03c.53-.88,1.4-1.4,2.57-1.4,1.76,0,3.08,1.48,3.08,3.68,0,2.61-1.6,3.9-3.3,3.9-.97,0-1.8-.42-2.24-1.14h-.03v3.95h-1.31v-7.86Zm1.31,1.94c0,.19.02.37.06.54.24.92,1.04,1.55,1.97,1.55,1.4,0,2.21-1.15,2.21-2.81,0-1.45-.76-2.69-2.15-2.69-.9,0-1.75.64-2,1.63-.04.17-.08.36-.08.54v1.25Z"/>
      <path d="m289.37,213.78c0-.92-.02-1.68-.06-2.36h1.18l.07,1.24h.03c.53-.88,1.4-1.4,2.58-1.4,1.76,0,3.08,1.48,3.08,3.68,0,2.61-1.6,3.9-3.3,3.9-.97,0-1.8-.42-2.24-1.14h-.03v3.95h-1.31v-7.86Zm1.31,1.94c0,.19.02.37.06.54.24.92,1.04,1.55,1.97,1.55,1.4,0,2.21-1.15,2.21-2.81,0-1.45-.76-2.69-2.16-2.69-.9,0-1.75.64-2,1.63-.04.17-.08.36-.08.54v1.25Z"/>
      <path d="m298.66,215.28c.03,1.78,1.16,2.52,2.48,2.52.94,0,1.52-.17,2.01-.37l.23.94c-.46.21-1.27.46-2.42.46-2.23,0-3.57-1.48-3.57-3.66s1.29-3.92,3.41-3.92c2.37,0,2.99,2.08,2.99,3.41,0,.28-.02.48-.04.62h-5.09Zm3.86-.95c.01-.83-.34-2.14-1.82-2.14-1.35,0-1.92,1.22-2.03,2.14h3.85Z"/>
      <path d="m311.7,208.02v8.78c0,.65.02,1.37.06,1.87h-1.17l-.07-1.25h-.04c-.4.81-1.28,1.42-2.46,1.42-1.76,0-3.11-1.49-3.11-3.69-.01-2.42,1.49-3.9,3.26-3.9,1.11,0,1.86.52,2.19,1.1h.03v-4.33h1.31Zm-1.31,6.35c0-.17-.02-.39-.06-.56-.21-.83-.92-1.52-1.91-1.52-1.37,0-2.18,1.2-2.18,2.79,0,1.47.73,2.7,2.16,2.7.88,0,1.68-.6,1.93-1.58.05-.17.07-.36.07-.57v-1.26Z"/>
      <path d="m272.58,226.56h5.44v1.09h-4.13v3.37h3.82v1.08h-3.82v4.58h-1.31v-10.11Z"/>
      <path d="m283.2,236.67l-.12-.92h-.04c-.4.57-1.18,1.08-2.22,1.08-1.46,0-2.21-1.04-2.21-2.08,0-1.76,1.56-2.72,4.36-2.7v-.15c0-.59-.17-1.68-1.65-1.67-.67,0-1.38.2-1.89.54l-.3-.88c.6-.39,1.48-.64,2.39-.64,2.22,0,2.76,1.52,2.76,2.97v2.71c0,.62.03,1.24.11,1.74h-1.19Zm-.21-3.7c-1.43-.03-3.06.23-3.06,1.63,0,.87.57,1.26,1.23,1.26.96,0,1.56-.6,1.77-1.21.05-.14.06-.29.06-.42v-1.26Z"/>
      <path d="m291.58,236.41c-.35.17-1.11.42-2.08.42-2.19,0-3.62-1.49-3.62-3.71s1.53-3.87,3.9-3.87c.78,0,1.48.2,1.83.39l-.29,1.01c-.32-.17-.82-.35-1.54-.35-1.65,0-2.56,1.24-2.56,2.75,0,1.68,1.08,2.71,2.53,2.71.74,0,1.24-.19,1.61-.35l.22.99Z"/>
      <path d="m293.77,233.28c.03,1.78,1.16,2.52,2.48,2.52.94,0,1.52-.17,2.01-.37l.23.94c-.46.21-1.27.46-2.42.46-2.23,0-3.57-1.48-3.57-3.66s1.29-3.92,3.41-3.92c2.37,0,2.99,2.08,2.99,3.41,0,.28-.02.47-.04.62h-5.09Zm3.86-.95c.01-.83-.34-2.14-1.82-2.14-1.35,0-1.92,1.22-2.03,2.14h3.84Z"/>
    </g>
    <g>
      <path d="m270.37,444.25h1.31v9.01h4.32v1.1h-5.63v-10.11Z"/>
      <path d="m283.77,450.66c0,2.69-1.86,3.86-3.61,3.86-1.97,0-3.49-1.43-3.49-3.74,0-2.43,1.6-3.85,3.6-3.85s3.49,1.51,3.49,3.72Zm-5.75.08c0,1.59.91,2.79,2.2,2.79s2.21-1.18,2.21-2.83c0-1.23-.62-2.78-2.19-2.78s-2.22,1.44-2.22,2.82Z"/>
      <path d="m285.47,444.39c.66-.13,1.61-.22,2.51-.22,1.39,0,2.3.26,2.93.83.5.44.79,1.13.79,1.92,0,1.33-.85,2.21-1.91,2.58v.04c.77.27,1.24,1,1.48,2.05.33,1.41.57,2.38.78,2.77h-1.35c-.16-.29-.39-1.15-.66-2.42-.3-1.38-.85-1.92-2.03-1.96h-1.24v4.38h-1.3v-9.97Zm1.3,4.6h1.33c1.4,0,2.28-.76,2.28-1.92,0-1.31-.95-1.88-2.32-1.89-.63,0-1.07.06-1.29.12v3.69Z"/>
      <path d="m295.26,451.18l-1.04,3.18h-1.35l3.44-10.11h1.57l3.45,10.11h-1.4l-1.08-3.18h-3.58Zm3.32-1.02l-1-2.91c-.22-.66-.37-1.26-.52-1.84h-.04c-.14.59-.3,1.21-.5,1.83l-1,2.93h3.05Z"/>
      <path d="m275.16,467.92c-.08-1.4-.17-3.11-.16-4.36h-.04c-.35,1.17-.77,2.45-1.27,3.83l-1.79,4.9h-.99l-1.65-4.81c-.48-1.43-.87-2.73-1.16-3.92h-.04c-.04,1.26-.1,2.94-.2,4.46l-.27,4.34h-1.24l.7-10.11h1.67l1.72,4.89c.42,1.24.76,2.35,1.02,3.41h.04c.27-1.02.62-2.14,1.07-3.4l1.8-4.89h1.67l.63,10.11h-1.28l-.24-4.44Z"/>
      <path d="m285.31,468.66c0,2.69-1.86,3.86-3.61,3.86-1.97,0-3.49-1.43-3.49-3.74,0-2.43,1.6-3.85,3.6-3.85s3.49,1.51,3.49,3.72Zm-5.75.08c0,1.59.91,2.79,2.2,2.79s2.21-1.18,2.21-2.83c0-1.23-.62-2.78-2.19-2.78s-2.22,1.44-2.22,2.82Z"/>
      <path d="m293.25,461.71v8.78c0,.65.02,1.37.06,1.87h-1.17l-.07-1.25h-.04c-.4.81-1.28,1.42-2.46,1.42-1.76,0-3.11-1.49-3.11-3.69-.01-2.42,1.49-3.9,3.26-3.9,1.11,0,1.86.52,2.19,1.1h.03v-4.33h1.31Zm-1.31,6.35c0-.17-.02-.39-.06-.56-.21-.83-.92-1.52-1.91-1.52-1.37,0-2.18,1.2-2.18,2.79,0,1.47.73,2.7,2.16,2.7.88,0,1.68-.6,1.93-1.58.05-.17.07-.36.07-.57v-1.26Z"/>
      <path d="m296.19,468.97c.03,1.78,1.16,2.52,2.48,2.52.94,0,1.52-.17,2.01-.37l.23.94c-.46.21-1.27.46-2.42.46-2.23,0-3.57-1.48-3.57-3.66s1.29-3.92,3.41-3.92c2.37,0,2.99,2.08,2.99,3.41,0,.28-.02.47-.04.62h-5.09Zm3.86-.95c.01-.83-.34-2.13-1.82-2.13-1.35,0-1.92,1.22-2.03,2.13h3.85Z"/>
      <path d="m302.96,461.71h1.31v10.65h-1.31v-10.65Z"/>
    </g>
    <g>
      <path d="m55.63,378.21c-.47.18-1.4.44-2.49.44-1.23,0-2.24-.31-3.02-1.07-.7-.67-1.13-1.74-1.12-3,0-2.41,1.66-4.18,4.37-4.18.93,0,1.67.21,2.02.37l-.26.85c-.43-.2-.97-.35-1.79-.35-1.96,0-3.25,1.22-3.25,3.25s1.23,3.26,3.12,3.26c.68,0,1.15-.1,1.39-.22v-2.41h-1.64v-.83h2.66v3.88Z"/>
      <path d="m57.84,375.87c.02,1.43.93,2.01,1.98,2.01.75,0,1.22-.14,1.61-.3l.18.75c-.37.17-1.01.37-1.94.37-1.78,0-2.85-1.19-2.85-2.93s1.04-3.13,2.73-3.13c1.89,0,2.39,1.66,2.39,2.73,0,.22-.01.38-.04.5h-4.07Zm3.09-.76c.01-.67-.27-1.71-1.46-1.71-1.08,0-1.54.97-1.62,1.71h3.07Z"/>
      <path d="m63.26,374.34c0-.61-.02-1.09-.05-1.57h.93l.06.95h.03c.29-.54.96-1.09,1.92-1.09.8,0,2.04.48,2.04,2.47v3.46h-1.05v-3.34c0-.94-.35-1.72-1.34-1.72-.69,0-1.23.49-1.42,1.08-.04.13-.07.31-.07.49v3.5h-1.05v-4.23Z"/>
      <path d="m70.51,375.87c.02,1.43.93,2.01,1.98,2.01.75,0,1.22-.14,1.61-.3l.18.75c-.37.17-1.01.37-1.94.37-1.78,0-2.85-1.19-2.85-2.93s1.04-3.13,2.73-3.13c1.89,0,2.39,1.66,2.39,2.73,0,.22-.01.38-.04.5h-4.07Zm3.09-.76c.01-.67-.27-1.71-1.46-1.71-1.08,0-1.54.97-1.62,1.71h3.07Z"/>
      <path d="m75.93,374.58c0-.69-.02-1.27-.05-1.81h.92l.04,1.14h.04c.27-.78.91-1.27,1.62-1.27.11,0,.2,0,.29.03v.99c-.11-.02-.21-.03-.36-.03-.74,0-1.27.56-1.41,1.35-.03.15-.04.32-.04.49v3.1h-1.05v-3.99Z"/>
      <path d="m83.01,378.58l-.09-.73h-.03c-.32.45-.94.86-1.77.86-1.17,0-1.77-.83-1.77-1.66,0-1.4,1.25-2.18,3.49-2.16v-.12c0-.47-.13-1.34-1.32-1.34-.54,0-1.1.16-1.51.43l-.24-.7c.48-.31,1.18-.51,1.91-.51,1.77,0,2.21,1.21,2.21,2.37v2.17c0,.5.02.99.09,1.39h-.95Zm-.16-2.96c-1.14-.02-2.45.18-2.45,1.3,0,.69.46,1.01.98,1.01.76,0,1.25-.48,1.41-.97.04-.11.05-.23.05-.33v-1.01Z"/>
      <path d="m86.8,371.1v1.67h1.52v.8h-1.52v3.13c0,.72.21,1.13.8,1.13.27,0,.47-.03.61-.08l.05.8c-.21.08-.53.14-.94.14-.48,0-.89-.16-1.14-.45-.29-.32-.41-.83-.41-1.51v-3.17h-.9v-.8h.9v-1.4l1.03-.27Z"/>
      <path d="m90.02,375.87c.02,1.43.93,2.01,1.98,2.01.75,0,1.22-.14,1.61-.3l.19.75c-.37.17-1.01.37-1.94.37-1.78,0-2.85-1.19-2.85-2.93s1.04-3.13,2.73-3.13c1.89,0,2.39,1.66,2.39,2.73,0,.22-.01.38-.04.5h-4.07Zm3.09-.76c.01-.67-.27-1.71-1.45-1.71-1.08,0-1.54.97-1.62,1.71h3.07Z"/>
      <path d="m100.45,370.06v7.02c0,.52.02,1.1.05,1.5h-.94l-.05-1h-.03c-.32.65-1.02,1.13-1.97,1.13-1.41,0-2.49-1.19-2.49-2.95,0-1.94,1.19-3.12,2.61-3.12.89,0,1.49.42,1.75.88h.02v-3.46h1.05Zm-1.05,5.07c0-.14-.01-.31-.04-.45-.16-.67-.73-1.21-1.53-1.21-1.09,0-1.75.96-1.75,2.23,0,1.18.59,2.16,1.72,2.16.71,0,1.35-.48,1.54-1.27.04-.14.05-.29.05-.45v-1.01Z"/>
      <path d="m60.26,384.89h4.35v.87h-3.3v2.69h3.05v.86h-3.05v3.66h-1.05v-8.08Z"/>
      <path d="m65.76,388.98c0-.69-.02-1.27-.05-1.81h.92l.04,1.14h.04c.27-.78.91-1.27,1.62-1.27.11,0,.2,0,.29.03v.99c-.11-.02-.21-.03-.36-.03-.74,0-1.27.56-1.41,1.35-.03.15-.04.32-.04.49v3.1h-1.05v-3.99Z"/>
      <path d="m72.84,392.97l-.09-.73h-.03c-.32.45-.94.86-1.77.86-1.17,0-1.77-.83-1.77-1.66,0-1.41,1.25-2.18,3.49-2.16v-.12c0-.47-.13-1.34-1.32-1.34-.54,0-1.1.16-1.51.43l-.24-.7c.48-.31,1.18-.51,1.91-.51,1.77,0,2.21,1.21,2.21,2.38v2.17c0,.5.02.99.09,1.39h-.95Zm-.16-2.96c-1.14-.02-2.45.18-2.45,1.3,0,.69.46,1.01.98,1.01.76,0,1.25-.48,1.41-.97.04-.11.05-.23.05-.33v-1.01Z"/>
      <path d="m75.41,388.74c0-.61-.02-1.09-.05-1.57h.92l.06.93h.03c.32-.55.86-1.07,1.83-1.07.79,0,1.39.48,1.63,1.16h.02c.19-.33.41-.58.65-.76.35-.26.73-.41,1.28-.41.77,0,1.92.5,1.92,2.52v3.42h-1.03v-3.28c0-1.12-.41-1.79-1.26-1.79-.6,0-1.07.44-1.25.95-.05.15-.09.34-.09.53v3.59h-1.03v-3.48c0-.92-.41-1.59-1.21-1.59-.66,0-1.14.53-1.31,1.05-.05.16-.08.34-.08.52v3.5h-1.03v-4.23Z"/>
      <path d="m86,390.27c.02,1.43.93,2.01,1.98,2.01.75,0,1.22-.13,1.61-.3l.18.75c-.37.17-1.01.37-1.94.37-1.78,0-2.85-1.19-2.85-2.93s1.04-3.13,2.73-3.13c1.89,0,2.39,1.66,2.39,2.73,0,.22-.01.38-.04.49h-4.07Zm3.09-.76c.01-.67-.27-1.71-1.46-1.71-1.08,0-1.54.97-1.62,1.71h3.07Z"/>
    </g>
    <g>
      <path d="m227.91,504.22c-.06-1.12-.14-2.49-.13-3.49h-.03c-.28.94-.61,1.96-1.02,3.06l-1.43,3.92h-.79l-1.32-3.85c-.38-1.14-.7-2.18-.93-3.14h-.03c-.03,1.01-.08,2.35-.16,3.57l-.21,3.47h-.99l.56-8.08h1.33l1.38,3.91c.33.99.6,1.88.81,2.72h.03c.21-.82.5-1.71.86-2.72l1.44-3.91h1.33l.5,8.08h-1.03l-.19-3.55Z"/>
      <path d="m233.99,507.77l-.09-.73h-.03c-.32.45-.94.86-1.77.86-1.17,0-1.77-.83-1.77-1.66,0-1.41,1.25-2.18,3.49-2.16v-.12c0-.47-.13-1.34-1.32-1.34-.54,0-1.1.16-1.51.43l-.24-.7c.48-.31,1.18-.51,1.92-.51,1.77,0,2.21,1.21,2.21,2.37v2.17c0,.5.02.99.09,1.39h-.95Zm-.16-2.96c-1.14-.02-2.45.18-2.45,1.3,0,.69.46,1.01.99,1.01.76,0,1.25-.48,1.41-.97.04-.11.05-.23.05-.33v-1.01Z"/>
      <path d="m237.74,500.33c0,.36-.25.66-.67.66-.38,0-.64-.3-.64-.66s.27-.66.66-.66.65.29.65.66Zm-1.18,7.44v-5.8h1.05v5.8h-1.05Z"/>
      <path d="m239.37,503.54c0-.61-.02-1.09-.05-1.57h.93l.06.95h.03c.29-.54.96-1.08,1.92-1.08.8,0,2.04.48,2.04,2.47v3.46h-1.05v-3.34c0-.94-.35-1.72-1.34-1.72-.69,0-1.23.49-1.42,1.08-.04.13-.07.32-.07.49v3.5h-1.05v-4.23Z"/>
      <path d="m254.25,507.51c-.38.19-1.15.39-2.14.39-2.28,0-3.98-1.44-3.98-4.09s1.71-4.24,4.22-4.24c1,0,1.64.21,1.92.36l-.26.85c-.39-.19-.96-.33-1.63-.33-1.9,0-3.15,1.21-3.15,3.33,0,1.98,1.14,3.24,3.1,3.24.64,0,1.29-.13,1.71-.33l.21.83Z"/>
      <path d="m260.65,504.81c0,2.15-1.49,3.09-2.88,3.09-1.57,0-2.79-1.15-2.79-2.99,0-1.94,1.28-3.08,2.88-3.08s2.79,1.21,2.79,2.98Zm-4.6.07c0,1.27.73,2.23,1.76,2.23s1.77-.95,1.77-2.26c0-.98-.49-2.22-1.75-2.22s-1.78,1.15-1.78,2.25Z"/>
      <path d="m261.99,503.54c0-.61-.02-1.09-.05-1.57h.92l.06.93h.03c.32-.55.86-1.07,1.83-1.07.79,0,1.39.48,1.63,1.16h.02c.19-.33.41-.58.65-.75.35-.26.73-.41,1.28-.41.77,0,1.92.5,1.92,2.52v3.42h-1.03v-3.28c0-1.12-.41-1.79-1.26-1.79-.6,0-1.07.44-1.25.95-.05.15-.09.34-.09.53v3.59h-1.03v-3.48c0-.92-.41-1.59-1.21-1.59-.66,0-1.14.53-1.31,1.05-.05.15-.08.34-.08.52v3.5h-1.03v-4.23Z"/>
      <path d="m271.99,503.86c0-.74-.02-1.34-.05-1.89h.94l.06.99h.02c.42-.71,1.12-1.12,2.06-1.12,1.4,0,2.46,1.18,2.46,2.94,0,2.09-1.28,3.12-2.64,3.12-.78,0-1.44-.34-1.79-.91h-.02v3.16h-1.05v-6.29Zm1.05,1.55c0,.15.02.29.05.43.19.74.83,1.24,1.58,1.24,1.12,0,1.76-.92,1.76-2.25,0-1.16-.61-2.15-1.72-2.15-.72,0-1.4.51-1.6,1.3-.04.14-.07.29-.07.43v1Z"/>
      <path d="m284.09,504.81c0,2.15-1.49,3.09-2.88,3.09-1.57,0-2.79-1.15-2.79-2.99,0-1.94,1.28-3.08,2.88-3.08s2.79,1.21,2.79,2.98Zm-4.6.07c0,1.27.73,2.23,1.76,2.23s1.77-.95,1.77-2.26c0-.98-.49-2.22-1.75-2.22s-1.78,1.15-1.78,2.25Z"/>
      <path d="m285.42,503.54c0-.61-.02-1.09-.05-1.57h.93l.06.95h.03c.29-.54.96-1.08,1.92-1.08.8,0,2.04.48,2.04,2.47v3.46h-1.05v-3.34c0-.94-.35-1.72-1.34-1.72-.69,0-1.23.49-1.42,1.08-.04.13-.07.32-.07.49v3.5h-1.05v-4.23Z"/>
      <path d="m292.67,505.06c.02,1.43.92,2.01,1.98,2.01.75,0,1.22-.13,1.61-.3l.19.75c-.37.17-1.01.37-1.94.37-1.78,0-2.85-1.19-2.85-2.93s1.04-3.13,2.73-3.13c1.89,0,2.39,1.66,2.39,2.73,0,.22-.01.38-.04.49h-4.07Zm3.09-.76c.01-.66-.27-1.71-1.46-1.71-1.08,0-1.54.97-1.62,1.71h3.07Z"/>
      <path d="m298.09,503.54c0-.61-.02-1.09-.05-1.57h.93l.06.95h.03c.29-.54.96-1.08,1.92-1.08.8,0,2.04.48,2.04,2.47v3.46h-1.05v-3.34c0-.94-.35-1.72-1.34-1.72-.69,0-1.23.49-1.42,1.08-.04.13-.07.32-.07.49v3.5h-1.05v-4.23Z"/>
      <path d="m305.97,500.3v1.67h1.52v.8h-1.52v3.13c0,.72.21,1.13.8,1.13.27,0,.47-.03.61-.08l.05.8c-.21.08-.53.15-.94.15-.49,0-.89-.16-1.14-.45-.29-.32-.41-.83-.41-1.51v-3.17h-.9v-.8h.9v-1.4l1.03-.27Z"/>
      <path d="m308.53,506.7c.32.2.87.41,1.4.41.77,0,1.13-.38,1.13-.86s-.31-.77-1.08-1.06c-1.05-.38-1.54-.95-1.54-1.64,0-.93.76-1.7,2.01-1.7.59,0,1.1.16,1.42.36l-.26.77c-.22-.14-.65-.34-1.19-.34-.62,0-.96.36-.96.8,0,.48.34.69,1.1.99,1,.37,1.52.88,1.52,1.74,0,1.03-.8,1.75-2.17,1.75-.63,0-1.22-.16-1.63-.4l.26-.8Z"/>
    </g>
    <g>
      <path d="m228.49,526.1c0,2.77-1.69,4.25-3.75,4.25s-3.63-1.66-3.63-4.1,1.58-4.25,3.74-4.25,3.64,1.69,3.64,4.09Zm-6.28.13c0,1.73.94,3.28,2.59,3.28s2.59-1.52,2.59-3.36c0-1.61-.84-3.29-2.58-3.29s-2.6,1.6-2.6,3.37Z"/>
      <path d="m229.83,526.32c0-.74-.02-1.34-.05-1.89h.94l.06.99h.02c.42-.71,1.12-1.12,2.06-1.12,1.4,0,2.46,1.18,2.46,2.94,0,2.09-1.28,3.12-2.64,3.12-.78,0-1.44-.34-1.79-.91h-.02v3.16h-1.05v-6.29Zm1.05,1.55c0,.15.02.29.05.43.19.74.83,1.24,1.58,1.24,1.12,0,1.76-.92,1.76-2.25,0-1.16-.61-2.15-1.72-2.15-.72,0-1.4.51-1.6,1.3-.04.14-.07.29-.07.43v1Z"/>
      <path d="m237.26,527.52c.02,1.43.93,2.01,1.99,2.01.75,0,1.22-.13,1.61-.3l.18.75c-.37.17-1.01.37-1.94.37-1.78,0-2.85-1.19-2.85-2.93s1.04-3.13,2.73-3.13c1.89,0,2.39,1.66,2.39,2.73,0,.22-.01.38-.04.49h-4.07Zm3.09-.76c.01-.66-.27-1.71-1.45-1.71-1.08,0-1.54.97-1.62,1.71h3.07Z"/>
      <path d="m242.68,526.23c0-.68-.02-1.27-.05-1.81h.92l.04,1.14h.04c.27-.78.91-1.27,1.62-1.27.11,0,.2,0,.29.03v.99c-.11-.02-.21-.03-.36-.03-.74,0-1.27.56-1.41,1.35-.03.15-.04.32-.04.49v3.1h-1.05v-3.99Z"/>
      <path d="m249.77,530.23l-.09-.73h-.03c-.32.45-.94.86-1.77.86-1.17,0-1.77-.83-1.77-1.66,0-1.41,1.25-2.18,3.49-2.16v-.12c0-.47-.13-1.34-1.32-1.34-.54,0-1.1.16-1.51.43l-.24-.7c.48-.31,1.18-.51,1.92-.51,1.77,0,2.21,1.21,2.21,2.37v2.17c0,.5.02.99.09,1.39h-.95Zm-.16-2.96c-1.14-.02-2.45.18-2.45,1.3,0,.69.46,1.01.99,1.01.76,0,1.25-.48,1.41-.97.04-.11.05-.23.05-.33v-1.01Z"/>
      <path d="m253.55,522.76v1.67h1.52v.8h-1.52v3.13c0,.72.21,1.13.8,1.13.27,0,.47-.03.61-.08l.05.8c-.21.08-.53.15-.94.15-.49,0-.89-.16-1.14-.45-.29-.32-.41-.83-.41-1.51v-3.17h-.9v-.8h.9v-1.4l1.03-.27Z"/>
      <path d="m257.44,522.79c0,.36-.25.66-.67.66-.38,0-.64-.3-.64-.66,0-.36.27-.66.66-.66s.65.29.65.66Zm-1.18,7.44v-5.8h1.05v5.8h-1.05Z"/>
      <path d="m264.32,527.27c0,2.15-1.49,3.09-2.88,3.09-1.57,0-2.79-1.15-2.79-2.99,0-1.94,1.28-3.08,2.88-3.08s2.79,1.21,2.79,2.98Zm-4.6.07c0,1.27.73,2.23,1.76,2.23s1.77-.95,1.77-2.26c0-.98-.49-2.22-1.75-2.22s-1.78,1.15-1.78,2.25Z"/>
      <path d="m265.65,525.99c0-.61-.02-1.09-.05-1.57h.93l.06.95h.03c.29-.54.96-1.08,1.92-1.08.8,0,2.04.48,2.04,2.47v3.46h-1.05v-3.34c0-.94-.35-1.72-1.34-1.72-.69,0-1.23.49-1.42,1.08-.04.13-.07.32-.07.49v3.5h-1.05v-4.23Z"/>
      <path d="m272.16,529.15c.32.2.87.41,1.4.41.77,0,1.13-.38,1.13-.86s-.31-.77-1.08-1.06c-1.05-.38-1.54-.95-1.54-1.64,0-.93.76-1.7,2.01-1.7.59,0,1.1.16,1.42.36l-.26.77c-.22-.14-.65-.34-1.19-.34-.62,0-.96.36-.96.8,0,.48.34.69,1.1.99,1,.37,1.52.88,1.52,1.74,0,1.03-.8,1.75-2.17,1.75-.63,0-1.22-.16-1.63-.4l.26-.8Z"/>
    </g>
    <g>
      <path d="m223.36,544.97h4.35v.87h-3.3v2.69h3.05v.86h-3.05v3.66h-1.05v-8.08Z"/>
      <path d="m228.86,549.06c0-.68-.02-1.27-.05-1.81h.92l.04,1.14h.04c.27-.78.91-1.27,1.62-1.27.11,0,.2,0,.29.03v.99c-.11-.02-.21-.03-.36-.03-.74,0-1.27.56-1.41,1.35-.03.15-.04.32-.04.49v3.1h-1.05v-3.99Z"/>
      <path d="m235.94,553.06l-.09-.73h-.03c-.32.45-.94.86-1.77.86-1.17,0-1.77-.83-1.77-1.66,0-1.41,1.25-2.18,3.49-2.16v-.12c0-.47-.13-1.34-1.32-1.34-.54,0-1.1.16-1.51.43l-.24-.7c.48-.31,1.18-.51,1.91-.51,1.77,0,2.21,1.21,2.21,2.37v2.17c0,.5.02.99.09,1.39h-.95Zm-.16-2.96c-1.14-.02-2.45.18-2.45,1.3,0,.69.46,1.01.98,1.01.76,0,1.25-.48,1.41-.97.04-.11.05-.23.05-.33v-1.01Z"/>
      <path d="m238.51,548.83c0-.61-.02-1.09-.05-1.57h.92l.06.93h.03c.32-.55.86-1.07,1.83-1.07.79,0,1.39.48,1.63,1.16h.02c.19-.33.41-.58.65-.75.35-.26.73-.41,1.28-.41.77,0,1.92.5,1.92,2.52v3.42h-1.03v-3.28c0-1.12-.41-1.79-1.26-1.79-.6,0-1.07.44-1.25.95-.05.15-.09.34-.09.53v3.59h-1.03v-3.48c0-.92-.41-1.59-1.21-1.59-.66,0-1.14.53-1.31,1.05-.05.15-.08.34-.08.52v3.5h-1.03v-4.23Z"/>
      <path d="m249.11,550.35c.02,1.43.93,2.01,1.99,2.01.75,0,1.22-.13,1.61-.3l.18.75c-.37.17-1.01.37-1.94.37-1.78,0-2.85-1.19-2.85-2.93s1.04-3.13,2.73-3.13c1.89,0,2.39,1.66,2.39,2.73,0,.22-.01.38-.04.49h-4.07Zm3.09-.76c0-.66-.27-1.71-1.46-1.71-1.08,0-1.54.97-1.62,1.71h3.08Z"/>
      <path d="m254.38,551.98c.32.2.87.41,1.4.41.77,0,1.13-.38,1.13-.86s-.31-.77-1.08-1.06c-1.05-.38-1.54-.95-1.54-1.64,0-.93.76-1.7,2.01-1.7.59,0,1.1.16,1.42.36l-.26.77c-.22-.14-.65-.34-1.19-.34-.62,0-.96.36-.96.8,0,.48.34.69,1.1.99,1,.37,1.52.88,1.52,1.74,0,1.03-.8,1.75-2.17,1.75-.63,0-1.22-.16-1.63-.4l.26-.8Z"/>
    </g>
  </g>
  <rect class="cls-6" x="192.86" y="495.93" width="15.16" height="15.16" rx="7.58" ry="7.58"/>
  <rect class="cls-8" x="192.86" y="518.58" width="15.16" height="15.16"/>
  <rect class="cls-10" x="192.86" y="541.22" width="15.16" height="15.16"/>
  <rect class="cls-1" x="185.85" y="490.67" width="130.44" height="70.75"/>
  <rect class="cls-1" x="1.98" y=".5" width="148.26" height="25.37"/>
  <rect class="cls-1" x="210.07" y=".5" width="148.99" height="25.37"/>
</svg>