<?xml version="1.0" encoding="UTF-8"?>
<svg id="Layer_1" data-name="Layer 1" xmlns="http://www.w3.org/2000/svg" viewBox="0 0 426.16 248.65">
  <defs>
    <style>
      .cls-1 {
        fill: #e8a97b;
      }

      .cls-1, .cls-2, .cls-3, .cls-4, .cls-5, .cls-6 {
        stroke-miterlimit: 10;
      }

      .cls-1, .cls-3, .cls-4, .cls-5, .cls-6 {
        stroke: #231f20;
      }

      .cls-2 {
        stroke: #010101;
      }

      .cls-2, .cls-3 {
        fill: none;
      }

      .cls-3 {
        stroke-width: 2px;
      }

      .cls-4 {
        fill: #8ccea9;
      }

      .cls-5 {
        fill: #9db18e;
      }

      .cls-7 {
        fill: #231f20;
      }

      .cls-6 {
        fill: #a7a9ac;
      }

      .cls-8 {
        fill: #010101;
      }
    </style>
  </defs>
  <rect class="cls-4" x=".5" y="76.3" width="28.07" height="112.56"/>
  <rect class="cls-5" x="397.58" y="76.22" width="28.07" height="112.56"/>
  <path class="cls-2" d="m32.98,76.22h0c3.89,0,7.04,3.15,7.04,7.04v98.56c0,3.89-3.15,7.04-7.04,7.04h0"/>
  <line class="cls-2" x1="40.02" y1="132.5" x2="46.92" y2="132.5"/>
  <polygon class="cls-1" points="94.67 135.35 193.77 175.12 193.77 208.76 94.67 247.91 94.67 135.35"/>
  <polygon class="cls-1" points="336.44 135.35 237.35 175.12 237.35 208.76 336.44 247.91 336.44 135.35"/>
  <rect class="cls-4" x="94.88" y="17.09" width="241.75" height="112.56"/>
  <g>
    <path d="m167.72,95.08c-2.16,3.72-4.32,7.43-6.47,11.15-.52.9-.96,1.84-1.5,2.73-.19.32-.43.79-.91.68-.45-.1-.48-.59-.48-.95.03-1.96-.22-3.91-.37-5.86-.27-3.68-.54-7.36-.82-11.04-.05-.64-.45-.86-1.06-.84-.31,0-.66.13-.93-.13-.16-.16-.1-.34-.03-.53.09-.25.25-.31.5-.31,2.03,0,4.05,0,6.08,0,.32,0,.52.08.5.45-.01.32-.13.48-.47.53-2.05.31-2.06.31-1.98,2.45.14,3.96.58,7.9.85,11.86,0,.11,0,.22.21.3.54-.86,1.13-1.71,1.61-2.62,1.11-2.1,2.34-4.13,3.52-6.18.48-.83,1.03-1.64,1.42-2.51.41-.91.28-1.92.07-2.86-.13-.55-.74-.41-1.19-.44-.34-.02-.89.21-.91-.36-.02-.57.49-.61.95-.61,1.89,0,3.78,0,5.68,0,.32,0,.65-.06.65.47,0,.48-.26.52-.62.51-.32-.01-.65-.03-.97,0-.8.09-1.16.66-1.09,1.47.14,1.59.4,3.18.4,4.79,0,2.18.53,4.31.48,6.49-.01.68.02,1.36.22,2.12.95-1.62,1.88-3.17,2.78-4.74,1.22-2.13,2.43-4.27,3.63-6.41.38-.67.77-1.33,1.12-2.01.51-.97.1-1.64-1.02-1.72-.23-.02-.5.09-.68-.14-.22-.29.03-.82.41-.82,1.65-.02,3.29,0,4.94-.01.34,0,.49.13.47.49-.01.29-.08.49-.41.48-1.77-.02-2.59,1.2-3.34,2.54-1.11,1.98-2.27,3.92-3.4,5.89-1.59,2.78-3.17,5.57-4.76,8.35-.31.54-.63,1.06-.96,1.58-.16.26-.43.34-.7.32-.37-.03-.23-.37-.27-.58-.4-2.58-.44-5.2-.64-7.8-.15-2.03-.26-4.06-.4-6.09,0-.03-.08-.06-.13-.09Z"/>
    <path d="m230.64,100.02c.41,1.14,1.15,2,1.77,2.92.76,1.14,1.56,2.25,2.4,3.33.6.76,1.21,1.56,2.22,1.86.29.09.35.33.31.58-.03.25-.17.38-.44.38-1.57,0-3.14,0-4.71,0-.22,0-.36-.09-.46-.27-1.04-1.84-2.26-3.57-3.41-5.34-.6-.92-1.21-1.84-1.78-2.78-.25-.41-.62-.27-.94-.25-.44.02-.26.41-.27.64-.01,1.96-.01,3.92,0,5.88,0,.85.26,1.11,1.1,1.15.24,0,.49.01.73,0,.35-.01.59.09.59.49,0,.38-.23.5-.59.49-.57-.02-1.14,0-1.71,0-2.14,0-4.28,0-6.42,0-.35,0-.71.07-.71-.5,0-.59.4-.45.73-.47.24-.01.49.02.73,0,.62-.06.99-.37.99-1.04,0-4.96,0-9.91,0-14.87,0-.77-.45-1.12-1.14-1.24-.24-.04-.49-.03-.73,0-.41.03-.59-.13-.59-.56,0-.47.31-.42.61-.42,2.41,0,4.82,0,7.23,0,1.75,0,3.5-.08,5.21.48,3.05,1,5.11,3.7,3.47,7.06-.79,1.62-2.48,2.13-4.2,2.5Zm-8.96-1.53c0,3.19-.02,5.42,0,7.65,0,.64-.42,1.49.04,1.85.4.32,1.24.07,1.88.13.62.06.76-.17.75-.77-.02-4.79-.01-9.57-.01-14.36,0-.66.25-1.69-.06-1.91-.48-.34-1.34-.1-2.04-.15-.53-.04-.71.14-.67.68.21,2.61.06,5.22.1,6.87Zm3.64-3.07c0,1.14.02,2.28,0,3.42-.01.48.14.6.61.53.85-.12,1.71-.15,2.57-.24.75-.08,1.74-.94,1.87-1.66.2-1.09.31-2.19.18-3.3-.28-2.36-2.17-3.75-4.27-3.1-.62.19-1.01.49-.96,1.26.07,1.03.02,2.06.02,3.09Zm8.16,12.7c.37,0,.58.02.8,0,.2-.02.48.13.58-.12.12-.27-.21-.33-.34-.48-1.67-2.05-3.15-4.24-4.56-6.47-.41-.65-1.57-1.06-2.19-.72-.24.13-.17.3-.05.47,1.4,2.14,2.86,4.25,4.18,6.44.45.75.92,1.05,1.58.9Zm-2.56-9.31c2.44-.07,3.98-2.41,3.35-4.49-.45-1.5-1.54-2.31-2.93-2.82-.16-.06-.34-.09-.44.07-.11.16.02.3.08.46.82,2.27.78,4.53-.06,6.79Z"/>
    <path d="m201.28,102.72c-1.79,0-3.58,0-5.37,0-.87,0-.98.14-.83.98.36,2,2.75,4.31,4.66,4.94,2.22.73,4.45.29,6.67.46.52.04,1.35-.25,1.33.59-.02.71-.81.54-1.32.54-1.46.01-2.93.07-4.39-.01-3.6-.2-6.52-2.06-7.82-5.6-1.26-3.44.24-7.19,3.2-9.1,1.66-1.07,3.43-1.58,5.41-1.47,1.4.08,2.82.02,4.23,0,.4,0,.72.06.73.54.01.47-.36.5-.68.5-1.03,0-2.06.01-3.09-.01-1.74-.05-3.48.09-5.05.81-1.98.91-3.32,2.51-3.88,4.67-.18.69.11.96.83.95,3.47-.03,6.94-.02,10.4-.02.27,0,.55-.02.81.03.32.06.68.18.65.59-.03.41-.33.6-.74.6-1.11,0-2.22,0-3.33,0-.81,0-1.63,0-2.44,0Z"/>
    <path d="m238.94,95.72c-.1-2.57,2.07-5.02,4.06-5.64.89-.28,1.8-.22,2.47.52.52.57.58.28.7-.23.33-1.36.68-2.71,1.04-4.06.19-.75-.41-.59-.77-.7-.23-.07-.63.11-.62-.3,0-.35.38-.22.59-.25.7-.08,1.4-.12,2.1-.17.41-.03.52.15.4.54-.6,2.01-.96,4.08-1.56,6.09-.53,1.8-.93,3.65-1.38,5.47-.03.1-.02.22-.01.33.02.5-.16,1.15.51,1.3.74.17,1.01-.49,1.26-1.02.21-.46.36-.96.5-1.45.05-.19.11-.3.31-.26.23.04.22.23.17.38-.23.76-.39,1.53-.89,2.21-.78,1.07-2.37.79-2.92-.15-.3-.51-.56-.46-.96-.12-.53.45-1.11.82-1.84.93-1.71.25-3.39-1.32-3.17-3.41Zm1.49.82c0,.16,0,.33,0,.49.04,1.35,1.11,1.98,2.28,1.36,1.03-.55,1.83-1.26,2.09-2.48.24-1.15.65-2.28.79-3.44.16-1.24-1.02-2.36-2.11-1.92-.47.19-.92.45-1.27.84-1.31,1.46-1.44,3.33-1.77,5.13Z"/>
    <path d="m266.93,95.72c-.15-2.44,1.95-4.99,4.05-5.64.94-.29,1.87-.22,2.56.63.35.44.46.32.57-.16.32-1.39.63-2.78,1.04-4.14.19-.63-.1-.71-.54-.8-.18-.04-.38-.03-.57-.04-.14-.01-.27-.05-.28-.23,0-.16.07-.25.23-.26.86-.07,1.72-.15,2.59-.2.31-.02.41.13.32.47-.51,1.92-1,3.85-1.48,5.77-.52,2.06-1.01,4.12-1.53,6.18-.14.55.03,1.04.46,1.27.54.29.92-.2,1.15-.62.28-.51.53-1.06.55-1.67,0-.31.14-.48.45-.41.33.07.16.32.15.52-.05.7-.41,1.27-.72,1.86-.67,1.27-2.37,1.12-3.03.04-.27-.44-.46-.5-.9-.15-.55.45-1.15.86-1.9.98-1.72.27-3.42-1.39-3.16-3.41Zm1.48.85c0,.22-.02.44,0,.65.09.89.95,1.66,1.71,1.38,1.11-.41,2.17-.99,2.5-2.28.31-1.19.7-2.37.9-3.59.14-.86-.09-1.56-.81-2.01-.78-.48-1.59-.31-2.44.59-1.4,1.47-1.63,3.37-1.86,5.26Z"/>
    <path d="m262.68,98.66c-.1.12-.2.29-.35.4-.22.15-.32-.06-.45-.19-1.34-1.33-2.72-2.63-4.02-4.01-.36-.39-.48-.25-.74,0-1.19,1.2-2.38,2.4-3.58,3.59-.13.13-.28.25-.43.37-.21.18-.47.39-.7.09-.2-.26-.12-.5.15-.76,1.34-1.32,2.62-2.71,3.99-4,.35-.33.19-.32-.02-.53-1.28-1.3-2.53-2.63-3.81-3.93-.26-.27-.61-.55-.33-.87.3-.33.63-.08.93.24,1.19,1.25,2.43,2.46,3.65,3.68.36.36.63.45,1.06,0,1.19-1.28,2.47-2.48,3.69-3.73.25-.26.46-.51.78-.2.33.32.04.61-.18.84-1.18,1.2-2.34,2.42-3.58,3.55-.6.55-.47.91.03,1.39,1.18,1.13,2.33,2.29,3.49,3.45.17.17.38.32.41.63Z"/>
  </g>
  <path class="cls-2" d="m198.46,174.9h0c3.89,0,7.04.94,7.04,2.09v29.28c0,1.16-3.15,2.09-7.04,2.09h0"/>
  <line class="cls-2" x1="205.5" y1="191.18" x2="212.4" y2="191.18"/>
  <g>
    <path class="cls-8" d="m8.84,126.17h5.33v.3c-.32.05-.57.14-.75.29s-.27.34-.27.58c0,.16.04.34.13.54s.26.52.54.96l.34.56.83,1.36,1.64-2.08c.31-.38.52-.67.62-.86.1-.19.16-.38.16-.56,0-.45-.26-.71-.78-.79v-.3h3.61v.3c-.56.12-1.07.35-1.54.71-.47.35-.99.89-1.55,1.59l-1.87,2.37,2.76,4.31c.43.66.82,1.16,1.19,1.47.22.18.42.31.59.39.18.08.41.14.69.18v.29h-5.5v-.29c.33-.05.56-.11.7-.18.27-.15.41-.35.41-.63s-.17-.66-.5-1.17l-.3-.46-1.4-2.19-1.8,2.22c-.32.39-.53.68-.64.88-.11.2-.16.38-.16.57,0,.5.38.82,1.13.97v.29h-3.84v-.29c.25-.05.47-.1.64-.18.17-.07.36-.19.58-.35.37-.29.85-.8,1.42-1.51l2.43-3.01-2.56-3.86c-.51-.76-.9-1.28-1.18-1.53-.28-.26-.65-.45-1.1-.58v-.3Z"/>
    <path class="cls-8" d="m408.74,119.94v9.36c.32-.39.6-.7.85-.92.25-.22.54-.41.89-.57.67-.33,1.42-.49,2.27-.49,1.08,0,1.96.21,2.67.64.5.32.85.71,1.03,1.17.19.46.28,1.15.28,2.07v5.03c.01.62.05,1.07.12,1.36.07.29.21.53.42.72.25.25.72.43,1.41.56v.29h-6.04v-.29c.48-.06.83-.14,1.03-.23.21-.09.39-.25.55-.46.16-.23.28-.54.34-.93.06-.39.1-.97.1-1.73v-4.33c0-.66-.05-1.17-.15-1.56-.1-.38-.27-.71-.5-1-.46-.54-1.12-.81-1.96-.81-2.2,0-3.3,1.74-3.3,5.22v3.2c.01.62.05,1.07.12,1.36.07.29.21.53.42.72.25.25.72.43,1.41.56v.29h-6.04v-.29c.55-.07.94-.17,1.18-.31.24-.13.43-.36.57-.68.1-.21.17-.53.21-.95s.06-1.04.06-1.84v-10.72c0-.93-.02-1.58-.07-1.97s-.15-.69-.3-.93c-.16-.25-.34-.44-.56-.55-.22-.11-.53-.18-.94-.21v-.3l3.94-.49Z"/>
    <path class="cls-7" d="m60.32,126.17v10.54c0,.77.03,1.65.07,2.25h-1.41l-.08-1.51h-.04c-.48.97-1.53,1.7-2.95,1.7-2.11,0-3.74-1.78-3.74-4.42-.01-2.91,1.79-4.68,3.91-4.68,1.34,0,2.24.63,2.63,1.32h.04v-5.2h1.57Zm-1.57,7.62c0-.21-.02-.47-.07-.68-.25-1-1.1-1.82-2.29-1.82-1.64,0-2.62,1.44-2.62,3.35,0,1.77.88,3.24,2.59,3.24,1.06,0,2.02-.72,2.31-1.9.06-.21.08-.43.08-.68v-1.51Z"/>
    <g>
      <path class="cls-8" d="m119.47,48.2c1.09-.19,2.52-.35,4.36-.35,2.22,0,3.87.51,4.91,1.46.95.84,1.54,2.11,1.54,3.67s-.47,2.84-1.36,3.75c-1.21,1.28-3.14,1.92-5.36,1.92-.69,0-1.31-.03-1.83-.16v7.03h-2.26v-17.31Zm2.26,8.44c.5.15,1.13.2,1.88.2,2.75,0,4.4-1.35,4.4-3.74s-1.66-3.45-4.14-3.45c-1,0-1.74.09-2.14.18v6.82Z"/>
      <path class="cls-8" d="m133.87,59.63c.04,3.09,2.01,4.37,4.3,4.37,1.64,0,2.64-.29,3.48-.64l.4,1.62c-.8.37-2.2.8-4.2.8-3.86,0-6.19-2.57-6.19-6.35s2.24-6.79,5.92-6.79c4.1,0,5.18,3.6,5.18,5.91,0,.48-.03.82-.08,1.07h-8.82Zm6.69-1.65c.02-1.44-.59-3.7-3.15-3.7-2.33,0-3.33,2.11-3.51,3.7h6.67Z"/>
      <path class="cls-8" d="m148.36,49.31v3.62h3.29v1.73h-3.29v6.78c0,1.57.45,2.45,1.73,2.45.59,0,1.02-.07,1.33-.17l.1,1.74c-.44.17-1.15.31-2.04.31-1.05,0-1.92-.35-2.47-.97-.63-.69-.89-1.8-.89-3.28v-6.87h-1.95v-1.73h1.95v-3.03l2.24-.59Z"/>
      <path class="cls-8" d="m154.21,56.85c0-1.48-.04-2.75-.1-3.92h2l.09,2.47h.08c.59-1.69,1.97-2.75,3.5-2.75.25,0,.43.02.64.06v2.15c-.23-.05-.46-.07-.78-.07-1.61,0-2.75,1.21-3.06,2.93-.06.32-.09.7-.09,1.07v6.72h-2.28v-8.66Z"/>
      <path class="cls-8" d="m169.56,65.51l-.2-1.59h-.07c-.69.98-2.05,1.87-3.85,1.87-2.54,0-3.84-1.8-3.84-3.61,0-3.05,2.7-4.72,7.56-4.68v-.27c0-1.02-.29-2.91-2.86-2.9-1.17,0-2.39.35-3.28.94l-.52-1.52c1.04-.67,2.56-1.1,4.15-1.1,3.84,0,4.78,2.63,4.78,5.15v4.7c0,1.07.05,2.15.19,3.01h-2.06Zm-.36-6.42c-2.47-.05-5.31.39-5.31,2.82,0,1.5.99,2.19,2.13,2.19,1.66,0,2.7-1.04,3.06-2.11.08-.24.11-.5.11-.72v-2.19Z"/>
      <path class="cls-8" d="m177.68,49.38c0,.78-.55,1.42-1.45,1.42-.83,0-1.38-.64-1.38-1.42,0-.79.58-1.42,1.42-1.42s1.41.62,1.41,1.42Zm-2.56,16.13v-12.57h2.28v12.57h-2.28Z"/>
      <path class="cls-8" d="m181.21,56.33c0-1.31-.04-2.35-.1-3.4h2.02l.13,2.07h.06c.62-1.18,2.08-2.35,4.16-2.35,1.73,0,4.43,1.04,4.43,5.36v7.5h-2.28v-7.25c0-2.03-.77-3.74-2.91-3.74-1.5,0-2.67,1.07-3.08,2.35-.09.28-.16.68-.16,1.06v7.58h-2.28v-9.18Z"/>
      <path class="cls-8" d="m196.92,59.63c.04,3.09,2.01,4.37,4.3,4.37,1.64,0,2.64-.29,3.48-.64l.4,1.62c-.8.37-2.2.8-4.2.8-3.86,0-6.19-2.57-6.19-6.35s2.25-6.79,5.92-6.79c4.1,0,5.17,3.6,5.17,5.91,0,.48-.03.82-.08,1.07h-8.82Zm6.69-1.65c.02-1.44-.59-3.7-3.15-3.7-2.33,0-3.33,2.11-3.51,3.7h6.67Z"/>
      <path class="cls-8" d="m219.52,47.05v15.22c0,1.12.04,2.38.1,3.24h-2.03l-.12-2.17h-.06c-.7,1.4-2.21,2.46-4.27,2.46-3.05,0-5.4-2.58-5.4-6.39-.02-4.2,2.59-6.76,5.65-6.76,1.93,0,3.23.9,3.79,1.91h.05v-7.51h2.27Zm-2.27,11c0-.3-.03-.68-.1-.98-.36-1.44-1.59-2.63-3.31-2.63-2.37,0-3.78,2.08-3.78,4.84,0,2.55,1.27,4.67,3.74,4.67,1.53,0,2.92-1.03,3.34-2.75.08-.3.11-.62.11-.98v-2.18Z"/>
      <path class="cls-8" d="m230.83,65.51l-4.44-17.52h2.4l2.09,8.87c.5,2.19.97,4.36,1.29,6.06h.06c.28-1.74.83-3.83,1.42-6.08l2.35-8.84h2.35l2.14,8.88c.49,2.1.96,4.16,1.23,6.01h.06c.35-1.92.84-3.87,1.38-6.05l2.32-8.84h2.32l-4.97,17.52h-2.36l-2.21-9.12c-.55-2.26-.92-3.96-1.16-5.73h-.05c-.29,1.76-.7,3.46-1.35,5.73l-2.48,9.12h-2.38Z"/>
      <path class="cls-8" d="m250.32,59.63c.04,3.09,2.01,4.37,4.3,4.37,1.64,0,2.64-.29,3.48-.64l.4,1.62c-.8.37-2.2.8-4.2.8-3.86,0-6.19-2.57-6.19-6.35s2.24-6.79,5.92-6.79c4.1,0,5.18,3.6,5.18,5.91,0,.48-.03.82-.08,1.07h-8.82Zm6.69-1.65c.02-1.44-.59-3.7-3.15-3.7-2.33,0-3.33,2.11-3.51,3.7h6.67Z"/>
      <path class="cls-8" d="m264.62,49.38c0,.78-.55,1.42-1.45,1.42-.83,0-1.38-.64-1.38-1.42,0-.79.58-1.42,1.42-1.42s1.41.62,1.41,1.42Zm-2.56,16.13v-12.57h2.28v12.57h-2.28Z"/>
      <path class="cls-8" d="m279,52.93c-.06.89-.11,1.91-.11,3.44v7.3c0,2.91-.59,4.66-1.79,5.76-1.24,1.13-3,1.51-4.58,1.51s-3.18-.36-4.2-1.04l.57-1.76c.84.52,2.13,1.01,3.7,1.01,2.33,0,4.05-1.22,4.05-4.41v-1.4h-.05c-.69,1.18-2.06,2.12-4,2.12-3.13,0-5.36-2.67-5.36-6.15,0-4.26,2.77-6.67,5.68-6.67,2.18,0,3.36,1.12,3.92,2.17h.05l.09-1.88h2.02Zm-2.38,4.95c0-.37-.03-.72-.13-1.02-.42-1.33-1.53-2.43-3.21-2.43-2.18,0-3.75,1.84-3.75,4.77,0,2.46,1.27,4.53,3.72,4.53,1.42,0,2.69-.9,3.18-2.36.12-.37.18-.82.18-1.22v-2.27Z"/>
      <path class="cls-8" d="m282.68,47.05h2.28v7.85h.05c.38-.64.95-1.22,1.64-1.61.67-.4,1.47-.63,2.34-.63,1.7,0,4.38,1.03,4.38,5.37v7.49h-2.28v-7.24c0-2.03-.77-3.73-2.91-3.73-1.5,0-2.65,1.05-3.08,2.28-.12.32-.15.67-.15,1.09v7.6h-2.28v-18.46Z"/>
      <path class="cls-8" d="m299.75,49.31v3.62h3.29v1.73h-3.29v6.78c0,1.57.45,2.45,1.73,2.45.59,0,1.02-.07,1.33-.17l.1,1.74c-.44.17-1.15.31-2.04.31-1.05,0-1.92-.35-2.47-.97-.63-.69-.89-1.8-.89-3.28v-6.87h-1.95v-1.73h1.95v-3.03l2.24-.59Z"/>
      <path class="cls-8" d="m305.29,63.18c.69.43,1.89.9,3.03.9,1.67,0,2.44-.82,2.44-1.87s-.67-1.68-2.34-2.3c-2.27-.82-3.35-2.06-3.34-3.57,0-2.03,1.65-3.69,4.35-3.69,1.28,0,2.38.35,3.08.77l-.57,1.66c-.48-.3-1.41-.74-2.58-.74-1.35,0-2.08.78-2.08,1.73,0,1.04.74,1.5,2.39,2.14,2.17.81,3.29,1.9,3.3,3.78,0,2.23-1.73,3.79-4.7,3.79-1.38,0-2.65-.36-3.53-.88l.55-1.73Z"/>
    </g>
    <path class="cls-7" d="m218.42,189.63c0-1.03-.03-1.9-.07-2.71h1.39l.06,1.71h.06c.41-1.17,1.37-1.91,2.42-1.91.17,0,.3.01.44.04v1.49c-.16-.03-.32-.05-.54-.05-1.12,0-1.9.84-2.12,2.03-.04.22-.06.48-.06.74v4.65h-1.58v-6Z"/>
  </g>
  <g>
    <path d="m142.94,195.52c.83-3.3,1.52-6.48,2.57-9.58.39-1.15,1.23-1.55,2.29-1.75.04,0,.08,0,.12,0,.31.02.74-.4.87.19.12.53-.38,1.08-.91,1.12-.35.03-.71.07-1.05.15-.63.15-1.02.5-1.22,1.19-.84,2.93-1.56,5.9-2.25,8.87-.07.29-.15.57-.41.76-.47.35-.75.32-1.06-.17-1.31-2.03-2.05-4.3-2.83-6.55-.27-.77-.43-1.59-.93-2.42-.22.99-.4,1.87-.61,2.73-.47,1.89-.97,3.76-1.78,5.54-.16.35-.36.66-.59.96-.49.61-.93.72-1.65.39-.42-.19-.77-.4-.52-.99.29-.7.27-.72.97-.41.9.41,1.21.31,1.61-.61.83-1.91,1.33-3.93,1.74-5.96.2-1,.31-2.01.49-3.01.08-.46.44-.64.85-.7.41-.06.38.3.46.55.85,2.7,1.71,5.39,2.85,7.98.25.57.55,1.12.99,1.72Z"/>
    <path d="m109.51,196.36c-.54,0-1.07,0-1.61,0-.15,0-.36.05-.4-.16-.05-.28.24-.19.37-.26.05-.03.11-.03.17-.04.96-.13.98-.14.91-1.1-.05-.57-.17-1.13-.22-1.7-.02-.27-.13-.31-.37-.33-1.11-.07-2.22-.07-3.33-.01-.19,0-.38,0-.51.22-.35.64-.75,1.26-1.08,1.91-.28.53-.15.79.41.98.17.06.4.07.38.28-.02.29-.29.2-.48.2-.83,0-1.67,0-2.5,0-.14,0-.34.09-.4-.13-.06-.25.18-.25.31-.26,1.12-.11,1.69-.89,2.2-1.77,1-1.75,2.04-3.47,3.08-5.21.71-1.19,1.43-2.36,2.13-3.55.13-.21.28-.35.51-.34.3.01.21.28.22.46.16,1.61.32,3.21.47,4.82.16,1.67.33,3.34.48,5,.06.62.57.49.93.6.15.05.42-.08.43.17,0,.29-.27.22-.46.22-.56,0-1.11,0-1.67,0Zm-4.52-4.05c1.16,0,2.21,0,3.26,0,.3,0,.46-.04.39-.45-.11-.62-.1-1.26-.16-1.89-.09-.95-.2-1.9-.31-3.02-1.08,1.85-2.22,3.48-3.19,5.36Z"/>
    <path d="m162.08,191.26c.04,1.32-.06,2.55-.61,3.7-.59,1.22-1.57,1.87-2.95,1.75-1.22-.1-2.01-.83-2.5-1.92-.54-1.2-.59-2.49-.57-3.77.02-1.04.12-2.07.5-3.07.77-2.03,2.93-2.73,4.65-1.43.87.66,1.13,1.68,1.35,2.68.15.7.15,1.41.12,2.06Zm-1.2-.13c0-1.07-.06-2.14-.22-3.19-.15-1-.88-1.7-1.74-1.73-1.05-.03-1.7.48-1.95,1.6-.39,1.74-.27,3.51-.2,5.27.03.63.02,1.3.26,1.92.38.97.91,1.41,1.83,1.38.84-.03,1.42-.52,1.68-1.48.33-1.24.26-2.51.34-3.77Z"/>
    <path d="m176.25,190.4c1.07,2.45-.16,4.64-1.8,5.63-1.17.71-2.18.79-3.13.03-.9-.71-1.11-1.73-.79-2.84.51-1.78,1.48-3.14,3.39-3.59.58-.14,1.18-.05,1.78-.06.83-.02,1.67,0,2.5,0,.25,0,.52,0,.54.32.03.35-.23.5-.53.51-.63.02-1.27,0-1.96,0Zm-.59,2.16c.1-1.58-.62-2.33-1.69-2.15-.76.14-1.44.49-1.83,1.19-.59,1.05-.91,2.18-.77,3.41.06.5.31.89.79,1.1.82.36,1.48-.02,2.05-.51,1.04-.89,1.38-2.12,1.45-3.04Z"/>
    <path d="m181.15,189.68c1.04,0,1.92,0,2.81,0,.37,0,.46-.27.5-.55.03-.23.07-.45.35-.77.04.84-.11,1.49-.25,2.14-.04.19-.22.13-.35.13-1.23,0-2.46,0-3.69,0-.15,0-.35.08-.43-.09-.11-.22.06-.38.2-.52.76-.78,1.54-1.54,2.29-2.33.56-.59,1.06-1.22,1.26-2.04.21-.86-.21-1.83-.93-2.17-.72-.34-1.66-.09-2.18.57-.17.22-.31.41.1.5.43.1.34.44.3.72-.04.27-.27.38-.54.35-.32-.03-.48-.22-.52-.55-.1-.89.73-1.9,1.78-2.05,1.27-.19,2.82.39,3.04,1.94.09.65-.16,1.19-.54,1.68-.68.89-1.63,1.5-2.44,2.26-.23.21-.47.4-.75.78Z"/>
    <path d="m153.89,184.63c-.92.91-1.6,1.92-2.05,3.08-.67,1.75-.77,3.56-.72,5.4.05,2.01.45,3.9,1.54,5.61.26.4.55.77.91,1.1.12.11.34.26.17.43-.14.15-.27-.07-.38-.16-1.44-1.21-2.31-2.78-2.74-4.59-.71-2.99-.51-5.89.98-8.64.45-.83,1.09-1.5,1.79-2.12.12-.1.24-.21.51-.11Z"/>
    <path d="m187.26,184.6c2.13,1.39,3.07,3.5,3.38,5.89.49,3.78-.19,7.22-3.35,9.76,2.04-2.21,2.65-4.91,2.66-7.81,0-2.92-.57-5.64-2.69-7.84Z"/>
    <path d="m122.78,194.33c-1.43,0-2.85,0-4.28,0-.14,0-.28,0-.42,0-.23-.03-.53-.02-.54-.33,0-.36.32-.33.56-.36.1-.01.2,0,.3,0,2.89,0,5.78,0,8.68,0,.34,0,.87-.07.88.35,0,.41-.51.35-.85.35-1.45,0-2.89,0-4.34,0Z"/>
    <path d="m122.78,191.22c-1.45,0-2.89,0-4.34,0-.32,0-.84.05-.85-.31,0-.43.52-.38.85-.38,2.93-.01,5.87,0,8.8,0,.04,0,.08,0,.12,0,.26.05.64.04.62.39-.01.31-.39.3-.63.3-1.53.02-3.05,0-4.58,0Z"/>
    <path d="m164.5,199.38c-.12-.21.04-.33.16-.46.56-.62.86-1.36.99-2.17.05-.33.1-.66-.46-.44-.46.18-.8-.07-.96-.53-.16-.44.05-.77.41-.92.4-.16.8-.12,1.05.35.66,1.23.05,3.41-1.19,4.16Z"/>
  </g>
  <g>
    <path d="m277.8,191.44c.29.08.56.13.81.21,1.07.38,1.97,1.36,1.66,2.64-.18.73-.59,1.33-1.13,1.83-.94.87-2.08,1.3-3.34,1.33-2.07.04-4.14.01-6.21.01-.12,0-.28.05-.29-.16-.02-.19.06-.3.25-.35.28-.06.56-.02.84-.03.52-.01.7-.11.84-.63.35-1.31.68-2.62,1.01-3.93.44-1.77.87-3.54,1.3-5.31.11-.43.09-.48-.35-.55-.26-.04-.54-.02-.81-.03-.15,0-.32-.02-.33-.22-.01-.19.14-.25.3-.27.12-.01.24-.04.36-.04,1.8,0,3.6-.01,5.4,0,.59,0,1.17.1,1.71.34,1.53.68,1.91,2.26.81,3.53-.72.83-1.64,1.35-2.73,1.53-.01,0-.03.02-.08.07Zm-2.29.2s0,0,0,0c-.49,0-.98.02-1.47,0-.3-.02-.42.07-.49.36-.36,1.55-.73,3.09-1.11,4.64-.06.24.02.31.24.3.83,0,1.66,0,2.49,0,.26,0,.52.01.78-.03,1.5-.24,2.78-1.6,2.86-3.11.06-1.29-.66-2.23-2.01-2.17-.43.02-.86,0-1.29,0Zm1.44-5.15c-.58,0-1.03,0-1.48,0-.32,0-.52.1-.6.44-.35,1.38-.71,2.75-1.07,4.13-.05.18.02.25.21.25.42,0,.84,0,1.26,0,.59-.01,1.18.06,1.76-.06,1.5-.3,2.63-1.49,2.73-2.94.05-.73-.35-1.62-1.27-1.77-.56-.09-1.12,0-1.54-.04Z"/>
    <path d="m305.19,191.92c.03-1.09.09-2.27.53-3.39.4-1.04,1.05-1.83,2.16-2.15,1.49-.42,3.11.33,3.72,1.83.37.89.52,1.82.6,2.78.09,1.12.03,2.23-.13,3.34-.09.65-.3,1.28-.63,1.86-.65,1.15-1.66,1.7-2.95,1.62-1.26-.08-2.15-.77-2.66-1.93-.54-1.23-.65-2.54-.65-3.96Zm5.69.03c.02-.71.05-1.35,0-1.99-.05-.71-.06-1.44-.36-2.11-.35-.79-.95-1.23-1.81-1.24-.84,0-1.4.44-1.75,1.18-.2.42-.3.87-.33,1.33-.13,1.89-.1,3.78,0,5.66.03.57.15,1.14.43,1.66.35.65.89,1.02,1.63,1.04.77.02,1.33-.35,1.69-1.02.31-.58.36-1.23.44-1.88.1-.9.1-1.8.06-2.62Z"/>
    <path d="m293.27,191.95c-1.65,0-3.3,0-4.94,0-.17,0-.34,0-.47-.13-.07-.07-.14-.15-.11-.26.03-.12.12-.18.24-.2.18-.02.36-.05.54-.05,3.21,0,6.41,0,9.62,0,.16,0,.32.03.47.05.13.02.23.08.26.21.03.15-.07.24-.18.31-.14.08-.29.07-.44.07-1.66,0-3.32,0-4.97,0Z"/>
    <path d="m293.31,195.24c-1.56,0-3.12,0-4.67,0-.19,0-.38-.01-.57-.03-.17-.02-.32-.1-.33-.29,0-.18.15-.23.3-.29.11-.04.21-.04.32-.04,3.3,0,6.59,0,9.89,0,.17,0,.34.03.49.12.09.05.17.12.14.24-.02.1-.08.18-.18.22-.18.07-.37.07-.56.07-1.61,0-3.22,0-4.82,0Z"/>
  </g>
  <g>
    <line class="cls-3" x1="45.42" y1="148.25" x2="84.11" y2="186.94"/>
    <polygon class="cls-7" points="80.19 189.08 88.47 191.3 86.25 183.02 80.19 189.08"/>
  </g>
  <g>
    <line class="cls-3" x1="47.29" y1="115.96" x2="84.11" y2="79.14"/>
    <polygon class="cls-7" points="86.25 83.06 88.47 74.78 80.19 77 86.25 83.06"/>
  </g>
  <g>
    <line class="cls-3" x1="345.58" y1="191.3" x2="384.27" y2="152.61"/>
    <polygon class="cls-7" points="386.41 156.53 388.63 148.25 380.35 150.47 386.41 156.53"/>
  </g>
  <g>
    <line class="cls-3" x1="347.45" y1="74.78" x2="384.27" y2="111.6"/>
    <polygon class="cls-7" points="380.35 113.75 388.63 115.96 386.41 107.68 380.35 113.75"/>
  </g>
  <polygon class="cls-6" points="381.27 128.61 371.93 128.61 371.93 119.27 364.15 119.27 364.15 128.61 354.81 128.61 354.81 136.39 364.15 136.39 364.15 145.73 371.93 145.73 371.93 136.39 381.27 136.39 381.27 128.61"/>
</svg>