<?xml version="1.0" encoding="UTF-8"?>
<svg id="Layer_1" data-name="Layer 1" xmlns="http://www.w3.org/2000/svg" viewBox="0 0 453.17 213.51">
  <defs>
    <style>
      .cls-1, .cls-2, .cls-3, .cls-4, .cls-5, .cls-6, .cls-7, .cls-8, .cls-9, .cls-10, .cls-11, .cls-12, .cls-13, .cls-14, .cls-15, .cls-16, .cls-17, .cls-18, .cls-19, .cls-20 {
        stroke-miterlimit: 10;
      }

      .cls-1, .cls-2, .cls-4, .cls-5, .cls-10, .cls-11, .cls-13, .cls-14, .cls-15, .cls-16, .cls-20 {
        stroke: #231f20;
      }

      .cls-1, .cls-3, .cls-7, .cls-8, .cls-12, .cls-17, .cls-18, .cls-19 {
        fill: none;
      }

      .cls-2 {
        fill: #dbb2a5;
      }

      .cls-3 {
        stroke: #000;
      }

      .cls-4, .cls-6 {
        fill: #b9e0c9;
      }

      .cls-5 {
        fill: #e8a97b;
      }

      .cls-21 {
        fill: #939598;
      }

      .cls-6 {
        stroke: #84ac97;
      }

      .cls-7 {
        stroke: #fff;
      }

      .cls-8 {
        stroke-dasharray: 0 0 12.24 12.24;
      }

      .cls-8, .cls-12, .cls-17, .cls-18 {
        stroke: #939598;
      }

      .cls-9 {
        fill: #e6e7e8;
        stroke: #010101;
      }

      .cls-10, .cls-22 {
        fill: #231f20;
      }

      .cls-11 {
        fill: #d37bb2;
      }

      .cls-13 {
        fill: #8ccea9;
      }

      .cls-14 {
        fill: #e1accf;
      }

      .cls-23 {
        fill: #808285;
      }

      .cls-15 {
        fill: #f0c079;
      }

      .cls-16 {
        fill: #4c8263;
      }

      .cls-17 {
        stroke-dasharray: 0 0 7.54 7.54;
      }

      .cls-18 {
        stroke-dasharray: 0 0 11.38 11.38;
      }

      .cls-19 {
        stroke: #808285;
      }

      .cls-20 {
        fill: #a7a9ac;
      }

      .cls-24 {
        fill: #010101;
      }
    </style>
  </defs>
  <rect class="cls-9" x="358.88" y="2.92" width="72.92" height="202.41"/>
  <rect class="cls-4" x="77.31" y="2.92" width="271.39" height="157.53"/>
  <rect class="cls-6" x="132.89" y="48.19" width="195.87" height="108.89"/>
  <rect class="cls-2" x="6.64" y="2.92" width="66.89" height="156.6"/>
  <g>
    <line class="cls-1" x1="307.76" y1="106.76" x2="41.44" y2="106.76"/>
    <polygon class="cls-22" points="42.42 103.41 36.63 106.76 42.42 110.1 42.42 103.41"/>
  </g>
  <g>
    <line class="cls-1" x1="35.21" y1="30.04" x2="325.77" y2="30.04"/>
    <polygon class="cls-22" points="324.79 33.38 330.58 30.04 324.79 26.7 324.79 33.38"/>
  </g>
  <rect class="cls-6" x="157.01" y="22.96" width="109.08" height="13.45"/>
  <g>
    <g>
      <line class="cls-12" x1="240.31" y1="83.39" x2="234.31" y2="83.39"/>
      <line class="cls-17" x1="226.77" y1="83.39" x2="215.46" y2="83.39"/>
      <line class="cls-12" x1="211.68" y1="83.39" x2="205.68" y2="83.39"/>
      <polygon class="cls-21" points="206.39 81 202.24 83.39 206.39 85.79 206.39 81"/>
    </g>
    <g>
      <line class="cls-12" x1="267.72" y1="75.13" x2="261.72" y2="75.13"/>
      <line class="cls-18" x1="250.34" y1="75.13" x2="187.77" y2="75.13"/>
      <line class="cls-12" x1="182.08" y1="75.13" x2="176.08" y2="75.13"/>
      <polygon class="cls-21" points="176.78 72.74 172.63 75.13 176.78 77.53 176.78 72.74"/>
    </g>
    <g>
      <line class="cls-12" x1="294.58" y1="68.94" x2="288.58" y2="68.94"/>
      <line class="cls-8" x1="276.34" y1="68.94" x2="160.04" y2="68.94"/>
      <line class="cls-12" x1="153.92" y1="68.94" x2="147.92" y2="68.94"/>
      <polygon class="cls-21" points="148.62 66.54 144.47 68.94 148.62 71.33 148.62 66.54"/>
    </g>
    <g>
      <line class="cls-12" x1="240.04" y1="132.46" x2="234.04" y2="132.46"/>
      <line class="cls-17" x1="226.5" y1="132.46" x2="215.19" y2="132.46"/>
      <line class="cls-12" x1="211.42" y1="132.46" x2="205.42" y2="132.46"/>
      <polygon class="cls-21" points="206.12 130.07 201.97 132.46 206.12 134.85 206.12 130.07"/>
    </g>
    <g>
      <line class="cls-12" x1="267.45" y1="140.72" x2="261.45" y2="140.72"/>
      <line class="cls-18" x1="250.07" y1="140.72" x2="187.5" y2="140.72"/>
      <line class="cls-12" x1="181.81" y1="140.72" x2="175.81" y2="140.72"/>
      <polygon class="cls-21" points="176.51 138.33 172.37 140.72 176.51 143.11 176.51 138.33"/>
    </g>
    <g>
      <line class="cls-12" x1="294.32" y1="146.91" x2="288.32" y2="146.91"/>
      <line class="cls-8" x1="276.07" y1="146.91" x2="159.77" y2="146.91"/>
      <line class="cls-12" x1="153.65" y1="146.91" x2="147.65" y2="146.91"/>
      <polygon class="cls-21" points="148.35 144.52 144.21 146.91 148.35 149.31 148.35 144.52"/>
    </g>
  </g>
  <g>
    <polyline class="cls-1" points="309.72 148.56 197.04 148.56 157.97 148.56 157.97 133.91"/>
    <line class="cls-1" x1="197.04" y1="125.62" x2="197.04" y2="148.56"/>
    <line class="cls-1" x1="247.05" y1="148.56" x2="247.05" y2="120.84"/>
    <line class="cls-1" x1="285.13" y1="148.56" x2="285.13" y2="127.11"/>
  </g>
  <rect class="cls-13" x="12.75" y="18.55" width="22.46" height="22.46"/>
  <rect class="cls-5" x="12.75" y="95.52" width="22.46" height="22.46"/>
  <polygon class="cls-13" points="44.98 6.42 69.4 18.55 69.4 41.02 44.98 53.15 44.98 6.42"/>
  <polygon class="cls-5" points="44.98 83.39 69.4 95.52 69.4 117.99 44.98 130.12 44.98 83.39"/>
  <rect class="cls-16" x="81.69" y="85.36" width="9.38" height="42.82"/>
  <rect class="cls-16" x="121.25" y="85.36" width="9.38" height="42.82"/>
  <rect class="cls-16" x="81.69" y="8.63" width="9.38" height="42.82"/>
  <rect class="cls-16" x="333.31" y="8.63" width="9.38" height="42.82"/>
  <rect class="cls-16" x="333.31" y="85.36" width="9.38" height="42.82"/>
  <polygon class="cls-11" points="219.26 125.67 135.93 145.24 135.93 69.39 219.26 90.19 219.26 125.67"/>
  <polygon class="cls-11" points="224.43 125.67 307.76 145.24 307.76 69.39 224.43 90.19 224.43 125.67"/>
  <polygon class="cls-11" points="363.49 189.29 386.33 198.26 386.33 133.83 363.49 143.21 363.49 189.29"/>
  <rect class="cls-15" x="182.01" y="90.55" width="29.36" height="32.4"/>
  <rect class="cls-15" x="143.27" y="90.55" width="29.36" height="32.4"/>
  <rect class="cls-15" x="270.1" y="90.55" width="29.36" height="32.4"/>
  <rect class="cls-15" x="231.36" y="90.55" width="29.36" height="32.4"/>
  <rect class="cls-2" x="369.61" y="20.45" width="46.08" height="27.73"/>
  <rect class="cls-15" x="400.69" y="41.02" width="24.79" height="24.79"/>
  <rect class="cls-13" x="369.61" y="62.87" width="51.79" height="32.66"/>
  <rect class="cls-14" x="380.21" y="90.55" width="37.52" height="22.47"/>
  <g>
    <path d="m158.09,105c0-.24,0-.48,0-.72,0-.15-.04-.18-.19-.15-.38.08-.76.17-1.15.19-1.42.05-2.98-.48-3.81-2.01-.8-1.45-.77-2.97-.23-4.48.86-2.38,2.47-4.11,4.85-5.04,1.26-.49,2.55-.56,3.82.08,1.19.6,1.86,1.6,2.1,2.86.42,2.19-.34,4.06-1.67,5.75-.79,1.01-1.77,1.79-2.95,2.29-.17.07-.2.18-.16.33.06.23.11.46.18.69.21.65.71.91,1.38.72.61-.17,1.06-.53,1.33-1.11.07-.15.13-.29.21-.43.05-.09.11-.19.23-.15.12.04.1.17.08.26-.06.38-.2.73-.37,1.07-.33.66-.71,1.27-1.35,1.68-.33.21-.7.32-1.08.29-.85-.07-1.13-.6-1.21-1.41-.02-.24,0-.48,0-.72Zm4.1-8.65c-.02-.38-.02-.74-.08-1.11-.27-1.77-1.91-2.82-3.64-2.31-1.48.43-2.54,1.42-3.31,2.7-.95,1.57-1.46,3.28-1.4,5.15.04,1.18.43,2.16,1.46,2.81.09.06.17.18.28.11.11-.07.07-.2.05-.31-.09-.81.35-1.33,1-1.69.59-.33,1.17-.18,1.6.34.25.31.31.68.39,1.05.05.21.14.22.29.11.22-.16.44-.31.64-.49,1.86-1.72,2.57-3.92,2.71-6.36Zm-5.37,7.58c.11,0,.32,0,.53-.06.95-.28.89-.13.79-1.17-.05-.56-.39-.82-.95-.82-.61,0-1,.31-1.23.86-.31.75-.03,1.19.87,1.19Z"/>
    <g>
      <path d="m156.82,109.65c.44,0,.88,0,1.32,0,.1,0,.24-.01.25.15.01.14-.05.23-.2.25-1.53.17-2.61,1.17-3.76,2.04-.72.54-1.42,1.11-2.14,1.65-.2.15-.24.28-.14.53.76,1.73,1.52,3.47,2.25,5.22.23.56.55.9,1.19.89.12,0,.34-.01.34.2,0,.22-.2.24-.35.24-.28,0-.56-.02-.84-.04-.81-.04-1.62.01-2.42.06-.09,0-.18,0-.27,0-.12-.01-.18-.1-.2-.2-.03-.12.07-.18.17-.21.19-.05.39-.08.58-.12.42-.1.53-.29.39-.7-.39-1.09-.9-2.13-1.34-3.19-.19-.45-.4-.89-.58-1.35-.08-.22-.18-.24-.34-.11-.52.4-1.02.84-1.57,1.2-.57.37-.83.85-.94,1.5-.12.68-.33,1.35-.5,2.03-.12.5-.08.54.43.64.26.05.52.03.78.05.1,0,.24-.02.25.14,0,.13-.06.24-.18.28-.07.03-.16.04-.23.03-1.3-.09-2.6-.06-3.89-.01-.1,0-.2,0-.29-.03-.09-.03-.13-.13-.11-.22.02-.11.09-.16.21-.17.35-.03.7-.02,1.04-.07.36-.05.55-.24.64-.56.23-.88.45-1.77.67-2.65.54-2.17,1.07-4.34,1.62-6.51.07-.28,0-.41-.28-.46-.3-.05-.6-.04-.89-.05-.14,0-.35.02-.35-.19,0-.2.19-.24.36-.23.93,0,1.86.02,2.79.03.45,0,.9-.08,1.35-.01.12.02.26,0,.26.17,0,.16-.13.2-.27.2-.39.02-.78,0-1.16.1-.25.07-.4.2-.46.45-.44,1.76-.88,3.51-1.32,5.26-.02.07-.05.16,0,.2.1.06.18-.03.26-.09.94-.74,1.89-1.48,2.83-2.21,1.14-.89,2.29-1.77,3.44-2.65.17-.14.34-.29.41-.51.07-.22.05-.4-.23-.45-.08-.02-.15-.04-.23-.06-.13-.03-.2-.11-.2-.26,0-.17.13-.15.24-.16.54-.06,1.08.05,1.62-.03Z"/>
      <path d="m163.88,119.32c.73-1.17,1.44-2.28,2.14-3.39.95-1.51,1.9-3.03,2.85-4.54.13-.21.25-.43.27-.69.02-.3-.11-.48-.4-.53-.14-.03-.28-.04-.41-.07-.13-.03-.16-.13-.16-.25,0-.12.08-.15.18-.16.1,0,.2-.03.3-.02.88.04,1.76.06,2.64,0,.13,0,.32-.02.33.17.02.18-.14.27-.3.27-1.01.01-1.58.66-2.06,1.43-1.28,2.04-2.56,4.07-3.84,6.11-.67,1.07-1.34,2.13-2.01,3.19-.04.06-.07.12-.12.17-.1.12-.22.22-.38.19-.17-.03-.24-.17-.26-.33-.08-.59-.16-1.18-.24-1.77-.14-1.05-.27-2.09-.41-3.14-.15-1.16-.29-2.33-.43-3.49-.08-.65-.16-1.3-.25-1.95-.02-.18-.1-.3-.31-.34-.26-.06-.52-.05-.77-.07-.14-.01-.3-.03-.3-.22,0-.2.17-.19.31-.19.89,0,1.78,0,2.67,0,.36,0,.72-.07,1.08-.01.11.02.28-.03.28.14,0,.14-.12.21-.26.25-.24.06-.5.02-.74.09-.48.12-.5.14-.49.61.02.79.19,1.56.27,2.34.11,1.04.26,2.07.39,3.11.12.95.28,1.89.37,2.84,0,.07.05.14.09.27Z"/>
    </g>
  </g>
  <rect class="cls-15" x="115.95" y="176.28" width="15.8" height="17.44"/>
  <g>
    <path d="m123.92,184.05c0-.13,0-.26,0-.39,0-.08-.02-.1-.1-.08-.2.04-.41.09-.62.1-.77.02-1.6-.26-2.05-1.08-.43-.78-.42-1.6-.12-2.41.46-1.28,1.33-2.21,2.61-2.71.68-.27,1.37-.3,2.05.04.64.32,1,.86,1.13,1.54.23,1.18-.18,2.19-.9,3.09-.43.54-.95.96-1.59,1.23-.09.04-.11.1-.09.18.03.12.06.25.1.37.11.35.38.49.74.39.33-.09.57-.29.72-.6.04-.08.07-.16.11-.23.02-.05.06-.1.12-.08.07.02.05.09.05.14-.03.2-.11.39-.2.58-.18.35-.38.69-.73.91-.18.11-.37.17-.58.15-.46-.04-.61-.32-.65-.76-.01-.13,0-.26,0-.39Zm2.21-4.65c0-.2-.01-.4-.04-.6-.15-.95-1.03-1.52-1.96-1.24-.8.23-1.37.76-1.78,1.45-.51.85-.79,1.77-.75,2.77.02.63.23,1.16.79,1.51.05.03.09.1.15.06.06-.04.04-.11.03-.17-.05-.44.19-.71.54-.91.32-.18.63-.1.86.18.14.17.17.37.21.57.02.11.08.12.16.06.12-.09.24-.17.34-.27,1-.92,1.38-2.11,1.46-3.42Zm-2.89,4.08c.06,0,.17,0,.28-.03.51-.15.48-.07.43-.63-.03-.3-.21-.44-.51-.44-.33,0-.54.17-.66.46-.17.4-.01.64.47.64Z"/>
    <g>
      <path d="m123.24,186.56c.24,0,.47,0,.71,0,.05,0,.13,0,.14.08,0,.07-.03.13-.11.13-.82.09-1.4.63-2.02,1.1-.39.29-.76.6-1.15.89-.11.08-.13.15-.07.28.41.93.82,1.87,1.21,2.81.12.3.3.48.64.48.07,0,.18,0,.18.11,0,.12-.11.13-.19.13-.15,0-.3-.01-.45-.02-.44-.02-.87,0-1.3.03-.05,0-.1,0-.15,0-.06,0-.09-.05-.11-.11-.01-.07.04-.1.09-.11.1-.03.21-.04.31-.07.22-.05.29-.16.21-.37-.21-.59-.49-1.14-.72-1.72-.1-.24-.22-.48-.31-.72-.04-.12-.1-.13-.19-.06-.28.22-.55.45-.85.64-.3.2-.44.46-.5.81-.06.37-.18.73-.27,1.09-.07.27-.04.29.23.34.14.03.28.02.42.03.06,0,.13-.01.13.08,0,.07-.03.13-.1.15-.04.01-.08.02-.13.02-.7-.05-1.4-.03-2.1,0-.05,0-.11,0-.16-.02-.05-.02-.07-.07-.06-.12.01-.06.05-.09.11-.09.19-.02.37-.01.56-.04.2-.03.3-.13.34-.3.12-.48.24-.95.36-1.43.29-1.17.58-2.34.87-3.51.04-.15,0-.22-.15-.25-.16-.03-.32-.02-.48-.03-.08,0-.19,0-.19-.1,0-.11.1-.13.19-.13.5,0,1,0,1.5.02.24,0,.48-.04.72,0,.06,0,.14,0,.14.09,0,.09-.07.11-.15.11-.21.01-.42,0-.62.06-.13.04-.21.11-.25.24-.24.94-.47,1.89-.71,2.83,0,.04-.03.09,0,.11.06.03.1-.02.14-.05.51-.4,1.02-.8,1.53-1.19.62-.48,1.23-.95,1.85-1.43.09-.07.18-.16.22-.27.04-.12.02-.21-.12-.24-.04,0-.08-.02-.12-.03-.07-.02-.11-.06-.11-.14,0-.09.07-.08.13-.09.29-.03.58.02.87-.01Z"/>
      <path d="m127.04,191.76c.4-.63.77-1.23,1.15-1.83.51-.81,1.02-1.63,1.53-2.44.07-.11.13-.23.14-.37.01-.16-.06-.26-.21-.29-.07-.01-.15-.02-.22-.04-.07-.02-.09-.07-.08-.13,0-.07.04-.08.09-.08.05,0,.11-.01.16-.01.47.02.95.03,1.42,0,.07,0,.17-.01.18.09,0,.1-.07.14-.16.14-.54,0-.85.35-1.11.77-.69,1.1-1.38,2.19-2.07,3.29-.36.57-.72,1.15-1.08,1.72-.02.03-.04.07-.06.09-.05.07-.12.12-.21.1-.09-.02-.13-.09-.14-.18-.04-.32-.09-.64-.13-.95-.07-.56-.15-1.13-.22-1.69-.08-.63-.16-1.25-.23-1.88-.04-.35-.09-.7-.13-1.05-.01-.1-.06-.16-.17-.19-.14-.03-.28-.02-.42-.04-.08,0-.16-.02-.16-.12,0-.11.09-.1.17-.1.48,0,.96,0,1.44,0,.19,0,.39-.04.58,0,.06,0,.15-.02.15.08,0,.07-.07.11-.14.13-.13.03-.27.01-.4.05-.26.07-.27.08-.27.33,0,.42.1.84.15,1.26.06.56.14,1.12.21,1.67.06.51.15,1.02.2,1.53,0,.04.03.08.05.14Z"/>
    </g>
  </g>
  <g>
    <path d="m196.74,105c0-.24,0-.48,0-.72,0-.15-.04-.18-.19-.15-.38.08-.76.17-1.15.19-1.42.05-2.98-.48-3.81-2.01-.8-1.45-.77-2.97-.23-4.48.86-2.38,2.47-4.11,4.85-5.04,1.26-.49,2.55-.56,3.82.08,1.19.6,1.86,1.6,2.1,2.86.42,2.19-.34,4.06-1.67,5.75-.79,1.01-1.77,1.79-2.95,2.29-.17.07-.2.18-.16.33.06.23.11.46.18.69.21.65.71.91,1.38.72.61-.17,1.06-.53,1.33-1.11.07-.15.13-.29.21-.43.05-.09.11-.19.23-.15.12.04.1.17.08.26-.06.38-.2.73-.37,1.07-.33.66-.71,1.27-1.35,1.68-.33.21-.7.32-1.08.29-.85-.07-1.13-.6-1.21-1.41-.02-.24,0-.48,0-.72Zm4.1-8.65c-.02-.38-.02-.74-.08-1.11-.27-1.77-1.91-2.82-3.64-2.31-1.48.43-2.54,1.42-3.31,2.7-.95,1.57-1.46,3.28-1.4,5.15.04,1.18.43,2.16,1.46,2.81.09.06.17.18.28.11.11-.07.07-.2.05-.31-.09-.81.35-1.33,1-1.69.59-.33,1.17-.18,1.6.34.25.31.31.68.39,1.05.05.21.14.22.29.11.22-.16.44-.31.64-.49,1.86-1.72,2.57-3.92,2.71-6.36Zm-5.37,7.58c.11,0,.32,0,.53-.06.95-.28.89-.13.79-1.17-.05-.56-.39-.82-.95-.82-.61,0-1,.31-1.23.86-.31.75-.03,1.19.87,1.19Z"/>
    <g>
      <path d="m195.47,109.65c.44,0,.88,0,1.32,0,.1,0,.24-.01.25.15.01.14-.05.23-.2.25-1.53.17-2.61,1.17-3.76,2.04-.72.54-1.42,1.11-2.14,1.65-.2.15-.24.28-.14.53.76,1.73,1.52,3.47,2.25,5.22.23.56.55.9,1.19.89.12,0,.34-.01.34.2,0,.22-.2.24-.35.24-.28,0-.56-.02-.84-.04-.81-.04-1.62.01-2.42.06-.09,0-.18,0-.27,0-.12-.01-.18-.1-.2-.2-.03-.12.07-.18.17-.21.19-.05.39-.08.58-.12.42-.1.53-.29.39-.7-.39-1.09-.9-2.13-1.34-3.19-.19-.45-.4-.89-.58-1.35-.08-.22-.18-.24-.34-.11-.52.4-1.02.84-1.57,1.2-.57.37-.83.85-.94,1.5-.12.68-.33,1.35-.5,2.03-.12.5-.08.54.43.64.26.05.52.03.78.05.1,0,.24-.02.25.14,0,.13-.06.24-.18.28-.07.03-.16.04-.23.03-1.3-.09-2.6-.06-3.89-.01-.1,0-.2,0-.29-.03-.09-.03-.13-.13-.11-.22.02-.11.09-.16.21-.17.35-.03.7-.02,1.04-.07.36-.05.55-.24.64-.56.23-.88.45-1.77.67-2.65.54-2.17,1.07-4.34,1.62-6.51.07-.28,0-.41-.28-.46-.3-.05-.6-.04-.89-.05-.14,0-.35.02-.35-.19,0-.2.19-.24.36-.23.93,0,1.86.02,2.79.03.45,0,.9-.08,1.35-.01.12.02.26,0,.26.17,0,.16-.13.2-.27.2-.39.02-.78,0-1.16.1-.25.07-.4.2-.46.45-.44,1.76-.88,3.51-1.32,5.26-.02.07-.05.16,0,.2.1.06.18-.03.26-.09.94-.74,1.89-1.48,2.83-2.21,1.14-.89,2.29-1.77,3.44-2.65.17-.14.34-.29.41-.51.07-.22.05-.4-.23-.45-.08-.02-.15-.04-.23-.06-.13-.03-.2-.11-.2-.26,0-.17.13-.15.24-.16.54-.06,1.08.05,1.62-.03Z"/>
      <path d="m202.53,119.32c.73-1.17,1.44-2.28,2.14-3.39.95-1.51,1.9-3.03,2.85-4.54.13-.21.25-.43.27-.69.02-.3-.11-.48-.4-.53-.14-.03-.28-.04-.41-.07-.13-.03-.16-.13-.16-.25,0-.12.08-.15.18-.16.1,0,.2-.03.3-.02.88.04,1.76.06,2.64,0,.13,0,.32-.02.33.17.02.18-.14.27-.3.27-1.01.01-1.58.66-2.06,1.43-1.28,2.04-2.56,4.07-3.84,6.11-.67,1.07-1.34,2.13-2.01,3.19-.04.06-.07.12-.12.17-.1.12-.22.22-.38.19-.17-.03-.24-.17-.26-.33-.08-.59-.16-1.18-.24-1.77-.14-1.05-.27-2.09-.41-3.14-.15-1.16-.29-2.33-.43-3.49-.08-.65-.16-1.3-.25-1.95-.02-.18-.1-.3-.31-.34-.26-.06-.52-.05-.77-.07-.14-.01-.3-.03-.3-.22,0-.2.17-.19.31-.19.89,0,1.78,0,2.67,0,.36,0,.72-.07,1.08-.01.11.02.28-.03.28.14,0,.14-.12.21-.26.25-.24.06-.5.02-.74.09-.48.12-.5.14-.49.61.02.79.19,1.56.27,2.34.11,1.04.26,2.07.39,3.11.12.95.28,1.89.37,2.84,0,.07.05.14.09.27Z"/>
    </g>
  </g>
  <g>
    <path d="m246.08,105c0-.24,0-.48,0-.72,0-.15-.04-.18-.19-.15-.38.08-.76.17-1.15.19-1.42.05-2.98-.48-3.81-2.01-.8-1.45-.77-2.97-.23-4.48.86-2.38,2.47-4.11,4.85-5.04,1.26-.49,2.55-.56,3.82.08,1.19.6,1.86,1.6,2.1,2.86.42,2.19-.34,4.06-1.67,5.75-.79,1.01-1.77,1.79-2.95,2.29-.17.07-.2.18-.16.33.06.23.11.46.18.69.21.65.71.91,1.38.72.61-.17,1.06-.53,1.33-1.11.07-.15.13-.29.21-.43.05-.09.11-.19.23-.15.12.04.1.17.08.26-.06.38-.2.73-.37,1.07-.33.66-.71,1.27-1.35,1.68-.33.21-.7.32-1.08.29-.85-.07-1.13-.6-1.21-1.41-.02-.24,0-.48,0-.72Zm4.1-8.65c-.02-.38-.02-.74-.08-1.11-.27-1.77-1.91-2.82-3.64-2.31-1.48.43-2.54,1.42-3.31,2.7-.95,1.57-1.46,3.28-1.4,5.15.04,1.18.43,2.16,1.46,2.81.09.06.17.18.28.11.11-.07.07-.2.05-.31-.09-.81.35-1.33,1-1.69.59-.33,1.17-.18,1.6.34.25.31.31.68.39,1.05.05.21.14.22.29.11.22-.16.44-.31.64-.49,1.86-1.72,2.57-3.92,2.71-6.36Zm-5.37,7.58c.11,0,.32,0,.53-.06.95-.28.89-.13.79-1.17-.05-.56-.39-.82-.95-.82-.61,0-1,.31-1.23.86-.31.75-.03,1.19.87,1.19Z"/>
    <g>
      <path d="m244.82,109.65c.44,0,.88,0,1.32,0,.1,0,.24-.01.25.15.01.14-.05.23-.2.25-1.53.17-2.61,1.17-3.76,2.04-.72.54-1.42,1.11-2.14,1.65-.2.15-.24.28-.14.53.76,1.73,1.52,3.47,2.25,5.22.23.56.55.9,1.19.89.12,0,.34-.01.34.2,0,.22-.2.24-.35.24-.28,0-.56-.02-.84-.04-.81-.04-1.62.01-2.42.06-.09,0-.18,0-.27,0-.12-.01-.18-.1-.2-.2-.03-.12.07-.18.17-.21.19-.05.39-.08.58-.12.42-.1.53-.29.39-.7-.39-1.09-.9-2.13-1.34-3.19-.19-.45-.4-.89-.58-1.35-.08-.22-.18-.24-.34-.11-.52.4-1.02.84-1.57,1.2-.57.37-.83.85-.94,1.5-.12.68-.33,1.35-.5,2.03-.12.5-.08.54.43.64.26.05.52.03.78.05.1,0,.24-.02.25.14,0,.13-.06.24-.18.28-.07.03-.16.04-.23.03-1.3-.09-2.6-.06-3.89-.01-.1,0-.2,0-.29-.03-.09-.03-.13-.13-.11-.22.02-.11.09-.16.21-.17.35-.03.7-.02,1.04-.07.36-.05.55-.24.64-.56.23-.88.45-1.77.67-2.65.54-2.17,1.07-4.34,1.62-6.51.07-.28,0-.41-.28-.46-.3-.05-.6-.04-.89-.05-.14,0-.35.02-.35-.19,0-.2.19-.24.36-.23.93,0,1.86.02,2.79.03.45,0,.9-.08,1.35-.01.12.02.26,0,.26.17,0,.16-.13.2-.27.2-.39.02-.78,0-1.16.1-.25.07-.4.2-.46.45-.44,1.76-.88,3.51-1.32,5.26-.02.07-.05.16,0,.2.1.06.18-.03.26-.09.94-.74,1.89-1.48,2.83-2.21,1.14-.89,2.29-1.77,3.44-2.65.17-.14.34-.29.41-.51.07-.22.05-.4-.23-.45-.08-.02-.15-.04-.23-.06-.13-.03-.2-.11-.2-.26,0-.17.13-.15.24-.16.54-.06,1.08.05,1.62-.03Z"/>
      <path d="m251.88,119.32c.73-1.17,1.44-2.28,2.14-3.39.95-1.51,1.9-3.03,2.85-4.54.13-.21.25-.43.27-.69.02-.3-.11-.48-.4-.53-.14-.03-.28-.04-.41-.07-.13-.03-.16-.13-.16-.25,0-.12.08-.15.18-.16.1,0,.2-.03.3-.02.88.04,1.76.06,2.64,0,.13,0,.32-.02.33.17.02.18-.14.27-.3.27-1.01.01-1.58.66-2.06,1.43-1.28,2.04-2.56,4.07-3.84,6.11-.67,1.07-1.34,2.13-2.01,3.19-.04.06-.07.12-.12.17-.1.12-.22.22-.38.19-.17-.03-.24-.17-.26-.33-.08-.59-.16-1.18-.24-1.77-.14-1.05-.27-2.09-.41-3.14-.15-1.16-.29-2.33-.43-3.49-.08-.65-.16-1.3-.25-1.95-.02-.18-.1-.3-.31-.34-.26-.06-.52-.05-.77-.07-.14-.01-.3-.03-.3-.22,0-.2.17-.19.31-.19.89,0,1.78,0,2.67,0,.36,0,.72-.07,1.08-.01.11.02.28-.03.28.14,0,.14-.12.21-.26.25-.24.06-.5.02-.74.09-.48.12-.5.14-.49.61.02.79.19,1.56.27,2.34.11,1.04.26,2.07.39,3.11.12.95.28,1.89.37,2.84,0,.07.05.14.09.27Z"/>
    </g>
  </g>
  <g>
    <path d="m284.83,105c0-.24,0-.48,0-.72,0-.15-.04-.18-.19-.15-.38.08-.76.17-1.15.19-1.42.05-2.98-.48-3.81-2.01-.8-1.45-.77-2.97-.23-4.48.86-2.38,2.47-4.11,4.85-5.04,1.26-.49,2.55-.56,3.82.08,1.19.6,1.86,1.6,2.1,2.86.42,2.19-.34,4.06-1.67,5.75-.79,1.01-1.77,1.79-2.95,2.29-.17.07-.2.18-.16.33.06.23.11.46.18.69.21.65.71.91,1.38.72.61-.17,1.06-.53,1.33-1.11.07-.15.13-.29.21-.43.05-.09.11-.19.23-.15.12.04.1.17.08.26-.06.38-.2.73-.37,1.07-.33.66-.71,1.27-1.35,1.68-.33.21-.7.32-1.08.29-.85-.07-1.13-.6-1.21-1.41-.02-.24,0-.48,0-.72Zm4.1-8.65c-.02-.38-.02-.74-.08-1.11-.27-1.77-1.91-2.82-3.64-2.31-1.48.43-2.54,1.42-3.31,2.7-.95,1.57-1.46,3.28-1.4,5.15.04,1.18.43,2.16,1.46,2.81.09.06.17.18.28.11.11-.07.07-.2.05-.31-.09-.81.35-1.33,1-1.69.59-.33,1.17-.18,1.6.34.25.31.31.68.39,1.05.05.21.14.22.29.11.22-.16.44-.31.64-.49,1.86-1.72,2.57-3.92,2.71-6.36Zm-5.37,7.58c.11,0,.32,0,.53-.06.95-.28.89-.13.79-1.17-.05-.56-.39-.82-.95-.82-.61,0-1,.31-1.23.86-.31.75-.03,1.19.87,1.19Z"/>
    <g>
      <path d="m283.56,109.65c.44,0,.88,0,1.32,0,.1,0,.24-.01.25.15.01.14-.05.23-.2.25-1.53.17-2.61,1.17-3.76,2.04-.72.54-1.42,1.11-2.14,1.65-.2.15-.24.28-.14.53.76,1.73,1.52,3.47,2.25,5.22.23.56.55.9,1.19.89.12,0,.34-.01.34.2,0,.22-.2.24-.35.24-.28,0-.56-.02-.84-.04-.81-.04-1.62.01-2.42.06-.09,0-.18,0-.27,0-.12-.01-.18-.1-.2-.2-.03-.12.07-.18.17-.21.19-.05.39-.08.58-.12.42-.1.53-.29.39-.7-.39-1.09-.9-2.13-1.34-3.19-.19-.45-.4-.89-.58-1.35-.08-.22-.18-.24-.34-.11-.52.4-1.02.84-1.57,1.2-.57.37-.83.85-.94,1.5-.12.68-.33,1.35-.5,2.03-.12.5-.08.54.43.64.26.05.52.03.78.05.1,0,.24-.02.25.14,0,.13-.06.24-.18.28-.07.03-.16.04-.23.03-1.3-.09-2.6-.06-3.89-.01-.1,0-.2,0-.29-.03-.09-.03-.13-.13-.11-.22.02-.11.09-.16.21-.17.35-.03.7-.02,1.04-.07.36-.05.55-.24.64-.56.23-.88.45-1.77.67-2.65.54-2.17,1.07-4.34,1.62-6.51.07-.28,0-.41-.28-.46-.3-.05-.6-.04-.89-.05-.14,0-.35.02-.35-.19,0-.2.19-.24.36-.23.93,0,1.86.02,2.79.03.45,0,.9-.08,1.35-.01.12.02.26,0,.26.17,0,.16-.13.2-.27.2-.39.02-.78,0-1.16.1-.25.07-.4.2-.46.45-.44,1.76-.88,3.51-1.32,5.26-.02.07-.05.16,0,.2.1.06.18-.03.26-.09.94-.74,1.89-1.48,2.83-2.21,1.14-.89,2.29-1.77,3.44-2.65.17-.14.34-.29.41-.51.07-.22.05-.4-.23-.45-.08-.02-.15-.04-.23-.06-.13-.03-.2-.11-.2-.26,0-.17.13-.15.24-.16.54-.06,1.08.05,1.62-.03Z"/>
      <path d="m290.62,119.32c.73-1.17,1.44-2.28,2.14-3.39.95-1.51,1.9-3.03,2.85-4.54.13-.21.25-.43.27-.69.02-.3-.11-.48-.4-.53-.14-.03-.28-.04-.41-.07-.13-.03-.16-.13-.16-.25,0-.12.08-.15.18-.16.1,0,.2-.03.3-.02.88.04,1.76.06,2.64,0,.13,0,.32-.02.33.17.02.18-.14.27-.3.27-1.01.01-1.58.66-2.06,1.43-1.28,2.04-2.56,4.07-3.84,6.11-.67,1.07-1.34,2.13-2.01,3.19-.04.06-.07.12-.12.17-.1.12-.22.22-.38.19-.17-.03-.24-.17-.26-.33-.08-.59-.16-1.18-.24-1.77-.14-1.05-.27-2.09-.41-3.14-.15-1.16-.29-2.33-.43-3.49-.08-.65-.16-1.3-.25-1.95-.02-.18-.1-.3-.31-.34-.26-.06-.52-.05-.77-.07-.14-.01-.3-.03-.3-.22,0-.2.17-.19.31-.19.89,0,1.78,0,2.67,0,.36,0,.72-.07,1.08-.01.11.02.28-.03.28.14,0,.14-.12.21-.26.25-.24.06-.5.02-.74.09-.48.12-.5.14-.49.61.02.79.19,1.56.27,2.34.11,1.04.26,2.07.39,3.11.12.95.28,1.89.37,2.84,0,.07.05.14.09.27Z"/>
    </g>
  </g>
  <path d="m88.19,56.21c-.64.03-1.18-.31-1.78-.44-.66-.14-1.27.09-1.62.66-.06.11-.12.27-.29.2-.16-.07-.09-.23-.06-.35.15-.7,1.03-1.49,1.74-1.54.25-.02.49.07.7.23.21.16.38.35.54.56.36.47.97.48,1.34.04.18-.2.34-.42.51-.63.08-.09.13-.29.28-.19.14.1.02.26-.05.37-.38.57-.81,1.09-1.29,1.58-.84.85-1.75,1.61-2.63,2.41-.3.27-.58.55-.86.83-.06.06-.13.11-.1.2.03.11.13.06.2.06.51-.02.98.18,1.43.37.89.37,2.17-.19,2.52-1.14.03-.07.07-.14.11-.21.05-.07.12-.06.19-.04.09.02.08.1.08.17-.09.99-1.32,2.23-2.32,2.32-.26.03-.5-.07-.69-.24-.2-.18-.39-.37-.58-.56-.46-.46-.96-.48-1.46-.04-.21.18-.41.38-.56.63-.04.06-.08.12-.13.16-.07.06-.16.11-.24.03-.08-.07-.04-.15,0-.22.18-.33.42-.63.66-.92.78-.95,1.71-1.73,2.63-2.54.53-.47,1.04-.96,1.54-1.47.07-.07.16-.15.17-.29Z"/>
  <path d="m88.19,133.78c-.64.03-1.18-.31-1.78-.44-.66-.14-1.27.09-1.62.66-.06.11-.12.27-.29.2-.16-.07-.09-.23-.06-.35.15-.7,1.03-1.49,1.74-1.54.25-.02.49.07.7.23.21.16.38.35.54.56.36.47.97.48,1.34.04.18-.2.34-.42.51-.63.08-.09.13-.29.28-.19.14.1.02.26-.05.37-.38.57-.81,1.09-1.29,1.58-.84.85-1.75,1.61-2.63,2.41-.3.27-.58.55-.86.83-.06.06-.13.11-.1.2.03.11.13.06.2.06.51-.02.98.18,1.43.37.89.37,2.17-.19,2.52-1.14.03-.07.07-.14.11-.21.05-.07.12-.06.19-.04.09.02.08.1.08.17-.09.99-1.32,2.23-2.32,2.32-.26.03-.5-.07-.69-.24-.2-.18-.39-.37-.58-.56-.46-.46-.96-.48-1.46-.04-.21.18-.41.38-.56.63-.04.06-.08.12-.13.16-.07.06-.16.11-.24.03-.08-.07-.04-.15,0-.22.18-.33.42-.63.66-.92.78-.95,1.71-1.73,2.63-2.54.53-.47,1.04-.96,1.54-1.47.07-.07.16-.15.17-.29Z"/>
  <g>
    <g>
      <path class="cls-24" d="m13.14,196.81v7.02c0,.52.02,1.1.05,1.5h-.94l-.05-1h-.03c-.32.65-1.02,1.13-1.97,1.13-1.41,0-2.49-1.19-2.49-2.95,0-1.94,1.19-3.12,2.61-3.12.89,0,1.49.42,1.75.88h.02v-3.46h1.05Zm-1.05,5.07c0-.14-.01-.31-.04-.45-.16-.67-.73-1.21-1.53-1.21-1.09,0-1.75.96-1.75,2.23,0,1.18.59,2.16,1.72,2.16.71,0,1.35-.48,1.54-1.27.04-.14.05-.29.05-.45v-1.01Z"/>
      <path class="cls-24" d="m15.49,202.62c.02,1.43.93,2.01,1.98,2.01.75,0,1.22-.14,1.61-.3l.18.75c-.37.17-1.01.37-1.94.37-1.78,0-2.85-1.19-2.85-2.93s1.04-3.13,2.73-3.13c1.89,0,2.39,1.66,2.39,2.73,0,.22-.01.38-.04.49h-4.07Zm3.09-.76c.01-.67-.27-1.71-1.46-1.71-1.08,0-1.54.97-1.62,1.71h3.07Z"/>
      <path class="cls-24" d="m20.92,201.1c0-.61-.02-1.09-.05-1.57h.93l.06.95h.03c.29-.54.96-1.09,1.92-1.09.8,0,2.04.48,2.04,2.47v3.46h-1.05v-3.34c0-.94-.35-1.72-1.34-1.72-.69,0-1.23.49-1.42,1.08-.04.13-.07.32-.07.49v3.5h-1.05v-4.23Z"/>
      <path class="cls-24" d="m32.82,202.37c0,2.15-1.49,3.09-2.88,3.09-1.57,0-2.79-1.15-2.79-2.99,0-1.94,1.28-3.08,2.88-3.08s2.79,1.21,2.79,2.98Zm-4.6.07c0,1.27.73,2.23,1.76,2.23s1.77-.95,1.77-2.26c0-.98-.49-2.22-1.75-2.22s-1.78,1.15-1.78,2.25Z"/>
      <path class="cls-24" d="m35.34,197.89c0,.36-.25.66-.67.66-.38,0-.64-.3-.64-.66,0-.36.27-.66.66-.66s.65.29.65.66Zm-1.18,7.44v-5.8h1.05v5.8h-1.05Z"/>
      <path class="cls-24" d="m36.82,204.25c.32.2.87.41,1.4.41.77,0,1.13-.38,1.13-.86s-.31-.77-1.08-1.06c-1.05-.38-1.54-.95-1.54-1.65,0-.93.76-1.7,2.01-1.7.59,0,1.1.16,1.42.36l-.26.77c-.22-.14-.65-.34-1.19-.34-.62,0-.96.36-.96.8,0,.48.34.69,1.1.99,1,.37,1.52.88,1.52,1.74,0,1.03-.8,1.75-2.17,1.75-.63,0-1.22-.16-1.63-.4l.26-.8Z"/>
      <path class="cls-24" d="m42.9,197.89c0,.36-.25.66-.67.66-.38,0-.64-.3-.64-.66,0-.36.27-.66.66-.66s.65.29.65.66Zm-1.18,7.44v-5.8h1.05v5.8h-1.05Z"/>
      <path class="cls-24" d="m44.53,201.1c0-.61-.02-1.09-.05-1.57h.93l.06.95h.03c.29-.54.96-1.09,1.92-1.09.8,0,2.04.48,2.04,2.47v3.46h-1.05v-3.34c0-.94-.35-1.72-1.34-1.72-.69,0-1.23.49-1.42,1.08-.04.13-.07.32-.07.49v3.5h-1.05v-4.23Z"/>
      <path class="cls-24" d="m56.2,199.53c-.03.41-.05.88-.05,1.59v3.37c0,1.34-.27,2.15-.83,2.66-.57.52-1.38.7-2.11.7s-1.47-.16-1.94-.48l.26-.81c.39.24.98.46,1.71.46,1.08,0,1.87-.56,1.87-2.03v-.65h-.02c-.32.54-.95.98-1.84.98-1.45,0-2.47-1.23-2.47-2.84,0-1.97,1.28-3.08,2.62-3.08,1.01,0,1.55.52,1.81,1h.02l.04-.87h.93Zm-1.1,2.28c0-.17-.02-.33-.06-.47-.19-.61-.7-1.12-1.48-1.12-1.01,0-1.73.85-1.73,2.2,0,1.13.59,2.09,1.72,2.09.65,0,1.24-.41,1.47-1.09.06-.17.08-.38.08-.56v-1.05Z"/>
      <path class="cls-24" d="m60.29,204.25c.32.2.87.41,1.4.41.77,0,1.13-.38,1.13-.86s-.31-.77-1.08-1.06c-1.05-.38-1.54-.95-1.54-1.65,0-.93.76-1.7,2.01-1.7.59,0,1.1.16,1.42.36l-.26.77c-.22-.14-.65-.34-1.19-.34-.62,0-.96.36-.96.8,0,.48.34.69,1.1.99,1,.37,1.52.88,1.52,1.74,0,1.03-.8,1.75-2.17,1.75-.63,0-1.22-.16-1.63-.4l.26-.8Z"/>
      <path class="cls-24" d="m66.46,197.86v1.67h1.52v.8h-1.52v3.13c0,.72.21,1.13.8,1.13.27,0,.47-.03.61-.08l.05.8c-.21.08-.53.15-.94.15-.48,0-.89-.16-1.14-.45-.29-.32-.41-.83-.41-1.51v-3.17h-.9v-.8h.9v-1.4l1.03-.27Z"/>
      <path class="cls-24" d="m69.69,202.62c.02,1.43.93,2.01,1.98,2.01.75,0,1.22-.14,1.61-.3l.18.75c-.37.17-1.01.37-1.94.37-1.78,0-2.85-1.19-2.85-2.93s1.04-3.13,2.73-3.13c1.89,0,2.39,1.66,2.39,2.73,0,.22-.01.38-.04.49h-4.07Zm3.09-.76c.01-.67-.27-1.71-1.46-1.71-1.08,0-1.54.97-1.62,1.71h3.07Z"/>
      <path class="cls-24" d="m75.1,201.42c0-.74-.02-1.34-.05-1.89h.94l.06.99h.02c.42-.71,1.12-1.12,2.06-1.12,1.4,0,2.46,1.18,2.46,2.94,0,2.09-1.28,3.12-2.64,3.12-.78,0-1.44-.34-1.79-.91h-.02v3.16h-1.05v-6.29Zm1.05,1.55c0,.15.02.29.05.43.19.74.83,1.24,1.58,1.24,1.12,0,1.76-.92,1.76-2.25,0-1.16-.61-2.15-1.72-2.15-.72,0-1.4.51-1.6,1.3-.03.14-.07.29-.07.43v1Z"/>
    </g>
    <g>
      <path class="cls-24" d="m11,147.34c.56-.09,1.35-.17,2.47-.17s1.93.22,2.47.65c.52.4.86,1.08.86,1.87s-.26,1.47-.74,1.91c-.62.59-1.56.86-2.63.86-.24,0-.46-.02-.62-.04v2.89h-1.81v-7.98Zm1.81,3.67c.15.03.34.05.61.05.97,0,1.57-.49,1.57-1.31,0-.74-.51-1.19-1.43-1.19-.36,0-.61.03-.75.06v2.39Z"/>
      <path class="cls-24" d="m19.68,147.82c0,.51-.37.91-.98.91s-.95-.4-.95-.91c0-.52.38-.91.97-.91s.96.39.96.91Zm-1.88,7.5v-5.87h1.83v5.87h-1.83Z"/>
      <path class="cls-24" d="m22.48,149.45l.58.98c.17.3.33.59.48.88h.03c.15-.32.3-.61.45-.9l.52-.95h1.98l-1.93,2.8,1.95,3.07h-2.07l-.59-1.06c-.17-.29-.31-.59-.46-.89h-.03c-.15.32-.3.61-.45.9l-.55,1.05h-2l1.99-2.99-1.94-2.88h2.04Z"/>
      <path class="cls-24" d="m28.46,152.97c.05.76.8,1.12,1.65,1.12.62,0,1.12-.08,1.62-.25l.25,1.23c-.61.25-1.34.37-2.13.37-1.99,0-3.13-1.16-3.13-2.99,0-1.49.93-3.14,2.96-3.14,1.9,0,2.62,1.48,2.62,2.93,0,.32-.03.59-.07.72h-3.77Zm2.14-1.25c0-.44-.19-1.19-1.02-1.19-.77,0-1.08.7-1.13,1.19h2.16Z"/>
      <path class="cls-24" d="m33.39,146.8h1.83v8.52h-1.83v-8.52Z"/>
      <path class="cls-24" d="m39.24,153.43c.48.26,1.24.51,2.03.51.84,0,1.28-.35,1.28-.88,0-.5-.39-.79-1.35-1.13-1.35-.48-2.23-1.21-2.23-2.39,0-1.38,1.16-2.43,3.06-2.43.92,0,1.59.18,2.06.41l-.4,1.47c-.32-.15-.9-.38-1.69-.38s-1.18.37-1.18.78c0,.51.45.74,1.5,1.14,1.43.54,2.09,1.28,2.09,2.42,0,1.35-1.03,2.51-3.26,2.51-.92,0-1.83-.25-2.28-.5l.37-1.51Z"/>
      <path class="cls-24" d="m45.57,151.42c0-.77-.02-1.42-.05-1.97h1.59l.08.82h.02c.44-.62,1.1-.95,1.96-.95,1.28,0,2.44,1.12,2.44,2.99,0,2.14-1.36,3.14-2.67,3.14-.7,0-1.26-.28-1.52-.67h-.02v2.91h-1.83v-6.27Zm1.83,1.38c0,.14.01.26.04.38.12.49.54.87,1.07.87.79,0,1.26-.66,1.26-1.66,0-.93-.42-1.65-1.23-1.65-.52,0-.98.39-1.09.92-.03.1-.04.22-.04.33v.81Z"/>
      <path class="cls-24" d="m56.09,155.32l-.11-.58h-.04c-.38.47-.98.72-1.68.72-1.2,0-1.9-.86-1.9-1.8,0-1.53,1.37-2.25,3.44-2.25v-.07c0-.31-.17-.76-1.08-.76-.6,0-1.23.2-1.62.44l-.34-1.17c.41-.23,1.21-.53,2.28-.53,1.95,0,2.57,1.16,2.57,2.53v2.05c0,.56.03,1.09.09,1.42h-1.64Zm-.22-2.78c-.96,0-1.7.23-1.7.92,0,.47.31.7.72.7.45,0,.82-.3.94-.67.03-.09.03-.21.03-.31v-.64Z"/>
      <path class="cls-24" d="m63.49,155.17c-.33.15-.94.27-1.63.27-1.9,0-3.11-1.16-3.11-3,0-1.72,1.17-3.12,3.36-3.12.48,0,1.01.09,1.39.23l-.28,1.36c-.22-.1-.54-.19-1.02-.19-.96,0-1.58.68-1.58,1.65,0,1.08.72,1.65,1.61,1.65.44,0,.77-.08,1.05-.19l.22,1.35Z"/>
      <path class="cls-24" d="m65.77,152.97c.05.76.8,1.12,1.65,1.12.62,0,1.12-.08,1.62-.25l.25,1.23c-.61.25-1.34.37-2.13.37-1.99,0-3.13-1.16-3.13-2.99,0-1.49.93-3.14,2.96-3.14,1.9,0,2.62,1.48,2.62,2.93,0,.32-.03.59-.07.72h-3.77Zm2.14-1.25c0-.44-.19-1.19-1.02-1.19-.77,0-1.08.7-1.13,1.19h2.16Z"/>
    </g>
    <g>
      <path class="cls-24" d="m179.01,7.19h1.83v6.55h3.22v1.53h-5.04V7.19Z"/>
      <path class="cls-24" d="m188.46,15.27l-.11-.58h-.04c-.38.47-.98.72-1.68.72-1.2,0-1.9-.86-1.9-1.8,0-1.53,1.37-2.25,3.44-2.25v-.07c0-.31-.17-.76-1.08-.76-.6,0-1.23.2-1.62.44l-.34-1.17c.41-.23,1.21-.53,2.28-.53,1.95,0,2.57,1.16,2.57,2.53v2.05c0,.56.03,1.09.09,1.42h-1.64Zm-.22-2.78c-.96,0-1.7.23-1.7.92,0,.47.31.7.72.7.45,0,.82-.3.94-.67.03-.09.03-.21.03-.31v-.64Z"/>
      <path class="cls-24" d="m193.4,7.73v1.67h1.31v1.35h-1.31v2.13c0,.71.18,1.03.72,1.03.24,0,.42-.02.54-.05v1.39c-.22.08-.66.16-1.17.16-.59,0-1.08-.21-1.38-.51-.34-.35-.5-.91-.5-1.74v-2.4h-.78v-1.35h.78v-1.26l1.79-.41Z"/>
      <path class="cls-24" d="m197.11,12.93c.05.76.8,1.12,1.65,1.12.62,0,1.12-.08,1.62-.25l.25,1.23c-.61.25-1.34.37-2.13.37-1.99,0-3.13-1.16-3.13-2.99,0-1.49.93-3.14,2.96-3.14,1.9,0,2.62,1.48,2.62,2.93,0,.32-.03.59-.07.72h-3.77Zm2.14-1.25c0-.44-.19-1.19-1.02-1.19-.77,0-1.08.7-1.13,1.19h2.16Z"/>
      <path class="cls-24" d="m202.04,11.28c0-.73-.02-1.35-.05-1.88h1.58l.08.81h.04c.24-.38.83-.95,1.81-.95,1.2,0,2.1.8,2.1,2.53v3.47h-1.83v-3.25c0-.76-.27-1.27-.93-1.27-.5,0-.8.35-.93.69-.05.11-.06.29-.06.45v3.39h-1.83v-4Z"/>
      <path class="cls-24" d="m211.04,7.73v1.67h1.31v1.35h-1.31v2.13c0,.71.18,1.03.72,1.03.24,0,.42-.02.54-.05v1.39c-.22.08-.66.16-1.17.16-.59,0-1.08-.21-1.38-.51-.34-.35-.5-.91-.5-1.74v-2.4h-.78v-1.35h.78v-1.26l1.79-.41Z"/>
      <path class="cls-24" d="m215.95,13.39c.48.26,1.24.51,2.03.51.84,0,1.28-.35,1.28-.88,0-.5-.39-.79-1.35-1.13-1.35-.48-2.23-1.21-2.23-2.39,0-1.38,1.16-2.43,3.06-2.43.92,0,1.59.18,2.06.41l-.4,1.47c-.32-.15-.9-.38-1.69-.38s-1.18.37-1.18.78c0,.51.45.74,1.5,1.14,1.43.54,2.09,1.28,2.09,2.42,0,1.35-1.03,2.51-3.26,2.51-.92,0-1.83-.25-2.28-.5l.37-1.51Z"/>
      <path class="cls-24" d="m222.28,11.38c0-.77-.02-1.42-.05-1.97h1.59l.08.82h.02c.44-.62,1.1-.95,1.96-.95,1.28,0,2.44,1.12,2.44,2.99,0,2.14-1.36,3.14-2.67,3.14-.7,0-1.26-.28-1.52-.67h-.02v2.91h-1.83v-6.27Zm1.83,1.38c0,.14.01.26.04.38.12.49.54.87,1.07.87.79,0,1.26-.66,1.26-1.66,0-.93-.42-1.65-1.23-1.65-.52,0-.98.39-1.09.92-.03.1-.04.22-.04.33v.81Z"/>
      <path class="cls-24" d="m232.8,15.27l-.11-.58h-.04c-.38.47-.98.72-1.68.72-1.2,0-1.9-.86-1.9-1.8,0-1.53,1.37-2.25,3.44-2.25v-.07c0-.31-.17-.76-1.08-.76-.6,0-1.23.2-1.62.44l-.34-1.17c.41-.23,1.21-.53,2.28-.53,1.95,0,2.57,1.16,2.57,2.53v2.05c0,.56.03,1.09.09,1.42h-1.64Zm-.22-2.78c-.96,0-1.7.23-1.7.92,0,.47.31.7.72.7.45,0,.82-.3.94-.67.03-.09.03-.21.03-.31v-.64Z"/>
      <path class="cls-24" d="m240.2,15.13c-.33.15-.94.27-1.64.27-1.9,0-3.1-1.16-3.1-3,0-1.72,1.17-3.12,3.36-3.12.48,0,1.01.09,1.39.23l-.28,1.36c-.22-.1-.54-.19-1.02-.19-.96,0-1.58.68-1.58,1.65,0,1.08.72,1.65,1.61,1.65.44,0,.77-.08,1.05-.19l.22,1.35Z"/>
      <path class="cls-24" d="m242.48,12.93c.05.76.8,1.12,1.65,1.12.62,0,1.12-.08,1.62-.25l.25,1.23c-.61.25-1.34.37-2.13.37-1.99,0-3.13-1.16-3.13-2.99,0-1.49.93-3.14,2.96-3.14,1.9,0,2.62,1.48,2.62,2.93,0,.32-.03.59-.07.72h-3.77Zm2.14-1.25c0-.44-.19-1.19-1.02-1.19-.77,0-1.08.7-1.13,1.19h2.16Z"/>
    </g>
    <g>
      <path class="cls-24" d="m367.02,15.95c-.33.16-1.09.35-2.07.35-2.8,0-4.24-1.75-4.24-4.05,0-2.76,1.98-4.28,4.42-4.28.95,0,1.67.19,1.99.36l-.37,1.45c-.36-.16-.88-.3-1.54-.3-1.44,0-2.57.88-2.57,2.68,0,1.62.96,2.64,2.58,2.64.56,0,1.17-.11,1.53-.26l.27,1.43Z"/>
      <path class="cls-24" d="m373.72,13.18c0,2.15-1.52,3.13-3.09,3.13-1.71,0-3.03-1.13-3.03-3.02s1.25-3.11,3.14-3.11,2.99,1.24,2.99,3.01Zm-4.24.06c0,1,.42,1.76,1.2,1.76.71,0,1.16-.71,1.16-1.77,0-.87-.33-1.76-1.16-1.76-.87,0-1.2.9-1.2,1.77Z"/>
      <path class="cls-24" d="m374.86,12.18c0-.73-.02-1.35-.05-1.88h1.58l.08.81h.04c.24-.38.83-.95,1.81-.95,1.2,0,2.1.8,2.1,2.53v3.47h-1.83v-3.25c0-.76-.27-1.27-.93-1.27-.5,0-.8.35-.93.69-.05.11-.06.29-.06.45v3.39h-1.83v-4Z"/>
      <path class="cls-24" d="m387.57,7.66v6.76c0,.67.02,1.36.05,1.75h-1.62l-.08-.86h-.03c-.37.66-1.08.99-1.84.99-1.38,0-2.5-1.19-2.5-3.01,0-1.97,1.23-3.12,2.63-3.12.73,0,1.28.26,1.54.66h.02v-3.18h1.83Zm-1.83,5.14c0-.1,0-.23-.02-.33-.1-.49-.5-.89-1.06-.89-.84,0-1.26.74-1.26,1.67,0,.99.49,1.61,1.25,1.61.52,0,.95-.36,1.06-.87.03-.13.04-.27.04-.41v-.77Z"/>
      <path class="cls-24" d="m390.92,8.67c0,.51-.37.91-.98.91s-.95-.4-.95-.91c0-.52.38-.91.97-.91s.96.39.96.91Zm-1.88,7.5v-5.87h1.83v5.87h-1.83Z"/>
      <path class="cls-24" d="m394.36,8.63v1.67h1.31v1.35h-1.31v2.13c0,.71.18,1.03.72,1.03.24,0,.42-.02.54-.05v1.39c-.22.08-.66.16-1.17.16-.59,0-1.08-.21-1.38-.51-.34-.35-.5-.91-.5-1.74v-2.4h-.78v-1.35h.78v-1.26l1.79-.41Z"/>
      <path class="cls-24" d="m398.61,8.67c0,.51-.37.91-.98.91s-.95-.4-.95-.91c0-.52.38-.91.97-.91s.96.39.96.91Zm-1.88,7.5v-5.87h1.83v5.87h-1.83Z"/>
      <path class="cls-24" d="m405.81,13.18c0,2.15-1.52,3.13-3.09,3.13-1.71,0-3.03-1.13-3.03-3.02s1.25-3.11,3.14-3.11,2.99,1.24,2.99,3.01Zm-4.24.06c0,1,.42,1.76,1.2,1.76.71,0,1.16-.71,1.16-1.77,0-.87-.33-1.76-1.16-1.76-.87,0-1.2.9-1.2,1.77Z"/>
      <path class="cls-24" d="m406.94,12.18c0-.73-.02-1.35-.05-1.88h1.58l.08.81h.04c.24-.38.83-.95,1.81-.95,1.2,0,2.1.8,2.1,2.53v3.47h-1.83v-3.25c0-.76-.27-1.27-.93-1.27-.5,0-.8.35-.93.69-.05.11-.06.29-.06.45v3.39h-1.83v-4Z"/>
      <path class="cls-24" d="m415.86,8.67c0,.51-.37.91-.98.91-.58,0-.95-.4-.95-.91,0-.52.38-.91.97-.91s.96.39.96.91Zm-1.88,7.5v-5.87h1.83v5.87h-1.83Z"/>
      <path class="cls-24" d="m417.26,12.18c0-.73-.02-1.35-.05-1.88h1.58l.08.81h.04c.24-.38.83-.95,1.81-.95,1.2,0,2.1.8,2.1,2.53v3.47h-1.83v-3.25c0-.76-.27-1.27-.93-1.27-.5,0-.8.35-.93.69-.05.11-.06.29-.06.45v3.39h-1.83v-4Z"/>
      <path class="cls-24" d="m429.9,10.3c-.03.38-.05.88-.05,1.75v3.27c0,1.13-.23,2.05-.89,2.64-.64.56-1.52.72-2.38.72-.78,0-1.58-.16-2.11-.45l.36-1.38c.37.21,1.01.44,1.7.44.86,0,1.52-.46,1.52-1.55v-.38h-.02c-.34.48-.91.76-1.58.76-1.45,0-2.48-1.18-2.48-2.86,0-1.89,1.22-3.09,2.66-3.09.81,0,1.31.35,1.61.83h.02l.06-.7h1.58Zm-1.88,2.39c0-.12-.01-.24-.04-.34-.13-.48-.47-.81-.98-.81-.66,0-1.19.61-1.19,1.67,0,.87.43,1.56,1.19,1.56.47,0,.85-.31.97-.74.04-.14.05-.33.05-.48v-.86Z"/>
    </g>
    <g>
      <path class="cls-24" d="m95.19,205.12c-.28.14-.88.34-1.66.34-1.75,0-2.89-1.19-2.89-2.96s1.22-3.09,3.12-3.09c.62,0,1.18.16,1.47.31l-.23.81c-.26-.14-.65-.28-1.23-.28-1.32,0-2.05.99-2.05,2.2,0,1.34.86,2.17,2.02,2.17.59,0,.99-.15,1.29-.28l.18.79Z"/>
      <path class="cls-24" d="m96.43,201.33c0-.69-.02-1.27-.05-1.81h.92l.04,1.14h.04c.27-.78.91-1.27,1.62-1.27.11,0,.2,0,.29.03v.99c-.11-.02-.21-.03-.36-.03-.74,0-1.27.56-1.41,1.35-.03.15-.04.32-.04.49v3.1h-1.05v-3.99Z"/>
      <path class="cls-24" d="m105.48,202.37c0,2.15-1.49,3.09-2.88,3.09-1.57,0-2.79-1.15-2.79-2.99,0-1.94,1.28-3.08,2.88-3.08s2.79,1.21,2.79,2.98Zm-4.6.07c0,1.27.73,2.23,1.76,2.23s1.77-.95,1.77-2.26c0-.98-.49-2.22-1.75-2.22s-1.78,1.15-1.78,2.25Z"/>
      <path class="cls-24" d="m106.67,204.25c.32.2.87.41,1.4.41.77,0,1.13-.38,1.13-.86s-.31-.77-1.08-1.06c-1.05-.38-1.54-.95-1.54-1.65,0-.93.76-1.7,2.01-1.7.59,0,1.1.16,1.42.36l-.26.77c-.22-.14-.65-.34-1.19-.34-.62,0-.96.36-.96.8,0,.48.34.69,1.1.99,1,.37,1.52.88,1.52,1.74,0,1.03-.8,1.75-2.17,1.75-.63,0-1.22-.16-1.63-.4l.26-.8Z"/>
      <path class="cls-24" d="m111.42,204.25c.32.2.87.41,1.4.41.77,0,1.13-.38,1.13-.86s-.31-.77-1.08-1.06c-1.05-.38-1.54-.95-1.54-1.65,0-.93.76-1.7,2.01-1.7.59,0,1.1.16,1.42.36l-.26.77c-.22-.14-.65-.34-1.19-.34-.62,0-.96.36-.96.8,0,.48.34.69,1.1.99,1,.37,1.52.88,1.52,1.74,0,1.03-.8,1.75-2.17,1.75-.63,0-1.22-.16-1.63-.4l.26-.8Z"/>
      <path class="cls-24" d="m119.54,205.33l-.09-.73h-.03c-.32.45-.94.86-1.77.86-1.17,0-1.77-.83-1.77-1.66,0-1.41,1.25-2.18,3.49-2.16v-.12c0-.47-.13-1.34-1.32-1.34-.54,0-1.1.16-1.51.43l-.24-.7c.48-.31,1.18-.51,1.91-.51,1.77,0,2.21,1.21,2.21,2.37v2.17c0,.5.02.99.09,1.39h-.95Zm-.16-2.96c-1.14-.02-2.45.18-2.45,1.3,0,.69.46,1.01.98,1.01.76,0,1.25-.48,1.41-.97.04-.11.05-.23.05-.33v-1.01Z"/>
      <path class="cls-24" d="m123.33,197.86v1.67h1.52v.8h-1.52v3.13c0,.72.21,1.13.8,1.13.27,0,.47-.03.61-.08l.05.8c-.21.08-.53.15-.94.15-.48,0-.89-.16-1.14-.45-.29-.32-.41-.83-.41-1.51v-3.17h-.9v-.8h.9v-1.4l1.03-.27Z"/>
      <path class="cls-24" d="m127.3,197.86v1.67h1.52v.8h-1.52v3.13c0,.72.21,1.13.8,1.13.27,0,.47-.03.61-.08l.05.8c-.21.08-.53.15-.94.15-.48,0-.89-.16-1.14-.45-.29-.32-.41-.83-.41-1.51v-3.17h-.9v-.8h.9v-1.4l1.03-.27Z"/>
      <path class="cls-24" d="m130.52,202.62c.02,1.43.93,2.01,1.98,2.01.75,0,1.22-.14,1.61-.3l.18.75c-.37.17-1.01.37-1.94.37-1.78,0-2.85-1.19-2.85-2.93s1.04-3.13,2.73-3.13c1.89,0,2.39,1.66,2.39,2.73,0,.22-.01.38-.04.49h-4.07Zm3.09-.76c.01-.67-.27-1.71-1.46-1.71-1.08,0-1.54.97-1.62,1.71h3.07Z"/>
      <path class="cls-24" d="m135.94,201.1c0-.61-.02-1.09-.05-1.57h.93l.06.95h.03c.29-.54.96-1.09,1.92-1.09.8,0,2.04.48,2.04,2.47v3.46h-1.05v-3.34c0-.94-.35-1.72-1.34-1.72-.69,0-1.23.49-1.42,1.08-.04.13-.07.32-.07.49v3.5h-1.05v-4.23Z"/>
      <path class="cls-24" d="m143.82,197.86v1.67h1.52v.8h-1.52v3.13c0,.72.21,1.13.8,1.13.27,0,.47-.03.61-.08l.05.8c-.21.08-.53.15-.94.15-.48,0-.89-.16-1.14-.45-.29-.32-.41-.83-.41-1.51v-3.17h-.9v-.8h.9v-1.4l1.03-.27Z"/>
      <path class="cls-24" d="m147.71,197.89c0,.36-.25.66-.67.66-.38,0-.64-.3-.64-.66,0-.36.27-.66.66-.66s.65.29.65.66Zm-1.18,7.44v-5.8h1.05v5.8h-1.05Z"/>
      <path class="cls-24" d="m154.59,202.37c0,2.15-1.49,3.09-2.88,3.09-1.57,0-2.79-1.15-2.79-2.99,0-1.94,1.28-3.08,2.88-3.08s2.79,1.21,2.79,2.98Zm-4.6.07c0,1.27.73,2.23,1.76,2.23s1.77-.95,1.77-2.26c0-.98-.49-2.22-1.75-2.22s-1.78,1.15-1.78,2.25Z"/>
      <path class="cls-24" d="m155.92,201.1c0-.61-.02-1.09-.05-1.57h.93l.06.95h.03c.29-.54.96-1.09,1.92-1.09.8,0,2.04.48,2.04,2.47v3.46h-1.05v-3.34c0-.94-.35-1.72-1.34-1.72-.69,0-1.23.49-1.42,1.08-.04.13-.07.32-.07.49v3.5h-1.05v-4.23Z"/>
    </g>
    <g>
      <path class="cls-24" d="m176.83,50.29c.64-.1,1.4-.17,2.22-.17,1.5,0,2.57.35,3.27,1.02.72.65,1.14,1.59,1.14,2.89s-.41,2.4-1.16,3.14c-.76.75-2.01,1.17-3.58,1.17-.75,0-1.37-.03-1.9-.09v-7.95Zm1.05,7.15c.27.04.65.05,1.05.05,2.24,0,3.44-1.24,3.44-3.43.01-1.91-1.07-3.11-3.27-3.11-.54,0-.94.05-1.22.11v6.39Z"/>
      <path class="cls-24" d="m185.43,55.55c.02,1.43.93,2.01,1.98,2.01.75,0,1.22-.14,1.61-.3l.19.75c-.37.17-1.01.37-1.94.37-1.78,0-2.85-1.19-2.85-2.93s1.04-3.13,2.73-3.13c1.89,0,2.39,1.66,2.39,2.73,0,.22-.01.38-.04.49h-4.07Zm3.09-.76c.01-.67-.27-1.71-1.45-1.71-1.08,0-1.54.97-1.62,1.71h3.07Z"/>
      <path class="cls-24" d="m190.85,54.03c0-.61-.02-1.09-.05-1.57h.93l.06.95h.03c.29-.54.96-1.09,1.92-1.09.8,0,2.04.48,2.04,2.47v3.46h-1.05v-3.34c0-.94-.35-1.72-1.34-1.72-.69,0-1.23.49-1.42,1.08-.04.13-.07.32-.07.49v3.5h-1.05v-4.23Z"/>
      <path class="cls-24" d="m202.76,55.3c0,2.15-1.49,3.09-2.88,3.09-1.57,0-2.79-1.15-2.79-2.99,0-1.94,1.28-3.08,2.88-3.08s2.79,1.21,2.79,2.98Zm-4.6.07c0,1.27.73,2.23,1.76,2.23s1.77-.95,1.77-2.26c0-.98-.49-2.22-1.75-2.22s-1.78,1.15-1.78,2.25Z"/>
      <path class="cls-24" d="m205.28,50.82c0,.36-.25.66-.67.66-.38,0-.64-.3-.64-.66,0-.36.27-.66.66-.66s.65.29.65.66Zm-1.18,7.44v-5.8h1.05v5.8h-1.05Z"/>
      <path class="cls-24" d="m206.76,57.19c.32.2.87.41,1.4.41.77,0,1.13-.38,1.13-.86s-.31-.77-1.08-1.06c-1.05-.38-1.54-.95-1.54-1.65,0-.93.76-1.7,2.01-1.7.59,0,1.1.16,1.42.36l-.26.77c-.22-.14-.65-.34-1.19-.34-.62,0-.96.36-.96.8,0,.48.34.69,1.1.99,1,.37,1.52.88,1.52,1.74,0,1.03-.8,1.75-2.17,1.75-.63,0-1.22-.16-1.63-.4l.26-.8Z"/>
      <path class="cls-24" d="m212.84,50.82c0,.36-.25.66-.67.66-.38,0-.64-.3-.64-.66,0-.36.27-.66.66-.66s.65.29.65.66Zm-1.18,7.44v-5.8h1.05v5.8h-1.05Z"/>
      <path class="cls-24" d="m214.47,54.03c0-.61-.02-1.09-.05-1.57h.93l.06.95h.03c.29-.54.96-1.09,1.92-1.09.8,0,2.04.48,2.04,2.47v3.46h-1.05v-3.34c0-.94-.35-1.72-1.34-1.72-.69,0-1.23.49-1.42,1.08-.04.13-.07.32-.07.49v3.5h-1.05v-4.23Z"/>
      <path class="cls-24" d="m226.14,52.46c-.03.41-.05.88-.05,1.59v3.37c0,1.34-.27,2.15-.83,2.66-.57.52-1.38.7-2.11.7s-1.47-.16-1.94-.48l.26-.81c.39.24.98.46,1.71.46,1.08,0,1.87-.56,1.87-2.03v-.65h-.02c-.32.54-.95.98-1.84.98-1.45,0-2.47-1.23-2.47-2.84,0-1.97,1.28-3.08,2.62-3.08,1.01,0,1.55.52,1.81,1h.02l.04-.87h.93Zm-1.1,2.28c0-.17-.02-.33-.06-.47-.19-.61-.7-1.12-1.48-1.12-1.01,0-1.73.85-1.73,2.2,0,1.13.59,2.09,1.72,2.09.66,0,1.24-.41,1.47-1.09.06-.17.08-.38.08-.56v-1.05Z"/>
      <path class="cls-24" d="m231.46,50.18v4.79c0,1.8.8,2.57,1.89,2.57,1.19,0,1.97-.79,1.97-2.57v-4.79h1.05v4.72c0,2.48-1.31,3.5-3.06,3.5-1.65,0-2.9-.94-2.9-3.45v-4.76h1.05Z"/>
      <path class="cls-24" d="m240.59,54.63v.77h-2.96v-.77h2.96Z"/>
      <path class="cls-24" d="m241.86,58.26v-8.08h1.15l2.59,4.09c.59.95,1.06,1.8,1.44,2.63h.03c-.09-1.09-.11-2.08-.11-3.33v-3.39h.98v8.08h-1.06l-2.57-4.1c-.56-.91-1.1-1.83-1.5-2.71h-.04c.06,1.04.08,2.01.08,3.35v3.46h-.98Z"/>
      <path class="cls-24" d="m250.29,55.55c.02,1.43.93,2.01,1.99,2.01.75,0,1.22-.14,1.61-.3l.18.75c-.37.17-1.01.37-1.94.37-1.78,0-2.85-1.19-2.85-2.93s1.04-3.13,2.73-3.13c1.89,0,2.39,1.66,2.39,2.73,0,.22-.01.38-.04.49h-4.07Zm3.09-.76c0-.67-.27-1.71-1.46-1.71-1.08,0-1.54.97-1.62,1.71h3.08Z"/>
      <path class="cls-24" d="m256.98,50.79v1.67h1.52v.8h-1.52v3.13c0,.72.21,1.13.8,1.13.27,0,.47-.03.61-.08l.05.8c-.21.08-.53.15-.94.15-.48,0-.89-.16-1.14-.45-.29-.32-.41-.83-.41-1.51v-3.17h-.9v-.8h.9v-1.4l1.03-.27Z"/>
    </g>
    <g>
      <path class="cls-24" d="m168.57,25.6c.64-.1,1.4-.17,2.22-.17,1.5,0,2.57.35,3.27,1.02.72.65,1.14,1.59,1.14,2.89s-.41,2.4-1.16,3.14c-.76.75-2.01,1.17-3.58,1.17-.75,0-1.37-.03-1.9-.09v-7.95Zm1.05,7.15c.27.04.65.05,1.05.05,2.24,0,3.44-1.24,3.44-3.43.01-1.91-1.07-3.11-3.27-3.11-.54,0-.94.05-1.22.11v6.39Z"/>
      <path class="cls-24" d="m177.73,26.13c0,.36-.25.66-.67.66-.38,0-.64-.3-.64-.66,0-.36.27-.66.66-.66s.65.29.65.66Zm-1.18,7.44v-5.8h1.05v5.8h-1.05Z"/>
      <path class="cls-24" d="m182.95,33.57v-5h-2.44v5h-1.05v-5h-.81v-.8h.81v-.19c0-.82.19-1.52.65-1.98.34-.34.82-.54,1.46-.54.34,0,.65.1.83.2l-.22.79c-.15-.08-.38-.15-.62-.15-.83,0-1.06.71-1.06,1.62v.26h2.44v-.28c0-.82.19-1.56.67-2.03.4-.38.93-.54,1.41-.54.38,0,.7.08.9.17l-.14.81c-.16-.07-.37-.13-.68-.13-.89,0-1.12.79-1.12,1.69v.31h1.4v.8h-1.4v5h-1.05Z"/>
      <path class="cls-24" d="m191.21,31.98c0,.61.02,1.13.05,1.59h-.93l-.06-.95h-.03c-.27.47-.88,1.08-1.92,1.08-.91,0-2-.51-2-2.54v-3.39h1.05v3.2c0,1.1.34,1.86,1.3,1.86.71,0,1.2-.49,1.4-.97.05-.15.1-.34.1-.54v-3.55h1.05v4.21Z"/>
      <path class="cls-24" d="m192.82,32.5c.32.2.87.41,1.4.41.77,0,1.13-.38,1.13-.86s-.31-.77-1.08-1.06c-1.05-.38-1.54-.95-1.54-1.65,0-.93.76-1.7,2.01-1.7.59,0,1.1.16,1.42.36l-.26.77c-.22-.14-.65-.34-1.19-.34-.62,0-.96.36-.96.8,0,.48.34.69,1.1.99,1,.37,1.52.88,1.52,1.74,0,1.03-.8,1.75-2.17,1.75-.63,0-1.22-.16-1.63-.4l.26-.8Z"/>
      <path class="cls-24" d="m198.9,26.13c0,.36-.25.66-.67.66-.38,0-.64-.3-.64-.66,0-.36.27-.66.66-.66s.65.29.65.66Zm-1.18,7.44v-5.8h1.05v5.8h-1.05Z"/>
      <path class="cls-24" d="m205.78,30.62c0,2.15-1.49,3.09-2.88,3.09-1.57,0-2.79-1.15-2.79-2.99,0-1.94,1.28-3.08,2.88-3.08s2.79,1.21,2.79,2.98Zm-4.6.07c0,1.27.73,2.23,1.76,2.23s1.77-.95,1.77-2.26c0-.98-.49-2.22-1.75-2.22s-1.78,1.15-1.78,2.25Z"/>
      <path class="cls-24" d="m207.12,29.34c0-.61-.02-1.09-.05-1.57h.93l.06.95h.03c.29-.54.96-1.09,1.92-1.09.8,0,2.04.48,2.04,2.47v3.46h-1.05v-3.34c0-.94-.35-1.72-1.34-1.72-.69,0-1.23.49-1.42,1.08-.04.13-.07.32-.07.49v3.5h-1.05v-4.23Z"/>
      <path class="cls-24" d="m216.35,25.59c.5-.09,1.16-.16,2.01-.16,1.02,0,1.78.24,2.27.67.44.39.71.97.71,1.69s-.22,1.31-.63,1.73c-.56.59-1.45.89-2.47.89-.32,0-.6-.01-.84-.08v3.24h-1.04v-7.99Zm1.04,3.89c.23.07.52.09.87.09,1.27,0,2.03-.62,2.03-1.73s-.76-1.59-1.91-1.59c-.46,0-.8.04-.99.08v3.15Z"/>
      <path class="cls-24" d="m222.51,29.58c0-.69-.02-1.27-.05-1.81h.92l.04,1.14h.04c.27-.78.91-1.27,1.62-1.27.11,0,.2,0,.29.03v.99c-.11-.02-.21-.03-.36-.03-.74,0-1.27.56-1.41,1.35-.03.15-.04.32-.04.49v3.1h-1.05v-3.99Z"/>
      <path class="cls-24" d="m231.57,30.62c0,2.15-1.49,3.09-2.88,3.09-1.57,0-2.79-1.15-2.79-2.99,0-1.94,1.28-3.08,2.88-3.08s2.79,1.21,2.79,2.98Zm-4.6.07c0,1.27.73,2.23,1.76,2.23s1.77-.95,1.77-2.26c0-.98-.49-2.22-1.75-2.22s-1.78,1.15-1.78,2.25Z"/>
      <path class="cls-24" d="m237.05,33.36c-.28.14-.88.34-1.66.34-1.75,0-2.89-1.19-2.89-2.96s1.22-3.09,3.12-3.09c.62,0,1.18.16,1.47.31l-.23.81c-.26-.14-.65-.28-1.23-.28-1.32,0-2.05.99-2.05,2.2,0,1.34.86,2.17,2.02,2.17.59,0,.99-.15,1.29-.28l.18.79Z"/>
      <path class="cls-24" d="m238.81,30.86c.02,1.43.93,2.01,1.99,2.01.75,0,1.22-.14,1.61-.3l.18.75c-.37.17-1.01.37-1.94.37-1.78,0-2.85-1.19-2.85-2.93s1.04-3.13,2.73-3.13c1.89,0,2.39,1.66,2.39,2.73,0,.22-.01.38-.04.49h-4.07Zm3.09-.76c.01-.67-.27-1.71-1.45-1.71-1.08,0-1.54.97-1.62,1.71h3.07Z"/>
      <path class="cls-24" d="m244.09,32.5c.32.2.87.41,1.4.41.77,0,1.13-.38,1.13-.86s-.31-.77-1.08-1.06c-1.05-.38-1.54-.95-1.54-1.65,0-.93.76-1.7,2.01-1.7.59,0,1.1.16,1.42.36l-.26.77c-.22-.14-.65-.34-1.19-.34-.62,0-.96.36-.96.8,0,.48.34.69,1.1.99,1,.37,1.52.88,1.52,1.74,0,1.03-.8,1.75-2.17,1.75-.63,0-1.22-.16-1.63-.4l.26-.8Z"/>
      <path class="cls-24" d="m248.84,32.5c.32.2.87.41,1.4.41.77,0,1.13-.38,1.13-.86s-.31-.77-1.08-1.06c-1.05-.38-1.54-.95-1.54-1.65,0-.93.76-1.7,2.01-1.7.59,0,1.1.16,1.42.36l-.26.77c-.22-.14-.65-.34-1.19-.34-.62,0-.96.36-.96.8,0,.48.34.69,1.1.99,1,.37,1.52.88,1.52,1.74,0,1.03-.8,1.75-2.17,1.75-.63,0-1.22-.16-1.63-.4l.26-.8Z"/>
    </g>
    <g>
      <path class="cls-24" d="m176.97,204.25c.32.2.87.41,1.4.41.77,0,1.13-.38,1.13-.86s-.31-.77-1.08-1.06c-1.05-.38-1.54-.95-1.54-1.65,0-.93.76-1.7,2.01-1.7.59,0,1.1.16,1.42.36l-.26.77c-.22-.14-.65-.34-1.19-.34-.62,0-.96.36-.96.8,0,.48.34.69,1.1.99,1,.37,1.52.88,1.52,1.74,0,1.03-.8,1.75-2.17,1.75-.63,0-1.22-.16-1.63-.4l.26-.8Z"/>
      <path class="cls-24" d="m182.28,199.53l.78,2.94c.17.65.31,1.25.43,1.85h.03c.13-.58.32-1.21.52-1.84l.95-2.95h.89l.9,2.9c.21.69.38,1.3.51,1.89h.03c.11-.59.26-1.2.45-1.88l.83-2.91h1.04l-1.87,5.8h-.96l-.88-2.77c-.21-.65-.37-1.23-.51-1.91h-.02c-.15.7-.33,1.3-.53,1.92l-.93,2.76h-.96l-1.75-5.8h1.07Z"/>
      <path class="cls-24" d="m191.88,197.89c0,.36-.25.66-.67.66-.38,0-.64-.3-.64-.66,0-.36.27-.66.66-.66s.65.29.65.66Zm-1.18,7.44v-5.8h1.05v5.8h-1.05Z"/>
      <path class="cls-24" d="m194.78,197.86v1.67h1.52v.8h-1.52v3.13c0,.72.21,1.13.8,1.13.27,0,.47-.03.61-.08l.05.8c-.21.08-.53.15-.94.15-.48,0-.89-.16-1.14-.45-.29-.32-.41-.83-.41-1.51v-3.17h-.9v-.8h.9v-1.4l1.03-.27Z"/>
      <path class="cls-24" d="m201.55,205.12c-.28.14-.88.34-1.66.34-1.75,0-2.89-1.19-2.89-2.96s1.22-3.09,3.12-3.09c.62,0,1.18.16,1.47.31l-.23.81c-.26-.14-.65-.28-1.23-.28-1.32,0-2.05.99-2.05,2.2,0,1.34.86,2.17,2.02,2.17.59,0,.99-.15,1.29-.28l.18.79Z"/>
      <path class="cls-24" d="m202.79,196.81h1.05v3.62h.02c.17-.3.44-.56.76-.74.31-.18.68-.29,1.08-.29.78,0,2.02.48,2.02,2.48v3.45h-1.05v-3.34c0-.94-.35-1.72-1.34-1.72-.69,0-1.22.48-1.42,1.05-.05.15-.07.31-.07.5v3.51h-1.05v-8.52Z"/>
    </g>
    <g>
      <path class="cls-24" d="m318.61,205.12c-.28.14-.88.34-1.66.34-1.75,0-2.89-1.19-2.89-2.96s1.22-3.09,3.12-3.09c.62,0,1.18.16,1.47.31l-.23.81c-.26-.14-.65-.28-1.23-.28-1.32,0-2.05.99-2.05,2.2,0,1.34.86,2.17,2.02,2.17.59,0,.99-.15,1.29-.28l.18.79Z"/>
      <path class="cls-24" d="m325.02,202.37c0,2.15-1.49,3.09-2.88,3.09-1.57,0-2.79-1.15-2.79-2.99,0-1.94,1.28-3.08,2.88-3.08s2.79,1.21,2.79,2.98Zm-4.6.07c0,1.27.73,2.23,1.76,2.23s1.77-.95,1.77-2.26c0-.98-.49-2.22-1.75-2.22s-1.78,1.15-1.78,2.25Z"/>
      <path class="cls-24" d="m326.36,201.1c0-.61-.02-1.09-.05-1.57h.93l.06.95h.03c.29-.54.96-1.09,1.92-1.09.8,0,2.04.48,2.04,2.47v3.46h-1.05v-3.34c0-.94-.35-1.72-1.34-1.72-.69,0-1.23.49-1.42,1.08-.04.13-.07.32-.07.49v3.5h-1.05v-4.23Z"/>
      <path class="cls-24" d="m337.16,205.12c-.28.14-.88.34-1.66.34-1.75,0-2.89-1.19-2.89-2.96s1.22-3.09,3.12-3.09c.62,0,1.18.16,1.47.31l-.23.81c-.26-.14-.65-.28-1.23-.28-1.32,0-2.05.99-2.05,2.2,0,1.34.86,2.17,2.02,2.17.59,0,.99-.15,1.29-.28l.18.79Z"/>
      <path class="cls-24" d="m341.63,205.33l-.09-.73h-.03c-.32.45-.94.86-1.77.86-1.17,0-1.77-.83-1.77-1.66,0-1.41,1.25-2.18,3.49-2.16v-.12c0-.47-.13-1.34-1.32-1.34-.54,0-1.1.16-1.51.43l-.24-.7c.48-.31,1.18-.51,1.91-.51,1.77,0,2.21,1.21,2.21,2.37v2.17c0,.5.02.99.09,1.39h-.95Zm-.16-2.96c-1.14-.02-2.45.18-2.45,1.3,0,.69.46,1.01.98,1.01.76,0,1.25-.48,1.41-.97.04-.11.05-.23.05-.33v-1.01Z"/>
      <path class="cls-24" d="m345.41,197.86v1.67h1.52v.8h-1.52v3.13c0,.72.21,1.13.8,1.13.27,0,.47-.03.61-.08l.05.8c-.21.08-.53.15-.94.15-.48,0-.89-.16-1.14-.45-.29-.32-.41-.83-.41-1.51v-3.17h-.9v-.8h.9v-1.4l1.03-.27Z"/>
    </g>
    <g>
      <path class="cls-24" d="m225.71,204.25c.32.2.87.41,1.4.41.77,0,1.13-.38,1.13-.86s-.31-.77-1.08-1.06c-1.05-.38-1.54-.95-1.54-1.65,0-.93.76-1.7,2.01-1.7.59,0,1.1.16,1.42.36l-.26.77c-.22-.14-.65-.34-1.19-.34-.62,0-.96.36-.96.8,0,.48.34.69,1.1.99,1,.37,1.52.88,1.52,1.74,0,1.03-.8,1.75-2.17,1.75-.63,0-1.22-.16-1.63-.4l.26-.8Z"/>
      <path class="cls-24" d="m231.66,202.19h.02c.14-.2.34-.46.51-.66l1.71-2h1.27l-2.24,2.39,2.55,3.42h-1.29l-2-2.79-.54.6v2.18h-1.05v-8.52h1.05v5.37Z"/>
      <path class="cls-24" d="m237.63,197.89c0,.36-.25.66-.67.66-.38,0-.64-.3-.64-.66,0-.36.27-.66.66-.66s.65.29.65.66Zm-1.18,7.44v-5.8h1.05v5.8h-1.05Z"/>
      <path class="cls-24" d="m239.25,201.42c0-.74-.02-1.34-.05-1.89h.94l.06.99h.02c.42-.71,1.12-1.12,2.06-1.12,1.4,0,2.46,1.18,2.46,2.94,0,2.09-1.28,3.12-2.64,3.12-.78,0-1.44-.34-1.79-.91h-.02v3.16h-1.05v-6.29Zm1.05,1.55c0,.15.02.29.05.43.19.74.83,1.24,1.58,1.24,1.12,0,1.76-.92,1.76-2.25,0-1.16-.61-2.15-1.72-2.15-.72,0-1.4.51-1.6,1.3-.04.14-.07.29-.07.43v1Z"/>
      <path class="cls-24" d="m252.76,205.12c-.28.14-.88.34-1.66.34-1.75,0-2.89-1.19-2.89-2.96s1.22-3.09,3.12-3.09c.62,0,1.18.16,1.47.31l-.23.81c-.26-.14-.65-.28-1.23-.28-1.32,0-2.05.99-2.05,2.2,0,1.34.86,2.17,2.02,2.17.59,0,.99-.15,1.29-.28l.18.79Z"/>
      <path class="cls-24" d="m259.18,202.37c0,2.15-1.49,3.09-2.88,3.09-1.57,0-2.79-1.15-2.79-2.99,0-1.94,1.28-3.08,2.88-3.08s2.79,1.21,2.79,2.98Zm-4.6.07c0,1.27.73,2.23,1.76,2.23s1.77-.95,1.77-2.26c0-.98-.49-2.22-1.75-2.22s-1.78,1.15-1.78,2.25Z"/>
      <path class="cls-24" d="m260.52,201.1c0-.61-.02-1.09-.05-1.57h.93l.06.95h.03c.29-.54.96-1.09,1.92-1.09.8,0,2.04.48,2.04,2.47v3.46h-1.05v-3.34c0-.94-.35-1.72-1.34-1.72-.69,0-1.23.49-1.42,1.08-.04.13-.07.32-.07.49v3.5h-1.05v-4.23Z"/>
      <path class="cls-24" d="m267.18,201.1c0-.61-.02-1.09-.05-1.57h.93l.06.95h.03c.29-.54.96-1.09,1.92-1.09.8,0,2.04.48,2.04,2.47v3.46h-1.05v-3.34c0-.94-.35-1.72-1.34-1.72-.69,0-1.23.49-1.42,1.08-.04.13-.07.32-.07.49v3.5h-1.05v-4.23Z"/>
      <path class="cls-24" d="m274.43,202.62c.02,1.43.92,2.01,1.98,2.01.75,0,1.22-.14,1.61-.3l.19.75c-.37.17-1.01.37-1.94.37-1.78,0-2.85-1.19-2.85-2.93s1.04-3.13,2.73-3.13c1.89,0,2.39,1.66,2.39,2.73,0,.22-.01.38-.04.49h-4.07Zm3.09-.76c.01-.67-.27-1.71-1.46-1.71-1.08,0-1.54.97-1.62,1.71h3.07Z"/>
      <path class="cls-24" d="m283.99,205.12c-.28.14-.88.34-1.66.34-1.75,0-2.89-1.19-2.89-2.96s1.22-3.09,3.12-3.09c.62,0,1.18.16,1.47.31l-.23.81c-.26-.14-.65-.28-1.23-.28-1.32,0-2.05.99-2.05,2.2,0,1.34.86,2.17,2.02,2.17.59,0,.99-.15,1.29-.28l.18.79Z"/>
      <path class="cls-24" d="m286.65,197.86v1.67h1.52v.8h-1.52v3.13c0,.72.21,1.13.8,1.13.27,0,.47-.03.61-.08l.05.8c-.21.08-.53.15-.94.15-.49,0-.89-.16-1.14-.45-.29-.32-.41-.83-.41-1.51v-3.17h-.9v-.8h.9v-1.4l1.03-.27Z"/>
      <path class="cls-24" d="m290.53,197.89c0,.36-.25.66-.67.66-.38,0-.64-.3-.64-.66,0-.36.27-.66.66-.66s.65.29.65.66Zm-1.18,7.44v-5.8h1.05v5.8h-1.05Z"/>
      <path class="cls-24" d="m297.41,202.37c0,2.15-1.49,3.09-2.88,3.09-1.57,0-2.79-1.15-2.79-2.99,0-1.94,1.28-3.08,2.88-3.08s2.79,1.21,2.79,2.98Zm-4.6.07c0,1.27.73,2.23,1.76,2.23s1.77-.95,1.77-2.26c0-.98-.49-2.22-1.75-2.22s-1.78,1.15-1.78,2.25Z"/>
      <path class="cls-24" d="m298.75,201.1c0-.61-.02-1.09-.05-1.57h.93l.06.95h.03c.29-.54.96-1.09,1.92-1.09.8,0,2.04.48,2.04,2.47v3.46h-1.05v-3.34c0-.94-.35-1.72-1.34-1.72-.69,0-1.23.49-1.42,1.08-.04.13-.07.32-.07.49v3.5h-1.05v-4.23Z"/>
    </g>
    <g>
      <path class="cls-24" d="m372.95,28.74c.39.24.96.44,1.55.44.89,0,1.41-.46,1.41-1.15,0-.62-.37-.99-1.27-1.33-1.1-.39-1.78-.97-1.78-1.91,0-1.05.87-1.83,2.18-1.83.68,0,1.19.16,1.49.33l-.24.71c-.21-.13-.67-.32-1.27-.32-.92,0-1.27.55-1.27,1.01,0,.62.41.93,1.34,1.29,1.14.45,1.72,1,1.72,1.98s-.76,1.94-2.36,1.94c-.65,0-1.36-.2-1.72-.44l.23-.73Z"/>
      <path class="cls-24" d="m378.52,27.55c.02,1.19.77,1.68,1.65,1.68.63,0,1.01-.11,1.34-.25l.15.62c-.31.14-.84.31-1.61.31-1.49,0-2.38-.99-2.38-2.44s.86-2.61,2.27-2.61c1.58,0,1.99,1.38,1.99,2.27,0,.18-.01.32-.03.41h-3.39Zm2.57-.63c0-.55-.23-1.42-1.21-1.42-.9,0-1.28.81-1.35,1.42h2.56Z"/>
      <path class="cls-24" d="m383.04,26.28c0-.5-.02-.9-.04-1.31h.76l.05.78h.02c.27-.46.72-.89,1.53-.89.66,0,1.16.4,1.36.97h.02c.15-.27.34-.48.54-.63.29-.22.61-.34,1.06-.34.65,0,1.6.42,1.6,2.1v2.85h-.86v-2.73c0-.94-.35-1.49-1.05-1.49-.5,0-.89.37-1.05.79-.04.13-.07.28-.07.44v2.99h-.86v-2.9c0-.77-.34-1.32-1-1.32-.55,0-.95.44-1.1.88-.04.13-.07.28-.07.43v2.91h-.86v-3.53Z"/>
      <path class="cls-24" d="m394.06,29.8l-.08-.61h-.03c-.27.38-.79.72-1.48.72-.98,0-1.48-.69-1.48-1.39,0-1.17,1.04-1.81,2.9-1.8v-.1c0-.39-.11-1.12-1.1-1.12-.45,0-.92.13-1.26.36l-.2-.58c.4-.26.99-.42,1.59-.42,1.48,0,1.84,1.01,1.84,1.98v1.81c0,.41.02.82.07,1.16h-.79Zm-.14-2.47c-.95-.02-2.04.15-2.04,1.09,0,.58.38.84.82.84.64,0,1.04-.4,1.18-.81.03-.09.04-.19.04-.28v-.84Z"/>
      <path class="cls-24" d="m396.2,26.28c0-.5-.02-.9-.04-1.31h.78l.05.79h.02c.24-.45.8-.9,1.6-.9.66,0,1.7.4,1.7,2.06v2.88h-.87v-2.79c0-.78-.29-1.44-1.12-1.44-.58,0-1.03.41-1.18.9-.04.11-.06.26-.06.41v2.91h-.88v-3.53Z"/>
      <path class="cls-24" d="m402.77,23.58v1.39h1.26v.67h-1.26v2.6c0,.6.17.94.66.94.23,0,.39-.03.51-.06l.04.67c-.17.07-.44.12-.79.12-.4,0-.74-.13-.95-.37-.24-.27-.34-.69-.34-1.26v-2.64h-.75v-.67h.75v-1.16l.86-.23Z"/>
      <path class="cls-24" d="m406,23.6c0,.3-.21.55-.56.55-.32,0-.53-.25-.53-.55,0-.3.22-.55.55-.55s.54.24.54.55Zm-.98,6.2v-4.83h.88v4.83h-.88Z"/>
      <path class="cls-24" d="m410.81,29.63c-.23.11-.74.28-1.39.28-1.46,0-2.41-.99-2.41-2.47s1.02-2.58,2.6-2.58c.52,0,.98.13,1.22.26l-.2.68c-.21-.11-.54-.23-1.03-.23-1.1,0-1.71.83-1.71,1.83,0,1.12.72,1.81,1.68,1.81.49,0,.83-.12,1.08-.23l.15.66Z"/>
      <path class="cls-24" d="m388.85,38.85c-.05-.94-.11-2.07-.11-2.91h-.03c-.23.78-.51,1.63-.85,2.55l-1.19,3.27h-.66l-1.1-3.21c-.32-.95-.58-1.82-.77-2.61h-.02c-.02.84-.07,1.96-.13,2.97l-.18,2.89h-.83l.47-6.74h1.11l1.15,3.26c.28.82.5,1.57.68,2.27h.03c.18-.68.41-1.42.71-2.27l1.2-3.26h1.11l.42,6.74h-.85l-.16-2.96Z"/>
      <path class="cls-24" d="m393.92,41.8l-.08-.61h-.03c-.27.38-.79.72-1.48.72-.98,0-1.48-.69-1.48-1.39,0-1.17,1.04-1.81,2.9-1.8v-.1c0-.39-.11-1.12-1.1-1.12-.45,0-.92.13-1.26.36l-.2-.58c.4-.26.99-.42,1.59-.42,1.48,0,1.84,1.01,1.84,1.98v1.81c0,.41.02.82.07,1.16h-.79Zm-.14-2.47c-.95-.02-2.04.15-2.04,1.09,0,.58.38.84.82.84.64,0,1.04-.4,1.18-.81.03-.09.04-.19.04-.28v-.84Z"/>
      <path class="cls-24" d="m396.05,38.54c0-.62-.02-1.12-.04-1.57h.79l.05.82h.02c.35-.59.93-.93,1.72-.93,1.17,0,2.05.99,2.05,2.45,0,1.74-1.07,2.6-2.2,2.6-.65,0-1.2-.28-1.49-.76h-.02v2.63h-.87v-5.24Zm.87,1.29c0,.12.01.24.04.36.16.61.69,1.03,1.31,1.03.93,0,1.47-.76,1.47-1.87,0-.96-.5-1.79-1.44-1.79-.6,0-1.16.42-1.33,1.08-.03.11-.06.24-.06.36v.84Z"/>
    </g>
    <g>
      <path class="cls-24" d="m406.47,49.41h-2.05v-.73h4.99v.73h-2.06v6h-.88v-6Z"/>
      <path class="cls-24" d="m409.91,53.15c.02,1.19.77,1.68,1.65,1.68.63,0,1.01-.11,1.34-.25l.15.62c-.31.14-.84.31-1.61.31-1.49,0-2.38-.99-2.38-2.44s.86-2.61,2.27-2.61c1.58,0,1.99,1.38,1.99,2.27,0,.18-.01.32-.03.41h-3.39Zm2.57-.63c0-.55-.23-1.42-1.21-1.42-.9,0-1.28.81-1.35,1.42h2.56Z"/>
      <path class="cls-24" d="m414.8,50.58l.69,1.04c.18.27.33.52.49.79h.02c.16-.28.32-.53.49-.8l.67-1.03h.96l-1.65,2.34,1.69,2.5h-.99l-.72-1.09c-.19-.28-.35-.55-.52-.84h-.02c-.16.29-.32.55-.51.84l-.69,1.09h-.97l1.72-2.47-1.64-2.37h.98Z"/>
      <path class="cls-24" d="m420.21,49.19v1.39h1.26v.67h-1.26v2.6c0,.6.17.94.67.94.23,0,.39-.03.51-.06l.04.67c-.17.07-.44.12-.79.12-.4,0-.74-.13-.95-.37-.24-.27-.34-.69-.34-1.26v-2.64h-.75v-.67h.75v-1.16l.86-.23Z"/>
    </g>
    <g>
      <path class="cls-24" d="m385.5,98.7v6.74h-.88v-6.74h.88Z"/>
      <path class="cls-24" d="m387.09,101.91c0-.5-.02-.9-.04-1.31h.76l.05.78h.02c.27-.46.72-.89,1.53-.89.66,0,1.16.4,1.36.97h.02c.15-.27.34-.48.54-.63.29-.22.61-.34,1.06-.34.65,0,1.6.42,1.6,2.1v2.85h-.86v-2.73c0-.94-.35-1.49-1.05-1.49-.5,0-.89.37-1.05.79-.04.13-.07.28-.07.44v2.99h-.86v-2.9c0-.77-.34-1.32-1-1.32-.55,0-.95.44-1.1.88-.04.13-.07.28-.07.43v2.91h-.86v-3.53Z"/>
      <path class="cls-24" d="m398.11,105.43l-.08-.61h-.03c-.27.38-.79.72-1.48.72-.98,0-1.48-.69-1.48-1.39,0-1.17,1.04-1.81,2.9-1.8v-.1c0-.39-.11-1.12-1.1-1.12-.45,0-.92.13-1.26.36l-.2-.58c.4-.26.99-.42,1.59-.42,1.48,0,1.84,1.01,1.84,1.98v1.81c0,.41.02.82.07,1.16h-.79Zm-.14-2.47c-.95-.02-2.04.15-2.04,1.09,0,.58.38.84.82.84.64,0,1.04-.4,1.18-.81.03-.09.04-.19.04-.28v-.84Z"/>
      <path class="cls-24" d="m404.42,100.6c-.02.34-.04.73-.04,1.32v2.81c0,1.12-.23,1.79-.69,2.21-.47.44-1.15.58-1.76.58s-1.22-.14-1.61-.4l.22-.68c.32.2.82.39,1.42.39.9,0,1.56-.47,1.56-1.69v-.54h-.02c-.26.45-.79.81-1.54.81-1.21,0-2.06-1.02-2.06-2.36,0-1.64,1.07-2.56,2.18-2.56.84,0,1.29.43,1.51.83h.02l.04-.72h.78Zm-.92,1.9c0-.14-.01-.28-.05-.39-.16-.51-.59-.94-1.23-.94-.84,0-1.44.71-1.44,1.83,0,.95.49,1.74,1.43,1.74.55,0,1.03-.34,1.22-.91.05-.14.07-.31.07-.47v-.87Z"/>
      <path class="cls-24" d="m406.33,103.18c.02,1.19.77,1.68,1.65,1.68.63,0,1.01-.11,1.34-.25l.15.62c-.31.14-.84.31-1.61.31-1.49,0-2.38-.99-2.38-2.44s.86-2.61,2.27-2.61c1.58,0,1.99,1.38,1.99,2.27,0,.18-.01.32-.03.41h-3.39Zm2.57-.63c0-.55-.23-1.42-1.21-1.42-.9,0-1.28.81-1.35,1.42h2.56Z"/>
      <path class="cls-24" d="m410.72,104.54c.26.17.73.34,1.17.34.64,0,.94-.32.94-.72s-.26-.64-.9-.88c-.87-.32-1.29-.79-1.28-1.37,0-.78.63-1.42,1.67-1.42.49,0,.92.13,1.18.3l-.22.64c-.19-.12-.54-.28-.99-.28-.52,0-.8.3-.8.66,0,.4.28.58.92.82.83.31,1.27.73,1.27,1.45,0,.86-.67,1.46-1.81,1.46-.53,0-1.02-.14-1.36-.34l.21-.66Z"/>
    </g>
    <g>
      <path class="cls-24" d="m380.59,69.09c.44-.09,1.08-.14,1.67-.14.92,0,1.53.18,1.95.55.33.29.53.75.53,1.28,0,.88-.56,1.47-1.27,1.72v.02c.51.18.82.67.99,1.36.22.94.38,1.59.52,1.85h-.9c-.11-.19-.26-.77-.44-1.61-.2-.92-.56-1.28-1.35-1.31h-.82v2.92h-.87v-6.64Zm.87,3.07h.89c.93,0,1.52-.51,1.52-1.28,0-.88-.63-1.26-1.55-1.26-.42,0-.71.04-.86.08v2.46Z"/>
      <path class="cls-24" d="m386.48,73.47c.02,1.19.77,1.68,1.65,1.68.63,0,1.01-.11,1.34-.25l.15.62c-.31.14-.84.31-1.61.31-1.49,0-2.38-.99-2.38-2.44s.86-2.61,2.27-2.61c1.58,0,1.99,1.38,1.99,2.27,0,.18-.01.32-.03.41h-3.39Zm2.57-.63c0-.55-.23-1.42-1.21-1.42-.9,0-1.28.81-1.35,1.42h2.56Z"/>
      <path class="cls-24" d="m391,72.47c0-.62-.02-1.12-.04-1.57h.79l.05.82h.02c.35-.59.93-.93,1.71-.93,1.17,0,2.05.99,2.05,2.45,0,1.74-1.07,2.6-2.2,2.6-.65,0-1.2-.28-1.49-.76h-.02v2.63h-.87v-5.24Zm.87,1.29c0,.12.01.25.04.36.16.61.69,1.03,1.31,1.03.93,0,1.47-.76,1.47-1.87,0-.96-.51-1.79-1.44-1.79-.6,0-1.16.42-1.33,1.08-.03.11-.06.24-.06.36v.84Z"/>
      <path class="cls-24" d="m396.69,72.4c0-.57-.01-1.06-.04-1.51h.77l.03.95h.03c.23-.65.76-1.06,1.35-1.06.1,0,.16,0,.25.02v.83c-.09-.02-.18-.03-.3-.03-.62,0-1.06.47-1.18,1.12-.02.12-.04.27-.04.41v2.58h-.87v-3.33Z"/>
      <path class="cls-24" d="m400.35,73.47c.02,1.19.77,1.68,1.65,1.68.63,0,1.01-.11,1.34-.25l.15.62c-.31.14-.84.31-1.61.31-1.49,0-2.38-.99-2.38-2.44s.86-2.61,2.27-2.61c1.58,0,1.99,1.38,1.99,2.27,0,.18-.01.32-.03.41h-3.39Zm2.57-.63c0-.55-.23-1.42-1.21-1.42-.9,0-1.28.81-1.35,1.42h2.56Z"/>
      <path class="cls-24" d="m404.74,74.84c.26.17.73.34,1.17.34.64,0,.94-.32.94-.72s-.26-.64-.9-.88c-.87-.32-1.29-.79-1.28-1.37,0-.78.63-1.42,1.67-1.42.49,0,.92.13,1.18.3l-.22.64c-.19-.12-.54-.28-.99-.28-.52,0-.8.3-.8.66,0,.4.28.58.92.82.83.31,1.27.73,1.27,1.45,0,.86-.67,1.46-1.81,1.46-.53,0-1.02-.14-1.36-.34l.21-.66Z"/>
      <path class="cls-24" d="m410.86,72.71v.64h-2.47v-.64h2.47Z"/>
      <path class="cls-24" d="m377.1,85.47c.02,1.19.77,1.68,1.65,1.68.63,0,1.01-.11,1.34-.25l.15.62c-.31.14-.84.31-1.61.31-1.49,0-2.38-.99-2.38-2.44s.86-2.61,2.27-2.61c1.58,0,1.99,1.38,1.99,2.27,0,.18-.01.32-.03.41h-3.39Zm2.57-.63c0-.55-.23-1.42-1.21-1.42-.9,0-1.28.81-1.35,1.42h2.56Z"/>
      <path class="cls-24" d="m381.61,84.2c0-.5-.02-.9-.04-1.31h.78l.05.79h.02c.24-.45.8-.9,1.6-.9.66,0,1.7.4,1.7,2.06v2.88h-.87v-2.79c0-.78-.29-1.44-1.12-1.44-.58,0-1.03.41-1.18.9-.04.11-.06.26-.06.41v2.91h-.88v-3.53Z"/>
      <path class="cls-24" d="m388.18,81.5v1.39h1.26v.67h-1.26v2.6c0,.6.17.94.66.94.23,0,.39-.03.51-.06l.04.67c-.17.07-.44.12-.79.12-.4,0-.74-.13-.95-.37-.24-.27-.34-.69-.34-1.26v-2.64h-.75v-.67h.75v-1.16l.86-.23Z"/>
      <path class="cls-24" d="m393.11,87.73l-.08-.61h-.03c-.27.38-.79.72-1.48.72-.98,0-1.48-.69-1.48-1.39,0-1.17,1.04-1.81,2.9-1.8v-.1c0-.39-.11-1.12-1.1-1.12-.45,0-.92.13-1.26.36l-.2-.58c.4-.26.99-.42,1.59-.42,1.48,0,1.84,1.01,1.84,1.98v1.81c0,.41.02.82.07,1.16h-.79Zm-.14-2.47c-.95-.02-2.04.15-2.04,1.09,0,.58.38.84.82.84.64,0,1.04-.4,1.18-.81.03-.09.04-.19.04-.28v-.84Z"/>
      <path class="cls-24" d="m396.27,81.5v1.39h1.26v.67h-1.26v2.6c0,.6.17.94.66.94.23,0,.39-.03.51-.06l.04.67c-.17.07-.44.12-.79.12-.4,0-.74-.13-.95-.37-.24-.27-.34-.69-.34-1.26v-2.64h-.75v-.67h.75v-1.16l.86-.23Z"/>
      <path class="cls-24" d="m399.51,81.53c0,.3-.21.55-.56.55-.32,0-.53-.25-.53-.55,0-.3.22-.55.55-.55s.54.24.54.55Zm-.98,6.2v-4.83h.88v4.83h-.88Z"/>
      <path class="cls-24" d="m405.24,85.27c0,1.79-1.24,2.57-2.4,2.57-1.31,0-2.32-.96-2.32-2.49,0-1.62,1.06-2.56,2.4-2.56s2.33,1.01,2.33,2.48Zm-3.83.06c0,1.06.61,1.86,1.47,1.86s1.47-.79,1.47-1.88c0-.82-.41-1.85-1.46-1.85s-1.48.96-1.48,1.88Z"/>
      <path class="cls-24" d="m406.35,84.2c0-.5-.02-.9-.04-1.31h.78l.05.79h.02c.24-.45.8-.9,1.6-.9.66,0,1.7.4,1.7,2.06v2.88h-.87v-2.79c0-.78-.29-1.44-1.12-1.44-.58,0-1.03.41-1.18.9-.04.11-.06.26-.06.41v2.91h-.88v-3.53Z"/>
      <path class="cls-24" d="m411.78,86.84c.26.17.73.34,1.17.34.64,0,.94-.32.94-.72s-.26-.64-.9-.88c-.87-.32-1.29-.79-1.28-1.37,0-.78.63-1.42,1.67-1.42.49,0,.92.13,1.18.3l-.22.64c-.19-.12-.54-.28-.99-.28-.52,0-.8.3-.8.66,0,.4.28.58.92.82.83.31,1.27.73,1.27,1.45,0,.86-.67,1.46-1.81,1.46-.53,0-1.02-.14-1.36-.34l.21-.66Z"/>
    </g>
  </g>
  <g>
    <path d="m375.66,168.68c.15-1.96.79-3.92,2.24-5.57.34-.39.74-.69,1.21-.92.92-.45,1.69.03,2.06.69.4.72.49,1.51.45,2.32-.08,1.66-.61,3.18-1.47,4.58-.48.77-1.06,1.45-1.91,1.85-.89.42-1.68.14-2.13-.74-.28-.55-.45-1.33-.45-2.22Zm3.05-1.99s0,0,0,0c.42,0,.84-.01,1.26,0,.25.01.33-.1.36-.32.08-.52.21-1.03.27-1.55.08-.66.1-1.31-.14-1.95-.18-.47-.5-.62-.97-.45-.37.13-.62.38-.85.69-.75,1.01-1.11,2.17-1.43,3.36-.04.14,0,.22.18.22.44-.01.88,0,1.32,0Zm-2.08,3.2c0,.25.05.71.22,1.15.15.39.5.54.9.4.49-.17.8-.55,1.07-.95.63-.94.97-2,1.25-3.08.05-.19-.02-.23-.21-.24-.87-.05-1.74.01-2.6,0-.16,0-.21.05-.26.21-.2.75-.33,1.51-.37,2.51Z"/>
    <path d="m373.08,160.45c.85,0,1.7,0,2.55,0,.15,0,.3,0,.44.06.16.07.31.14.31.36,0,.22-.04.42-.27.52-.24.1-.5.13-.76.13-.92,0-1.84.02-2.76,0-.25,0-.31.09-.36.3-.4,2.08-.8,4.15-1.21,6.22-.11.56-.41.83-.82.75-.35-.06-.51-.28-.41-.62.24-.83.49-1.65.74-2.48.4-1.32.79-2.64,1.19-3.96.03-.11.06-.21-.1-.2-.66.02-1.32-.07-1.97.04-.76.12-1.29.6-1.71,1.21-.09.13-.16.28-.3.37-.09.06-.18.08-.28,0-.09-.07-.09-.17-.04-.24.61-1.02,1.22-2.03,2.47-2.38.43-.12.87-.09,1.31-.09.66,0,1.32,0,1.98,0Z"/>
  </g>
  <g>
    <path d="m341.79,133.04c1.04,0,2.07,0,3.11,0,.4,0,.64.02.49.56-.15.57-.17,1.17-.25,1.76-.02.12-.04.24-.18.24-.15,0-.15-.14-.15-.25,0-.19.02-.37.07-.55.19-.73-.22-1.42-1.03-1.32-.28.04-.57.05-.84,0-.68-.14-.89.28-1.01.79-.44,1.79-.84,3.6-1.31,5.39-.14.55.1.65.52.7.07,0,.15,0,.23,0,.21.04.59-.09.58.11,0,.38-.4.21-.63.21-1.04.02-2.07.01-3.11,0-.13,0-.34.08-.35-.16-.01-.25.2-.16.33-.17.15-.01.3,0,.45,0,.56-.04.86-.24,1.05-.88.52-1.79.82-3.63,1.4-5.4.13-.39.05-.66-.46-.59-.22.03-.45.02-.68,0-1.37-.08-1.61.3-2.19,1.55-.05.1-.06.22-.11.32-.04.09-.07.25-.21.22-.2-.04-.11-.2-.07-.32.2-.65.4-1.31.62-1.96.09-.26.33-.26.57-.26.53,0,1.05,0,1.58,0,.53,0,1.05,0,1.58,0,0,0,0,0,0,0Z"/>
    <path d="m341.86,55.29c1.05,0,2.11,0,3.16,0,.3,0,.48,0,.37.42-.15.59-.18,1.21-.25,1.82-.01.11,0,.23-.17.23-.16,0-.16-.12-.17-.23-.02-.21.06-.4.1-.6.14-.83-.24-1.29-1.08-1.29-.26,0-.53,0-.79,0-.87,0-.88,0-1.06.85-.37,1.79-.86,3.56-1.31,5.33-.15.61-.1.66.53.69.28.01.8-.14.79.15-.02.37-.53.16-.82.17-.96.03-1.92.01-2.88,0-.13,0-.35.09-.36-.13-.02-.28.23-.18.37-.19,1.26-.05,1.17-.08,1.56-1.3.52-1.66.72-3.39,1.31-5.02.1-.29.11-.61-.39-.56-.26.03-.53.03-.79,0-1.06-.12-1.58.26-2.1,1.45-.1.23-.17.72-.35.63-.33-.16,0-.52.06-.78.09-.4.29-.77.36-1.16.08-.42.31-.48.68-.47,1.07.02,2.15,0,3.22,0h0Z"/>
    <path d="m330.58,60.61c1.13-2.25,3.37-3.48,4.98-5.36-1.28-.4-2.55-1.31-3.66.41-.1-.73.41-1.49,1.1-1.83.62-.3,1.05-.21,1.54.3.85.89,1.45.82,2.09-.24.07-.12.12-.34.31-.23.17.1.02.27-.05.39-.45.79-1.12,1.39-1.75,2.03-.99,1.01-2.14,1.86-3.11,2.97.58.13,1.1.28,1.61.48.93.37,1.97-.07,2.45-1,.09-.17.18-.31.34-.42.18.07.15.23.11.33-.35.96-.93,1.73-1.93,2.12-.48.19-.84.05-1.21-.3-.29-.27-.52-.65-.97-.71-.66-.09-1.05.3-1.41.74-.11.14-.16.34-.44.3Z"/>
    <path d="m331.91,136.92c.93.06,1.62.51,2.42.51.77,0,1.34-.28,1.68-.98.03-.07.06-.14.11-.19.1-.12.19-.35.38-.24.12.07.05.26,0,.41-.33.8-.8,1.47-1.61,1.85-.68.32-1.17.19-1.8-.46-.7-.72-1.05-.72-1.76.02-.14.15-.28.3-.42.46-.08.09-.17.18-.28.1-.13-.09-.01-.2.04-.29.38-.67.91-1.23,1.46-1.76,1.03-.99,2.1-1.95,3.16-2.92.12-.11.21-.26.25-.47-.59-.02-1.1-.3-1.67-.4-.71-.13-1.25.05-1.69.59-.08.1-.13.27-.29.19-.14-.06-.11-.25-.05-.35.32-.65.72-1.22,1.48-1.42.7-.18,1.12.22,1.52.69.39.46.82.45,1.3.06.31-.25.43-.65.83-.82-.06.52-.39.9-.71,1.27-.85.94-1.78,1.8-2.72,2.66-.5.46-1,.93-1.62,1.5Z"/>
  </g>
  <g>
    <path d="m267.72,58.27c.13-1.71.7-3.32,1.9-4.66.3-.33.66-.57,1.09-.71.5-.17.94-.05,1.28.36.48.58.56,1.29.54,2-.04,1.41-.48,2.7-1.23,3.88-.35.54-.78,1.01-1.35,1.34-.74.43-1.47.23-1.86-.53-.26-.51-.36-1.05-.38-1.68Zm2.36-1.33s0,0,0-.01c-.34,0-.68.01-1.02,0-.15,0-.2.04-.24.18-.12.44-.23.89-.27,1.34-.04.47-.08.95.05,1.42.16.56.56.72,1.05.43.18-.11.33-.26.46-.42.65-.79.93-1.74,1.19-2.71.04-.16,0-.24-.18-.23-.35.01-.7,0-1.05,0Zm.16-.35s0,0,0,0c.34,0,.68-.02,1.02,0,.21.02.26-.08.29-.24.08-.41.18-.81.22-1.22.05-.57.12-1.15-.15-1.7-.17-.35-.4-.43-.76-.29-.22.09-.39.23-.54.41-.72.83-1.04,1.84-1.31,2.88-.04.16.05.16.16.16.36,0,.72,0,1.08,0Z"/>
    <path d="m264.45,54.72c-.4,0-.8,0-1.2,0-.1,0-.2-.01-.23.13-.13.66-.24,1.31-.03,1.98.28.86,1.09,1.32,1.98,1.11.42-.1.81-.28,1.17-.5.09-.06.21-.17.3,0,.07.13-.04.22-.12.27-.91.55-1.85.83-2.89.38-1.02-.44-1.51-1.25-1.62-2.33-.16-1.65.87-3.46,3.08-4.02.51-.13,1.03-.13,1.55-.11.13,0,.27.04.27.21,0,.15-.12.24-.26.24-.24.01-.48,0-.72,0-1.27-.02-2.16.88-2.48,1.9-.08.26,0,.3.24.29.71-.02,1.42-.01,2.13,0,.17,0,.42-.05.44.19.02.3-.27.25-.45.26-.39.02-.78,0-1.17,0,0,0,0,0,0,0Z"/>
  </g>
  <g>
    <path d="m117.45,131.59c.84,0,1.68,0,2.52,0,.32,0,.34.04.29.35-.07.43-.13.86-.19,1.29,0,.05,0,.1-.02.13-.03.07-.02.19-.13.18-.12-.01-.13-.12-.11-.22.05-.24.04-.49.04-.74,0-.51-.19-.72-.72-.74-.35-.01-.69,0-1.04,0-.22,0-.33.09-.38.3-.27,1.09-.55,2.18-.82,3.26-.12.49-.24.98-.37,1.48-.07.28-.03.35.25.37.22.02.44.02.66.02.1,0,.22.02.21.15,0,.11-.11.12-.21.12-.35.01-.69-.03-1.04-.05-.57-.04-1.13.03-1.7.05-.06,0-.13,0-.19,0-.08-.01-.15-.06-.15-.13,0-.08.08-.12.16-.13.18,0,.37,0,.55,0,.55,0,.6-.02.74-.55.39-1.52.77-3.04,1.14-4.56.07-.3.05-.33-.27-.32-.39,0-.78-.03-1.17.04-.44.08-.74.32-.94.71-.12.24-.23.48-.31.73-.04.11-.08.26-.23.2-.16-.06-.05-.19-.01-.28.16-.45.33-.89.47-1.34.08-.24.2-.33.45-.33.84,0,1.68,0,2.52,0,0,0,0,0,0,0Z"/>
    <path d="m110.86,131.09c-.44-.01-.77.18-1,.55-.05.07-.09.23-.21.16-.11-.06-.04-.19,0-.3.17-.43.42-.78.82-1.03.45-.28.8-.25,1.19.11.13.12.23.26.35.39.31.33.68.33,1.01,0,.18-.18.31-.38.45-.58.04-.06.08-.18.17-.12.09.05.06.16.02.25-.14.26-.32.49-.51.71-.84,1.01-1.87,1.82-2.83,2.71-.16.15-.32.3-.46.47-.06.06-.13.2.03.2.48,0,.89.24,1.34.34.7.16,1.37-.13,1.71-.76.04-.08.07-.17.13-.24.04-.06.04-.2.14-.16.1.03.11.16.1.26-.08.74-1.1,1.72-1.83,1.75-.25.01-.46-.09-.63-.27-.12-.13-.24-.25-.35-.38-.29-.32-.62-.36-.98-.12-.25.17-.43.39-.61.63-.06.07-.1.21-.22.14-.14-.08-.03-.2.01-.29.35-.63.86-1.13,1.38-1.61.73-.67,1.48-1.33,2.21-2,.08-.07.16-.15.23-.23.06-.07.09-.16-.05-.17-.43-.03-.81-.26-1.23-.35-.13-.03-.25-.04-.38-.04Z"/>
    <path d="m130.66,134.4c0,.78,0,1.57,0,2.35,0,.4.09.5.49.53.15.01.31,0,.47,0,.1,0,.19.02.19.14,0,.11-.1.12-.18.12-.89,0-1.77,0-2.66,0-.09,0-.2-.04-.19-.15,0-.09.11-.11.19-.12.24-.01.47.01.71-.05.18-.04.27-.13.27-.32,0-1.48,0-2.96,0-4.44,0-.1-.02-.15-.14-.13-.26.05-.52.09-.78.14-.12.02-.24.04-.25-.12-.01-.15.12-.13.22-.13.47,0,.88-.18,1.27-.43.32-.2.37-.16.37.23,0,.78,0,1.57,0,2.35h.01Z"/>
    <path d="m124.19,135.53c-.83,0-1.66,0-2.49,0-.08,0-.16,0-.24-.02-.11-.02-.14-.1-.16-.2-.01-.12.09-.12.16-.14.09-.02.18-.02.27-.02,1.63,0,3.27,0,4.9,0,.15,0,.38-.05.39.18,0,.26-.23.2-.39.2-.81,0-1.63,0-2.44,0h0Z"/>
  </g>
  <g>
    <path d="m98.31,73.3c-.05-.12-.04-.18-.02-.25.14-.43.29-.87.43-1.3.06-.2.19-.28.4-.28,1.46.01,2.92.02,4.38.01.2,0,.25.09.22.26-.08.45-.16.9-.23,1.35-.01.06-.03.14-.09.13-.09,0-.09-.11-.07-.17.08-.25.04-.51.05-.77.01-.28-.11-.45-.39-.52-.41-.1-.83-.05-1.25-.06-.18,0-.2.16-.24.3-.24.91-.47,1.82-.71,2.73-.14.53-.26,1.06-.41,1.58-.06.21-.03.3.21.35.23.04.46.02.68.03.1,0,.18.01.17.14-.01.13-.11.09-.18.09-.86,0-1.72,0-2.58,0-.1,0-.23.02-.22-.13,0-.12.12-.1.21-.1.18,0,.36,0,.54,0,.29,0,.48-.12.55-.43.27-1.13.56-2.25.84-3.38.07-.29.16-.57.23-.86.05-.21,0-.33-.25-.32-.26,0-.52,0-.78,0-.58.02-.97.31-1.17.85-.09.24-.16.48-.33.74Z"/>
    <path d="m114.52,72.15c.18-.07.35-.06.51-.1.32-.07.64-.17.88-.41.05-.05.12-.15.19-.1.05.03.07.14.08.21.02.09.01.18.01.27,0,1.4,0,2.8,0,4.2,0,.36.06.43.42.47.08,0,.16,0,.24,0,.12.02.34-.08.35.11,0,.21-.22.12-.33.12-.65.01-1.3,0-1.95,0-.06,0-.12,0-.18,0-.07,0-.12-.03-.12-.1,0-.08.04-.13.13-.13.15,0,.3,0,.45,0,.31-.02.41-.12.41-.42,0-1.3,0-2.6,0-3.9,0-.21-.05-.26-.25-.19-.18.06-.37.07-.56.11-.11.02-.22.04-.28-.13Z"/>
    <path d="m89.91,72.94s.1.07.15.12c.5.48,1.01.94,1.48,1.45.16.17.21.1.32,0,.46-.46.92-.92,1.38-1.38.02-.02.04-.05.06-.06.09-.05.15-.25.28-.12.12.11-.04.21-.11.3-.43.53-.93.99-1.4,1.48-.14.14-.15.21.01.35.54.45.96,1.02,1.45,1.52.08.08.12.19.03.26-.1.08-.15-.05-.21-.11-.51-.5-1.02-.99-1.51-1.5-.12-.12-.17-.14-.3,0-.46.48-.94.95-1.43,1.41-.07.07-.16.28-.3.13-.11-.12.06-.2.14-.28.45-.48.9-.96,1.36-1.43.14-.15.12-.23-.02-.36-.46-.47-.91-.95-1.36-1.43-.07-.07-.14-.15-.12-.26,0-.05.05-.06.1-.07Z"/>
    <path d="m97.5,78.89c-.3,0-.45-.22-.61-.4-.74-.86-1.09-1.87-1.21-2.99-.12-1.12.05-2.18.55-3.19.24-.48.54-.93.95-1.29.08-.07.15-.15.31-.15-.69.72-1.1,1.57-1.28,2.55-.17.97-.19,1.93,0,2.9.18.99.59,1.85,1.3,2.57Z"/>
    <path d="m118.37,78.9c1.1-1.12,1.41-2.54,1.4-4.02,0-1.48-.28-2.9-1.5-4.02.25,0,.36.12.47.22.71.71,1.13,1.58,1.33,2.56.29,1.49.11,2.91-.68,4.23-.19.32-.42.61-.69.86-.08.08-.16.17-.33.17Z"/>
    <path d="m108.85,74.77c.74,0,1.48,0,2.22,0,.09,0,.25-.07.24.12,0,.15-.13.18-.26.18-1.48,0-2.96,0-4.43,0-.11,0-.25.03-.25-.14,0-.18.15-.16.27-.16.74,0,1.48,0,2.22,0h0Z"/>
  </g>
  <path d="m57.18,37.04c1.44.02,2.47-.43,3.29-1.37.25-.29.49-.58.74-.86.35-.39.79-.65,1.29-.77.12-.03.28-.12.39.04.09.15-.05.24-.12.34-.53.79-1.23,1.42-1.98,1.99-1.1.84-2.31,1.46-3.68,1.73-1.23.24-2.44.19-3.59-.38-.92-.46-1.49-1.2-1.55-2.25-.04-.72.22-1.39.54-2.03.64-1.31,1.65-2.29,2.8-3.15.42-.32.87-.61,1.33-.86.21-.11.14-.18-.01-.24-.33-.15-.65-.3-.93-.53-1.2-.95-1.3-2.32-.56-3.62.79-1.38,2-2.28,3.43-2.92.94-.42,1.93-.69,2.96-.75.64-.04,1.27.02,1.88.24.96.34,1.3,1.12.87,2.05-.34.73-.92,1.19-1.68,1.43-.08.03-.18.03-.27.03-.19,0-.23-.09-.15-.25.06-.14.13-.27.19-.41.34-.77.09-1.41-.71-1.66-1.13-.36-2.27-.31-3.35.19-1.1.5-1.87,1.87-1.68,2.99.13.78.58,1.36,1.27,1.76.71.4,1.48.56,2.28.63.03,0,.06,0,.09,0,.18.02.47-.02.51.12.06.2-.17.36-.32.5-.55.5-1.23.62-1.93.69-1.88.17-3.17,1.2-4.05,2.8-.3.54-.52,1.13-.55,1.75-.05,1.08.5,1.8,1.41,2.31.64.35,1.32.5,1.84.48Z"/>
  <path d="m52.16,116.52c-.64,0-1.09,0-1.54,0-.08,0-.19.03-.24-.08-.04-.1,0-.19.06-.28.24-.31.56-.51.92-.65.19-.07.28-.17.35-.35.77-1.92,1.39-3.89,1.87-5.9.33-1.39.6-2.79.77-4.22.07-.6.14-1.21.2-1.81.02-.22-.03-.3-.28-.28-.74.06-1.47.14-2.16.43-.57.23-.97.63-1.16,1.22-.26.82-.93,1.12-1.66,1.35-.2.06-.25-.06-.2-.23.12-.51.39-.94.73-1.33,1.16-1.32,2.66-2.03,4.35-2.38,1.73-.35,3.48-.27,5.22-.17,1.37.08,2.7.42,3.85,1.24,1.36.97,1.94,2.3,1.86,3.95-.09,1.81-.79,3.38-1.94,4.76-1.6,1.92-3.67,3.14-6,3.96-1.69.59-3.42.83-5.01.78Zm2.17-1.2c.66.02,1.4-.03,2.14-.18,2.13-.43,3.96-1.39,5.34-3.11,1.28-1.59,1.72-3.43,1.39-5.42-.24-1.45-1.19-2.38-2.51-2.95-1.28-.55-2.62-.71-4-.73-.32,0-.41.1-.44.38-.06.57-.15,1.14-.23,1.72-.3,2.2-.85,4.34-1.52,6.46-.39,1.2-.83,2.39-1.31,3.56-.08.2-.07.29.18.28.29-.01.58,0,.96,0Z"/>
  <g>
    <path d="m25.06,104.77c.58-.83,1.17-1.56,2.2-1.65.82-.07,1.91.21,2.19,1.05.26.77-.28,1.69-1.09,1.71-.33,0-.64-.11-.8-.45-.18-.38-.03-.71.19-1.01.2-.27.48-.42.82-.52-1-.69-2.05-.44-2.73.59-.54.82-.7,1.75-.94,2.67-.31,1.19-.52,2.41-.87,3.59-.18.6-.11,1.24.31,1.8.39.53,1.36.54,2.08.06.91-.61,1.51-1.44,1.8-2.48.07-.26.16-.47.45-.37.28.09.17.35.09.52-.49,1.09-1.06,2.12-2.16,2.73-1.34.74-2.85.38-3.62-.93-.25-.43-.35-.27-.52-.02-.49.73-1.09,1.28-2.03,1.29-.58,0-1.14-.04-1.62-.41-.61-.48-.66-1.49-.09-2.03.39-.36,1.1-.39,1.4-.06.33.37.21,1.07-.24,1.43-.17.14-.53.17-.44.44.08.25.44.19.66.22.77.11,1.37-.23,1.8-.87.62-.93.85-2.01,1.1-3.08.3-1.32.77-2.61.77-4,0-1.22-.81-1.79-1.94-1.33-.7.29-1.27.78-1.66,1.44-.26.44-.45.92-.68,1.38-.07.15-.11.39-.32.33-.23-.06-.2-.27-.14-.47.24-.87.74-1.58,1.35-2.22.89-.95,2.39-1.37,3.69-.6.49.29.67.8,1.02,1.26Z"/>
    <path d="m22.88,33.13c-.54.77-1.12,1.39-2.02,1.65-.83.24-2.11-.46-2.24-1.29-.1-.61.51-1.37,1.12-1.35.3,0,.63.12.74.45.14.39-.01.75-.26,1.06-.16.19-.4.26-.63.38,1.07.6,2.11.24,2.68-.86.55-1.06.74-2.22,1.03-3.35.22-.86.41-1.73.56-2.6.09-.54,0-1.11-.43-1.48-.45-.38-1.01-.3-1.52-.09-1.01.41-1.56,1.23-1.96,2.2-.1.25-.11.76-.51.61-.41-.16-.07-.55.04-.78.74-1.56,1.79-2.65,3.34-2.59.9.03,1.68.36,2.07,1.27.03.08.03.2.2.21.24-.28.42-.63.74-.89.87-.7,1.99-.82,2.93-.24.43.26.65.82.51,1.3-.14.48-.66.93-1.11.94-.3,0-.51-.15-.64-.4-.15-.29-.14-.61.05-.86.18-.25.31-.58.8-.57-.84-.53-1.77-.37-2.29.21-.86.97-.98,2.2-1.27,3.37-.26,1.03-.48,2.07-.74,3.1-.15.6.03,1.09.43,1.52.42.45.95.35,1.44.18,1.14-.38,1.68-1.32,2.09-2.36.05-.12.07-.26.12-.38.07-.18.22-.21.38-.15.17.06.12.19.1.33-.27,1.47-1.99,3.17-3.41,3.16-.79,0-1.57-.34-2.02-1.11-.1-.16-.18-.34-.3-.56Z"/>
    <path d="m26.11,100.04c-.55-.11-1.04-.27-1.49-.58-.72-.5-1.49-.75-2.36-.33-.3.15-.49.42-.75.61-.13.1-.24.29-.43.11-.2-.18-.01-.34.08-.44.36-.37.73-.73,1.13-1.06.56-.46,1.18-.56,1.85-.19.3.17.61.31.92.47,1.12.58,1.95.45,2.85-.43.1-.09.14-.32.35-.16.19.15.1.31-.03.44-.57.57-1.02,1.31-1.91,1.48-.07.01-.14.05-.2.07Z"/>
  </g>
  <g>
    <rect class="cls-4" x="95.52" y="97.66" width="21.87" height="18.39"/>
    <g>
      <polygon class="cls-11" points="105.34 108.81 98.1 113.35 98.1 100.54 105.34 105.02 105.34 108.81"/>
      <rect class="cls-15" x="99.68" y="104.92" width="3.83" height="3.83"/>
    </g>
    <g>
      <polygon class="cls-11" points="107.74 108.81 114.98 113.35 114.98 100.54 107.74 105.02 107.74 108.81"/>
      <rect class="cls-15" x="109.57" y="104.92" width="3.83" height="3.83" transform="translate(222.97 213.67) rotate(-180)"/>
    </g>
  </g>
  <g>
    <rect class="cls-4" x="34.05" y="176" width="21.87" height="18.39"/>
    <g>
      <polygon class="cls-11" points="43.87 187.15 36.63 191.7 36.63 178.88 43.87 183.36 43.87 187.15"/>
      <rect class="cls-15" x="38.21" y="183.26" width="3.83" height="3.83"/>
    </g>
    <g>
      <polygon class="cls-11" points="46.27 187.15 53.51 191.7 53.51 178.88 46.27 183.36 46.27 187.15"/>
      <rect class="cls-15" x="48.1" y="183.26" width="3.83" height="3.83" transform="translate(100.03 370.36) rotate(-180)"/>
    </g>
  </g>
  <g>
    <rect class="cls-20" x="309.72" y="146.4" width="17.12" height="10.67"/>
    <line class="cls-7" x1="318.28" y1="156.18" x2="313.49" y2="150.01"/>
    <polyline class="cls-1" points="323.07 150.01 317.65 156.99 317.65 166.7"/>
    <circle class="cls-10" cx="311.88" cy="148.56" r="2.16"/>
    <circle class="cls-10" cx="324.67" cy="148.56" r="2.16"/>
  </g>
  <g>
    <rect class="cls-20" x="183.85" y="181.85" width="17.12" height="10.67"/>
    <line class="cls-7" x1="192.41" y1="191.63" x2="187.62" y2="185.46"/>
    <line class="cls-1" x1="191.78" y1="192.44" x2="197.2" y2="185.46"/>
    <circle class="cls-10" cx="186.01" cy="184.01" r="2.16"/>
    <circle class="cls-10" cx="198.8" cy="184.01" r="2.16"/>
  </g>
  <g>
    <line class="cls-12" x1="283.8" y1="186.18" x2="277.8" y2="186.18"/>
    <line class="cls-17" x1="270.25" y1="186.18" x2="258.94" y2="186.18"/>
    <line class="cls-12" x1="255.17" y1="186.18" x2="249.17" y2="186.18"/>
    <polygon class="cls-21" points="249.87 183.78 245.72 186.18 249.87 188.57 249.87 183.78"/>
  </g>
  <g>
    <g>
      <polyline class="cls-19" points="404.42 122.96 404.42 164.63 394.74 164.63"/>
      <polygon class="cls-23" points="395.76 161.14 389.72 164.63 395.76 168.12 395.76 161.14"/>
    </g>
    <polyline class="cls-19" points="392.65 121.19 392.65 133.03 404.42 133.03"/>
    <polyline class="cls-19" points="418.86 128.18 418.86 138.45 404.42 138.45"/>
  </g>
  <g>
    <line class="cls-1" x1="333.31" y1="107.13" x2="314.53" y2="107.13"/>
    <polygon class="cls-22" points="315.51 103.79 309.72 107.13 315.51 110.47 315.51 103.79"/>
  </g>
  <line class="cls-1" x1="324.67" y1="146.4" x2="324.67" y2="106.77"/>
  <g>
    <line class="cls-1" x1="342.21" y1="185.85" x2="323.43" y2="185.85"/>
    <polygon class="cls-22" points="324.41 182.51 318.62 185.85 324.41 189.19 324.41 182.51"/>
  </g>
  <line class="cls-1" x1="333.57" y1="194.85" x2="333.57" y2="185.77"/>
  <g>
    <polyline class="cls-1" points="363.49 166.7 318.28 166.7 106.37 166.7 106.37 123.87"/>
    <polygon class="cls-22" points="109.71 124.85 106.37 119.07 103.03 124.85 109.71 124.85"/>
  </g>
  <g>
    <polyline class="cls-3" points="114.55 95.74 114.55 82.59 97.77 82.59 97.77 90.93"/>
    <polygon points="94.43 89.96 97.77 95.74 101.11 89.96 94.43 89.96"/>
  </g>
</svg>