<?xml version="1.0" encoding="UTF-8"?>
<svg id="Layer_1" data-name="Layer 1" xmlns="http://www.w3.org/2000/svg" viewBox="0 0 442.73 287.67">
  <defs>
    <style>
      .cls-1 {
        fill: #8ccea9;
      }

      .cls-1, .cls-2, .cls-3, .cls-4, .cls-5, .cls-6, .cls-7, .cls-8 {
        stroke-miterlimit: 10;
      }

      .cls-1, .cls-8 {
        stroke: #231f20;
        stroke-width: .25px;
      }

      .cls-9 {
        fill: #b55c4e;
      }

      .cls-10, .cls-4 {
        fill: #e8a97b;
      }

      .cls-11 {
        fill: #a7a9ac;
      }

      .cls-12 {
        fill: #939598;
      }

      .cls-13 {
        fill: #aa4924;
      }

      .cls-2 {
        stroke: #d37bb2;
      }

      .cls-2, .cls-3, .cls-5, .cls-6, .cls-7 {
        fill: none;
        stroke-width: 2px;
      }

      .cls-3 {
        stroke: #0f3d20;
      }

      .cls-4 {
        stroke: #8ccea9;
      }

      .cls-5 {
        stroke: #b55c4e;
      }

      .cls-14 {
        fill: #0f3d20;
      }

      .cls-6 {
        stroke: #e8a97b;
      }

      .cls-15 {
        fill: #d37bb2;
      }

      .cls-7 {
        stroke: #939598;
      }

      .cls-8 {
        fill: #f1f2f2;
      }

      .cls-16 {
        fill: #231f20;
      }
    </style>
  </defs>
  <line class="cls-4" x1="37.42" y1="7.17" x2="37.42" y2="118.62"/>
  <rect class="cls-1" x="47.34" y="7.17" width="1.27" height="111.45"/>
  <rect class="cls-1" x="59.36" y="7.17" width="1.27" height="111.45"/>
  <rect class="cls-1" x="58.98" y="133.78" width="1.66" height="55.67"/>
  <rect class="cls-1" x="69.42" y="133.78" width="3.79" height="55.67"/>
  <rect class="cls-1" x="82.7" y="133.78" width="3.79" height="55.67"/>
  <rect class="cls-1" x="82.7" y="203" width="3.79" height="27.54"/>
  <rect class="cls-1" x="96.09" y="203" width="7.14" height="27.54"/>
  <rect class="cls-1" x="113.67" y="203" width="7.14" height="27.54"/>
  <rect class="cls-1" x="113.67" y="242.52" width="7.14" height="13.51"/>
  <rect class="cls-1" x="130.06" y="242.52" width="14.21" height="13.51"/>
  <rect class="cls-1" x="153.31" y="242.52" width="14.21" height="13.51"/>
  <rect class="cls-1" x="153.31" y="267.87" width="14.21" height="6.13"/>
  <rect class="cls-1" x="176.31" y="267.87" width="28.28" height="6.13"/>
  <rect class="cls-1" x="213.7" y="267.87" width="28.28" height="6.13"/>
  <rect class="cls-1" x="219.9" y="243.63" width="14.77" height="11.01"/>
  <rect class="cls-8" x="206.26" y="243.63" width="13.64" height="11.01"/>
  <rect class="cls-8" x="261.56" y="206.44" width="7.24" height="20.48"/>
  <rect class="cls-8" x="299.31" y="142.08" width="3.48" height="39.14"/>
  <rect class="cls-8" x="327.03" y="24.23" width="1.67" height="76.9"/>
  <rect class="cls-1" x="242.76" y="243.63" width="14.21" height="11.01"/>
  <rect class="cls-1" x="265.36" y="243.8" width="14.21" height="11.01"/>
  <rect class="cls-1" x="268.8" y="206.44" width="6.97" height="20.48"/>
  <rect class="cls-1" x="285.24" y="206.44" width="7.52" height="20.48"/>
  <rect class="cls-1" x="302.18" y="206.44" width="7.52" height="20.48"/>
  <rect class="cls-1" x="303.49" y="142.08" width="3.48" height="39.14"/>
  <rect class="cls-1" x="316.17" y="141.93" width="3.48" height="39.14"/>
  <rect class="cls-1" x="328.45" y="141.93" width="3.48" height="39.14"/>
  <rect class="cls-1" x="329.4" y="24.23" width="1.67" height="76.9"/>
  <rect class="cls-1" x="341.57" y="24.23" width="1.67" height="76.9"/>
  <rect class="cls-1" x="354.8" y="24.23" width="1.67" height="76.9"/>
  <line class="cls-4" x1="368.03" y1="24.23" x2="368.03" y2="101.13"/>
  <g>
    <line class="cls-5" x1="59.81" y1="121.46" x2="59.81" y2="126.04"/>
    <polygon class="cls-9" points="56.42 125.04 59.81 130.92 63.2 125.04 56.42 125.04"/>
  </g>
  <g>
    <line class="cls-5" x1="84.74" y1="191.49" x2="84.74" y2="196.07"/>
    <polygon class="cls-9" points="81.35 195.08 84.74 200.95 88.13 195.08 81.35 195.08"/>
  </g>
  <g>
    <line class="cls-5" x1="117.24" y1="231.8" x2="117.24" y2="236.38"/>
    <polygon class="cls-9" points="113.85 235.39 117.24 241.26 120.63 235.39 113.85 235.39"/>
  </g>
  <g>
    <line class="cls-5" x1="160.41" y1="257.22" x2="160.41" y2="261.8"/>
    <polygon class="cls-9" points="157.02 260.81 160.41 266.68 163.8 260.81 157.02 260.81"/>
  </g>
  <g>
    <line class="cls-13" x1="38.45" y1="62.54" x2="46.88" y2="62.54"/>
    <g>
      <line class="cls-3" x1="38.45" y1="62.54" x2="42" y2="62.54"/>
      <polygon class="cls-14" points="41.01 65.93 46.88 62.54 41.01 59.15 41.01 65.93"/>
    </g>
  </g>
  <g>
    <line class="cls-13" x1="49.32" y1="62.54" x2="58.67" y2="62.54"/>
    <g>
      <line class="cls-3" x1="49.32" y1="62.54" x2="53.79" y2="62.54"/>
      <polygon class="cls-14" points="52.8 65.93 58.67 62.54 52.8 59.15 52.8 65.93"/>
    </g>
  </g>
  <g>
    <line class="cls-13" x1="60.98" y1="161.61" x2="69.42" y2="161.61"/>
    <g>
      <line class="cls-3" x1="60.98" y1="161.61" x2="64.54" y2="161.61"/>
      <polygon class="cls-14" points="63.55 165.01 69.42 161.61 63.55 158.22 63.55 165.01"/>
    </g>
  </g>
  <g>
    <line class="cls-13" x1="73.74" y1="161.61" x2="82.17" y2="161.61"/>
    <g>
      <line class="cls-3" x1="73.74" y1="161.61" x2="77.29" y2="161.61"/>
      <polygon class="cls-14" points="76.3 165.01 82.17 161.61 76.3 158.22 76.3 165.01"/>
    </g>
  </g>
  <g>
    <line class="cls-13" x1="87.32" y1="216.8" x2="95.75" y2="216.8"/>
    <g>
      <line class="cls-3" x1="87.32" y1="216.8" x2="90.87" y2="216.8"/>
      <polygon class="cls-14" points="89.88 220.19 95.75 216.8 89.88 213.41 89.88 220.19"/>
    </g>
  </g>
  <g>
    <line class="cls-13" x1="103.95" y1="216.77" x2="113.09" y2="216.77"/>
    <g>
      <line class="cls-3" x1="103.95" y1="216.77" x2="108.21" y2="216.77"/>
      <polygon class="cls-14" points="107.21 220.16 113.09 216.77 107.21 213.38 107.21 220.16"/>
    </g>
  </g>
  <g>
    <line class="cls-13" x1="121.4" y1="249.28" x2="129.83" y2="249.28"/>
    <g>
      <line class="cls-3" x1="121.4" y1="249.28" x2="124.95" y2="249.28"/>
      <polygon class="cls-14" points="123.96 252.67 129.83 249.28 123.96 245.89 123.96 252.67"/>
    </g>
  </g>
  <g>
    <line class="cls-13" x1="144.57" y1="249.32" x2="153.01" y2="249.32"/>
    <g>
      <line class="cls-3" x1="144.57" y1="249.32" x2="148.13" y2="249.32"/>
      <polygon class="cls-14" points="147.13 252.71 153.01 249.32 147.13 245.93 147.13 252.71"/>
    </g>
  </g>
  <g>
    <line class="cls-13" x1="167.9" y1="270.64" x2="175.96" y2="270.64"/>
    <g>
      <line class="cls-3" x1="167.9" y1="270.64" x2="171.08" y2="270.64"/>
      <polygon class="cls-14" points="170.09 274.03 175.96 270.64 170.09 267.25 170.09 274.03"/>
    </g>
  </g>
  <g>
    <line class="cls-13" x1="204.93" y1="270.64" x2="213.36" y2="270.64"/>
    <g>
      <line class="cls-3" x1="204.93" y1="270.64" x2="208.48" y2="270.64"/>
      <polygon class="cls-14" points="207.49 274.03 213.36 270.64 207.49 267.25 207.49 274.03"/>
    </g>
  </g>
  <g>
    <line class="cls-13" x1="235.04" y1="249.3" x2="242.48" y2="249.3"/>
    <g>
      <line class="cls-3" x1="235.04" y1="249.3" x2="237.6" y2="249.3"/>
      <polygon class="cls-14" points="236.61 252.69 242.48 249.3 236.61 245.91 236.61 252.69"/>
    </g>
  </g>
  <g>
    <line class="cls-13" x1="257.34" y1="249.14" x2="264.98" y2="249.14"/>
    <g>
      <line class="cls-3" x1="257.34" y1="249.14" x2="260.1" y2="249.14"/>
      <polygon class="cls-14" points="259.11 252.53 264.98 249.14 259.11 245.75 259.11 252.53"/>
    </g>
  </g>
  <g>
    <line class="cls-13" x1="276.4" y1="216.8" x2="284.83" y2="216.8"/>
    <g>
      <line class="cls-3" x1="276.4" y1="216.8" x2="279.95" y2="216.8"/>
      <polygon class="cls-14" points="278.96 220.19 284.83 216.8 278.96 213.41 278.96 220.19"/>
    </g>
  </g>
  <g>
    <line class="cls-13" x1="293.25" y1="216.8" x2="301.69" y2="216.8"/>
    <g>
      <line class="cls-3" x1="293.25" y1="216.8" x2="296.81" y2="216.8"/>
      <polygon class="cls-14" points="295.82 220.19 301.69 216.8 295.82 213.41 295.82 220.19"/>
    </g>
  </g>
  <g>
    <line class="cls-13" x1="307.83" y1="161.5" x2="315.52" y2="161.5"/>
    <g>
      <line class="cls-3" x1="307.83" y1="161.5" x2="310.64" y2="161.5"/>
      <polygon class="cls-14" points="309.65 164.89 315.52 161.5 309.65 158.11 309.65 164.89"/>
    </g>
  </g>
  <g>
    <line class="cls-13" x1="320.38" y1="161.5" x2="327.88" y2="161.5"/>
    <g>
      <line class="cls-3" x1="320.38" y1="161.5" x2="323" y2="161.5"/>
      <polygon class="cls-14" points="322.01 164.89 327.88 161.5 322.01 158.11 322.01 164.89"/>
    </g>
  </g>
  <g>
    <line class="cls-13" x1="331.81" y1="62.54" x2="340.96" y2="62.54"/>
    <g>
      <line class="cls-3" x1="331.81" y1="62.54" x2="336.08" y2="62.54"/>
      <polygon class="cls-14" points="335.09 65.93 340.96 62.54 335.09 59.15 335.09 65.93"/>
    </g>
  </g>
  <g>
    <line class="cls-13" x1="344.1" y1="62.54" x2="354.28" y2="62.54"/>
    <g>
      <line class="cls-3" x1="344.1" y1="62.54" x2="349.4" y2="62.54"/>
      <polygon class="cls-14" points="348.4 65.93 354.28 62.54 348.4 59.15 348.4 65.93"/>
    </g>
  </g>
  <g>
    <line class="cls-15" x1="358.03" y1="62.68" x2="366.47" y2="62.68"/>
    <g>
      <line class="cls-6" x1="358.03" y1="62.68" x2="361.59" y2="62.68"/>
      <polygon class="cls-10" points="360.6 66.07 366.47 62.68 360.6 59.29 360.6 66.07"/>
    </g>
  </g>
  <g>
    <line class="cls-9" x1="227.84" y1="265.49" x2="227.84" y2="256.03"/>
    <g>
      <line class="cls-2" x1="227.84" y1="265.49" x2="227.84" y2="260.91"/>
      <polygon class="cls-15" points="231.23 261.9 227.84 256.03 224.45 261.9 231.23 261.9"/>
    </g>
  </g>
  <g>
    <line class="cls-9" x1="272.47" y1="241.68" x2="272.47" y2="228.28"/>
    <g>
      <line class="cls-2" x1="272.47" y1="241.68" x2="272.47" y2="233.16"/>
      <polygon class="cls-15" points="275.86 234.16 272.47 228.28 269.08 234.16 275.86 234.16"/>
    </g>
  </g>
  <g>
    <line class="cls-9" x1="305.94" y1="203.02" x2="305.94" y2="184.08"/>
    <g>
      <line class="cls-2" x1="305.94" y1="203.02" x2="305.94" y2="188.96"/>
      <polygon class="cls-15" points="309.33 189.95 305.94 184.08 302.55 189.95 309.33 189.95"/>
    </g>
  </g>
  <g>
    <line class="cls-9" x1="330.19" y1="134.04" x2="330.19" y2="108.11"/>
    <g>
      <line class="cls-2" x1="330.19" y1="134.04" x2="330.19" y2="112.99"/>
      <polygon class="cls-15" points="333.58 113.99 330.19 108.11 326.8 113.99 333.58 113.99"/>
    </g>
  </g>
  <g>
    <line class="cls-11" x1="81.93" y1="62.54" x2="308.52" y2="62.54"/>
    <g>
      <line class="cls-7" x1="81.93" y1="62.54" x2="303.64" y2="62.54"/>
      <polygon class="cls-12" points="302.65 65.93 308.52 62.54 302.65 59.15 302.65 65.93"/>
    </g>
  </g>
  <g>
    <line class="cls-11" x1="108.82" y1="161.5" x2="283.14" y2="161.5"/>
    <g>
      <line class="cls-7" x1="108.82" y1="161.5" x2="278.26" y2="161.5"/>
      <polygon class="cls-12" points="277.27 164.89 283.14 161.5 277.27 158.11 277.27 164.89"/>
    </g>
  </g>
  <g>
    <line class="cls-11" x1="137.16" y1="216.8" x2="242.76" y2="216.8"/>
    <g>
      <line class="cls-7" x1="137.16" y1="216.8" x2="237.88" y2="216.8"/>
      <polygon class="cls-12" points="236.88 220.19 242.76 216.8 236.88 213.41 236.88 220.19"/>
    </g>
  </g>
  <g>
    <line class="cls-11" x1="176.33" y1="249.3" x2="196.8" y2="249.3"/>
    <g>
      <line class="cls-7" x1="176.33" y1="249.3" x2="191.92" y2="249.3"/>
      <polygon class="cls-12" points="190.93 252.69 196.8 249.3 190.93 245.91 190.93 252.69"/>
    </g>
  </g>
  <g>
    <line class="cls-15" x1="346.13" y1="276.3" x2="356.99" y2="276.3"/>
    <g>
      <line class="cls-6" x1="346.13" y1="276.3" x2="352.11" y2="276.3"/>
      <polygon class="cls-10" points="351.12 279.69 356.99 276.3 351.12 272.91 351.12 279.69"/>
    </g>
  </g>
  <g>
    <line class="cls-9" x1="354.37" y1="266.92" x2="354.37" y2="257.08"/>
    <g>
      <line class="cls-2" x1="354.37" y1="266.92" x2="354.37" y2="261.96"/>
      <polygon class="cls-15" points="357.76 262.95 354.37 257.08 350.98 262.95 357.76 262.95"/>
    </g>
  </g>
  <g>
    <line class="cls-5" x1="354.37" y1="243.02" x2="354.37" y2="247.6"/>
    <polygon class="cls-9" points="350.98 246.61 354.37 252.48 357.76 246.61 350.98 246.61"/>
  </g>
  <g>
    <line class="cls-11" x1="343.38" y1="231.93" x2="355.49" y2="231.93"/>
    <g>
      <line class="cls-7" x1="343.38" y1="231.93" x2="350.61" y2="231.93"/>
      <polygon class="cls-12" points="349.62 235.32 355.49 231.93 349.62 228.54 349.62 235.32"/>
    </g>
  </g>
  <g>
    <line class="cls-13" x1="346.13" y1="218.82" x2="356.49" y2="218.82"/>
    <g>
      <line class="cls-3" x1="346.13" y1="218.82" x2="351.61" y2="218.82"/>
      <polygon class="cls-14" points="350.62 222.21 356.49 218.82 350.62 215.43 350.62 222.21"/>
    </g>
  </g>
  <g>
    <path class="cls-12" d="m36.06,6.09h1.17v-3.75h-.93v-.42c.46-.08.8-.21,1.08-.37h.5v4.55h1.05v.55h-2.88v-.55Z"/>
    <g>
      <path class="cls-12" d="m44.38,4.28c0-2.05.93-2.84,1.94-2.84.55,0,.94.23,1.23.54l-.37.41c-.21-.25-.52-.4-.84-.4-.73,0-1.35.58-1.35,2.29,0,1.25.41,1.93,1.14,1.93.5,0,.89-.45.89-1.12s-.31-1.08-.94-1.08c-.33,0-.75.2-1.1.72l-.02-.52c.32-.43.8-.7,1.23-.7.88,0,1.45.53,1.45,1.58,0,.98-.69,1.64-1.51,1.64-1.01,0-1.76-.81-1.76-2.45Z"/>
      <path class="cls-12" d="m50.4,3.22c0-.27.02-.71.04-.98h-.03c-.13.24-.27.47-.42.72l-1.19,1.74h2.92v.52h-3.61v-.43l2.18-3.26h.73v5.1h-.62v-3.42Z"/>
    </g>
    <g>
      <path class="cls-12" d="m56.41,4.28c0-2.05.93-2.84,1.94-2.84.55,0,.94.23,1.23.54l-.37.41c-.21-.25-.52-.4-.84-.4-.73,0-1.35.58-1.35,2.29,0,1.25.41,1.93,1.14,1.93.5,0,.89-.45.89-1.12s-.31-1.08-.94-1.08c-.33,0-.75.2-1.1.72l-.02-.52c.32-.43.8-.7,1.23-.7.88,0,1.45.53,1.45,1.58,0,.98-.69,1.64-1.51,1.64-1.01,0-1.76-.81-1.76-2.45Z"/>
      <path class="cls-12" d="m62.43,3.22c0-.27.02-.71.04-.98h-.03c-.13.24-.27.47-.42.72l-1.19,1.74h2.92v.52h-3.61v-.43l2.18-3.26h.73v5.1h-.62v-3.42Z"/>
    </g>
    <g>
      <path class="cls-12" d="m323.37,22.75h1.17v-3.75h-.93v-.42c.46-.08.8-.21,1.08-.37h.5v4.55h1.05v.55h-2.88v-.55Z"/>
      <path class="cls-12" d="m327.04,22.91c1.53-1.53,2.4-2.45,2.4-3.27,0-.58-.32-1-.97-1-.43,0-.79.27-1.08.61l-.38-.37c.43-.47.89-.77,1.55-.77.94,0,1.53.59,1.53,1.5,0,.96-.88,1.91-2.08,3.17.28-.02.59-.04.86-.04h1.47v.56h-3.29v-.39Z"/>
      <path class="cls-12" d="m331.02,22c0-.66.48-1.12.96-1.37v-.03c-.38-.26-.71-.64-.71-1.18,0-.78.62-1.31,1.44-1.31.89,0,1.44.56,1.44,1.36,0,.53-.39.99-.7,1.23v.03c.46.27.89.63.89,1.31,0,.77-.66,1.36-1.64,1.36s-1.68-.59-1.68-1.4Zm2.69.02c0-.66-.65-.9-1.38-1.19-.41.27-.71.64-.71,1.11,0,.56.47.97,1.09.97s1-.37,1-.89Zm-.12-2.52c0-.5-.32-.9-.89-.9-.48,0-.83.33-.83.82,0,.61.56.87,1.18,1.11.35-.31.54-.65.54-1.02Z"/>
    </g>
    <g>
      <path class="cls-12" d="m338.81,20.95c0-2.05.93-2.84,1.94-2.84.55,0,.94.23,1.23.54l-.37.41c-.21-.25-.52-.4-.84-.4-.73,0-1.35.58-1.35,2.29,0,1.25.41,1.93,1.14,1.93.5,0,.89-.45.89-1.12s-.31-1.08-.94-1.08c-.33,0-.75.2-1.1.72l-.02-.52c.32-.43.8-.7,1.23-.7.88,0,1.46.53,1.46,1.58,0,.98-.69,1.64-1.51,1.64-1.01,0-1.76-.81-1.76-2.45Z"/>
      <path class="cls-12" d="m344.83,19.88c0-.27.02-.71.04-.98h-.03c-.13.24-.27.47-.42.72l-1.19,1.74h2.92v.52h-3.61v-.43l2.18-3.26h.73v5.1h-.62v-3.42Z"/>
    </g>
    <g>
      <path class="cls-12" d="m352.04,20.95c0-2.05.93-2.84,1.94-2.84.55,0,.94.23,1.23.54l-.37.41c-.21-.25-.52-.4-.84-.4-.73,0-1.35.58-1.35,2.29,0,1.25.41,1.93,1.14,1.93.5,0,.89-.45.89-1.12s-.31-1.08-.94-1.08c-.33,0-.75.2-1.1.72l-.02-.52c.32-.43.8-.7,1.23-.7.88,0,1.45.53,1.45,1.58,0,.98-.69,1.64-1.51,1.64-1,0-1.76-.81-1.76-2.45Z"/>
      <path class="cls-12" d="m358.07,19.88c0-.27.02-.71.04-.98h-.03c-.13.24-.27.47-.42.72l-1.19,1.74h2.92v.52h-3.61v-.43l2.18-3.26h.73v5.1h-.62v-3.42Z"/>
    </g>
    <path class="cls-12" d="m366.36,22.91c1.53-1.53,2.4-2.45,2.4-3.27,0-.58-.32-1-.97-1-.43,0-.79.27-1.08.61l-.38-.37c.43-.47.89-.77,1.55-.77.94,0,1.53.59,1.53,1.5,0,.96-.88,1.91-2.08,3.17.28-.02.59-.04.86-.04h1.47v.56h-3.29v-.39Z"/>
    <g>
      <path class="cls-12" d="m312.73,140.45h1.17v-3.75h-.93v-.42c.46-.08.8-.21,1.08-.37h.5v4.55h1.05v.55h-2.88v-.55Z"/>
      <path class="cls-12" d="m316.4,140.61c1.53-1.53,2.4-2.45,2.4-3.27,0-.58-.32-1-.97-1-.43,0-.79.27-1.08.61l-.38-.37c.43-.47.89-.77,1.55-.77.94,0,1.53.59,1.53,1.5,0,.96-.88,1.91-2.08,3.17.28-.02.59-.04.86-.04h1.47v.56h-3.29v-.39Z"/>
      <path class="cls-12" d="m320.38,139.69c0-.66.48-1.12.96-1.37v-.03c-.38-.26-.71-.64-.71-1.18,0-.78.62-1.31,1.44-1.31.89,0,1.44.56,1.44,1.36,0,.53-.39.99-.7,1.23v.03c.46.27.89.63.89,1.31,0,.77-.66,1.36-1.64,1.36s-1.68-.59-1.68-1.4Zm2.69.02c0-.66-.64-.9-1.38-1.19-.41.27-.71.64-.71,1.11,0,.56.47.97,1.09.97s1-.37,1-.89Zm-.12-2.52c0-.5-.32-.9-.89-.9-.48,0-.83.33-.83.82,0,.61.57.87,1.18,1.11.35-.31.54-.65.54-1.02Z"/>
    </g>
    <g>
      <path class="cls-12" d="m65.98,132.3h1.17v-3.75h-.93v-.42c.46-.08.8-.21,1.08-.37h.5v4.55h1.05v.55h-2.88v-.55Z"/>
      <path class="cls-12" d="m69.64,132.46c1.53-1.53,2.4-2.45,2.4-3.27,0-.58-.32-1-.97-1-.43,0-.79.27-1.08.61l-.38-.37c.43-.47.89-.77,1.55-.77.94,0,1.53.59,1.53,1.5,0,.96-.88,1.91-2.08,3.17.28-.02.59-.04.86-.04h1.47v.56h-3.29v-.39Z"/>
      <path class="cls-12" d="m73.63,131.55c0-.66.48-1.12.96-1.37v-.03c-.38-.26-.71-.64-.71-1.18,0-.78.62-1.31,1.44-1.31.89,0,1.44.56,1.44,1.36,0,.53-.39.99-.7,1.23v.03c.46.27.89.63.89,1.31,0,.77-.66,1.36-1.64,1.36s-1.68-.59-1.68-1.4Zm2.69.02c0-.66-.65-.9-1.38-1.19-.41.27-.71.64-.71,1.11,0,.56.47.97,1.09.97s1-.37,1-.89Zm-.12-2.52c0-.5-.32-.9-.89-.9-.48,0-.83.33-.83.82,0,.61.56.87,1.18,1.11.35-.31.54-.65.54-1.02Z"/>
    </g>
    <g>
      <path class="cls-12" d="m79.26,132.3h1.17v-3.75h-.93v-.42c.46-.08.8-.21,1.08-.37h.5v4.55h1.05v.55h-2.88v-.55Z"/>
      <path class="cls-12" d="m82.92,132.46c1.53-1.53,2.4-2.45,2.4-3.27,0-.58-.32-1-.97-1-.43,0-.79.27-1.08.61l-.38-.37c.43-.47.89-.77,1.55-.77.94,0,1.53.59,1.53,1.5,0,.96-.88,1.91-2.08,3.17.28-.02.59-.04.86-.04h1.47v.56h-3.29v-.39Z"/>
      <path class="cls-12" d="m86.91,131.55c0-.66.48-1.12.96-1.37v-.03c-.38-.26-.71-.64-.71-1.18,0-.78.62-1.31,1.44-1.31.89,0,1.44.56,1.44,1.36,0,.53-.39.99-.7,1.23v.03c.46.27.89.63.89,1.31,0,.77-.66,1.36-1.64,1.36s-1.68-.59-1.68-1.4Zm2.69.02c0-.66-.65-.9-1.38-1.19-.41.27-.71.64-.71,1.11,0,.56.47.97,1.09.97s1-.37,1-.89Zm-.12-2.52c0-.5-.32-.9-.89-.9-.48,0-.83.33-.83.82,0,.61.56.87,1.18,1.11.35-.31.54-.65.54-1.02Z"/>
    </g>
    <g>
      <path class="cls-12" d="m94.01,201.68c1.53-1.53,2.4-2.45,2.4-3.28,0-.58-.32-1-.97-1-.43,0-.79.27-1.08.61l-.38-.37c.43-.47.89-.77,1.55-.77.94,0,1.53.59,1.53,1.5,0,.96-.88,1.91-2.08,3.17.28-.02.59-.04.86-.04h1.47v.57h-3.29v-.39Z"/>
      <path class="cls-12" d="m97.86,201.47l.32-.43c.3.3.69.58,1.29.58s1.12-.45,1.12-1.16-.43-1.12-1.08-1.12c-.35,0-.57.11-.88.31l-.35-.22.17-2.46h2.55v.57h-1.97l-.13,1.51c.24-.13.47-.21.78-.21.87,0,1.58.5,1.58,1.6s-.83,1.73-1.72,1.73c-.82,0-1.32-.34-1.68-.7Z"/>
      <path class="cls-12" d="m102.03,199.71c0-2.05.93-2.84,1.94-2.84.55,0,.94.23,1.23.54l-.37.41c-.21-.25-.52-.4-.84-.4-.73,0-1.35.58-1.35,2.29,0,1.25.41,1.93,1.14,1.93.5,0,.89-.45.89-1.12s-.31-1.08-.94-1.08c-.33,0-.75.2-1.1.72l-.02-.52c.32-.43.8-.7,1.23-.7.88,0,1.45.53,1.45,1.58,0,.98-.69,1.64-1.51,1.64-1.01,0-1.76-.81-1.76-2.45Z"/>
    </g>
    <g>
      <path class="cls-12" d="m111.59,201.68c1.53-1.53,2.4-2.45,2.4-3.28,0-.58-.32-1-.97-1-.43,0-.79.27-1.08.61l-.38-.37c.43-.47.89-.77,1.55-.77.94,0,1.53.59,1.53,1.5,0,.96-.88,1.91-2.08,3.17.28-.02.59-.04.86-.04h1.47v.57h-3.29v-.39Z"/>
      <path class="cls-12" d="m115.45,201.47l.32-.43c.3.3.69.58,1.29.58s1.12-.45,1.12-1.16-.43-1.12-1.08-1.12c-.35,0-.57.11-.88.31l-.35-.22.17-2.46h2.55v.57h-1.97l-.13,1.51c.24-.13.47-.21.78-.21.87,0,1.58.5,1.58,1.6s-.83,1.73-1.72,1.73c-.82,0-1.32-.34-1.68-.7Z"/>
      <path class="cls-12" d="m119.61,199.71c0-2.05.93-2.84,1.94-2.84.55,0,.94.23,1.23.54l-.37.41c-.21-.25-.52-.4-.84-.4-.73,0-1.35.58-1.35,2.29,0,1.25.41,1.93,1.14,1.93.5,0,.89-.45.89-1.12s-.31-1.08-.94-1.08c-.33,0-.75.2-1.1.72l-.02-.52c.32-.43.8-.7,1.23-.7.88,0,1.45.53,1.45,1.58,0,.98-.69,1.64-1.51,1.64-1.01,0-1.76-.81-1.76-2.45Z"/>
    </g>
    <g>
      <path class="cls-12" d="m297.15,140.61c1.53-1.53,2.4-2.45,2.4-3.27,0-.58-.32-1-.97-1-.43,0-.79.27-1.08.61l-.38-.37c.43-.47.89-.77,1.55-.77.94,0,1.53.59,1.53,1.5,0,.96-.88,1.91-2.08,3.17.28-.02.59-.04.86-.04h1.47v.56h-3.29v-.39Z"/>
      <path class="cls-12" d="m301,140.39l.32-.43c.3.3.69.58,1.29.58s1.12-.45,1.12-1.16-.43-1.12-1.08-1.12c-.35,0-.57.11-.88.31l-.35-.22.17-2.46h2.55v.57h-1.97l-.13,1.51c.24-.13.47-.21.78-.21.87,0,1.58.5,1.58,1.6s-.83,1.73-1.72,1.73c-.82,0-1.32-.34-1.68-.7Z"/>
      <path class="cls-12" d="m305.17,138.64c0-2.05.93-2.84,1.94-2.84.55,0,.94.23,1.23.54l-.37.41c-.21-.25-.52-.4-.84-.4-.73,0-1.35.58-1.35,2.29,0,1.25.41,1.93,1.14,1.93.5,0,.89-.45.89-1.12s-.31-1.08-.94-1.08c-.33,0-.75.2-1.1.72l-.02-.52c.32-.43.8-.7,1.23-.7.88,0,1.46.53,1.46,1.58,0,.98-.69,1.64-1.51,1.64-1.01,0-1.76-.81-1.76-2.45Z"/>
    </g>
    <g>
      <path class="cls-12" d="m283.36,205.01c1.53-1.53,2.4-2.45,2.4-3.27,0-.58-.32-1-.97-1-.43,0-.79.27-1.08.61l-.38-.37c.43-.47.89-.77,1.55-.77.94,0,1.53.59,1.53,1.5,0,.96-.88,1.91-2.08,3.17.28-.02.59-.04.86-.04h1.47v.56h-3.29v-.39Z"/>
      <path class="cls-12" d="m287.21,204.8l.32-.43c.3.3.69.58,1.29.58s1.12-.45,1.12-1.16-.43-1.12-1.08-1.12c-.35,0-.57.11-.88.31l-.35-.22.17-2.46h2.55v.57h-1.97l-.13,1.51c.24-.13.47-.21.78-.21.87,0,1.58.5,1.58,1.6s-.83,1.73-1.72,1.73c-.82,0-1.32-.34-1.68-.7Z"/>
      <path class="cls-12" d="m291.38,203.05c0-2.05.93-2.84,1.94-2.84.55,0,.94.23,1.23.54l-.37.41c-.21-.25-.52-.4-.84-.4-.73,0-1.35.58-1.35,2.29,0,1.25.41,1.93,1.14,1.93.5,0,.89-.45.89-1.12s-.31-1.08-.94-1.08c-.33,0-.75.2-1.1.72l-.02-.52c.32-.43.8-.7,1.23-.7.88,0,1.46.53,1.46,1.58,0,.98-.69,1.64-1.51,1.64-1.01,0-1.76-.81-1.76-2.45Z"/>
    </g>
    <g>
      <path class="cls-12" d="m131.4,241.03l.32-.43c.3.3.69.58,1.29.58s1.12-.45,1.12-1.16-.43-1.12-1.08-1.12c-.35,0-.57.11-.88.31l-.35-.22.17-2.46h2.55v.57h-1.97l-.13,1.51c.24-.13.47-.21.78-.21.87,0,1.58.5,1.58,1.6s-.83,1.73-1.72,1.73c-.82,0-1.32-.34-1.68-.7Z"/>
      <path class="cls-12" d="m135.8,241.09h1.17v-3.75h-.93v-.42c.46-.08.8-.21,1.08-.37h.5v4.55h1.05v.55h-2.88v-.55Z"/>
      <path class="cls-12" d="m139.47,241.25c1.53-1.53,2.4-2.45,2.4-3.27,0-.58-.32-1-.97-1-.43,0-.79.27-1.08.61l-.38-.37c.43-.47.89-.77,1.55-.77.94,0,1.53.59,1.53,1.5,0,.96-.88,1.91-2.08,3.17.28-.02.59-.04.86-.04h1.47v.56h-3.29v-.39Z"/>
    </g>
    <g>
      <path class="cls-12" d="m154.65,241.03l.32-.43c.3.3.69.58,1.29.58s1.12-.45,1.12-1.16-.43-1.12-1.08-1.12c-.35,0-.57.11-.88.31l-.35-.22.17-2.46h2.55v.57h-1.97l-.13,1.51c.24-.13.47-.21.78-.21.87,0,1.58.5,1.58,1.6s-.83,1.73-1.72,1.73c-.82,0-1.32-.34-1.68-.7Z"/>
      <path class="cls-12" d="m159.05,241.09h1.17v-3.75h-.93v-.42c.46-.08.8-.21,1.08-.37h.5v4.55h1.05v.55h-2.88v-.55Z"/>
      <path class="cls-12" d="m162.72,241.25c1.53-1.53,2.4-2.45,2.4-3.27,0-.58-.32-1-.97-1-.43,0-.79.27-1.08.61l-.38-.37c.43-.47.89-.77,1.55-.77.94,0,1.53.59,1.53,1.5,0,.96-.88,1.91-2.08,3.17.28-.02.59-.04.86-.04h1.47v.56h-3.29v-.39Z"/>
    </g>
    <g>
      <path class="cls-12" d="m244.09,242.1l.33-.43c.3.3.69.58,1.29.58s1.12-.45,1.12-1.16-.43-1.12-1.08-1.12c-.35,0-.57.11-.88.31l-.35-.22.17-2.46h2.55v.57h-1.97l-.13,1.51c.24-.13.47-.21.78-.21.87,0,1.58.5,1.58,1.6s-.83,1.73-1.72,1.73c-.82,0-1.32-.34-1.68-.7Z"/>
      <path class="cls-12" d="m248.5,242.16h1.17v-3.75h-.93v-.42c.46-.08.8-.21,1.08-.37h.5v4.55h1.05v.55h-2.88v-.55Z"/>
      <path class="cls-12" d="m252.17,242.32c1.53-1.53,2.4-2.45,2.4-3.27,0-.58-.32-1-.97-1-.43,0-.79.27-1.08.61l-.38-.37c.43-.47.89-.77,1.55-.77.94,0,1.53.59,1.53,1.5,0,.96-.88,1.91-2.08,3.17.28-.02.59-.04.86-.04h1.47v.56h-3.29v-.39Z"/>
    </g>
    <g>
      <path class="cls-12" d="m263.04,204.8l.33-.43c.3.3.69.58,1.29.58s1.12-.45,1.12-1.16-.43-1.12-1.08-1.12c-.35,0-.57.11-.88.31l-.35-.22.17-2.46h2.55v.57h-1.97l-.13,1.51c.24-.13.47-.21.78-.21.87,0,1.58.5,1.58,1.6s-.83,1.73-1.72,1.73c-.82,0-1.32-.34-1.68-.7Z"/>
      <path class="cls-12" d="m267.45,204.86h1.17v-3.75h-.93v-.42c.46-.08.8-.21,1.08-.37h.5v4.55h1.05v.55h-2.88v-.55Z"/>
      <path class="cls-12" d="m271.11,205.01c1.53-1.53,2.4-2.45,2.4-3.27,0-.58-.32-1-.97-1-.43,0-.79.27-1.08.61l-.38-.37c.43-.47.89-.77,1.55-.77.94,0,1.53.59,1.53,1.5,0,.96-.88,1.91-2.08,3.17.28-.02.59-.04.86-.04h1.47v.56h-3.29v-.39Z"/>
    </g>
    <g>
      <path class="cls-12" d="m183.12,266.4h1.17v-3.75h-.93v-.42c.46-.08.8-.21,1.08-.37h.5v4.55h1.05v.55h-2.88v-.55Z"/>
      <path class="cls-12" d="m186.82,264.38c0-1.71.62-2.63,1.63-2.63s1.63.92,1.63,2.63-.62,2.67-1.63,2.67-1.63-.96-1.63-2.67Zm2.63,0c0-1.49-.4-2.1-1-2.1s-1,.6-1,2.1.4,2.13,1,2.13,1-.64,1-2.13Z"/>
      <path class="cls-12" d="m190.77,266.55c1.53-1.53,2.4-2.45,2.4-3.27,0-.58-.32-1-.97-1-.43,0-.79.27-1.08.61l-.38-.37c.43-.47.89-.77,1.55-.77.94,0,1.53.59,1.53,1.5,0,.96-.88,1.91-2.08,3.17.28-.02.59-.04.86-.04h1.47v.56h-3.29v-.39Z"/>
      <path class="cls-12" d="m196.85,263.53c0-.27.02-.71.04-.98h-.03c-.13.24-.27.47-.42.72l-1.19,1.74h2.92v.52h-3.61v-.43l2.18-3.26h.73v5.1h-.62v-3.42Z"/>
    </g>
    <g>
      <path class="cls-12" d="m212.58,242.16h1.17v-3.75h-.93v-.42c.46-.08.8-.21,1.08-.37h.5v4.55h1.05v.55h-2.88v-.55Z"/>
      <path class="cls-12" d="m216.28,240.14c0-1.71.62-2.63,1.63-2.63s1.63.92,1.63,2.63-.62,2.67-1.63,2.67-1.63-.96-1.63-2.67Zm2.63,0c0-1.49-.4-2.1-1-2.1s-1,.6-1,2.1.4,2.13,1,2.13,1-.64,1-2.13Z"/>
      <path class="cls-12" d="m220.22,242.32c1.53-1.53,2.4-2.45,2.4-3.27,0-.58-.32-1-.97-1-.43,0-.79.27-1.08.61l-.38-.37c.43-.47.89-.77,1.55-.77.94,0,1.53.59,1.53,1.5,0,.96-.88,1.91-2.08,3.17.28-.02.59-.04.86-.04h1.47v.56h-3.29v-.39Z"/>
      <path class="cls-12" d="m226.31,239.29c0-.27.02-.71.04-.98h-.03c-.13.24-.27.47-.42.72l-1.19,1.74h2.92v.52h-3.61v-.43l2.18-3.26h.73v5.1h-.62v-3.42Z"/>
    </g>
    <g>
      <path class="cls-12" d="m35.1,117.21l-.43-.32c.3-.3.58-.69.58-1.29s-.45-1.12-1.16-1.12-1.12.43-1.12,1.08c0,.35.11.57.31.88l-.22.35-2.46-.17v-2.55h.57v1.97l1.51.13c-.13-.24-.21-.47-.21-.78,0-.87.5-1.58,1.6-1.58s1.73.83,1.73,1.72c0,.82-.34,1.32-.7,1.68Z"/>
      <path class="cls-12" d="m31.17,110.54v2.54h-.57v-3.29h.4c1.54,1.21,2.71,1.46,4.7,1.54v.68c-1.92-.09-3.14-.47-4.53-1.47Z"/>
      <path class="cls-12" d="m35.32,109.13c-1.53-1.53-2.45-2.4-3.27-2.4-.58,0-1,.32-1,.97,0,.43.27.79.61,1.08l-.37.38c-.47-.43-.77-.89-.77-1.55,0-.94.59-1.53,1.5-1.53.96,0,1.91.88,3.17,2.08-.02-.28-.04-.59-.04-.86v-1.47h.56v3.29h-.39Z"/>
      <path class="cls-12" d="m33.67,102.64l-1.9,1.07v-.55l1.01-.54c.18-.1.34-.18.57-.31v-.02c-.23-.11-.39-.18-.57-.28l-1.01-.52v-.53l1.93,1.07,2.01-1.15v.55l-1.06.58c-.2.1-.39.21-.63.34v.02c.24.11.44.21.63.31l1.06.57v.53l-2.03-1.15Z"/>
      <path class="cls-12" d="m35.1,99l-.43-.32c.3-.3.58-.69.58-1.29s-.45-1.12-1.16-1.12-1.12.43-1.12,1.08c0,.35.11.57.31.88l-.22.35-2.46-.17v-2.55h.57v1.97l1.51.13c-.13-.24-.21-.47-.21-.78,0-.87.5-1.58,1.6-1.58s1.73.83,1.73,1.72c0,.82-.34,1.32-.7,1.68Z"/>
      <path class="cls-12" d="m31.17,92.33v2.54h-.57v-3.29h.4c1.54,1.21,2.71,1.46,4.7,1.54v.68c-1.92-.09-3.14-.47-4.53-1.47Z"/>
      <path class="cls-12" d="m35.32,90.92c-1.53-1.53-2.45-2.4-3.27-2.4-.58,0-1,.32-1,.97,0,.43.27.79.61,1.08l-.37.38c-.47-.43-.77-.89-.77-1.55,0-.94.59-1.53,1.5-1.53.96,0,1.91.88,3.17,2.08-.02-.28-.04-.59-.04-.86v-1.47h.56v3.29h-.39Z"/>
    </g>
    <g>
      <path class="cls-12" d="m45.35,117.21l-.43-.32c.3-.3.58-.69.58-1.29s-.45-1.12-1.16-1.12-1.12.43-1.12,1.08c0,.35.11.57.31.88l-.22.35-2.46-.17v-2.55h.57v1.97l1.51.13c-.13-.24-.21-.47-.21-.78,0-.87.5-1.58,1.6-1.58s1.73.83,1.73,1.72c0,.82-.34,1.32-.7,1.68Z"/>
      <path class="cls-12" d="m41.42,110.54v2.54h-.57v-3.29h.4c1.54,1.21,2.71,1.46,4.7,1.54v.68c-1.92-.09-3.14-.47-4.53-1.47Z"/>
      <path class="cls-12" d="m43.38,109.1c-1.71,0-2.63-.62-2.63-1.63s.92-1.63,2.63-1.63,2.67.62,2.67,1.63-.96,1.63-2.67,1.63Zm0-2.63c-1.49,0-2.1.4-2.1,1s.6,1,2.1,1,2.13-.4,2.13-1-.64-1-2.13-1Z"/>
      <path class="cls-12" d="m43.92,102.64l-1.9,1.07v-.55l1.01-.54c.18-.1.34-.18.57-.31v-.02c-.23-.11-.39-.18-.57-.28l-1.01-.52v-.53l1.93,1.07,2.01-1.15v.55l-1.06.58c-.2.1-.39.21-.63.34v.02c.24.11.44.21.63.31l1.06.57v.53l-2.03-1.15Z"/>
      <path class="cls-12" d="m45.35,99l-.43-.32c.3-.3.58-.69.58-1.29s-.45-1.12-1.16-1.12-1.12.43-1.12,1.08c0,.35.11.57.31.88l-.22.35-2.46-.17v-2.55h.57v1.97l1.51.13c-.13-.24-.21-.47-.21-.78,0-.87.5-1.58,1.6-1.58s1.73.83,1.73,1.72c0,.82-.34,1.32-.7,1.68Z"/>
      <path class="cls-12" d="m41.42,92.33v2.54h-.57v-3.29h.4c1.54,1.21,2.71,1.46,4.7,1.54v.68c-1.92-.09-3.14-.47-4.53-1.47Z"/>
      <path class="cls-12" d="m43.38,90.89c-1.71,0-2.63-.62-2.63-1.63s.92-1.63,2.63-1.63,2.67.62,2.67,1.63-.96,1.63-2.67,1.63Zm0-2.63c-1.49,0-2.1.4-2.1,1s.6,1,2.1,1,2.13-.4,2.13-1-.64-1-2.13-1Z"/>
    </g>
    <g>
      <path class="cls-12" d="m57.45,117.21l-.43-.32c.3-.3.58-.69.58-1.29s-.45-1.12-1.16-1.12-1.12.43-1.12,1.08c0,.35.11.57.31.88l-.22.35-2.46-.17v-2.55h.57v1.97l1.51.13c-.13-.24-.21-.47-.21-.78,0-.87.5-1.58,1.6-1.58s1.73.83,1.73,1.72c0,.82-.34,1.32-.7,1.68Z"/>
      <path class="cls-12" d="m55.7,113.04c-2.05,0-2.84-.93-2.84-1.94,0-.55.23-.94.54-1.23l.41.37c-.25.21-.4.52-.4.84,0,.73.58,1.35,2.29,1.35,1.25,0,1.93-.41,1.93-1.14,0-.5-.45-.89-1.12-.89s-1.08.31-1.08.94c0,.33.2.75.72,1.1l-.52.02c-.43-.32-.7-.8-.7-1.23,0-.88.53-1.45,1.58-1.45.98,0,1.64.69,1.64,1.51,0,1.01-.81,1.76-2.45,1.76Z"/>
      <path class="cls-12" d="m56.75,109.12c-.66,0-1.12-.48-1.37-.96h-.03c-.26.38-.64.71-1.18.71-.78,0-1.31-.62-1.31-1.44,0-.89.56-1.44,1.36-1.44.53,0,.99.39,1.23.7h.03c.27-.46.63-.89,1.31-.89.77,0,1.36.66,1.36,1.64s-.59,1.68-1.4,1.68Zm-2.5-2.57c-.5,0-.9.32-.9.89,0,.48.33.83.82.83.61,0,.87-.56,1.11-1.18-.31-.35-.65-.54-1.02-.54Zm2.52-.12c-.66,0-.9.65-1.19,1.38.27.41.64.71,1.11.71.56,0,.97-.47.97-1.09s-.37-1-.89-1Z"/>
      <path class="cls-12" d="m56.02,102.64l-1.9,1.07v-.55l1.01-.54c.18-.1.34-.18.57-.31v-.02c-.23-.11-.39-.18-.57-.28l-1.01-.52v-.53l1.93,1.07,2.01-1.15v.55l-1.06.58c-.2.1-.39.21-.63.34v.02c.24.11.44.21.63.31l1.06.57v.53l-2.03-1.15Z"/>
      <path class="cls-12" d="m57.45,99l-.43-.32c.3-.3.58-.69.58-1.29s-.45-1.12-1.16-1.12-1.12.43-1.12,1.08c0,.35.11.57.31.88l-.22.35-2.46-.17v-2.55h.57v1.97l1.51.13c-.13-.24-.21-.47-.21-.78,0-.87.5-1.58,1.6-1.58s1.73.83,1.73,1.72c0,.82-.34,1.32-.7,1.68Z"/>
      <path class="cls-12" d="m55.7,94.83c-2.05,0-2.84-.93-2.84-1.94,0-.55.23-.94.54-1.23l.41.37c-.25.21-.4.52-.4.84,0,.73.58,1.35,2.29,1.35,1.25,0,1.93-.41,1.93-1.14,0-.5-.45-.89-1.12-.89s-1.08.31-1.08.94c0,.33.2.75.72,1.1l-.52.02c-.43-.32-.7-.8-.7-1.23,0-.88.53-1.45,1.58-1.45.98,0,1.64.69,1.64,1.51,0,1.01-.81,1.76-2.45,1.76Z"/>
      <path class="cls-12" d="m56.75,90.92c-.66,0-1.12-.48-1.37-.96h-.03c-.26.38-.64.71-1.18.71-.78,0-1.31-.62-1.31-1.44,0-.89.56-1.44,1.36-1.44.53,0,.99.39,1.23.7h.03c.27-.46.63-.89,1.31-.89.77,0,1.36.66,1.36,1.64s-.59,1.68-1.4,1.68Zm-2.5-2.57c-.5,0-.9.32-.9.89,0,.48.33.83.82.83.61,0,.87-.56,1.11-1.18-.31-.35-.65-.54-1.02-.54Zm2.52-.12c-.66,0-.9.65-1.19,1.38.27.41.64.71,1.11.71.56,0,.97-.47.97-1.09s-.37-1-.89-1Z"/>
    </g>
    <g>
      <path class="cls-12" d="m325.51,99.63l-.43-.33c.32-.31.6-.71.6-1.3s-.36-1.06-.93-1.06c-.61,0-1.01.42-1.01,1.63h-.5c0-1.08-.42-1.45-.95-1.45-.5,0-.81.34-.81.88,0,.43.21.79.52,1.09l-.42.35c-.37-.39-.64-.86-.64-1.47,0-.89.47-1.53,1.29-1.53.61,0,1.01.37,1.21.93h.03c.15-.62.6-1.11,1.3-1.11.91,0,1.46.75,1.46,1.68,0,.82-.34,1.33-.72,1.68Z"/>
      <path class="cls-12" d="m325.69,95.45l-.41-.37c.25-.21.4-.52.4-.84,0-.74-.58-1.35-2.29-1.35-1.25,0-1.93.41-1.93,1.14,0,.5.45.89,1.12.89s1.08-.31,1.08-.94c0-.33-.2-.75-.72-1.1l.52-.02c.43.32.7.8.7,1.23,0,.88-.53,1.45-1.58,1.45-.98,0-1.64-.69-1.64-1.51,0-1.01.81-1.76,2.45-1.76,2.05,0,2.84.93,2.84,1.94,0,.55-.23.95-.54,1.23Z"/>
      <path class="cls-12" d="m325.75,91.57c-1.53-1.53-2.45-2.4-3.27-2.4-.58,0-1,.32-1,.97,0,.43.27.79.61,1.08l-.37.38c-.47-.43-.78-.89-.78-1.55,0-.94.59-1.53,1.5-1.53.96,0,1.91.88,3.17,2.08-.02-.28-.04-.59-.04-.86v-1.47h.56v3.29h-.39Z"/>
      <path class="cls-12" d="m324.1,85.07l-1.9,1.07v-.55l1.01-.54c.18-.1.34-.18.57-.31v-.02c-.23-.11-.39-.18-.57-.28l-1.01-.52v-.53l1.93,1.07,2.01-1.15v.55l-1.06.58c-.2.1-.39.21-.63.34v.02c.24.11.44.21.63.31l1.06.57v.53l-2.03-1.15Z"/>
      <path class="cls-12" d="m325.51,81.42l-.43-.33c.32-.31.6-.71.6-1.3s-.36-1.06-.93-1.06c-.61,0-1.01.42-1.01,1.63h-.5c0-1.08-.42-1.45-.95-1.45-.5,0-.81.34-.81.88,0,.43.21.79.52,1.09l-.42.35c-.37-.39-.64-.86-.64-1.47,0-.89.47-1.53,1.29-1.53.61,0,1.01.37,1.21.93h.03c.15-.62.6-1.11,1.3-1.11.91,0,1.46.75,1.46,1.68,0,.82-.34,1.33-.72,1.68Z"/>
      <path class="cls-12" d="m325.69,77.24l-.41-.37c.25-.21.4-.52.4-.84,0-.74-.58-1.35-2.29-1.35-1.25,0-1.93.41-1.93,1.14,0,.5.45.89,1.12.89s1.08-.31,1.08-.94c0-.33-.2-.75-.72-1.1l.52-.02c.43.32.7.8.7,1.23,0,.88-.53,1.45-1.58,1.45-.98,0-1.64-.69-1.64-1.51,0-1.01.81-1.76,2.45-1.76,2.05,0,2.84.93,2.84,1.94,0,.55-.23.95-.54,1.23Z"/>
      <path class="cls-12" d="m325.75,73.36c-1.53-1.53-2.45-2.4-3.27-2.4-.58,0-1,.32-1,.97,0,.43.27.79.61,1.08l-.37.38c-.47-.43-.78-.89-.78-1.55,0-.94.59-1.53,1.5-1.53.96,0,1.91.88,3.17,2.08-.02-.28-.04-.59-.04-.86v-1.47h.56v3.29h-.39Z"/>
    </g>
    <g>
      <path class="cls-12" d="m339.49,99.63l-.43-.33c.32-.31.6-.71.6-1.3s-.36-1.06-.93-1.06c-.61,0-1.01.42-1.01,1.63h-.5c0-1.08-.42-1.45-.95-1.45-.5,0-.81.34-.81.88,0,.43.21.79.52,1.09l-.42.35c-.37-.39-.63-.86-.63-1.47,0-.89.47-1.53,1.29-1.53.61,0,1.01.37,1.21.93h.03c.15-.62.6-1.11,1.3-1.11.91,0,1.46.75,1.46,1.68,0,.82-.34,1.33-.72,1.68Z"/>
      <path class="cls-12" d="m339.67,95.45l-.41-.37c.25-.21.4-.52.4-.84,0-.74-.58-1.35-2.29-1.35-1.25,0-1.93.41-1.93,1.14,0,.5.45.89,1.12.89s1.08-.31,1.08-.94c0-.33-.2-.75-.72-1.1l.52-.02c.43.32.7.8.7,1.23,0,.88-.53,1.45-1.58,1.45-.98,0-1.64-.69-1.64-1.51,0-1.01.81-1.76,2.45-1.76,2.05,0,2.84.93,2.84,1.94,0,.55-.23.95-.54,1.23Z"/>
      <path class="cls-12" d="m337.54,91.53c-1.71,0-2.63-.62-2.63-1.63s.92-1.63,2.63-1.63,2.67.62,2.67,1.63-.96,1.63-2.67,1.63Zm0-2.63c-1.49,0-2.1.4-2.1,1s.6,1,2.1,1,2.13-.4,2.13-1-.64-1-2.13-1Z"/>
      <path class="cls-12" d="m338.08,85.07l-1.9,1.07v-.55l1.01-.54c.18-.1.34-.18.57-.31v-.02c-.23-.11-.39-.18-.57-.28l-1.01-.52v-.53l1.93,1.07,2.01-1.15v.55l-1.06.58c-.2.1-.39.21-.63.34v.02c.24.11.44.21.63.31l1.06.57v.53l-2.03-1.15Z"/>
      <path class="cls-12" d="m339.49,81.42l-.43-.33c.32-.31.6-.71.6-1.3s-.36-1.06-.93-1.06c-.61,0-1.01.42-1.01,1.63h-.5c0-1.08-.42-1.45-.95-1.45-.5,0-.81.34-.81.88,0,.43.21.79.52,1.09l-.42.35c-.37-.39-.63-.86-.63-1.47,0-.89.47-1.53,1.29-1.53.61,0,1.01.37,1.21.93h.03c.15-.62.6-1.11,1.3-1.11.91,0,1.46.75,1.46,1.68,0,.82-.34,1.33-.72,1.68Z"/>
      <path class="cls-12" d="m339.67,77.24l-.41-.37c.25-.21.4-.52.4-.84,0-.74-.58-1.35-2.29-1.35-1.25,0-1.93.41-1.93,1.14,0,.5.45.89,1.12.89s1.08-.31,1.08-.94c0-.33-.2-.75-.72-1.1l.52-.02c.43.32.7.8.7,1.23,0,.88-.53,1.45-1.58,1.45-.98,0-1.64-.69-1.64-1.51,0-1.01.81-1.76,2.45-1.76,2.05,0,2.84.93,2.84,1.94,0,.55-.23.95-.54,1.23Z"/>
      <path class="cls-12" d="m337.54,73.33c-1.71,0-2.63-.62-2.63-1.63s.92-1.63,2.63-1.63,2.67.62,2.67,1.63-.96,1.63-2.67,1.63Zm0-2.63c-1.49,0-2.1.4-2.1,1s.6,1,2.1,1,2.13-.4,2.13-1-.64-1-2.13-1Z"/>
    </g>
    <g>
      <path class="cls-12" d="m352.72,99.63l-.43-.33c.32-.31.6-.71.6-1.3s-.36-1.06-.93-1.06c-.61,0-1.01.42-1.01,1.63h-.5c0-1.08-.42-1.45-.95-1.45-.5,0-.81.34-.81.88,0,.43.21.79.52,1.09l-.42.35c-.37-.39-.64-.86-.64-1.47,0-.89.47-1.53,1.29-1.53.61,0,1.01.37,1.21.93h.03c.15-.62.6-1.11,1.3-1.11.91,0,1.46.75,1.46,1.68,0,.82-.34,1.33-.72,1.68Z"/>
      <path class="cls-12" d="m352.04,95.53c-.66,0-1.12-.48-1.37-.96h-.03c-.26.38-.64.71-1.18.71-.78,0-1.31-.62-1.31-1.44,0-.89.56-1.44,1.36-1.44.54,0,.99.39,1.23.7h.03c.27-.46.63-.89,1.31-.89.77,0,1.36.66,1.36,1.64s-.59,1.68-1.4,1.68Zm-2.5-2.57c-.5,0-.9.32-.9.89,0,.48.33.83.82.83.61,0,.87-.56,1.11-1.18-.31-.35-.65-.54-1.02-.54Zm2.52-.12c-.66,0-.9.65-1.19,1.38.27.41.64.71,1.11.71.56,0,.97-.47.97-1.09s-.37-1-.89-1Z"/>
      <path class="cls-12" d="m352.04,91.56c-.66,0-1.12-.48-1.37-.96h-.03c-.26.38-.64.71-1.18.71-.78,0-1.31-.62-1.31-1.44,0-.89.56-1.44,1.36-1.44.54,0,.99.39,1.23.7h.03c.27-.46.63-.89,1.31-.89.77,0,1.36.66,1.36,1.64s-.59,1.68-1.4,1.68Zm-2.5-2.57c-.5,0-.9.32-.9.89,0,.48.33.83.82.83.61,0,.87-.56,1.11-1.18-.31-.35-.65-.54-1.02-.54Zm2.52-.12c-.66,0-.9.65-1.19,1.38.27.41.64.71,1.11.71.56,0,.97-.47.97-1.09s-.37-1-.89-1Z"/>
      <path class="cls-12" d="m351.31,85.07l-1.9,1.07v-.55l1.01-.54c.18-.1.34-.18.57-.31v-.02c-.23-.11-.39-.18-.57-.28l-1.01-.52v-.53l1.93,1.07,2.01-1.15v.55l-1.06.58c-.2.1-.39.21-.63.34v.02c.24.11.44.21.63.31l1.06.57v.53l-2.03-1.15Z"/>
      <path class="cls-12" d="m352.72,81.42l-.43-.33c.32-.31.6-.71.6-1.3s-.36-1.06-.93-1.06c-.61,0-1.01.42-1.01,1.63h-.5c0-1.08-.42-1.45-.95-1.45-.5,0-.81.34-.81.88,0,.43.21.79.52,1.09l-.42.35c-.37-.39-.64-.86-.64-1.47,0-.89.47-1.53,1.29-1.53.61,0,1.01.37,1.21.93h.03c.15-.62.6-1.11,1.3-1.11.91,0,1.46.75,1.46,1.68,0,.82-.34,1.33-.72,1.68Z"/>
      <path class="cls-12" d="m352.04,77.33c-.66,0-1.12-.48-1.37-.96h-.03c-.26.38-.64.71-1.18.71-.78,0-1.31-.62-1.31-1.44,0-.89.56-1.44,1.36-1.44.54,0,.99.39,1.23.7h.03c.27-.46.63-.89,1.31-.89.77,0,1.36.66,1.36,1.64s-.59,1.68-1.4,1.68Zm-2.5-2.57c-.5,0-.9.32-.9.89,0,.48.33.83.82.83.61,0,.87-.56,1.11-1.18-.31-.35-.65-.54-1.02-.54Zm2.52-.12c-.66,0-.9.65-1.19,1.38.27.41.64.71,1.11.71.56,0,.97-.47.97-1.09s-.37-1-.89-1Z"/>
      <path class="cls-12" d="m352.04,73.35c-.66,0-1.12-.48-1.37-.96h-.03c-.26.38-.64.71-1.18.71-.78,0-1.31-.62-1.31-1.44,0-.89.56-1.44,1.36-1.44.54,0,.99.39,1.23.7h.03c.27-.46.63-.89,1.31-.89.77,0,1.36.66,1.36,1.64s-.59,1.68-1.4,1.68Zm-2.5-2.57c-.5,0-.9.32-.9.89,0,.48.33.83.82.83.61,0,.87-.56,1.11-1.18-.31-.35-.65-.54-1.02-.54Zm2.52-.12c-.66,0-.9.65-1.19,1.38.27.41.64.71,1.11.71.56,0,.97-.47.97-1.09s-.37-1-.89-1Z"/>
    </g>
    <g>
      <path class="cls-12" d="m365.23,99.63l-.43-.33c.32-.31.6-.71.6-1.3s-.36-1.06-.93-1.06c-.61,0-1.01.42-1.01,1.63h-.5c0-1.08-.42-1.45-.95-1.45-.5,0-.81.34-.81.88,0,.43.21.79.52,1.09l-.42.35c-.37-.39-.64-.86-.64-1.47,0-.89.47-1.53,1.29-1.53.61,0,1.01.37,1.21.93h.03c.15-.62.6-1.11,1.3-1.11.91,0,1.46.75,1.46,1.68,0,.82-.34,1.33-.72,1.68Z"/>
      <path class="cls-12" d="m364.55,95.53c-.66,0-1.12-.48-1.37-.96h-.03c-.26.38-.64.71-1.18.71-.78,0-1.31-.62-1.31-1.44,0-.89.56-1.44,1.36-1.44.54,0,.99.39,1.23.7h.03c.27-.46.63-.89,1.31-.89.77,0,1.36.66,1.36,1.64s-.59,1.68-1.4,1.68Zm-2.5-2.57c-.5,0-.9.32-.9.89,0,.48.33.83.82.83.61,0,.87-.56,1.11-1.18-.31-.35-.65-.54-1.02-.54Zm2.52-.12c-.66,0-.9.65-1.19,1.38.27.41.64.71,1.11.71.56,0,.97-.47.97-1.09s-.37-1-.89-1Z"/>
      <path class="cls-12" d="m364.55,91.56c-.66,0-1.12-.48-1.37-.96h-.03c-.26.38-.64.71-1.18.71-.78,0-1.31-.62-1.31-1.44,0-.89.56-1.44,1.36-1.44.54,0,.99.39,1.23.7h.03c.27-.46.63-.89,1.31-.89.77,0,1.36.66,1.36,1.64s-.59,1.68-1.4,1.68Zm-2.5-2.57c-.5,0-.9.32-.9.89,0,.48.33.83.82.83.61,0,.87-.56,1.11-1.18-.31-.35-.65-.54-1.02-.54Zm2.52-.12c-.66,0-.9.65-1.19,1.38.27.41.64.71,1.11.71.56,0,.97-.47.97-1.09s-.37-1-.89-1Z"/>
      <path class="cls-12" d="m363.82,85.07l-1.9,1.07v-.55l1.01-.54c.18-.1.34-.18.57-.31v-.02c-.23-.11-.39-.18-.57-.28l-1.01-.52v-.53l1.93,1.07,2.01-1.15v.55l-1.06.58c-.2.1-.39.21-.63.34v.02c.24.11.44.21.63.31l1.06.57v.53l-2.03-1.15Z"/>
      <path class="cls-12" d="m365.23,81.42l-.43-.33c.32-.31.6-.71.6-1.3s-.36-1.06-.93-1.06c-.61,0-1.01.42-1.01,1.63h-.5c0-1.08-.42-1.45-.95-1.45-.5,0-.81.34-.81.88,0,.43.21.79.52,1.09l-.42.35c-.37-.39-.64-.86-.64-1.47,0-.89.47-1.53,1.29-1.53.61,0,1.01.37,1.21.93h.03c.15-.62.6-1.11,1.3-1.11.91,0,1.46.75,1.46,1.68,0,.82-.34,1.33-.72,1.68Z"/>
      <path class="cls-12" d="m365.42,77.24l-.41-.37c.25-.21.4-.52.4-.84,0-.74-.58-1.35-2.29-1.35-1.25,0-1.93.41-1.93,1.14,0,.5.45.89,1.12.89s1.08-.31,1.08-.94c0-.33-.2-.75-.72-1.1l.52-.02c.43.32.7.8.7,1.23,0,.88-.53,1.45-1.58,1.45-.98,0-1.64-.69-1.64-1.51,0-1.01.81-1.76,2.45-1.76,2.05,0,2.84.93,2.84,1.94,0,.55-.23.95-.54,1.23Z"/>
      <path class="cls-12" d="m365.47,73.36c-1.53-1.53-2.45-2.4-3.27-2.4-.58,0-1,.32-1,.97,0,.43.27.79.61,1.08l-.37.38c-.47-.43-.78-.89-.78-1.55,0-.94.59-1.53,1.5-1.53.96,0,1.91.88,3.17,2.08-.02-.28-.04-.59-.04-.86v-1.47h.56v3.29h-.39Z"/>
    </g>
    <g>
      <path class="cls-12" d="m57.66,187.56c-1.53-1.53-2.45-2.4-3.27-2.4-.58,0-1,.32-1,.97,0,.43.27.79.61,1.08l-.37.38c-.47-.43-.77-.89-.77-1.55,0-.94.59-1.53,1.5-1.53.96,0,1.91.88,3.17,2.08-.02-.28-.04-.59-.04-.86v-1.47h.56v3.29h-.39Z"/>
      <path class="cls-12" d="m56.75,183.57c-.66,0-1.12-.48-1.37-.96h-.03c-.26.38-.64.71-1.18.71-.78,0-1.31-.62-1.31-1.44,0-.89.56-1.44,1.36-1.44.53,0,.99.39,1.23.7h.03c.27-.46.63-.89,1.31-.89.77,0,1.36.66,1.36,1.64s-.59,1.68-1.4,1.68Zm-2.5-2.57c-.5,0-.9.32-.9.89,0,.48.33.83.82.83.61,0,.87-.56,1.11-1.18-.31-.35-.65-.54-1.02-.54Zm2.52-.12c-.66,0-.9.65-1.19,1.38.27.41.64.71,1.11.71.56,0,.97-.47.97-1.09s-.37-1-.89-1Z"/>
      <path class="cls-12" d="m54.63,177.49c-.27,0-.71-.02-.98-.04v.03c.24.13.47.27.72.42l1.74,1.19v-2.92h.52v3.61h-.43l-3.26-2.18v-.73h5.1v.62h-3.42Z"/>
      <path class="cls-12" d="m55.63,175.53c-.87-.97-1.36-1.48-1.83-1.48-.4,0-.65.23-.65.6,0,.26.2.49.45.67l-.28.31c-.36-.24-.61-.62-.61-1.05,0-.62.35-1.04,1.01-1.04.6,0,1.09.49,1.77,1.16v-1.31h.44v2.14h-.3Z"/>
    </g>
    <g>
      <path class="cls-12" d="m67.97,187.56c-1.53-1.53-2.45-2.4-3.27-2.4-.58,0-1,.32-1,.97,0,.43.27.79.61,1.08l-.37.38c-.47-.43-.77-.89-.77-1.55,0-.94.59-1.53,1.5-1.53.96,0,1.91.88,3.17,2.08-.02-.28-.04-.59-.04-.86v-1.47h.56v3.29h-.39Z"/>
      <path class="cls-12" d="m67.06,183.57c-.66,0-1.12-.48-1.37-.96h-.03c-.26.38-.64.71-1.18.71-.78,0-1.31-.62-1.31-1.44,0-.89.56-1.44,1.36-1.44.53,0,.99.39,1.23.7h.03c.27-.46.63-.89,1.31-.89.77,0,1.36.66,1.36,1.64s-.59,1.68-1.4,1.68Zm-2.5-2.57c-.5,0-.9.32-.9.89,0,.48.33.83.82.83.61,0,.87-.56,1.11-1.18-.31-.35-.65-.54-1.02-.54Zm2.52-.12c-.66,0-.9.65-1.19,1.38.27.41.64.71,1.11.71.56,0,.97-.47.97-1.09s-.37-1-.89-1Z"/>
      <path class="cls-12" d="m67.97,179.61c-1.53-1.53-2.45-2.4-3.27-2.4-.58,0-1,.32-1,.97,0,.43.27.79.61,1.08l-.37.38c-.47-.43-.77-.89-.77-1.55,0-.94.59-1.53,1.5-1.53.96,0,1.91.88,3.17,2.08-.02-.28-.04-.59-.04-.86v-1.47h.56v3.29h-.39Z"/>
      <path class="cls-12" d="m65.94,175.53c-.87-.97-1.36-1.48-1.83-1.48-.4,0-.65.23-.65.6,0,.26.2.49.45.67l-.28.31c-.36-.24-.61-.62-.61-1.05,0-.62.35-1.04,1.01-1.04.6,0,1.09.49,1.77,1.16v-1.31h.44v2.14h-.3Z"/>
    </g>
    <g>
      <path class="cls-12" d="m81.25,187.56c-1.53-1.53-2.45-2.4-3.27-2.4-.58,0-1,.32-1,.97,0,.43.27.79.61,1.08l-.37.38c-.47-.43-.77-.89-.77-1.55,0-.94.59-1.53,1.5-1.53.96,0,1.91.88,3.17,2.08-.02-.28-.04-.59-.04-.86v-1.47h.56v3.29h-.39Z"/>
      <path class="cls-12" d="m80.34,183.57c-.66,0-1.12-.48-1.37-.96h-.03c-.26.38-.64.71-1.18.71-.78,0-1.31-.62-1.31-1.44,0-.89.56-1.44,1.36-1.44.53,0,.99.39,1.23.7h.03c.27-.46.63-.89,1.31-.89.77,0,1.36.66,1.36,1.64s-.59,1.68-1.4,1.68Zm-2.5-2.57c-.5,0-.9.32-.9.89,0,.48.33.83.82.83.61,0,.87-.56,1.11-1.18-.31-.35-.65-.54-1.02-.54Zm2.52-.12c-.66,0-.9.65-1.19,1.38.27.41.64.71,1.11.71.56,0,.97-.47.97-1.09s-.37-1-.89-1Z"/>
      <path class="cls-12" d="m79.07,179.57c-1.71,0-2.63-.62-2.63-1.63s.92-1.63,2.63-1.63,2.67.62,2.67,1.63-.96,1.63-2.67,1.63Zm0-2.63c-1.49,0-2.1.4-2.1,1s.6,1,2.1,1,2.13-.4,2.13-1-.64-1-2.13-1Z"/>
      <path class="cls-12" d="m79.22,175.53c-.87-.97-1.36-1.48-1.83-1.48-.4,0-.65.23-.65.6,0,.26.2.49.45.67l-.28.31c-.36-.24-.61-.62-.61-1.05,0-.62.35-1.04,1.01-1.04.6,0,1.09.49,1.77,1.16v-1.31h.44v2.14h-.3Z"/>
    </g>
    <g>
      <path class="cls-12" d="m81.31,228.59v-1.17h-3.75v.93h-.42c-.08-.46-.21-.8-.37-1.08v-.5h4.55v-1.05h.55v2.88h-.55Z"/>
      <path class="cls-12" d="m78.44,222.81c-.27,0-.71-.02-.98-.04v.03c.24.13.47.27.72.42l1.74,1.19v-2.92h.52v3.61h-.43l-3.26-2.18v-.73h5.1v.62h-3.42Z"/>
      <path class="cls-12" d="m79.29,220.91c-1.71,0-2.63-.62-2.63-1.63s.92-1.63,2.63-1.63,2.67.62,2.67,1.63-.96,1.63-2.67,1.63Zm0-2.63c-1.49,0-2.1.4-2.1,1s.6,1,2.1,1,2.13-.4,2.13-1-.64-1-2.13-1Z"/>
      <path class="cls-12" d="m79.43,216.87c-.87-.97-1.36-1.48-1.83-1.48-.4,0-.65.23-.65.6,0,.26.2.49.45.67l-.28.31c-.36-.24-.61-.62-.61-1.05,0-.62.35-1.04,1.01-1.04.6,0,1.09.49,1.77,1.16v-1.31h.44v2.14h-.3Z"/>
    </g>
    <g>
      <path class="cls-12" d="m94.61,235.31v-1.17h-3.75v.93h-.42c-.08-.46-.21-.8-.37-1.08v-.5h4.55v-1.05h.55v2.88h-.55Z"/>
      <path class="cls-12" d="m94.53,231.75l-.43-.33c.32-.31.6-.71.6-1.3s-.36-1.06-.93-1.06c-.61,0-1.01.42-1.01,1.63h-.5c0-1.08-.42-1.45-.95-1.45-.5,0-.81.34-.81.88,0,.43.21.79.52,1.09l-.42.35c-.37-.39-.64-.86-.64-1.47,0-.89.47-1.53,1.29-1.53.61,0,1.01.37,1.21.93h.03c.15-.62.6-1.11,1.3-1.11.91,0,1.46.75,1.46,1.68,0,.82-.34,1.33-.72,1.68Z"/>
      <path class="cls-12" d="m93.85,227.66c-.66,0-1.12-.48-1.37-.96h-.03c-.26.38-.64.71-1.18.71-.78,0-1.31-.62-1.31-1.44,0-.89.56-1.44,1.36-1.44.53,0,.99.39,1.23.7h.03c.27-.46.63-.89,1.31-.89.77,0,1.36.66,1.36,1.64s-.59,1.68-1.4,1.68Zm-2.5-2.57c-.5,0-.9.32-.9.89,0,.48.33.83.82.83.61,0,.87-.56,1.11-1.18-.31-.35-.65-.54-1.02-.54Zm2.52-.12c-.66,0-.9.65-1.19,1.38.27.41.64.71,1.11.71.56,0,.97-.47.97-1.09s-.37-1-.89-1Z"/>
      <path class="cls-12" d="m92.73,223.59c-.87-.97-1.36-1.48-1.83-1.48-.4,0-.65.23-.65.6,0,.26.2.49.45.67l-.28.31c-.36-.24-.61-.62-.61-1.05,0-.62.35-1.04,1.01-1.04.6,0,1.09.49,1.77,1.16v-1.31h.44v2.14h-.3Z"/>
    </g>
    <g>
      <path class="cls-12" d="m112.19,236.19v-1.17h-3.75v.93h-.42c-.08-.46-.21-.8-.37-1.08v-.5h4.55v-1.05h.55v2.88h-.55Z"/>
      <path class="cls-12" d="m112.12,232.63l-.43-.33c.32-.31.6-.71.6-1.3s-.36-1.06-.93-1.06c-.61,0-1.01.42-1.01,1.63h-.5c0-1.08-.42-1.45-.95-1.45-.5,0-.81.34-.81.88,0,.43.21.79.52,1.09l-.42.35c-.37-.39-.64-.86-.64-1.47,0-.89.47-1.53,1.29-1.53.61,0,1.01.37,1.21.93h.03c.15-.62.6-1.11,1.3-1.11.91,0,1.46.75,1.46,1.68,0,.82-.34,1.33-.72,1.68Z"/>
      <path class="cls-12" d="m110.38,228.48c-2.05,0-2.84-.93-2.84-1.94,0-.55.23-.94.54-1.23l.41.37c-.25.21-.4.52-.4.84,0,.73.58,1.35,2.29,1.35,1.25,0,1.93-.41,1.93-1.14,0-.5-.45-.89-1.12-.89s-1.08.31-1.08.94c0,.33.2.75.72,1.1l-.52.02c-.43-.32-.7-.8-.7-1.23,0-.88.53-1.45,1.58-1.45.98,0,1.64.69,1.64,1.51,0,1.01-.81,1.76-2.45,1.76Z"/>
      <path class="cls-12" d="m110.32,224.47c-.87-.97-1.36-1.48-1.83-1.48-.4,0-.65.23-.65.6,0,.26.2.49.45.67l-.28.31c-.36-.24-.61-.62-.61-1.05,0-.62.35-1.04,1.01-1.04.6,0,1.09.49,1.77,1.16v-1.31h.44v2.14h-.3Z"/>
    </g>
    <g>
      <path class="cls-12" d="m110.73,254.72c-2.05,0-2.84-.93-2.84-1.94,0-.55.23-.94.54-1.23l.41.37c-.25.21-.4.52-.4.84,0,.73.58,1.35,2.29,1.35,1.25,0,1.93-.41,1.93-1.14,0-.5-.45-.89-1.12-.89s-1.08.31-1.08.94c0,.33.2.75.72,1.1l-.52.02c-.43-.32-.7-.8-.7-1.23,0-.88.53-1.45,1.58-1.45.98,0,1.64.69,1.64,1.51,0,1.01-.81,1.76-2.45,1.76Z"/>
      <path class="cls-12" d="m111.78,250.8c-.66,0-1.12-.48-1.37-.96h-.03c-.26.38-.64.71-1.18.71-.78,0-1.31-.62-1.31-1.44,0-.89.56-1.44,1.36-1.44.53,0,.99.39,1.23.7h.03c.27-.46.63-.89,1.31-.89.77,0,1.36.66,1.36,1.64s-.59,1.68-1.4,1.68Zm-2.5-2.57c-.5,0-.9.32-.9.89,0,.48.33.83.82.83.61,0,.87-.56,1.11-1.18-.31-.35-.65-.54-1.02-.54Zm2.52-.12c-.66,0-.9.65-1.19,1.38.27.41.64.71,1.11.71.56,0,.97-.47.97-1.09s-.37-1-.89-1Z"/>
      <path class="cls-12" d="m110.66,246.74c-.87-.97-1.36-1.48-1.83-1.48-.4,0-.65.23-.65.6,0,.26.2.49.45.67l-.28.31c-.36-.24-.61-.62-.61-1.05,0-.62.35-1.04,1.01-1.04.6,0,1.09.49,1.77,1.16v-1.31h.44v2.14h-.3Z"/>
    </g>
    <g>
      <path class="cls-12" d="m126.77,263.81c-2.05,0-2.84-.93-2.84-1.94,0-.55.23-.94.54-1.23l.41.37c-.25.21-.4.52-.4.84,0,.73.58,1.35,2.29,1.35,1.25,0,1.93-.41,1.93-1.14,0-.5-.45-.89-1.12-.89s-1.08.31-1.08.94c0,.33.2.75.72,1.1l-.52.02c-.43-.32-.7-.8-.7-1.23,0-.88.53-1.45,1.58-1.45.98,0,1.64.69,1.64,1.51,0,1.01-.81,1.76-2.45,1.76Z"/>
      <path class="cls-12" d="m126.77,259.84c-2.05,0-2.84-.93-2.84-1.94,0-.55.23-.94.54-1.23l.41.37c-.25.21-.4.52-.4.84,0,.73.58,1.35,2.29,1.35,1.25,0,1.93-.41,1.93-1.14,0-.5-.45-.89-1.12-.89s-1.08.31-1.08.94c0,.33.2.75.72,1.1l-.52.02c-.43-.32-.7-.8-.7-1.23,0-.88.53-1.45,1.58-1.45.98,0,1.64.69,1.64,1.51,0,1.01-.81,1.76-2.45,1.76Z"/>
      <path class="cls-12" d="m126.7,255.83c-.87-.97-1.36-1.48-1.83-1.48-.4,0-.65.23-.65.6,0,.26.2.49.45.67l-.28.31c-.36-.24-.61-.62-.61-1.05,0-.62.35-1.04,1.01-1.04.6,0,1.09.49,1.77,1.16v-1.31h.44v2.14h-.3Z"/>
    </g>
    <g>
      <path class="cls-12" d="m150.02,262.65c-2.05,0-2.84-.93-2.84-1.94,0-.55.23-.94.54-1.23l.41.37c-.25.21-.4.52-.4.84,0,.73.58,1.35,2.29,1.35,1.25,0,1.93-.41,1.93-1.14,0-.5-.45-.89-1.12-.89s-1.08.31-1.08.94c0,.33.2.75.72,1.1l-.52.02c-.43-.32-.7-.8-.7-1.23,0-.88.53-1.45,1.58-1.45.98,0,1.64.69,1.64,1.51,0,1.01-.82,1.76-2.45,1.76Z"/>
      <path class="cls-12" d="m148.96,256.63c-.27,0-.71-.02-.98-.04v.03c.24.13.47.27.72.42l1.74,1.19v-2.92h.52v3.61h-.43l-3.26-2.18v-.73h5.1v.62h-3.42Z"/>
      <path class="cls-12" d="m149.95,254.67c-.87-.97-1.36-1.48-1.83-1.48-.4,0-.65.23-.65.6,0,.26.2.49.45.67l-.28.31c-.36-.24-.61-.62-.61-1.05,0-.62.35-1.04,1.01-1.04.6,0,1.09.49,1.77,1.16v-1.31h.44v2.14h-.3Z"/>
    </g>
    <g>
      <path class="cls-12" d="m151.76,278.66l-.43-.33c.32-.31.6-.71.6-1.3s-.36-1.06-.93-1.06c-.61,0-1.01.42-1.01,1.63h-.5c0-1.08-.42-1.45-.95-1.45-.5,0-.81.34-.81.88,0,.43.21.79.52,1.09l-.42.35c-.37-.39-.64-.86-.64-1.47,0-.89.47-1.53,1.29-1.53.61,0,1.01.37,1.21.93h.03c.15-.62.6-1.11,1.3-1.11.91,0,1.46.75,1.46,1.68,0,.82-.34,1.33-.72,1.68Z"/>
      <path class="cls-12" d="m151.99,274.57c-1.53-1.53-2.45-2.4-3.27-2.4-.58,0-1,.32-1,.97,0,.43.27.79.61,1.08l-.37.38c-.47-.43-.78-.89-.78-1.55,0-.94.59-1.53,1.5-1.53.96,0,1.91.88,3.17,2.08-.02-.28-.04-.59-.04-.86v-1.47h.56v3.29h-.39Z"/>
      <path class="cls-12" d="m149.95,270.5c-.87-.97-1.36-1.48-1.83-1.48-.4,0-.65.23-.65.6,0,.26.2.49.45.67l-.28.31c-.36-.24-.61-.62-.61-1.05,0-.62.35-1.04,1.01-1.04.6,0,1.09.49,1.77,1.16v-1.31h.44v2.14h-.3Z"/>
    </g>
    <g>
      <path class="cls-12" d="m174.78,284.97l-.43-.33c.32-.31.6-.71.6-1.3s-.36-1.06-.93-1.06c-.61,0-1.01.42-1.01,1.63h-.5c0-1.08-.42-1.45-.95-1.45-.5,0-.81.34-.81.88,0,.43.21.79.52,1.09l-.42.35c-.37-.39-.64-.86-.64-1.46,0-.89.47-1.53,1.29-1.53.61,0,1.01.37,1.21.93h.03c.15-.62.6-1.11,1.3-1.11.91,0,1.46.75,1.46,1.68,0,.82-.34,1.33-.72,1.68Z"/>
      <path class="cls-12" d="m172.84,280.85c-1.71,0-2.63-.62-2.63-1.63s.92-1.63,2.63-1.63,2.67.62,2.67,1.63-.96,1.63-2.67,1.63Zm0-2.63c-1.49,0-2.1.4-2.1,1s.6,1,2.1,1,2.13-.4,2.13-1-.64-1-2.13-1Z"/>
      <path class="cls-12" d="m172.98,276.81c-.87-.97-1.36-1.48-1.83-1.48-.4,0-.65.23-.65.6,0,.26.2.49.45.67l-.28.31c-.36-.24-.61-.62-.61-1.05,0-.62.35-1.04,1.01-1.04.6,0,1.09.49,1.77,1.16v-1.31h.44v2.14h-.3Z"/>
    </g>
    <g>
      <path class="cls-12" d="m212.38,284.86c-1.53-1.53-2.45-2.4-3.27-2.4-.58,0-1,.32-1,.97,0,.43.27.79.61,1.08l-.37.38c-.47-.43-.77-.89-.77-1.55,0-.94.59-1.53,1.5-1.53.96,0,1.91.88,3.17,2.08-.02-.28-.04-.59-.04-.86v-1.47h.56v3.29h-.39Z"/>
      <path class="cls-12" d="m211.47,280.88c-.66,0-1.12-.48-1.37-.96h-.03c-.26.38-.64.71-1.18.71-.78,0-1.31-.62-1.31-1.44,0-.89.56-1.44,1.36-1.44.53,0,.99.39,1.23.7h.03c.27-.46.63-.89,1.31-.89.77,0,1.36.66,1.36,1.64s-.59,1.68-1.4,1.68Zm-2.5-2.57c-.5,0-.9.32-.9.89,0,.48.33.83.82.83.61,0,.87-.56,1.11-1.18-.31-.35-.65-.54-1.02-.54Zm2.52-.12c-.66,0-.9.65-1.19,1.38.27.41.64.71,1.11.71.56,0,.97-.47.97-1.09s-.37-1-.89-1Z"/>
      <path class="cls-12" d="m210.35,276.81c-.87-.97-1.36-1.48-1.83-1.48-.4,0-.65.23-.65.6,0,.26.2.49.45.67l-.28.31c-.36-.24-.61-.62-.61-1.05,0-.62.35-1.04,1.01-1.04.6,0,1.09.49,1.77,1.16v-1.31h.44v2.14h-.3Z"/>
    </g>
    <g>
      <path class="cls-12" d="m241.21,263.83l-.43-.32c.3-.3.58-.69.58-1.29s-.45-1.12-1.16-1.12-1.12.43-1.12,1.08c0,.35.11.57.31.88l-.22.35-2.46-.17v-2.55h.57v1.97l1.51.13c-.13-.24-.21-.47-.21-.78,0-.87.5-1.58,1.6-1.58s1.73.83,1.73,1.72c0,.82-.34,1.32-.7,1.68Z"/>
      <path class="cls-12" d="m238.39,257.62c-.27,0-.71-.02-.98-.04v.03c.24.13.47.27.72.42l1.74,1.19v-2.92h.52v3.61h-.43l-3.26-2.18v-.73h5.1v.62h-3.42Z"/>
      <path class="cls-12" d="m239.39,255.66c-.87-.97-1.36-1.48-1.83-1.48-.4,0-.65.23-.65.6,0,.26.2.49.45.67l-.28.31c-.36-.24-.61-.62-.61-1.05,0-.62.35-1.04,1.01-1.04.6,0,1.09.49,1.77,1.16v-1.31h.44v2.14h-.29Z"/>
    </g>
    <g>
      <path class="cls-12" d="m204.72,253.35l-.43-.32c.3-.3.58-.69.58-1.29s-.45-1.12-1.16-1.12-1.12.43-1.12,1.08c0,.35.11.57.31.88l-.22.35-2.46-.17v-2.55h.57v1.97l1.51.13c-.13-.24-.21-.47-.21-.78,0-.87.5-1.58,1.6-1.58s1.73.83,1.73,1.72c0,.82-.34,1.32-.7,1.68Z"/>
      <path class="cls-12" d="m202.97,249.18c-2.05,0-2.84-.93-2.84-1.94,0-.55.23-.94.54-1.23l.41.37c-.25.21-.4.52-.4.84,0,.73.58,1.35,2.29,1.35,1.25,0,1.93-.41,1.93-1.14,0-.5-.45-.89-1.12-.89s-1.08.31-1.08.94c0,.33.2.75.72,1.1l-.52.02c-.43-.32-.7-.8-.7-1.23,0-.88.53-1.45,1.58-1.45.98,0,1.64.69,1.64,1.51,0,1.01-.81,1.76-2.45,1.76Z"/>
      <path class="cls-12" d="m202.9,245.18c-.87-.97-1.36-1.48-1.83-1.48-.4,0-.65.23-.65.6,0,.26.2.49.45.67l-.28.31c-.36-.24-.61-.62-.61-1.05,0-.62.35-1.04,1.01-1.04.6,0,1.09.49,1.77,1.16v-1.31h.44v2.14h-.3Z"/>
    </g>
    <g>
      <path class="cls-12" d="m264.05,263.83l-.43-.32c.3-.3.58-.69.58-1.29s-.45-1.12-1.16-1.12-1.12.43-1.12,1.08c0,.35.11.57.31.88l-.22.35-2.46-.17v-2.55h.57v1.97l1.51.13c-.13-.24-.21-.47-.21-.78,0-.87.5-1.58,1.6-1.58s1.73.83,1.73,1.72c0,.82-.34,1.32-.7,1.68Z"/>
      <path class="cls-12" d="m264.26,259.74c-1.53-1.53-2.45-2.4-3.28-2.4-.58,0-1,.32-1,.97,0,.43.27.79.61,1.08l-.37.38c-.47-.43-.77-.89-.77-1.55,0-.94.59-1.53,1.5-1.53.96,0,1.91.88,3.17,2.08-.02-.28-.04-.59-.04-.86v-1.47h.57v3.29h-.39Z"/>
      <path class="cls-12" d="m262.23,255.66c-.87-.97-1.36-1.48-1.83-1.48-.4,0-.65.23-.65.6,0,.26.2.49.45.67l-.28.31c-.36-.24-.61-.62-.61-1.05,0-.62.35-1.04,1.01-1.04.6,0,1.09.49,1.77,1.16v-1.31h.44v2.14h-.29Z"/>
    </g>
    <g>
      <path class="cls-12" d="m260.08,226.64v-1.17h-3.75v.93h-.42c-.08-.46-.21-.8-.37-1.08v-.5h4.55v-1.05h.55v2.88h-.55Z"/>
      <path class="cls-12" d="m258.06,222.94c-1.71,0-2.63-.62-2.63-1.63s.92-1.63,2.63-1.63,2.67.62,2.67,1.63-.96,1.63-2.67,1.63Zm0-2.63c-1.49,0-2.1.4-2.1,1s.6,1,2.1,1,2.13-.4,2.13-1-.64-1-2.13-1Z"/>
      <path class="cls-12" d="m257.21,216.89c-.27,0-.71-.02-.98-.04v.03c.24.13.47.27.72.42l1.74,1.19v-2.92h.52v3.61h-.43l-3.26-2.18v-.73h5.1v.62h-3.42Z"/>
      <path class="cls-12" d="m258.21,214.93c-.87-.97-1.36-1.48-1.83-1.48-.4,0-.65.23-.65.6,0,.26.2.49.45.67l-.28.31c-.36-.24-.61-.62-.61-1.05,0-.62.35-1.04,1.01-1.04.6,0,1.09.49,1.77,1.16v-1.31h.44v2.14h-.29Z"/>
    </g>
    <g>
      <path class="cls-12" d="m283.35,235.09v-1.17h-3.75v.93h-.42c-.08-.46-.21-.8-.38-1.08v-.5h4.55v-1.05h.55v2.88h-.55Z"/>
      <path class="cls-12" d="m281.33,231.39c-1.71,0-2.63-.62-2.63-1.63s.92-1.63,2.63-1.63,2.67.62,2.67,1.63-.96,1.63-2.67,1.63Zm0-2.63c-1.5,0-2.1.4-2.1,1s.6,1,2.1,1,2.13-.4,2.13-1-.64-1-2.13-1Z"/>
      <path class="cls-12" d="m283.51,227.45c-1.53-1.53-2.45-2.4-3.27-2.4-.58,0-1,.32-1,.97,0,.43.27.79.61,1.08l-.37.38c-.47-.43-.78-.89-.78-1.55,0-.94.59-1.53,1.5-1.53.96,0,1.91.88,3.17,2.08-.02-.28-.04-.59-.04-.86v-1.47h.56v3.29h-.39Z"/>
      <path class="cls-12" d="m281.48,223.37c-.87-.97-1.36-1.48-1.83-1.48-.4,0-.65.23-.65.6,0,.26.2.49.45.67l-.28.31c-.36-.24-.61-.62-.61-1.05,0-.62.35-1.04,1.01-1.04.6,0,1.09.49,1.77,1.16v-1.31h.44v2.14h-.3Z"/>
    </g>
    <g>
      <path class="cls-12" d="m300.7,235.09v-1.17h-3.75v.93h-.42c-.08-.46-.21-.8-.38-1.08v-.5h4.55v-1.05h.55v2.88h-.55Z"/>
      <path class="cls-12" d="m298.67,231.39c-1.71,0-2.63-.62-2.63-1.63s.92-1.63,2.63-1.63,2.67.62,2.67,1.63-.96,1.63-2.67,1.63Zm0-2.63c-1.5,0-2.1.4-2.1,1s.6,1,2.1,1,2.13-.4,2.13-1-.64-1-2.13-1Z"/>
      <path class="cls-12" d="m298.67,227.41c-1.71,0-2.63-.62-2.63-1.63s.92-1.63,2.63-1.63,2.67.62,2.67,1.63-.96,1.63-2.67,1.63Zm0-2.63c-1.5,0-2.1.4-2.1,1s.6,1,2.1,1,2.13-.4,2.13-1-.64-1-2.13-1Z"/>
      <path class="cls-12" d="m298.82,223.37c-.87-.97-1.36-1.48-1.83-1.48-.4,0-.65.23-.65.6,0,.26.2.49.45.67l-.28.31c-.36-.24-.61-.62-.61-1.05,0-.62.35-1.04,1.01-1.04.6,0,1.09.49,1.77,1.16v-1.31h.44v2.14h-.3Z"/>
    </g>
    <g>
      <path class="cls-12" d="m297.54,179.36c-1.53-1.53-2.45-2.4-3.27-2.4-.58,0-1,.32-1,.97,0,.43.27.79.61,1.08l-.37.38c-.47-.43-.78-.89-.78-1.55,0-.94.59-1.53,1.5-1.53.96,0,1.91.88,3.17,2.08-.02-.28-.04-.59-.04-.86v-1.47h.56v3.29h-.39Z"/>
      <path class="cls-12" d="m295.36,175.35c-1.71,0-2.63-.62-2.63-1.63s.92-1.63,2.63-1.63,2.67.62,2.67,1.63-.96,1.63-2.67,1.63Zm0-2.63c-1.5,0-2.1.4-2.1,1s.6,1,2.1,1,2.13-.4,2.13-1-.64-1-2.13-1Z"/>
      <path class="cls-12" d="m295.36,171.37c-1.71,0-2.63-.62-2.63-1.63s.92-1.63,2.63-1.63,2.67.62,2.67,1.63-.96,1.63-2.67,1.63Zm0-2.63c-1.5,0-2.1.4-2.1,1s.6,1,2.1,1,2.13-.4,2.13-1-.64-1-2.13-1Z"/>
      <path class="cls-12" d="m295.5,167.33c-.87-.97-1.36-1.48-1.83-1.48-.4,0-.65.23-.65.6,0,.26.2.49.45.67l-.28.31c-.36-.24-.61-.62-.61-1.05,0-.62.35-1.04,1.01-1.04.6,0,1.09.49,1.77,1.16v-1.31h.44v2.14h-.3Z"/>
    </g>
    <g>
      <path class="cls-12" d="m314.57,179.05v-1.17h-3.75v.93h-.42c-.08-.46-.21-.8-.38-1.08v-.5h4.55v-1.05h.55v2.88h-.55Z"/>
      <path class="cls-12" d="m314.67,175.29l-.41-.37c.25-.21.4-.52.4-.84,0-.74-.58-1.35-2.29-1.35-1.25,0-1.93.41-1.93,1.14,0,.5.45.89,1.12.89s1.08-.31,1.08-.94c0-.33-.2-.75-.72-1.1l.52-.02c.43.32.7.8.7,1.23,0,.88-.53,1.45-1.58,1.45-.98,0-1.64-.69-1.64-1.51,0-1.01.81-1.76,2.45-1.76,2.05,0,2.84.93,2.84,1.94,0,.55-.23.95-.54,1.23Z"/>
      <path class="cls-12" d="m313.81,171.4c-.66,0-1.12-.48-1.37-.96h-.03c-.26.38-.64.71-1.18.71-.78,0-1.31-.62-1.31-1.44,0-.89.56-1.44,1.36-1.44.54,0,.99.39,1.23.7h.03c.27-.46.63-.89,1.31-.89.77,0,1.36.66,1.36,1.64s-.59,1.68-1.4,1.68Zm-2.5-2.57c-.5,0-.9.32-.9.89,0,.48.33.83.82.83.61,0,.87-.56,1.11-1.18-.31-.35-.65-.54-1.02-.54Zm2.52-.12c-.66,0-.9.65-1.19,1.38.27.41.64.71,1.11.71.56,0,.97-.47.97-1.09s-.37-1-.89-1Z"/>
      <path class="cls-12" d="m312.69,167.33c-.87-.97-1.36-1.48-1.83-1.48-.4,0-.65.23-.65.6,0,.26.2.49.45.67l-.28.31c-.36-.24-.61-.62-.61-1.05,0-.62.35-1.04,1.01-1.04.6,0,1.09.49,1.77,1.16v-1.31h.44v2.14h-.3Z"/>
    </g>
    <g>
      <path class="cls-12" d="m326.76,179.05v-1.17h-3.75v.93h-.42c-.08-.46-.21-.8-.37-1.08v-.5h4.55v-1.05h.55v2.88h-.55Z"/>
      <path class="cls-12" d="m326.86,175.29l-.41-.37c.25-.21.4-.52.4-.84,0-.74-.58-1.35-2.29-1.35-1.25,0-1.93.41-1.93,1.14,0,.5.45.89,1.12.89s1.08-.31,1.08-.94c0-.33-.2-.75-.72-1.1l.52-.02c.43.32.7.8.7,1.23,0,.88-.53,1.45-1.58,1.45-.98,0-1.64-.69-1.64-1.51,0-1.01.81-1.76,2.45-1.76,2.05,0,2.84.93,2.84,1.94,0,.55-.23.95-.54,1.23Z"/>
      <path class="cls-12" d="m324.95,171.34c-2.05,0-2.84-.93-2.84-1.94,0-.55.23-.94.54-1.23l.41.37c-.25.21-.4.52-.4.84,0,.73.58,1.35,2.29,1.35,1.25,0,1.93-.41,1.93-1.14,0-.5-.45-.89-1.12-.89s-1.08.31-1.08.94c0,.33.2.75.72,1.1l-.52.02c-.43-.32-.7-.8-.7-1.23,0-.88.53-1.45,1.58-1.45.98,0,1.64.69,1.64,1.51,0,1.01-.81,1.76-2.45,1.76Z"/>
      <path class="cls-12" d="m324.88,167.33c-.87-.97-1.36-1.48-1.83-1.48-.4,0-.65.23-.65.6,0,.26.2.49.45.67l-.28.31c-.36-.24-.61-.62-.61-1.05,0-.62.35-1.04,1.01-1.04.6,0,1.09.49,1.77,1.16v-1.31h.44v2.14h-.29Z"/>
    </g>
    <g>
      <path class="cls-16" d="m370.23,48.03c0-2.31,1.27-3.72,3.09-3.72s3.09,1.41,3.09,3.72-1.27,3.77-3.09,3.77-3.09-1.46-3.09-3.77Zm5.22,0c0-1.8-.85-2.91-2.14-2.91s-2.14,1.11-2.14,2.91.85,2.96,2.14,2.96,2.14-1.16,2.14-2.96Z"/>
      <path class="cls-16" d="m377.79,49.71v-3.39h.9v3.27c0,1,.3,1.42,1.01,1.42.55,0,.92-.27,1.43-.9v-3.79h.9v5.35h-.75l-.08-.84h-.03c-.5.58-1.03.97-1.76.97-1.13,0-1.63-.73-1.63-2.09Z"/>
      <path class="cls-16" d="m384.01,50.01v-2.96h-.8v-.69l.84-.05.11-1.5h.76v1.5h1.45v.74h-1.45v2.97c0,.65.21,1.03.83,1.03.19,0,.44-.07.61-.14l.17.68c-.3.1-.66.2-.99.2-1.14,0-1.52-.72-1.52-1.79Z"/>
      <path class="cls-16" d="m387.57,46.32h.75l.08.62h.03c.48-.4,1.09-.75,1.71-.75,1.38,0,2.12,1.07,2.12,2.73,0,1.82-1.09,2.89-2.32,2.89-.49,0-.99-.23-1.48-.62l.02.93v1.81h-.9v-7.6Zm3.74,2.6c0-1.18-.4-1.97-1.41-1.97-.45,0-.91.25-1.43.73v2.8c.48.41.95.56,1.3.56.88,0,1.54-.8,1.54-2.12Z"/>
      <path class="cls-16" d="m393.6,49.71v-3.39h.9v3.27c0,1,.3,1.42,1.01,1.42.55,0,.92-.27,1.43-.9v-3.79h.9v5.35h-.75l-.08-.84h-.03c-.5.58-1.03.97-1.76.97-1.13,0-1.63-.73-1.63-2.09Z"/>
      <path class="cls-16" d="m399.81,50.01v-2.96h-.8v-.69l.84-.05.11-1.5h.76v1.5h1.45v.74h-1.45v2.97c0,.65.21,1.03.83,1.03.19,0,.44-.07.61-.14l.17.68c-.3.1-.66.2-.99.2-1.14,0-1.52-.72-1.52-1.79Z"/>
      <path class="cls-16" d="m369.97,64.26l.45-.6c.46.37.94.63,1.58.63.7,0,1.05-.37,1.05-.83,0-.55-.63-.79-1.22-1.01-.75-.27-1.59-.64-1.59-1.54,0-.86.69-1.52,1.84-1.52.67,0,1.25.27,1.66.6l-.43.58c-.37-.27-.75-.48-1.22-.48-.67,0-.98.36-.98.77,0,.51.58.7,1.19.93.77.29,1.63.6,1.63,1.62,0,.87-.69,1.59-1.95,1.59-.76,0-1.49-.32-2-.74Z"/>
      <path class="cls-16" d="m374.77,62.2c0-1.74,1.17-2.81,2.4-2.81,1.36,0,2.13.98,2.13,2.51,0,.19-.02.38-.04.51h-3.6c.06,1.13.76,1.87,1.78,1.87.51,0,.93-.17,1.33-.43l.32.59c-.47.31-1.04.55-1.77.55-1.43,0-2.56-1.04-2.56-2.8Zm3.74-.44c0-1.07-.48-1.65-1.32-1.65-.75,0-1.42.6-1.53,1.65h2.85Z"/>
      <path class="cls-16" d="m380.63,59.52h.75l.08.78h.03c.47-.51,1.03-.91,1.66-.91.82,0,1.26.39,1.48,1.02.56-.6,1.11-1.02,1.76-1.02,1.1,0,1.63.73,1.63,2.09v3.39h-.9v-3.27c0-1-.32-1.42-1-1.42-.42,0-.85.27-1.34.82v3.87h-.9v-3.27c0-1-.32-1.42-1-1.42-.4,0-.85.27-1.34.82v3.87h-.9v-5.35Z"/>
      <path class="cls-16" d="m389.34,65.89c0-.46.29-.89.78-1.21v-.04c-.27-.17-.48-.46-.48-.88,0-.44.31-.8.59-.99v-.04c-.35-.28-.69-.8-.69-1.44,0-1.17.92-1.91,2.01-1.91.29,0,.56.06.75.13h1.87v.7h-1.1c.25.24.44.64.44,1.1,0,1.15-.87,1.85-1.96,1.85-.26,0-.55-.06-.8-.18-.19.16-.34.34-.34.63,0,.34.22.58.94.58h1.04c1.24,0,1.87.39,1.87,1.28,0,.99-1.05,1.85-2.7,1.85-1.31,0-2.21-.51-2.21-1.43Zm4.03-.28c0-.49-.38-.66-1.08-.66h-.92c-.2,0-.46-.02-.69-.08-.38.27-.55.59-.55.9,0,.57.58.94,1.55.94,1.02,0,1.69-.53,1.69-1.09Zm-.69-4.32c0-.78-.51-1.25-1.14-1.25s-1.14.46-1.14,1.25.52,1.27,1.14,1.27,1.14-.49,1.14-1.27Z"/>
      <path class="cls-16" d="m394.74,62.2c0-1.74,1.17-2.81,2.4-2.81,1.36,0,2.13.98,2.13,2.51,0,.19-.02.38-.04.51h-3.6c.07,1.13.76,1.87,1.78,1.87.51,0,.93-.17,1.33-.43l.32.59c-.47.31-1.04.55-1.77.55-1.43,0-2.56-1.04-2.56-2.8Zm3.74-.44c0-1.07-.48-1.65-1.32-1.65-.75,0-1.42.6-1.53,1.65h2.85Z"/>
      <path class="cls-16" d="m400.59,59.52h.75l.08.77h.03c.51-.5,1.06-.9,1.79-.9,1.13,0,1.63.73,1.63,2.09v3.39h-.91v-3.27c0-1-.3-1.42-1.01-1.42-.55,0-.93.28-1.46.82v3.87h-.91v-5.35Z"/>
      <path class="cls-16" d="m406.77,63.21v-2.96h-.8v-.69l.84-.05.11-1.5h.76v1.5h1.45v.74h-1.45v2.97c0,.65.21,1.03.83,1.03.19,0,.44-.07.61-.14l.17.68c-.3.1-.66.2-.99.2-1.14,0-1.52-.72-1.52-1.79Z"/>
      <path class="cls-16" d="m409.76,63.48c0-1.17,1-1.75,3.28-2,0-.69-.23-1.35-1.1-1.35-.62,0-1.18.29-1.59.57l-.35-.62c.49-.32,1.24-.7,2.1-.7,1.3,0,1.86.87,1.86,2.2v3.28h-.75l-.08-.64h-.03c-.51.42-1.1.77-1.77.77-.89,0-1.57-.56-1.57-1.52Zm3.28.08v-1.49c-1.79.22-2.4.65-2.4,1.34,0,.61.41.85.94.85s.94-.25,1.46-.71Z"/>
      <path class="cls-16" d="m415.64,63.21v-2.96h-.8v-.69l.84-.05.11-1.5h.76v1.5h1.45v.74h-1.45v2.97c0,.65.21,1.03.83,1.03.19,0,.44-.07.61-.14l.17.68c-.3.1-.66.2-.99.2-1.14,0-1.52-.72-1.52-1.79Z"/>
      <path class="cls-16" d="m419.04,57.83c0-.36.27-.58.62-.58s.62.23.62.58-.27.58-.62.58-.62-.24-.62-.58Zm.17,1.68h.9v5.35h-.9v-5.35Z"/>
      <path class="cls-16" d="m421.51,62.2c0-1.78,1.17-2.81,2.48-2.81s2.48,1.03,2.48,2.81-1.17,2.8-2.48,2.8-2.48-1.03-2.48-2.8Zm4.02,0c0-1.23-.62-2.06-1.54-2.06s-1.54.83-1.54,2.06.62,2.05,1.54,2.05,1.54-.82,1.54-2.05Z"/>
      <path class="cls-16" d="m427.87,59.52h.75l.08.77h.03c.51-.5,1.06-.9,1.79-.9,1.13,0,1.63.73,1.63,2.09v3.39h-.9v-3.27c0-1-.3-1.42-1.01-1.42-.55,0-.92.28-1.46.82v3.87h-.9v-5.35Z"/>
      <path class="cls-16" d="m370.56,72.72h.75l.08.78h.03c.47-.51,1.03-.91,1.66-.91.82,0,1.26.39,1.48,1.02.55-.6,1.11-1.02,1.76-1.02,1.1,0,1.63.73,1.63,2.09v3.39h-.91v-3.27c0-1-.31-1.42-1-1.42-.41,0-.85.27-1.34.82v3.87h-.91v-3.27c0-1-.31-1.42-1-1.42-.4,0-.85.27-1.34.82v3.87h-.91v-5.35Z"/>
      <path class="cls-16" d="m379.35,76.68c0-1.17,1-1.75,3.28-2,0-.69-.23-1.35-1.1-1.35-.62,0-1.18.29-1.59.57l-.35-.62c.49-.32,1.24-.7,2.1-.7,1.3,0,1.86.87,1.86,2.2v3.28h-.75l-.08-.64h-.03c-.51.42-1.1.77-1.77.77-.89,0-1.57-.56-1.57-1.52Zm3.28.08v-1.49c-1.79.22-2.4.65-2.4,1.34,0,.61.41.85.94.85s.94-.25,1.46-.71Z"/>
      <path class="cls-16" d="m385.22,72.72h.75l.08.62h.03c.48-.4,1.08-.75,1.71-.75,1.38,0,2.12,1.07,2.12,2.73,0,1.82-1.09,2.89-2.32,2.89-.49,0-.99-.23-1.48-.62l.02.93v1.81h-.91v-7.6Zm3.74,2.6c0-1.18-.4-1.97-1.41-1.97-.45,0-.91.25-1.43.73v2.8c.48.41.95.56,1.3.56.88,0,1.54-.8,1.54-2.12Z"/>
    </g>
    <g>
      <path class="cls-16" d="m8.27,44.45h.92v7.22h-.92v-7.22Z"/>
      <path class="cls-16" d="m11.08,46.32h.75l.08.77h.03c.51-.5,1.06-.9,1.79-.9,1.13,0,1.63.73,1.63,2.09v3.39h-.9v-3.27c0-1-.3-1.42-1.01-1.42-.55,0-.93.28-1.46.82v3.87h-.9v-5.35Z"/>
      <path class="cls-16" d="m17.1,46.32h.75l.08.62h.03c.48-.4,1.09-.75,1.71-.75,1.38,0,2.12,1.07,2.12,2.73,0,1.82-1.09,2.89-2.32,2.89-.49,0-.99-.23-1.48-.62l.02.93v1.81h-.9v-7.6Zm3.74,2.6c0-1.18-.4-1.97-1.41-1.97-.45,0-.91.25-1.43.73v2.8c.48.41.95.56,1.3.56.88,0,1.54-.8,1.54-2.12Z"/>
      <path class="cls-16" d="m23.13,49.71v-3.39h.9v3.27c0,1,.3,1.42,1.01,1.42.55,0,.93-.27,1.43-.9v-3.79h.9v5.35h-.75l-.08-.84h-.03c-.5.58-1.03.97-1.76.97-1.13,0-1.63-.73-1.63-2.09Z"/>
      <path class="cls-16" d="m29.34,50.01v-2.96h-.8v-.69l.84-.05.11-1.5h.76v1.5h1.45v.74h-1.45v2.97c0,.65.21,1.03.83,1.03.19,0,.44-.07.61-.14l.17.68c-.3.1-.66.2-.99.2-1.14,0-1.52-.72-1.52-1.79Z"/>
      <path class="cls-16" d="m8.02,57.83c0-.36.27-.58.62-.58s.62.23.62.58-.27.58-.62.58-.62-.24-.62-.58Zm.17,1.68h.9v5.35h-.9v-5.35Z"/>
      <path class="cls-16" d="m10.89,59.52h.75l.08.78h.03c.47-.51,1.03-.91,1.66-.91.82,0,1.26.39,1.48,1.02.56-.6,1.11-1.02,1.76-1.02,1.1,0,1.63.73,1.63,2.09v3.39h-.9v-3.27c0-1-.31-1.42-1-1.42-.41,0-.85.27-1.34.82v3.87h-.9v-3.27c0-1-.31-1.42-1-1.42-.4,0-.85.27-1.34.82v3.87h-.9v-5.35Z"/>
      <path class="cls-16" d="m19.68,63.48c0-1.17,1.01-1.75,3.28-2,0-.69-.23-1.35-1.1-1.35-.62,0-1.18.29-1.59.57l-.35-.62c.49-.32,1.24-.7,2.1-.7,1.3,0,1.86.87,1.86,2.2v3.28h-.75l-.08-.64h-.03c-.51.42-1.1.77-1.77.77-.9,0-1.57-.56-1.57-1.52Zm3.28.08v-1.49c-1.79.22-2.4.65-2.4,1.34,0,.61.41.85.94.85s.94-.25,1.46-.71Z"/>
      <path class="cls-16" d="m25.15,65.89c0-.46.29-.89.78-1.21v-.04c-.27-.17-.48-.46-.48-.88,0-.44.31-.8.59-.99v-.04c-.35-.28-.69-.8-.69-1.44,0-1.17.92-1.91,2.01-1.91.29,0,.56.06.75.13h1.87v.7h-1.1c.25.24.44.64.44,1.1,0,1.15-.86,1.85-1.96,1.85-.26,0-.55-.06-.8-.18-.19.16-.34.34-.34.63,0,.34.22.58.94.58h1.04c1.24,0,1.87.39,1.87,1.28,0,.99-1.05,1.85-2.7,1.85-1.31,0-2.21-.51-2.21-1.43Zm4.03-.28c0-.49-.38-.66-1.08-.66h-.92c-.2,0-.46-.02-.69-.08-.38.27-.55.59-.55.9,0,.57.58.94,1.55.94s1.69-.53,1.69-1.09Zm-.69-4.32c0-.78-.51-1.25-1.14-1.25s-1.14.46-1.14,1.25.52,1.27,1.14,1.27,1.14-.49,1.14-1.27Z"/>
      <path class="cls-16" d="m30.55,62.2c0-1.74,1.17-2.81,2.4-2.81,1.36,0,2.13.98,2.13,2.51,0,.19-.02.38-.04.51h-3.6c.06,1.13.76,1.87,1.78,1.87.51,0,.93-.17,1.33-.43l.32.59c-.47.31-1.04.55-1.77.55-1.43,0-2.56-1.04-2.56-2.8Zm3.74-.44c0-1.07-.48-1.65-1.32-1.65-.75,0-1.42.6-1.53,1.65h2.85Z"/>
      <path class="cls-16" d="m8.34,76.41v-2.96h-.8v-.69l.84-.05.11-1.5h.76v1.5h1.45v.74h-1.45v2.97c0,.65.21,1.03.83,1.03.19,0,.44-.07.61-.14l.17.68c-.3.1-.66.2-.99.2-1.14,0-1.52-.72-1.52-1.79Z"/>
      <path class="cls-16" d="m11.74,71.04c0-.36.27-.58.62-.58s.62.23.62.58-.27.58-.62.58-.62-.24-.62-.58Zm.17,1.68h.9v5.35h-.9v-5.35Z"/>
      <path class="cls-16" d="m14.61,76.99v-6.76h.9v6.83c0,.28.12.39.25.39.05,0,.1,0,.2-.02l.12.69c-.13.05-.28.08-.52.08-.68,0-.96-.43-.96-1.21Z"/>
      <path class="cls-16" d="m17.02,75.4c0-1.74,1.17-2.81,2.4-2.81,1.36,0,2.13.98,2.13,2.51,0,.19-.02.38-.04.51h-3.6c.06,1.13.76,1.87,1.78,1.87.51,0,.93-.17,1.33-.43l.32.59c-.47.31-1.04.55-1.77.55-1.43,0-2.56-1.04-2.56-2.8Zm3.74-.44c0-1.07-.48-1.65-1.32-1.65-.75,0-1.42.6-1.53,1.65h2.85Z"/>
    </g>
    <g>
      <path class="cls-10" d="m359.49,276.6c0-1.78,1.21-2.81,2.57-2.81.7,0,1.19.29,1.56.63l-.46.6c-.31-.28-.64-.47-1.06-.47-.97,0-1.68.83-1.68,2.06s.67,2.05,1.65,2.05c.49,0,.92-.24,1.26-.53l.39.61c-.48.43-1.09.68-1.73.68-1.42,0-2.51-1.03-2.51-2.8Z"/>
      <path class="cls-10" d="m364.27,276.6c0-1.78,1.17-2.81,2.48-2.81s2.48,1.03,2.48,2.81-1.17,2.8-2.48,2.8-2.48-1.03-2.48-2.8Zm4.02,0c0-1.23-.62-2.06-1.54-2.06s-1.54.83-1.54,2.06.62,2.05,1.54,2.05,1.54-.82,1.54-2.05Z"/>
      <path class="cls-10" d="m370.63,273.92h.75l.08.77h.03c.51-.5,1.06-.9,1.79-.9,1.13,0,1.63.73,1.63,2.09v3.39h-.9v-3.27c0-1-.3-1.42-1.01-1.42-.55,0-.93.28-1.46.82v3.87h-.91v-5.35Z"/>
      <path class="cls-10" d="m375.88,273.92h.93l1.01,3.04c.16.52.33,1.07.49,1.58h.04c.16-.51.33-1.06.49-1.58l1.01-3.04h.89l-1.89,5.35h-1.05l-1.93-5.35Z"/>
      <path class="cls-10" d="m383.95,278.52h1.61v-5.17h-1.28v-.58c.64-.11,1.1-.28,1.49-.52h.69v6.26h1.45v.75h-3.96v-.75Z"/>
      <path class="cls-10" d="m390.45,276.48l-1.62-2.56h.98l.72,1.17c.16.29.35.6.52.89h.04c.16-.29.32-.6.48-.89l.65-1.17h.94l-1.62,2.65,1.75,2.7h-.98l-.79-1.24c-.19-.32-.38-.65-.58-.96h-.04c-.18.31-.36.63-.54.96l-.73,1.24h-.94l1.75-2.79Z"/>
      <path class="cls-10" d="m394.4,278.52h1.61v-5.17h-1.28v-.58c.64-.11,1.1-.28,1.49-.52h.69v6.26h1.45v.75h-3.96v-.75Z"/>
    </g>
    <g>
      <path class="cls-15" d="m359.81,262.96v-3.39h.91v3.27c0,1,.3,1.42,1.01,1.42.55,0,.93-.27,1.43-.9v-3.79h.91v5.35h-.75l-.08-.84h-.03c-.5.58-1.03.97-1.76.97-1.13,0-1.63-.73-1.63-2.09Z"/>
      <path class="cls-15" d="m365.87,259.57h.75l.08.62h.03c.48-.4,1.08-.75,1.7-.75,1.38,0,2.12,1.07,2.12,2.73,0,1.82-1.09,2.89-2.32,2.89-.49,0-.99-.23-1.48-.62l.02.93v1.81h-.91v-7.6Zm3.74,2.6c0-1.18-.4-1.97-1.41-1.97-.45,0-.91.25-1.43.73v2.8c.48.41.95.56,1.3.56.88,0,1.54-.8,1.54-2.12Z"/>
      <path class="cls-15" d="m371.6,261.81h2.52v.69h-2.52v-.69Z"/>
      <path class="cls-15" d="m375.07,262.25c0-1.78,1.21-2.81,2.57-2.81.7,0,1.19.29,1.56.63l-.46.6c-.31-.28-.64-.47-1.06-.47-.97,0-1.68.83-1.68,2.06s.67,2.05,1.65,2.05c.49,0,.92-.24,1.26-.53l.39.61c-.48.43-1.09.68-1.73.68-1.42,0-2.51-1.03-2.51-2.8Z"/>
      <path class="cls-15" d="m379.85,262.25c0-1.78,1.17-2.81,2.48-2.81s2.48,1.03,2.48,2.81-1.17,2.8-2.48,2.8-2.48-1.03-2.48-2.8Zm4.02,0c0-1.23-.62-2.06-1.54-2.06s-1.54.83-1.54,2.06.62,2.05,1.54,2.05,1.54-.82,1.54-2.05Z"/>
      <path class="cls-15" d="m386.21,259.57h.75l.08.77h.03c.51-.5,1.06-.9,1.79-.9,1.13,0,1.63.73,1.63,2.09v3.39h-.9v-3.27c0-1-.3-1.42-1.01-1.42-.55,0-.93.28-1.46.82v3.87h-.91v-5.35Z"/>
      <path class="cls-15" d="m391.45,259.57h.93l1.01,3.04c.16.52.33,1.07.49,1.58h.04c.16-.51.33-1.06.49-1.58l1.01-3.04h.89l-1.89,5.35h-1.05l-1.93-5.35Z"/>
      <path class="cls-15" d="m399.1,264.38c2.11-2.1,3.3-3.37,3.3-4.51,0-.8-.44-1.37-1.33-1.37-.59,0-1.09.37-1.49.84l-.53-.51c.59-.65,1.22-1.07,2.13-1.07,1.3,0,2.11.82,2.11,2.07,0,1.32-1.21,2.63-2.86,4.37.38-.03.82-.06,1.18-.06h2.03v.78h-4.53v-.54Z"/>
      <path class="cls-15" d="m406.03,262.12l-1.62-2.56h.98l.72,1.17c.16.29.35.6.52.89h.04c.16-.29.32-.6.48-.89l.65-1.17h.94l-1.62,2.65,1.75,2.7h-.98l-.79-1.24c-.19-.32-.38-.65-.58-.96h-.04c-.18.31-.36.63-.54.96l-.73,1.24h-.94l1.75-2.79Z"/>
      <path class="cls-15" d="m409.55,264.38c2.11-2.1,3.3-3.37,3.3-4.51,0-.8-.44-1.37-1.33-1.37-.59,0-1.09.37-1.49.84l-.53-.51c.59-.65,1.22-1.07,2.13-1.07,1.3,0,2.11.82,2.11,2.07,0,1.32-1.21,2.63-2.86,4.37.38-.03.82-.06,1.18-.06h2.03v.78h-4.53v-.54Z"/>
    </g>
    <g>
      <path class="cls-9" d="m359.89,245.21h.75l.08.78h.03c.47-.51,1.03-.91,1.66-.91.82,0,1.26.39,1.48,1.02.55-.6,1.11-1.02,1.76-1.02,1.1,0,1.63.73,1.63,2.09v3.39h-.91v-3.27c0-1-.32-1.42-1-1.42-.42,0-.85.27-1.34.82v3.87h-.91v-3.27c0-1-.32-1.42-1-1.42-.4,0-.85.27-1.34.82v3.87h-.91v-5.35Z"/>
      <path class="cls-9" d="m368.67,249.17c0-1.17,1-1.75,3.28-2,0-.69-.23-1.35-1.1-1.35-.62,0-1.18.29-1.59.57l-.35-.62c.49-.32,1.24-.7,2.1-.7,1.3,0,1.86.87,1.86,2.2v3.28h-.75l-.08-.64h-.03c-.51.42-1.1.77-1.77.77-.89,0-1.57-.56-1.57-1.52Zm3.28.08v-1.49c-1.79.22-2.4.65-2.4,1.34,0,.61.41.85.94.85s.94-.25,1.46-.71Z"/>
      <path class="cls-9" d="m375.55,247.77l-1.62-2.56h.98l.72,1.17c.16.29.35.6.52.89h.04c.16-.29.32-.6.48-.89l.65-1.17h.94l-1.62,2.65,1.75,2.7h-.98l-.79-1.24c-.19-.32-.38-.65-.58-.96h-.04c-.18.31-.36.63-.54.96l-.73,1.24h-.94l1.75-2.79Z"/>
      <path class="cls-9" d="m381.73,245.21h.75l.08.62h.03c.48-.4,1.08-.75,1.7-.75,1.38,0,2.12,1.07,2.12,2.73,0,1.82-1.09,2.89-2.32,2.89-.49,0-.99-.23-1.48-.62l.02.93v1.81h-.91v-7.6Zm3.74,2.6c0-1.18-.4-1.97-1.41-1.97-.45,0-.91.25-1.43.73v2.8c.48.41.95.56,1.3.56.88,0,1.54-.8,1.54-2.12Z"/>
      <path class="cls-9" d="m387.44,247.89c0-1.78,1.17-2.81,2.48-2.81s2.48,1.03,2.48,2.81-1.17,2.8-2.48,2.8-2.48-1.03-2.48-2.8Zm4.02,0c0-1.23-.62-2.06-1.54-2.06s-1.54.83-1.54,2.06.62,2.05,1.54,2.05,1.54-.82,1.54-2.05Z"/>
      <path class="cls-9" d="m393.4,247.89c0-1.78,1.17-2.81,2.48-2.81s2.48,1.03,2.48,2.81-1.17,2.8-2.48,2.8-2.48-1.03-2.48-2.8Zm4.02,0c0-1.23-.62-2.06-1.54-2.06s-1.54.83-1.54,2.06.62,2.05,1.54,2.05,1.54-.82,1.54-2.05Z"/>
      <path class="cls-9" d="m399.72,249.49v-6.76h.91v6.83c0,.28.12.39.25.39.05,0,.1,0,.2-.02l.12.69c-.13.05-.28.08-.52.08-.68,0-.96-.43-.96-1.21Z"/>
      <path class="cls-9" d="m404.26,250.02c2.11-2.1,3.3-3.37,3.3-4.51,0-.8-.44-1.37-1.33-1.37-.59,0-1.09.37-1.49.84l-.53-.51c.59-.65,1.22-1.07,2.13-1.07,1.3,0,2.11.82,2.11,2.07,0,1.32-1.21,2.63-2.86,4.37.38-.03.82-.06,1.18-.06h2.03v.78h-4.53v-.54Z"/>
      <path class="cls-9" d="m411.19,247.77l-1.62-2.56h.98l.72,1.17c.16.29.35.6.52.89h.04c.16-.29.32-.6.48-.89l.65-1.17h.94l-1.62,2.65,1.75,2.7h-.98l-.79-1.24c-.19-.32-.38-.65-.58-.96h-.04c-.18.31-.36.63-.54.96l-.73,1.24h-.94l1.75-2.79Z"/>
      <path class="cls-9" d="m414.71,250.02c2.11-2.1,3.3-3.37,3.3-4.51,0-.8-.44-1.37-1.33-1.37-.59,0-1.09.37-1.49.84l-.53-.51c.59-.65,1.22-1.07,2.13-1.07,1.3,0,2.11.82,2.11,2.07,0,1.32-1.21,2.63-2.86,4.37.38-.03.82-.06,1.18-.06h2.03v.78h-4.53v-.54Z"/>
    </g>
    <g>
      <path class="cls-12" d="m359.49,232.09c0-1.78,1.21-2.81,2.57-2.81.7,0,1.19.29,1.56.63l-.46.6c-.31-.28-.64-.47-1.06-.47-.97,0-1.68.83-1.68,2.06s.67,2.05,1.65,2.05c.49,0,.92-.24,1.26-.53l.39.61c-.48.43-1.09.68-1.73.68-1.42,0-2.51-1.03-2.51-2.8Z"/>
      <path class="cls-12" d="m364.27,232.09c0-1.78,1.17-2.81,2.48-2.81s2.48,1.03,2.48,2.81-1.17,2.8-2.48,2.8-2.48-1.03-2.48-2.8Zm4.02,0c0-1.23-.62-2.06-1.54-2.06s-1.54.83-1.54,2.06.62,2.05,1.54,2.05,1.54-.82,1.54-2.05Z"/>
      <path class="cls-12" d="m370.63,229.41h.75l.08.62h.03c.48-.4,1.08-.75,1.7-.75,1.38,0,2.12,1.07,2.12,2.73,0,1.82-1.09,2.89-2.32,2.89-.49,0-.99-.23-1.48-.62l.02.93v1.81h-.91v-7.6Zm3.74,2.6c0-1.18-.4-1.97-1.41-1.97-.45,0-.91.25-1.43.73v2.8c.48.41.95.56,1.3.56.88,0,1.54-.8,1.54-2.12Z"/>
      <path class="cls-12" d="m376.16,236.95l.18-.72c.11.04.27.08.41.08.6,0,.98-.48,1.21-1.15l.12-.4-2.15-5.36h.93l1.09,2.96c.17.46.35,1.01.52,1.51h.04c.15-.49.3-1.03.45-1.51l.95-2.96h.89l-2.02,5.79c-.38,1.06-.93,1.86-2,1.86-.25,0-.46-.04-.63-.11Z"/>
      <path class="cls-12" d="m383.7,233.37c0-1.17,1-1.75,3.28-2,0-.69-.23-1.35-1.1-1.35-.62,0-1.18.29-1.59.57l-.35-.62c.49-.32,1.24-.7,2.1-.7,1.3,0,1.86.87,1.86,2.2v3.28h-.75l-.08-.64h-.03c-.51.42-1.1.77-1.77.77-.89,0-1.57-.56-1.57-1.52Zm3.28.08v-1.49c-1.79.22-2.4.65-2.4,1.34,0,.61.41.85.94.85s.94-.25,1.46-.71Z"/>
      <path class="cls-12" d="m389.57,229.41h.75l.08.77h.03c.51-.5,1.06-.9,1.79-.9,1.13,0,1.63.73,1.63,2.09v3.39h-.9v-3.27c0-1-.3-1.42-1.01-1.42-.55,0-.93.28-1.46.82v3.87h-.91v-5.35Z"/>
      <path class="cls-12" d="m395.21,232.09c0-1.73,1.09-2.81,2.31-2.81.62,0,1.03.23,1.5.62l-.04-.92v-2.06h.9v7.84h-.75l-.08-.63h-.03c-.42.42-.99.76-1.62.76-1.34,0-2.2-1.02-2.2-2.8Zm3.77,1.31v-2.8c-.46-.41-.87-.56-1.3-.56-.85,0-1.54.82-1.54,2.04,0,1.28.53,2.05,1.47,2.05.5,0,.92-.24,1.37-.73Z"/>
      <path class="cls-12" d="m403.5,232.09c0-1.78,1.21-2.81,2.57-2.81.7,0,1.19.29,1.56.63l-.46.6c-.31-.28-.64-.47-1.06-.47-.97,0-1.68.83-1.68,2.06s.67,2.05,1.65,2.05c.49,0,.92-.24,1.26-.53l.39.61c-.48.43-1.09.68-1.73.68-1.42,0-2.51-1.03-2.51-2.8Z"/>
      <path class="cls-12" d="m408.91,229.41h.75l.08.97h.03c.37-.68.92-1.11,1.52-1.11.24,0,.4.03.57.11l-.17.79c-.18-.06-.3-.09-.52-.09-.45,0-.99.33-1.35,1.23v3.43h-.91v-5.35Z"/>
      <path class="cls-12" d="m412.22,232.09c0-1.78,1.17-2.81,2.48-2.81s2.48,1.03,2.48,2.81-1.17,2.8-2.48,2.8-2.48-1.03-2.48-2.8Zm4.02,0c0-1.23-.62-2.06-1.54-2.06s-1.54.83-1.54,2.06.62,2.05,1.54,2.05,1.54-.82,1.54-2.05Z"/>
      <path class="cls-12" d="m418.58,229.41h.75l.08.62h.03c.48-.4,1.08-.75,1.7-.75,1.38,0,2.12,1.07,2.12,2.73,0,1.82-1.09,2.89-2.32,2.89-.49,0-.99-.23-1.48-.62l.02.93v1.81h-.91v-7.6Zm3.74,2.6c0-1.18-.4-1.97-1.41-1.97-.45,0-.91.25-1.43.73v2.8c.48.41.95.56,1.3.56.88,0,1.54-.8,1.54-2.12Z"/>
    </g>
    <g>
      <path class="cls-14" d="m359.49,219.19c0-1.78,1.21-2.81,2.57-2.81.7,0,1.19.29,1.56.63l-.46.6c-.31-.28-.64-.47-1.06-.47-.97,0-1.68.83-1.68,2.06s.67,2.05,1.65,2.05c.49,0,.92-.24,1.26-.53l.39.61c-.48.43-1.09.68-1.73.68-1.42,0-2.51-1.03-2.51-2.8Z"/>
      <path class="cls-14" d="m364.27,219.19c0-1.78,1.17-2.81,2.48-2.81s2.48,1.03,2.48,2.81-1.17,2.8-2.48,2.8-2.48-1.03-2.48-2.8Zm4.02,0c0-1.23-.62-2.06-1.54-2.06s-1.54.83-1.54,2.06.62,2.05,1.54,2.05,1.54-.82,1.54-2.05Z"/>
      <path class="cls-14" d="m370.63,216.51h.75l.08.77h.03c.51-.5,1.06-.9,1.79-.9,1.13,0,1.63.73,1.63,2.09v3.39h-.9v-3.27c0-1-.3-1.42-1.01-1.42-.55,0-.93.28-1.46.82v3.87h-.91v-5.35Z"/>
      <path class="cls-14" d="m375.88,216.51h.93l1.01,3.04c.16.52.33,1.07.49,1.58h.04c.16-.51.33-1.06.49-1.58l1.01-3.04h.89l-1.89,5.35h-1.05l-1.93-5.35Z"/>
      <path class="cls-14" d="m383.37,221l.45-.59c.42.44.97.83,1.79.83s1.46-.5,1.46-1.29c0-.83-.57-1.39-2.24-1.39v-.69c1.49,0,1.99-.57,1.99-1.31,0-.68-.47-1.11-1.21-1.11-.59,0-1.08.3-1.5.71l-.49-.57c.54-.5,1.19-.87,2.02-.87,1.22,0,2.1.65,2.1,1.78,0,.84-.51,1.39-1.27,1.67v.04c.85.2,1.52.82,1.52,1.78,0,1.25-1.03,2-2.32,2-1.13,0-1.83-.47-2.3-.99Z"/>
      <path class="cls-14" d="m390.45,219.07l-1.62-2.56h.98l.72,1.17c.16.29.35.6.52.89h.04c.16-.29.32-.6.48-.89l.65-1.17h.94l-1.62,2.65,1.75,2.7h-.98l-.79-1.24c-.19-.32-.38-.65-.58-.96h-.04c-.18.31-.36.63-.54.96l-.73,1.24h-.94l1.75-2.79Z"/>
      <path class="cls-14" d="m393.82,221l.45-.59c.42.44.97.83,1.79.83s1.46-.5,1.46-1.29c0-.83-.57-1.39-2.24-1.39v-.69c1.49,0,1.99-.57,1.99-1.31,0-.68-.47-1.11-1.21-1.11-.59,0-1.08.3-1.5.71l-.49-.57c.54-.5,1.19-.87,2.02-.87,1.22,0,2.1.65,2.1,1.78,0,.84-.51,1.39-1.27,1.67v.04c.85.2,1.52.82,1.52,1.78,0,1.25-1.03,2-2.32,2-1.13,0-1.83-.47-2.3-.99Z"/>
      <path class="cls-14" d="m399.52,223.2c.62-.27,1-.76.99-1.36l-.1-.81.44.66c-.12.15-.29.19-.46.19-.35,0-.66-.22-.66-.63s.31-.63.67-.63c.48,0,.77.4.77,1.06,0,.95-.55,1.69-1.44,2.06l-.22-.53Z"/>
      <path class="cls-14" d="m404.93,214.64h2.26c1.47,0,2.53.53,2.53,2.03s-1.06,2.14-2.53,2.14h-1.34v3.05h-.92v-7.22Zm2.13,3.42c1.12,0,1.74-.46,1.74-1.39s-.62-1.29-1.74-1.29h-1.21v2.68h1.21Zm-.05.49l.72-.48,2.2,3.78h-1.04l-1.88-3.3Z"/>
      <path class="cls-14" d="m410.59,219.19c0-1.74,1.17-2.81,2.4-2.81,1.36,0,2.13.98,2.13,2.51,0,.19-.02.38-.04.51h-3.6c.06,1.13.76,1.87,1.78,1.87.51,0,.93-.17,1.33-.43l.32.59c-.47.31-1.04.55-1.77.55-1.43,0-2.56-1.04-2.56-2.8Zm3.74-.44c0-1.07-.48-1.65-1.32-1.65-.75,0-1.42.6-1.53,1.65h2.85Z"/>
      <path class="cls-14" d="m416.53,214.64h.92v6.44h3.15v.78h-4.07v-7.22Z"/>
      <path class="cls-14" d="m421.53,218.88v-4.24h.92v4.26c0,1.74.73,2.28,1.68,2.28s1.71-.55,1.71-2.28v-4.26h.88v4.24c0,2.32-1.12,3.11-2.59,3.11s-2.59-.8-2.59-3.11Z"/>
    </g>
  </g>
</svg>