<?xml version="1.0" encoding="UTF-8"?>
<svg id="Layer_1" data-name="Layer 1" xmlns="http://www.w3.org/2000/svg" viewBox="0 0 426.16 114.2">
  <defs>
    <style>
      .cls-1 {
        fill: #e8a97b;
      }

      .cls-1, .cls-2, .cls-3, .cls-4 {
        stroke: #231f20;
        stroke-miterlimit: 10;
      }

      .cls-2 {
        fill: #b65d4f;
      }

      .cls-3 {
        fill: none;
        stroke-width: 2px;
      }

      .cls-4 {
        fill: #8ccea9;
      }

      .cls-5 {
        fill: #231f20;
      }

      .cls-6 {
        fill: #010101;
      }
    </style>
  </defs>
  <rect class="cls-4" x=".5" y=".82" width="28.07" height="112.56"/>
  <rect class="cls-1" x="397.58" y=".82" width="28.07" height="112.56"/>
  <rect class="cls-2" x="196.3" y="40.59" width="33.65" height="33.65"/>
  <g>
    <line class="cls-3" x1="28.57" y1="57.41" x2="58.66" y2="57.41"/>
    <polygon class="cls-5" points="57.41 61.7 64.83 57.41 57.41 53.12 57.41 61.7"/>
  </g>
  <g>
    <line class="cls-3" x1="141.3" y1="57.41" x2="190.12" y2="57.41"/>
    <polygon class="cls-5" points="188.87 61.7 196.3 57.41 188.87 53.12 188.87 61.7"/>
  </g>
  <g>
    <line class="cls-3" x1="229.94" y1="57.41" x2="278.7" y2="57.41"/>
    <polygon class="cls-5" points="277.45 61.7 284.87 57.41 277.45 53.12 277.45 61.7"/>
  </g>
  <g>
    <line class="cls-3" x1="361.34" y1="57.41" x2="391.41" y2="57.41"/>
    <polygon class="cls-5" points="390.16 61.7 397.58 57.41 390.16 53.12 390.16 61.7"/>
  </g>
  <polygon class="cls-4" points="64.83 .82 141.3 40.59 141.3 74.23 64.83 113.38 64.83 .82"/>
  <polygon class="cls-1" points="361.34 .82 284.87 40.59 284.87 74.23 361.34 113.38 361.34 .82"/>
  <g>
    <g>
      <path class="cls-6" d="m403.99,51.61h5.33v.3c-.32.05-.57.14-.75.29s-.27.34-.27.58c0,.16.04.34.13.54s.26.52.54.96l.34.56.83,1.36,1.64-2.08c.31-.38.52-.67.62-.86.11-.19.16-.38.16-.56,0-.45-.26-.71-.78-.79v-.3h3.61v.3c-.56.12-1.07.35-1.54.71-.47.35-.99.89-1.55,1.59l-1.87,2.37,2.76,4.31c.43.66.82,1.16,1.19,1.47.22.18.42.31.59.39.18.08.41.14.69.18v.29h-5.5v-.29c.33-.05.56-.11.7-.18.27-.15.41-.35.41-.63s-.17-.66-.5-1.17l-.3-.46-1.4-2.19-1.8,2.22c-.32.39-.53.68-.64.88-.11.2-.16.38-.16.57,0,.5.38.82,1.13.97v.29h-3.84v-.29c.25-.05.47-.1.63-.18.17-.07.36-.19.58-.35.37-.29.85-.8,1.42-1.51l2.43-3.01-2.56-3.86c-.51-.76-.91-1.28-1.18-1.53-.28-.26-.64-.45-1.1-.58v-.3Z"/>
      <path class="cls-6" d="m418.02,51.21h-.3l-.68-4.25c-.06-.39-.1-.74-.1-1.05,0-.45.08-.82.25-1.13.17-.31.38-.46.63-.46.29,0,.52.15.7.44.18.29.27.67.27,1.13,0,.28-.03.64-.1,1.07l-.67,4.25Z"/>
    </g>
    <path class="cls-6" d="m8.84,51.61h5.33v.3c-.32.05-.57.14-.75.29s-.27.34-.27.58c0,.16.04.34.13.54s.26.52.54.96l.34.56.83,1.36,1.64-2.08c.31-.38.52-.67.62-.86.1-.19.16-.38.16-.56,0-.45-.26-.71-.78-.79v-.3h3.61v.3c-.56.12-1.07.35-1.54.71-.47.35-.99.89-1.55,1.59l-1.87,2.37,2.76,4.31c.43.66.82,1.16,1.19,1.47.22.18.42.31.59.39.18.08.41.14.69.18v.29h-5.5v-.29c.33-.05.56-.11.7-.18.27-.15.41-.35.41-.63s-.17-.66-.5-1.17l-.3-.46-1.4-2.19-1.8,2.22c-.32.39-.53.68-.64.88-.11.2-.16.38-.16.57,0,.5.38.82,1.13.97v.29h-3.84v-.29c.25-.05.47-.1.64-.18.17-.07.36-.19.58-.35.37-.29.85-.8,1.42-1.51l2.43-3.01-2.56-3.86c-.51-.76-.9-1.28-1.18-1.53-.28-.26-.65-.45-1.1-.58v-.3Z"/>
    <path class="cls-6" d="m208.64,51.6h9.8v.31l-8.19,11.77h1.98c1.13,0,2.05-.05,2.77-.16.72-.11,1.29-.27,1.7-.5.79-.44,1.37-1.23,1.75-2.36l.29.04-.31,3.38h-10.96v-.29l8.19-11.79h-3.21c-.78,0-1.39.07-1.81.22-.43.15-.8.41-1.14.78-.31.36-.61.93-.9,1.72l-.28-.03.31-3.08Z"/>
    <g>
      <path class="cls-6" d="m84.99,50.99h-3.66v3.41h4.09v1.02h-5.32v-9.44h5.1v1.02h-3.88v2.99h3.66v1.01Z"/>
      <path class="cls-6" d="m86.96,50.47c0-.71-.02-1.27-.06-1.83h1.09l.07,1.11h.03c.33-.64,1.12-1.27,2.24-1.27.93,0,2.39.56,2.39,2.89v4.04h-1.23v-3.91c0-1.1-.41-2.01-1.57-2.01-.81,0-1.44.57-1.66,1.26-.05.15-.08.37-.08.57v4.08h-1.23v-4.94Z"/>
      <path class="cls-6" d="m99.56,55.17c-.32.16-1.03.39-1.94.39-2.04,0-3.38-1.39-3.38-3.46s1.42-3.61,3.64-3.61c.73,0,1.38.18,1.71.36l-.27.95c-.3-.16-.76-.33-1.44-.33-1.55,0-2.39,1.16-2.39,2.57,0,1.57,1.01,2.54,2.36,2.54.69,0,1.16-.18,1.51-.33l.21.92Z"/>
      <path class="cls-6" d="m107.05,51.97c0,2.51-1.74,3.61-3.37,3.61-1.84,0-3.26-1.34-3.26-3.49,0-2.27,1.49-3.59,3.36-3.59s3.26,1.41,3.26,3.48Zm-5.37.08c0,1.49.85,2.6,2.05,2.6s2.06-1.1,2.06-2.64c0-1.15-.58-2.6-2.04-2.6s-2.08,1.35-2.08,2.63Z"/>
      <path class="cls-6" d="m114.47,45.47v8.2c0,.6.02,1.28.06,1.75h-1.1l-.06-1.17h-.03c-.38.76-1.19,1.33-2.3,1.33-1.64,0-2.91-1.39-2.91-3.44-.01-2.26,1.39-3.64,3.04-3.64,1.04,0,1.74.49,2.04,1.03h.03v-4.04h1.23Zm-1.23,5.93c0-.16-.01-.36-.05-.53-.19-.78-.86-1.42-1.78-1.42-1.28,0-2.04,1.12-2.04,2.61,0,1.38.68,2.52,2.01,2.52.82,0,1.57-.56,1.8-1.48.04-.16.06-.34.06-.53v-1.17Z"/>
      <path class="cls-6" d="m117.2,52.25c.02,1.67,1.08,2.35,2.32,2.35.88,0,1.42-.16,1.88-.35l.22.88c-.43.2-1.18.43-2.26.43-2.08,0-3.33-1.39-3.33-3.42s1.21-3.66,3.19-3.66c2.21,0,2.79,1.94,2.79,3.19,0,.26-.02.44-.04.58h-4.75Zm3.61-.89c.01-.78-.32-1.99-1.7-1.99-1.26,0-1.79,1.14-1.89,1.99h3.59Z"/>
      <path class="cls-6" d="m123.53,50.75c0-.8-.02-1.48-.06-2.11h1.08l.05,1.33h.04c.32-.91,1.06-1.48,1.89-1.48.13,0,.23,0,.34.03v1.16c-.13-.03-.25-.04-.42-.04-.87,0-1.48.65-1.65,1.58-.03.17-.05.38-.05.58v3.62h-1.23v-4.66Z"/>
    </g>
    <g>
      <path class="cls-6" d="m84.91,65.97v9.82c0,.42.02.73.07.92.05.19.15.36.29.5.17.17.49.29.96.37v.19h-4.11v-.19c.37-.05.64-.12.8-.2.16-.09.29-.24.39-.45.07-.14.12-.36.15-.65.03-.29.05-.7.05-1.24v-1.8c-.26.32-.51.56-.75.71-.47.3-1.03.45-1.7.45-.94,0-1.76-.3-2.45-.89-.86-.74-1.29-1.78-1.29-3.12s.37-2.28,1.1-3.04c.73-.76,1.71-1.14,2.95-1.14.51,0,.95.08,1.32.24l.48.21c.12.05.23.07.33.07.32,0,.6-.25.84-.76h.57Zm-1.4,4.45c0-.67-.04-1.28-.11-1.83-.07-.55-.17-.96-.29-1.21-.15-.31-.36-.55-.64-.72-.28-.17-.6-.26-.96-.26-.71,0-1.31.32-1.77.96-.25.35-.45.77-.59,1.27-.14.5-.21,1.03-.21,1.58s.08,1.13.24,1.66c.16.52.39.97.68,1.34.23.3.49.53.77.69.28.16.57.24.86.24.36,0,.69-.11.99-.33.3-.22.53-.51.69-.87.22-.51.33-1.35.33-2.52Z"/>
      <path class="cls-6" d="m89.83,68.71c.78.09,1.37.39,1.78.92s.61,1.16.61,1.89c0,.34-.05.66-.15.98s-.23.59-.38.83-.33.43-.53.59-.41.27-.64.35c-.16.05-.39.1-.69.13v2.43h-.66v-2.43c-.59-.06-1.07-.24-1.43-.56-.64-.54-.96-1.3-.96-2.27,0-.38.05-.73.15-1.03s.23-.57.4-.8.35-.42.54-.57.41-.26.63-.33c.16-.05.38-.1.67-.13v-2.81h.66v2.81Zm-.66.36c-.26.06-.46.15-.59.26-.22.18-.4.43-.54.75s-.2.77-.2,1.33c0,.62.08,1.12.24,1.51s.35.69.59.89c.11.1.28.18.5.25v-4.99Zm.66,4.99c.24-.05.42-.13.56-.23.24-.19.43-.45.56-.78s.2-.79.2-1.39c0-.54-.06-1-.18-1.38s-.29-.67-.5-.87c-.14-.13-.35-.24-.63-.33v4.99Z"/>
      <path class="cls-6" d="m97.95,76.51h-.29c-.92-.99-1.65-1.97-2.18-2.95-.41-.77-.74-1.57-.96-2.41-.23-.84-.34-1.63-.34-2.37s.12-1.55.35-2.42c.23-.87.55-1.68.96-2.43.27-.5.57-.98.9-1.42.33-.45.76-.96,1.28-1.53h.29l-.16.29c-.46.86-.81,1.6-1.05,2.23-.24.62-.43,1.28-.57,1.97-.1.5-.18,1.06-.25,1.68-.07.63-.1,1.16-.1,1.59,0,.52.04,1.14.13,1.86.13,1.09.32,2.03.58,2.81.26.78.68,1.71,1.26,2.81l.16.29Z"/>
      <path class="cls-6" d="m99.18,66.35h6.2v.19l-5.18,7.44h1.25c.71,0,1.3-.03,1.75-.1.46-.07.82-.17,1.08-.32.5-.28.87-.78,1.1-1.49l.19.03-.19,2.13h-6.93v-.19l5.18-7.45h-2.03c-.5,0-.88.05-1.15.14-.27.09-.51.26-.72.49-.2.23-.39.59-.57,1.09l-.18-.02.19-1.95Z"/>
      <path class="cls-6" d="m110.05,60.09h1.06v18.78h-1.06v-18.78Z"/>
      <path class="cls-6" d="m115.69,66.35h3.62v.2c-.22.03-.38.1-.51.2-.12.1-.18.23-.18.39,0,.11.03.23.09.37.06.13.18.35.36.65l.23.38.56.92,1.11-1.42c.21-.26.35-.45.42-.58.07-.13.11-.26.11-.38,0-.3-.18-.48-.53-.54v-.2h2.45v.2c-.38.08-.73.24-1.04.48-.32.24-.67.6-1.05,1.08l-1.27,1.61,1.87,2.93c.29.45.56.78.81,1,.15.12.28.21.4.26.12.05.28.09.47.12v.19h-3.73v-.19c.22-.04.38-.08.47-.12.19-.1.28-.24.28-.43s-.11-.45-.34-.8l-.2-.31-.95-1.49-1.22,1.51c-.22.27-.36.46-.44.6-.07.13-.11.26-.11.38,0,.34.26.56.77.66v.19h-2.61v-.19c.17-.03.32-.07.43-.12.11-.05.25-.13.39-.24.25-.2.58-.54.96-1.03l1.65-2.04-1.73-2.62c-.35-.52-.61-.87-.8-1.04-.19-.18-.44-.31-.75-.39v-.2Z"/>
      <path class="cls-6" d="m124.04,60.99h.29c.92.99,1.65,1.97,2.18,2.95.41.77.74,1.57.96,2.41.23.84.34,1.63.34,2.37s-.12,1.55-.35,2.42c-.24.87-.55,1.68-.96,2.43-.27.5-.57.98-.9,1.42-.33.45-.76.96-1.28,1.53h-.29l.16-.29c.46-.86.81-1.6,1.05-2.23s.43-1.28.57-1.97c.1-.49.19-1.06.25-1.68.06-.63.1-1.16.1-1.6,0-.51-.04-1.13-.13-1.86-.13-1.09-.32-2.03-.58-2.81-.26-.78-.68-1.71-1.26-2.81l-.16-.29Z"/>
    </g>
    <g>
      <path class="cls-6" d="m299.28,46.11c.75-.12,1.63-.2,2.59-.2,1.75,0,3,.41,3.82,1.19.84.76,1.34,1.86,1.34,3.38s-.48,2.8-1.36,3.67c-.89.88-2.35,1.36-4.18,1.36-.87,0-1.6-.03-2.22-.1v-9.29Zm1.22,8.35c.31.05.76.06,1.23.06,2.61,0,4.02-1.45,4.02-4,.01-2.23-1.25-3.64-3.82-3.64-.63,0-1.1.06-1.43.12v7.46Z"/>
      <path class="cls-6" d="m309.31,52.25c.02,1.67,1.08,2.35,2.32,2.35.88,0,1.42-.16,1.88-.35l.22.88c-.43.2-1.18.43-2.26.43-2.08,0-3.33-1.39-3.33-3.42s1.21-3.66,3.19-3.66c2.21,0,2.79,1.94,2.79,3.19,0,.26-.02.44-.04.58h-4.75Zm3.61-.89c.01-.78-.32-1.99-1.7-1.99-1.26,0-1.79,1.14-1.89,1.99h3.59Z"/>
      <path class="cls-6" d="m320.47,55.17c-.32.16-1.03.39-1.94.39-2.04,0-3.38-1.39-3.38-3.46s1.42-3.61,3.64-3.61c.73,0,1.38.18,1.71.36l-.27.95c-.3-.16-.76-.33-1.44-.33-1.54,0-2.39,1.16-2.39,2.57,0,1.57,1.01,2.54,2.36,2.54.69,0,1.16-.18,1.51-.33l.21.92Z"/>
      <path class="cls-6" d="m327.96,51.97c0,2.51-1.74,3.61-3.37,3.61-1.84,0-3.26-1.34-3.26-3.49,0-2.27,1.49-3.59,3.36-3.59s3.26,1.41,3.26,3.48Zm-5.37.08c0,1.49.85,2.6,2.05,2.6s2.06-1.1,2.06-2.64c0-1.15-.58-2.6-2.04-2.6s-2.08,1.35-2.08,2.63Z"/>
      <path class="cls-6" d="m335.37,45.47v8.2c0,.6.02,1.28.06,1.75h-1.09l-.06-1.17h-.03c-.38.76-1.19,1.33-2.3,1.33-1.64,0-2.91-1.39-2.91-3.44-.01-2.26,1.39-3.64,3.04-3.64,1.04,0,1.74.49,2.04,1.03h.03v-4.04h1.22Zm-1.22,5.93c0-.16-.01-.36-.05-.53-.19-.78-.86-1.42-1.78-1.42-1.28,0-2.04,1.12-2.04,2.61,0,1.38.68,2.52,2.01,2.52.83,0,1.57-.56,1.8-1.48.04-.16.06-.34.06-.53v-1.17Z"/>
      <path class="cls-6" d="m338.11,52.25c.02,1.67,1.08,2.35,2.32,2.35.88,0,1.42-.16,1.88-.35l.22.88c-.43.2-1.18.43-2.26.43-2.08,0-3.33-1.39-3.33-3.42s1.21-3.66,3.19-3.66c2.21,0,2.79,1.94,2.79,3.19,0,.26-.01.44-.04.58h-4.75Zm3.61-.89c.01-.78-.32-1.99-1.7-1.99-1.26,0-1.79,1.14-1.89,1.99h3.59Z"/>
      <path class="cls-6" d="m344.43,50.75c0-.8-.02-1.48-.06-2.11h1.08l.05,1.33h.04c.32-.91,1.06-1.48,1.89-1.48.13,0,.23,0,.34.03v1.16c-.13-.03-.25-.04-.42-.04-.87,0-1.48.65-1.65,1.58-.03.17-.05.38-.05.58v3.62h-1.23v-4.66Z"/>
    </g>
    <g>
      <path class="cls-6" d="m299.98,73.45v1.7s0,.64,0,.64c0,.42.02.73.07.92.05.19.14.36.29.5.17.17.49.29.96.37v.19h-4.1v-.19c.37-.05.64-.12.8-.2.16-.09.29-.24.39-.45.07-.14.12-.36.14-.65.03-.29.04-.7.04-1.24v-6.4c0-.7-.11-1.2-.33-1.49-.22-.3-.59-.44-1.11-.44v-.23l2.71-.38c.07.3.1.57.1.82v.18c.46-.31.89-.53,1.29-.66.4-.13.84-.2,1.31-.2.94,0,1.74.28,2.41.84.42.36.74.81.97,1.35s.34,1.13.34,1.78-.12,1.3-.37,1.88c-.24.58-.59,1.06-1.04,1.44-.7.6-1.54.9-2.51.9-.46,0-.86-.07-1.2-.2-.34-.14-.73-.38-1.17-.74Zm0-3.08c0,.85.04,1.5.11,1.93.07.43.21.78.4,1.05.17.24.4.42.68.57.28.14.57.21.85.21.65,0,1.22-.31,1.71-.93.3-.37.52-.81.68-1.32.16-.51.24-1.04.24-1.59s-.08-1.05-.23-1.56c-.15-.51-.36-.95-.63-1.31-.46-.63-1.03-.95-1.69-.95-.33,0-.63.08-.92.24-.29.16-.52.38-.69.66-.19.3-.32.67-.4,1.11-.07.44-.11,1.07-.11,1.89Z"/>
      <path class="cls-6" d="m307.32,70.71c0-1.41.29-2.5.86-3.26.43-.57.95-.86,1.56-.86s1.09.28,1.5.83c.58.77.87,1.82.87,3.14s-.29,2.26-.85,2.99c-.44.57-.97.85-1.57.85-.33,0-.62-.08-.89-.24s-.51-.38-.71-.68c-.21-.3-.37-.61-.48-.95-.19-.57-.28-1.18-.28-1.82Zm3.75-.38c0-.93-.09-1.68-.27-2.25-.14-.43-.32-.74-.54-.93-.17-.14-.35-.2-.57-.2-.24,0-.47.09-.67.28s-.36.51-.46.95c-.11.44-.18,1.16-.21,2.15h2.73Zm-2.73.35c.01.64.06,1.21.15,1.72.06.39.17.72.32,1.01.09.17.22.32.39.44.17.12.36.18.55.18.23,0,.45-.11.65-.32.21-.21.36-.56.47-1.04s.17-1.14.19-1.99h-2.72Z"/>
      <path class="cls-6" d="m317.9,76.51h-.29c-.92-.99-1.65-1.97-2.18-2.95-.42-.77-.74-1.57-.96-2.41-.23-.84-.34-1.63-.34-2.37s.12-1.55.35-2.42c.24-.87.55-1.68.96-2.43.27-.5.57-.98.9-1.42.33-.45.76-.96,1.28-1.53h.29l-.16.29c-.46.86-.81,1.6-1.05,2.23-.24.62-.43,1.28-.57,1.97-.1.5-.18,1.06-.25,1.68-.07.63-.1,1.16-.1,1.59,0,.52.04,1.14.13,1.86.13,1.09.32,2.03.58,2.81.25.78.68,1.71,1.26,2.81l.16.29Z"/>
      <path class="cls-6" d="m318.52,66.35h3.62v.2c-.22.03-.38.1-.51.2-.12.1-.18.23-.18.39,0,.11.03.23.09.37.06.13.18.35.36.65l.23.38.56.92,1.11-1.42c.21-.26.35-.45.42-.58.07-.13.11-.26.11-.38,0-.3-.18-.48-.53-.54v-.2h2.45v.2c-.38.08-.72.24-1.04.48-.32.24-.67.6-1.05,1.08l-1.27,1.61,1.87,2.93c.29.45.56.78.81,1,.15.12.28.21.4.26.12.05.28.09.47.12v.19h-3.73v-.19c.22-.04.38-.08.47-.12.19-.1.28-.24.28-.43s-.11-.45-.34-.8l-.2-.31-.95-1.49-1.22,1.51c-.22.27-.36.46-.44.6-.07.13-.11.26-.11.38,0,.34.26.56.77.66v.19h-2.61v-.19c.17-.03.32-.07.43-.12.12-.05.25-.13.39-.24.25-.2.58-.54.96-1.03l1.65-2.04-1.73-2.62c-.35-.52-.61-.87-.8-1.04s-.44-.31-.75-.39v-.2Z"/>
      <path class="cls-6" d="m330.85,60.09h1.06v18.78h-1.06v-18.78Z"/>
      <path class="cls-6" d="m337.1,66.35h6.2v.19l-5.18,7.44h1.25c.71,0,1.3-.03,1.75-.1.46-.07.82-.17,1.08-.32.5-.28.87-.78,1.1-1.49l.19.03-.19,2.13h-6.93v-.19l5.18-7.45h-2.03c-.5,0-.88.05-1.15.14-.27.09-.51.26-.72.49-.2.23-.39.59-.57,1.09l-.18-.02.2-1.95Z"/>
      <path class="cls-6" d="m344,60.99h.29c.92.99,1.65,1.97,2.18,2.95.41.77.74,1.57.96,2.41.23.84.34,1.63.34,2.37s-.12,1.55-.35,2.42c-.24.87-.55,1.68-.96,2.43-.27.5-.57.98-.9,1.42-.33.45-.76.96-1.28,1.53h-.29l.16-.29c.46-.86.81-1.6,1.05-2.23s.43-1.28.57-1.97c.11-.49.19-1.06.25-1.68.07-.63.1-1.16.1-1.6,0-.51-.04-1.13-.13-1.86-.13-1.09-.32-2.03-.58-2.81-.26-.78-.68-1.71-1.26-2.81l-.16-.29Z"/>
    </g>
  </g>
</svg>