<?xml version="1.0" encoding="UTF-8"?>
<svg id="Layer_1" data-name="Layer 1" xmlns="http://www.w3.org/2000/svg" viewBox="0 0 444.57 177.01">
  <defs>
    <style>
      .cls-1 {
        fill: #f4d9c2;
        stroke: #e8a97b;
      }

      .cls-1, .cls-2, .cls-3, .cls-4, .cls-5, .cls-6, .cls-7 {
        stroke-miterlimit: 10;
      }

      .cls-2 {
        fill: #e8a97b;
      }

      .cls-2, .cls-3, .cls-4, .cls-6, .cls-7 {
        stroke: #231f20;
      }

      .cls-3 {
        fill: #b65d4f;
      }

      .cls-4 {
        fill: #d37bb2;
      }

      .cls-5 {
        fill: #cfe9d9;
        stroke: #8ccea9;
      }

      .cls-6 {
        fill: none;
        stroke-width: 2px;
      }

      .cls-7 {
        fill: #8ccea9;
      }

      .cls-8 {
        fill: #231f20;
      }

      .cls-9 {
        fill: #010101;
      }
    </style>
  </defs>
  <rect class="cls-5" x="5.96" y=".5" width="305.46" height="170.27"/>
  <rect class="cls-1" x="135.42" y="8.79" width="308.65" height="167.72"/>
  <line class="cls-6" x1="40.3" y1="85.52" x2="416.27" y2="85.52"/>
  <rect class="cls-7" x="12.23" y="29.7" width="28.07" height="112.56"/>
  <rect class="cls-2" x="276.83" y="29.7" width="28.07" height="112.56"/>
  <rect class="cls-3" x="141.14" y="69.47" width="33.65" height="33.65"/>
  <polygon class="cls-7" points="52.18 29.7 128.65 69.47 128.65 103.11 52.18 142.26 52.18 29.7"/>
  <polygon class="cls-2" points="263.04 29.7 186.57 69.47 186.57 103.11 263.04 142.26 263.04 29.7"/>
  <polygon class="cls-7" points="316.08 30.01 392.54 69.77 392.54 103.42 316.08 142.57 316.08 30.01"/>
  <circle class="cls-4" cx="421.29" cy="85.83" r="16.06"/>
  <g>
    <polyline class="cls-6" points="26.27 142.57 26.27 163.75 335.87 163.75 335.87 143.16"/>
    <polygon class="cls-8" points="341.06 144.68 335.87 135.69 330.69 144.68 341.06 144.68"/>
  </g>
  <g>
    <g>
      <path class="cls-9" d="m283.23,80.49h5.33v.3c-.32.05-.57.14-.75.29s-.27.34-.27.58c0,.16.04.34.13.54s.26.52.54.96l.34.56.83,1.36,1.64-2.08c.31-.38.52-.67.62-.86.1-.19.16-.38.16-.56,0-.45-.26-.71-.78-.79v-.3h3.61v.3c-.56.12-1.07.35-1.54.71s-.99.89-1.55,1.59l-1.87,2.37,2.76,4.31c.43.66.83,1.16,1.19,1.47.22.18.42.31.59.39.18.08.41.14.69.18v.29h-5.5v-.29c.33-.05.56-.11.7-.18.27-.15.41-.35.41-.63s-.17-.66-.5-1.17l-.3-.46-1.4-2.19-1.8,2.22c-.32.39-.53.68-.64.88-.11.2-.16.38-.16.57,0,.5.38.82,1.13.97v.29h-3.84v-.29c.25-.05.47-.1.64-.18.17-.07.36-.19.58-.35.37-.29.85-.8,1.42-1.51l2.43-3.01-2.56-3.86c-.51-.76-.9-1.28-1.18-1.53-.28-.26-.64-.45-1.1-.58v-.3Z"/>
      <path class="cls-9" d="m297.26,80.09h-.3l-.67-4.25c-.06-.39-.1-.74-.1-1.05,0-.45.08-.82.25-1.13.17-.31.38-.46.63-.46.28,0,.52.15.7.44.18.29.27.67.27,1.13,0,.28-.03.64-.1,1.07l-.68,4.25Z"/>
    </g>
    <path class="cls-9" d="m20.57,80.49h5.33v.3c-.32.05-.57.14-.75.29s-.27.34-.27.58c0,.16.04.34.13.54s.26.52.54.96l.34.56.83,1.36,1.64-2.08c.31-.38.52-.67.62-.86.1-.19.16-.38.16-.56,0-.45-.26-.71-.78-.79v-.3h3.61v.3c-.56.12-1.07.35-1.54.71-.47.35-.99.89-1.55,1.59l-1.87,2.37,2.76,4.31c.43.66.82,1.16,1.19,1.47.22.18.42.31.59.39.18.08.41.14.69.18v.29h-5.5v-.29c.33-.05.56-.11.7-.18.27-.15.41-.35.41-.63s-.17-.66-.5-1.17l-.3-.46-1.4-2.19-1.8,2.22c-.32.39-.53.68-.64.88-.11.2-.16.38-.16.57,0,.5.38.82,1.13.97v.29h-3.84v-.29c.25-.05.47-.1.64-.18.17-.07.36-.19.58-.35.37-.29.85-.8,1.42-1.51l2.43-3.01-2.56-3.86c-.51-.76-.9-1.28-1.18-1.53-.28-.26-.65-.45-1.1-.58v-.3Z"/>
    <path class="cls-9" d="m153.49,80.48h9.8v.31l-8.19,11.77h1.98c1.13,0,2.05-.05,2.77-.16.72-.11,1.29-.27,1.7-.5.79-.44,1.37-1.23,1.75-2.36l.29.04-.31,3.38h-10.96v-.29l8.19-11.79h-3.21c-.78,0-1.39.07-1.81.22-.43.15-.8.41-1.14.78-.31.36-.61.93-.9,1.72l-.28-.03.31-3.08Z"/>
    <g>
      <path class="cls-9" d="m72.34,86.83h-3.66v3.41h4.09v1.02h-5.32v-9.44h5.1v1.02h-3.88v2.99h3.66v1.01Z"/>
      <path class="cls-9" d="m74.31,86.31c0-.71-.02-1.27-.06-1.83h1.09l.07,1.11h.03c.33-.64,1.12-1.27,2.24-1.27.93,0,2.39.56,2.39,2.89v4.04h-1.23v-3.91c0-1.1-.41-2.01-1.57-2.01-.81,0-1.44.57-1.66,1.26-.05.15-.08.37-.08.57v4.08h-1.23v-4.94Z"/>
      <path class="cls-9" d="m86.91,91.01c-.32.16-1.03.39-1.94.39-2.04,0-3.38-1.39-3.38-3.46s1.42-3.61,3.64-3.61c.73,0,1.38.18,1.71.36l-.27.95c-.3-.16-.76-.33-1.44-.33-1.55,0-2.39,1.16-2.39,2.57,0,1.57,1.01,2.54,2.36,2.54.69,0,1.16-.18,1.51-.33l.21.92Z"/>
      <path class="cls-9" d="m94.4,87.81c0,2.51-1.74,3.61-3.37,3.61-1.84,0-3.26-1.34-3.26-3.49,0-2.27,1.49-3.59,3.36-3.59s3.26,1.41,3.26,3.48Zm-5.37.08c0,1.49.85,2.6,2.05,2.6s2.06-1.1,2.06-2.64c0-1.15-.58-2.6-2.04-2.6s-2.08,1.35-2.08,2.63Z"/>
      <path class="cls-9" d="m101.82,81.31v8.2c0,.6.02,1.28.06,1.75h-1.1l-.06-1.17h-.03c-.38.76-1.19,1.33-2.3,1.33-1.64,0-2.91-1.39-2.91-3.44-.01-2.26,1.39-3.64,3.04-3.64,1.04,0,1.74.49,2.04,1.03h.03v-4.04h1.23Zm-1.23,5.93c0-.16-.01-.36-.05-.53-.19-.78-.86-1.42-1.78-1.42-1.28,0-2.04,1.12-2.04,2.61,0,1.38.68,2.52,2.01,2.52.82,0,1.57-.56,1.8-1.48.04-.16.06-.34.06-.53v-1.17Z"/>
      <path class="cls-9" d="m104.55,88.09c.02,1.67,1.08,2.35,2.32,2.35.88,0,1.42-.16,1.88-.35l.22.88c-.43.2-1.18.43-2.26.43-2.08,0-3.33-1.39-3.33-3.42s1.21-3.66,3.19-3.66c2.21,0,2.79,1.94,2.79,3.19,0,.26-.02.44-.04.58h-4.75Zm3.61-.89c.01-.78-.32-1.99-1.7-1.99-1.26,0-1.79,1.14-1.89,1.99h3.59Z"/>
      <path class="cls-9" d="m110.88,86.59c0-.8-.02-1.48-.06-2.11h1.08l.05,1.33h.04c.32-.91,1.06-1.48,1.89-1.48.13,0,.23,0,.34.03v1.16c-.13-.03-.25-.04-.42-.04-.87,0-1.48.65-1.65,1.58-.03.17-.05.38-.05.58v3.62h-1.23v-4.66Z"/>
    </g>
    <g>
      <path class="cls-9" d="m200.98,81.18c.75-.12,1.63-.2,2.59-.2,1.75,0,3,.41,3.82,1.19.84.76,1.34,1.86,1.34,3.38s-.48,2.8-1.36,3.67c-.89.88-2.35,1.36-4.18,1.36-.87,0-1.6-.03-2.22-.1v-9.29Zm1.22,8.35c.31.05.76.06,1.23.06,2.61,0,4.02-1.45,4.02-4,.01-2.23-1.25-3.64-3.82-3.64-.63,0-1.1.06-1.43.12v7.46Z"/>
      <path class="cls-9" d="m211.02,87.33c.02,1.67,1.08,2.35,2.32,2.35.88,0,1.42-.16,1.88-.35l.22.88c-.43.2-1.18.43-2.26.43-2.08,0-3.33-1.39-3.33-3.42s1.21-3.66,3.19-3.66c2.21,0,2.79,1.94,2.79,3.19,0,.26-.02.44-.04.58h-4.75Zm3.61-.89c.01-.78-.32-1.99-1.7-1.99-1.26,0-1.79,1.14-1.89,1.99h3.59Z"/>
      <path class="cls-9" d="m222.17,90.25c-.32.16-1.03.39-1.94.39-2.04,0-3.38-1.39-3.38-3.46s1.42-3.61,3.64-3.61c.73,0,1.38.18,1.71.36l-.27.95c-.3-.16-.76-.33-1.44-.33-1.55,0-2.39,1.16-2.39,2.57,0,1.57,1.01,2.54,2.36,2.54.69,0,1.16-.18,1.51-.33l.21.92Z"/>
      <path class="cls-9" d="m229.66,87.04c0,2.51-1.74,3.61-3.37,3.61-1.84,0-3.26-1.34-3.26-3.49,0-2.27,1.49-3.59,3.36-3.59s3.26,1.41,3.26,3.48Zm-5.37.08c0,1.49.85,2.6,2.05,2.6s2.06-1.1,2.06-2.64c0-1.15-.58-2.6-2.04-2.6s-2.08,1.35-2.08,2.63Z"/>
      <path class="cls-9" d="m237.08,80.55v8.2c0,.6.02,1.28.06,1.75h-1.09l-.06-1.17h-.03c-.38.76-1.19,1.33-2.3,1.33-1.64,0-2.91-1.39-2.91-3.44-.01-2.26,1.39-3.64,3.04-3.64,1.04,0,1.74.49,2.04,1.03h.03v-4.04h1.22Zm-1.22,5.93c0-.16-.01-.36-.05-.53-.19-.78-.86-1.42-1.78-1.42-1.28,0-2.04,1.12-2.04,2.61,0,1.38.68,2.52,2.01,2.52.83,0,1.57-.56,1.8-1.48.04-.16.06-.34.06-.53v-1.17Z"/>
      <path class="cls-9" d="m239.81,87.33c.02,1.67,1.08,2.35,2.32,2.35.88,0,1.42-.16,1.88-.35l.22.88c-.43.2-1.18.43-2.26.43-2.08,0-3.33-1.39-3.33-3.42s1.21-3.66,3.19-3.66c2.21,0,2.79,1.94,2.79,3.19,0,.26-.01.44-.04.58h-4.75Zm3.61-.89c.01-.78-.32-1.99-1.7-1.99-1.26,0-1.79,1.14-1.89,1.99h3.59Z"/>
      <path class="cls-9" d="m246.14,85.83c0-.8-.02-1.48-.06-2.11h1.08l.05,1.33h.04c.32-.91,1.06-1.48,1.89-1.48.13,0,.23,0,.34.03v1.16c-.13-.03-.25-.04-.42-.04-.87,0-1.48.65-1.65,1.58-.03.17-.05.38-.05.58v3.62h-1.23v-4.66Z"/>
    </g>
    <g>
      <path class="cls-9" d="m413.83,79.59c.65,0,1.26.29,1.82.88.28.28.55.66.83,1.11.27.46.5.92.7,1.4.42,1.09.63,2.12.63,3.1s-.21,2.01-.63,3.11c-.19.48-.42.95-.7,1.4-.27.45-.55.82-.83,1.1-.57.59-1.18.89-1.82.89s-1.24-.3-1.82-.89c-.27-.28-.55-.65-.82-1.1-.28-.45-.51-.92-.69-1.4-.43-1.1-.64-2.14-.64-3.11s.21-2.01.64-3.1c.19-.48.42-.94.69-1.4.28-.46.55-.83.82-1.11.57-.59,1.18-.88,1.82-.88Zm0,.22c-.25,0-.49.09-.73.28-.24.19-.45.45-.63.78-.14.25-.28.6-.43,1.03-.14.43-.26.85-.35,1.28-.2.97-.3,1.94-.3,2.9s.1,1.93.3,2.9c.09.43.21.86.35,1.29.14.43.28.76.43,1.01.19.35.41.61.64.79.24.18.49.27.75.27.23,0,.46-.09.7-.28.24-.19.45-.45.64-.78.14-.25.28-.58.42-1.01.15-.43.26-.86.35-1.29.2-.98.31-1.94.31-2.9s-.1-1.93-.31-2.9c-.09-.42-.2-.85-.35-1.28-.14-.43-.29-.77-.42-1.03-.19-.33-.4-.6-.63-.78-.24-.19-.48-.28-.74-.28Z"/>
      <path class="cls-9" d="m417.89,94.7l5.71-15.52h.59l-5.71,15.52h-.58Z"/>
      <path class="cls-9" d="m429.29,79.75h.21v10.17c0,.48.04.86.12,1.16.08.3.21.52.38.67.3.25.77.41,1.42.46v.19h-5.36v-.19c.41-.03.72-.08.93-.15.21-.07.39-.19.55-.37.16-.17.27-.38.33-.62.06-.24.09-.61.09-1.1v-8.85c-.33.04-.58.06-.75.06-.45,0-.82-.04-1.1-.11v-.17h.21c.48,0,.93-.08,1.36-.24.43-.16.89-.41,1.4-.77l.21-.15Z"/>
    </g>
    <g>
      <path class="cls-9" d="m321.54,82.12c.64-.1,1.4-.17,2.22-.17,1.5,0,2.57.35,3.27,1.02.72.65,1.14,1.59,1.14,2.89s-.41,2.4-1.16,3.14c-.76.75-2.01,1.17-3.58,1.17-.75,0-1.37-.03-1.9-.09v-7.95Zm1.05,7.15c.26.04.65.05,1.05.05,2.24,0,3.44-1.24,3.44-3.43.01-1.91-1.07-3.11-3.27-3.11-.54,0-.95.05-1.22.11v6.39Z"/>
      <path class="cls-9" d="m330.7,82.65c0,.36-.25.66-.67.66-.38,0-.64-.3-.64-.66s.27-.66.66-.66.65.29.65.66Zm-1.18,7.44v-5.8h1.05v5.8h-1.05Z"/>
      <path class="cls-9" d="m332.18,89.02c.32.2.87.41,1.4.41.77,0,1.13-.38,1.13-.86s-.31-.77-1.08-1.06c-1.05-.38-1.54-.95-1.54-1.65,0-.93.76-1.7,2.01-1.7.59,0,1.1.16,1.42.36l-.26.77c-.22-.14-.65-.34-1.19-.34-.62,0-.96.36-.96.8,0,.48.34.69,1.1.99,1,.37,1.52.88,1.52,1.74,0,1.03-.8,1.75-2.17,1.75-.63,0-1.22-.16-1.63-.4l.26-.8Z"/>
      <path class="cls-9" d="m341.22,89.88c-.28.14-.88.34-1.66.34-1.75,0-2.89-1.19-2.89-2.96s1.22-3.09,3.12-3.09c.62,0,1.18.16,1.47.31l-.23.81c-.26-.14-.65-.28-1.23-.28-1.32,0-2.05.99-2.05,2.2,0,1.34.86,2.17,2.02,2.17.59,0,.99-.15,1.29-.28l.18.79Z"/>
      <path class="cls-9" d="m342.46,86.1c0-.69-.02-1.27-.05-1.81h.92l.04,1.14h.04c.27-.78.91-1.27,1.62-1.27.11,0,.2,0,.29.03v.99c-.11-.02-.21-.03-.36-.03-.74,0-1.27.56-1.41,1.35-.03.15-.04.32-.04.49v3.1h-1.05v-3.99Z"/>
      <path class="cls-9" d="m347.61,82.65c0,.36-.25.66-.67.66-.38,0-.64-.3-.64-.66,0-.36.27-.66.66-.66s.65.29.65.66Zm-1.18,7.44v-5.8h1.05v5.8h-1.05Z"/>
      <path class="cls-9" d="m349.24,85.86c0-.61-.02-1.09-.05-1.57h.92l.06.93h.03c.32-.55.86-1.07,1.83-1.07.79,0,1.39.48,1.63,1.16h.02c.19-.33.41-.58.65-.76.35-.26.73-.41,1.28-.41.77,0,1.92.5,1.92,2.52v3.42h-1.03v-3.28c0-1.12-.41-1.79-1.26-1.79-.6,0-1.07.44-1.25.95-.05.15-.09.34-.09.53v3.59h-1.03v-3.48c0-.92-.41-1.59-1.21-1.59-.66,0-1.14.52-1.31,1.05-.05.15-.08.34-.08.52v3.5h-1.03v-4.23Z"/>
      <path class="cls-9" d="m360.43,82.65c0,.36-.25.66-.67.66-.38,0-.64-.3-.64-.66s.27-.66.66-.66.65.29.65.66Zm-1.18,7.44v-5.8h1.05v5.8h-1.05Z"/>
      <path class="cls-9" d="m362.06,85.86c0-.61-.02-1.09-.05-1.57h.93l.06.95h.03c.29-.54.96-1.09,1.92-1.09.8,0,2.04.48,2.04,2.47v3.46h-1.05v-3.34c0-.94-.35-1.72-1.34-1.72-.69,0-1.23.49-1.42,1.08-.04.13-.07.32-.07.49v3.5h-1.05v-4.23Z"/>
      <path class="cls-9" d="m371.93,90.09l-.09-.73h-.03c-.32.45-.94.86-1.77.86-1.17,0-1.77-.83-1.77-1.66,0-1.41,1.25-2.18,3.49-2.16v-.12c0-.47-.13-1.34-1.32-1.34-.54,0-1.1.16-1.51.43l-.24-.7c.48-.31,1.18-.51,1.92-.51,1.77,0,2.21,1.21,2.21,2.37v2.17c0,.5.02.99.09,1.39h-.95Zm-.16-2.96c-1.14-.02-2.45.18-2.45,1.3,0,.69.46,1.01.99,1.01.76,0,1.25-.48,1.41-.97.04-.11.05-.23.05-.33v-1.01Z"/>
      <path class="cls-9" d="m375.72,82.62v1.67h1.52v.8h-1.52v3.13c0,.72.21,1.13.8,1.13.27,0,.47-.03.61-.08l.05.8c-.21.08-.53.15-.94.15-.49,0-.89-.16-1.14-.45-.29-.32-.41-.83-.41-1.51v-3.17h-.9v-.8h.9v-1.4l1.03-.27Z"/>
      <path class="cls-9" d="m383.6,87.13c0,2.15-1.49,3.09-2.88,3.09-1.57,0-2.79-1.15-2.79-2.99,0-1.94,1.28-3.08,2.88-3.08s2.79,1.21,2.79,2.98Zm-4.6.07c0,1.27.73,2.23,1.76,2.23s1.77-.95,1.77-2.26c0-.98-.49-2.22-1.75-2.22s-1.78,1.15-1.78,2.25Z"/>
      <path class="cls-9" d="m384.94,86.1c0-.69-.02-1.27-.05-1.81h.92l.04,1.14h.04c.27-.78.91-1.27,1.62-1.27.11,0,.2,0,.29.03v.99c-.11-.02-.21-.03-.36-.03-.74,0-1.27.56-1.41,1.35-.03.15-.04.32-.04.49v3.1h-1.05v-3.99Z"/>
    </g>
    <g>
      <path class="cls-9" d="m30.42,14.94l-.86,3.12h-2.84l3.7-12.14h3.59l3.78,12.14h-2.96l-.93-3.12h-3.49Zm3.08-2.04l-.76-2.58c-.21-.72-.42-1.63-.61-2.34h-.04c-.18.71-.36,1.64-.56,2.34l-.73,2.58h2.69Z"/>
      <path class="cls-9" d="m46.63,12.92h-4.47v2.89h4.99v2.25h-7.74V5.92h7.48v2.25h-4.73v2.53h4.47v2.23Z"/>
    </g>
    <g>
      <path class="cls-9" d="m167.86,25.79c-.85.29-2.45.68-4.05.68-2.22,0-3.82-.56-4.93-1.63-1.11-1.06-1.72-2.63-1.72-4.42.01-4.04,2.96-6.33,6.93-6.33,1.57,0,2.77.3,3.37.58l-.57,2.2c-.67-.29-1.49-.52-2.82-.52-2.29,0-4.03,1.29-4.03,3.93s1.58,3.97,3.83,3.97c.62,0,1.12-.07,1.34-.17v-2.55h-1.88v-2.14h4.53v6.39Z"/>
      <path class="cls-9" d="m172.82,23.23l-.86,3.12h-2.84l3.7-12.14h3.59l3.78,12.14h-2.96l-.93-3.12h-3.49Zm3.08-2.04l-.76-2.58c-.21-.72-.42-1.63-.61-2.34h-.04c-.18.71-.36,1.64-.56,2.34l-.73,2.58h2.68Z"/>
      <path class="cls-9" d="m181.81,26.35v-12.14h3.2l2.52,4.45c.73,1.27,1.44,2.79,1.98,4.16h.05c-.17-1.61-.22-3.24-.22-5.08v-3.54h2.52v12.14h-2.87l-2.6-4.67c-.72-1.31-1.52-2.86-2.11-4.29h-.06c.08,1.61.12,3.33.12,5.31v3.65h-2.52Z"/>
    </g>
  </g>
</svg>